<svg width="63" height="64" viewBox="0 0 63 64" fill="none" xmlns="http://www.w3.org/2000/svg">
<path d="M0 10.5C0 4.97715 4.47715 0.5 10 0.5H53C58.5228 0.5 63 4.97715 63 10.5V53.5C63 59.0228 58.5228 63.5 53 63.5H10C4.47715 63.5 0 59.0228 0 53.5V10.5Z" fill="#1F1E50"/>
<path d="M40.1535 39.2005H26.4606C24.8763 39.2005 24.0842 39.2005 23.4482 38.9082C22.8877 38.6508 22.4136 38.2368 22.0829 37.7162C21.7076 37.1254 21.6009 36.3404 21.3873 34.7706L19.7042 22.4001H46.0436C46.5744 22.4001 46.8398 22.4001 47.0265 22.509C47.1903 22.6044 47.3149 22.755 47.378 22.9337C47.45 23.1375 47.4004 23.3982 47.301 23.9197L45.1832 35.0384C44.901 36.5199 44.7599 37.2606 44.3781 37.8152C44.0414 38.3042 43.5753 38.6899 43.0319 38.9291C42.4157 39.2005 41.6616 39.2005 40.1535 39.2005Z" fill="white"/>
<path d="M26.7901 48.0006C27.6737 48.0006 28.3901 47.2843 28.3901 46.4006C28.3901 45.5169 27.6737 44.8006 26.7901 44.8006C25.9064 44.8006 25.19 45.5169 25.19 46.4006C25.19 47.2843 25.9064 48.0006 26.7901 48.0006Z" fill="white"/>
<path d="M39.5903 48.0006C40.474 48.0006 41.1903 47.2843 41.1903 46.4006C41.1903 45.5169 40.474 44.8006 39.5903 44.8006C38.7066 44.8006 37.9903 45.5169 37.9903 46.4006C37.9903 47.2843 38.7066 48.0006 39.5903 48.0006Z" fill="white"/>
<path d="M15.5898 16H17.6797C18.0734 16 18.2702 16 18.4286 16.0724C18.5682 16.1362 18.6865 16.2388 18.7693 16.3679C18.8634 16.5145 18.8912 16.7093 18.9469 17.099L19.7042 22.4001M19.7042 22.4001L21.3873 34.7706C21.6009 36.3404 21.7076 37.1254 22.0829 37.7162C22.4136 38.2368 22.8877 38.6508 23.4482 38.9082C24.0842 39.2005 24.8763 39.2005 26.4606 39.2005H40.1535C41.6616 39.2005 42.4157 39.2005 43.0319 38.9291C43.5753 38.6899 44.0414 38.3042 44.3781 37.8152C44.7599 37.2606 44.901 36.5199 45.1832 35.0384L47.301 23.9197C47.4004 23.3982 47.45 23.1375 47.378 22.9337C47.3149 22.755 47.1903 22.6044 47.0265 22.509C46.8398 22.4001 46.5744 22.4001 46.0436 22.4001H19.7042ZM28.3901 46.4006C28.3901 47.2843 27.6737 48.0006 26.7901 48.0006C25.9064 48.0006 25.19 47.2843 25.19 46.4006C25.19 45.5169 25.9064 44.8006 26.7901 44.8006C27.6737 44.8006 28.3901 45.5169 28.3901 46.4006ZM41.1903 46.4006C41.1903 47.2843 40.474 48.0006 39.5903 48.0006C38.7066 48.0006 37.9903 47.2843 37.9903 46.4006C37.9903 45.5169 38.7066 44.8006 39.5903 44.8006C40.474 44.8006 41.1903 45.5169 41.1903 46.4006Z" stroke="white" stroke-width="3.20006" stroke-linecap="round" stroke-linejoin="round"/>
<path d="M42.1241 27.1333L33.2062 36.0513C32.7574 36.5001 32.5329 36.7245 32.2742 36.8086C32.0465 36.8825 31.8013 36.8825 31.5737 36.8086C31.3149 36.7245 31.0905 36.5001 30.6417 36.0513L27.5394 32.949C27.0906 32.5001 26.8662 32.2757 26.6074 32.1916C26.3798 32.1177 26.1346 32.1177 25.9069 32.1916C25.6482 32.2757 25.4237 32.5001 24.9749 32.949L19.457 38.4669M42.1241 27.1333H34.1907M42.1241 27.1333V35.0668" stroke="#1F1E50" stroke-width="2.26671" stroke-linecap="round" stroke-linejoin="round"/>
</svg>
