<svg width="208" height="120" viewBox="0 0 208 120" fill="none" xmlns="http://www.w3.org/2000/svg">
<path d="M60.0986 50.0474L56.8242 67.2388H33.9277L31.4717 50.0474H60.0986Z" fill="#EAEAEA" stroke="#EAEAEA" stroke-width="1.80965"/>
<path d="M52.7817 68.1434H37.2949C35.5031 68.1434 34.6072 68.1434 33.8878 67.8129C33.254 67.5217 32.7177 67.0535 32.3437 66.4647C31.9193 65.7965 31.7985 64.9087 31.5569 63.1332L29.6534 49.1421H59.4434C60.0438 49.1421 60.344 49.1421 60.5551 49.2652C60.7404 49.3732 60.8813 49.5434 60.9527 49.7456C61.0341 49.9761 60.9779 50.271 60.8656 50.8607L58.4703 63.4361C58.1511 65.1117 57.9916 65.9494 57.5597 66.5767C57.1789 67.1297 56.6517 67.5659 56.0372 67.8365C55.3402 68.1434 54.4874 68.1434 52.7817 68.1434Z" fill="#EAEAEA"/>
<path d="M37.6675 78.0965C38.667 78.0965 39.4772 77.2863 39.4772 76.2868C39.4772 75.2874 38.667 74.4772 37.6675 74.4772C36.6681 74.4772 35.8579 75.2874 35.8579 76.2868C35.8579 77.2863 36.6681 78.0965 37.6675 78.0965Z" fill="#EAEAEA"/>
<path d="M52.1447 78.0965C53.1442 78.0965 53.9544 77.2863 53.9544 76.2868C53.9544 75.2874 53.1442 74.4772 52.1447 74.4772C51.1453 74.4772 50.3351 75.2874 50.3351 76.2868C50.3351 77.2863 51.1453 78.0965 52.1447 78.0965Z" fill="#EAEAEA"/>
<path d="M25 41.9035H27.3637C27.8089 41.9035 28.0315 41.9035 28.2106 41.9854C28.3685 42.0575 28.5023 42.1736 28.596 42.3197C28.7024 42.4854 28.7339 42.7058 28.7969 43.1465L29.6534 49.1421M29.6534 49.1421L31.5569 63.1332C31.7985 64.9087 31.9193 65.7965 32.3437 66.4647C32.7177 67.0535 33.254 67.5217 33.8878 67.8129C34.6072 68.1434 35.5031 68.1434 37.2949 68.1434H52.7817C54.4874 68.1434 55.3402 68.1434 56.0372 67.8365C56.6517 67.5659 57.1789 67.1297 57.5597 66.5767C57.9916 65.9494 58.1511 65.1117 58.4703 63.4361L60.8656 50.8607C60.9779 50.271 61.0341 49.9761 60.9527 49.7456C60.8813 49.5434 60.7404 49.3732 60.5551 49.2652C60.344 49.1421 60.0438 49.1421 59.4434 49.1421H29.6534ZM39.4772 76.2868C39.4772 77.2863 38.667 78.0965 37.6675 78.0965C36.6681 78.0965 35.8579 77.2863 35.8579 76.2868C35.8579 75.2874 36.6681 74.4772 37.6675 74.4772C38.667 74.4772 39.4772 75.2874 39.4772 76.2868ZM53.9544 76.2868C53.9544 77.2863 53.1442 78.0965 52.1447 78.0965C51.1453 78.0965 50.3351 77.2863 50.3351 76.2868C50.3351 75.2874 51.1453 74.4772 52.1447 74.4772C53.1442 74.4772 53.9544 75.2874 53.9544 76.2868Z" stroke="#EAEAEA" stroke-width="3.6193" stroke-linecap="round" stroke-linejoin="round"/>
<path d="M55.0097 54.4957L44.9234 64.5819C44.4158 65.0896 44.162 65.3434 43.8693 65.4385C43.6119 65.5221 43.3346 65.5221 43.0771 65.4385C42.7844 65.3434 42.5306 65.0896 42.023 64.5819L38.5143 61.0732C38.0067 60.5656 37.7528 60.3118 37.4602 60.2167C37.2027 60.133 36.9254 60.133 36.6679 60.2167C36.3753 60.3118 36.1214 60.5656 35.6138 61.0732L29.373 67.314M55.0097 54.4957H46.0369M55.0097 54.4957V63.4685" stroke="#302D6E" stroke-width="2.56367" stroke-linecap="round" stroke-linejoin="round"/>
<path d="M73.477 61.7567C73.477 60.1021 73.802 58.6347 74.452 57.3544C75.1217 56.074 76.0179 55.0892 77.1407 54.3998C78.2831 53.7104 79.5536 53.3657 80.9521 53.3657C82.1733 53.3657 83.237 53.6119 84.1431 54.1043C85.0689 54.5967 85.8075 55.2172 86.359 55.9657V53.6316H90.525V70.0001H86.359V67.6068C85.8272 68.375 85.0886 69.0152 84.1431 69.5273C83.2173 70.0198 82.1438 70.266 80.9226 70.266C79.5438 70.266 78.2831 69.9114 77.1407 69.2023C76.0179 68.4932 75.1217 67.4985 74.452 66.2182C73.802 64.9181 73.477 63.431 73.477 61.7567ZM86.359 61.8158C86.359 60.8112 86.1621 59.9544 85.7681 59.2453C85.3742 58.5165 84.8423 57.965 84.1726 57.5907C83.5029 57.1968 82.784 56.9998 82.0158 56.9998C81.2476 56.9998 80.5385 57.1869 79.8885 57.5612C79.2384 57.9354 78.7066 58.487 78.293 59.2158C77.899 59.9249 77.7021 60.7719 77.7021 61.7567C77.7021 62.7416 77.899 63.6083 78.293 64.3568C78.7066 65.0856 79.2384 65.6469 79.8885 66.0409C80.5582 66.4348 81.2673 66.6318 82.0158 66.6318C82.784 66.6318 83.5029 66.4447 84.1726 66.0704C84.8423 65.6765 85.3742 65.125 85.7681 64.4159C86.1621 63.6871 86.359 62.8204 86.359 61.8158ZM98.7014 48.136V70.0001H94.565V48.136H98.7014ZM106.925 48.136V70.0001H102.788V48.136H106.925ZM113.375 57.4135C113.887 56.3301 114.695 55.4339 115.798 54.7248C116.921 53.996 118.25 53.6316 119.787 53.6316C121.244 53.6316 122.554 53.9763 123.716 54.6657C124.898 55.3354 125.814 56.3006 126.464 57.5612C127.134 58.8021 127.469 60.2499 127.469 61.9045C127.469 63.559 127.134 65.0166 126.464 66.2773C125.814 67.5379 124.898 68.5129 123.716 69.2023C122.554 69.8917 121.244 70.2364 119.787 70.2364C118.27 70.2364 116.95 69.8819 115.827 69.1728C114.705 68.444 113.887 67.5379 113.375 66.4545V77.6229H111.336V53.8679H113.375V57.4135ZM125.371 61.9045C125.371 60.565 125.105 59.4127 124.573 58.4476C124.061 57.4627 123.352 56.7142 122.446 56.2021C121.54 55.6899 120.515 55.4339 119.373 55.4339C118.27 55.4339 117.256 55.6998 116.33 56.2316C115.424 56.7634 114.705 57.5218 114.173 58.5067C113.641 59.4915 113.375 60.634 113.375 61.934C113.375 63.234 113.641 64.3765 114.173 65.3613C114.705 66.3462 115.424 67.1046 116.33 67.6364C117.256 68.1682 118.27 68.4341 119.373 68.4341C120.515 68.4341 121.54 68.1781 122.446 67.6659C123.352 67.1341 124.061 66.3757 124.573 65.3909C125.105 64.3863 125.371 63.2242 125.371 61.9045ZM133.343 56.7339C133.796 55.7293 134.485 54.9513 135.411 54.3998C136.356 53.8482 137.508 53.5725 138.868 53.5725V55.7293H138.306C136.809 55.7293 135.608 56.1331 134.702 56.9407C133.796 57.7483 133.343 59.0976 133.343 60.9885V70.0001H131.274V53.8679H133.343V56.7339ZM143.013 50.8247C142.599 50.8247 142.245 50.677 141.949 50.3815C141.654 50.086 141.506 49.7216 141.506 49.2883C141.506 48.855 141.654 48.5004 141.949 48.2246C142.245 47.9292 142.599 47.7815 143.013 47.7815C143.427 47.7815 143.781 47.9292 144.077 48.2246C144.372 48.5004 144.52 48.855 144.52 49.2883C144.52 49.7216 144.372 50.086 144.077 50.3815C143.781 50.677 143.427 50.8247 143.013 50.8247ZM144.047 53.8679V70.0001H141.979V53.8679H144.047ZM147.785 61.934C147.785 60.2597 148.12 58.8021 148.79 57.5612C149.459 56.3006 150.385 55.3354 151.567 54.6657C152.749 53.9763 154.098 53.6316 155.615 53.6316C157.604 53.6316 159.239 54.124 160.52 55.1089C161.82 56.0937 162.657 57.4332 163.031 59.1271H160.815C160.539 57.965 159.938 57.0589 159.013 56.4089C158.107 55.7392 156.974 55.4043 155.615 55.4043C154.532 55.4043 153.557 55.6505 152.69 56.143C151.823 56.6354 151.134 57.3741 150.622 58.3589C150.129 59.3241 149.883 60.5158 149.883 61.934C149.883 63.3522 150.129 64.5537 150.622 65.5386C151.134 66.5235 151.823 67.2621 152.69 67.7546C153.557 68.247 154.532 68.4932 155.615 68.4932C156.974 68.4932 158.107 68.1682 159.013 67.5182C159.938 66.8485 160.539 65.9227 160.815 64.7409H163.031C162.657 66.3954 161.82 67.725 160.52 68.7296C159.22 69.7341 157.585 70.2364 155.615 70.2364C154.098 70.2364 152.749 69.9016 151.567 69.2319C150.385 68.5425 149.459 67.5773 148.79 66.3364C148.12 65.0757 147.785 63.6083 147.785 61.934ZM181.446 61.1067C181.446 61.8158 181.427 62.3575 181.387 62.7317H168.003C168.062 63.953 168.358 64.9969 168.889 65.8636C169.421 66.7303 170.12 67.3902 170.987 67.8432C171.854 68.2765 172.799 68.4932 173.824 68.4932C175.163 68.4932 176.286 68.1682 177.192 67.5182C178.118 66.8682 178.728 65.9917 179.024 64.8886H181.21C180.816 66.4644 179.969 67.7546 178.669 68.7591C177.389 69.744 175.774 70.2364 173.824 70.2364C172.307 70.2364 170.948 69.9016 169.746 69.2319C168.545 68.5425 167.599 67.5773 166.91 66.3364C166.24 65.0757 165.905 63.6083 165.905 61.934C165.905 60.2597 166.24 58.7923 166.91 57.5316C167.579 56.271 168.515 55.3058 169.717 54.6361C170.918 53.9664 172.287 53.6316 173.824 53.6316C175.36 53.6316 176.699 53.9664 177.842 54.6361C179.004 55.3058 179.89 56.2119 180.501 57.3544C181.131 58.4771 181.446 59.7279 181.446 61.1067ZM179.349 61.0476C179.368 59.8461 179.122 58.8218 178.61 57.9748C178.118 57.1278 177.438 56.4877 176.571 56.0543C175.705 55.621 174.759 55.4043 173.735 55.4043C172.199 55.4043 170.889 55.8968 169.805 56.8816C168.722 57.8665 168.121 59.2552 168.003 61.0476H179.349Z" fill="white"/>
</svg>
