<svg width="208" height="120" viewBox="0 0 208 120" fill="none" xmlns="http://www.w3.org/2000/svg">
<path d="M31.6113 62.9541C31.8874 62.9541 32.1525 63.0636 32.3477 63.2588L37.5918 68.5039C37.787 68.6991 37.8975 68.9642 37.8975 69.2402V74.2734C37.8973 74.8481 37.4311 75.3134 36.8564 75.3135H35.0352C34.4604 75.3135 33.9943 74.8481 33.9941 74.2734V66.6992C33.994 66.3205 33.7709 65.9771 33.4248 65.8232C33.0624 65.6622 32.6379 65.7411 32.3574 66.0215L29.041 69.3379C28.6208 69.758 27.9349 69.7414 27.5352 69.3018L26.3545 68.0039C25.9728 67.584 25.9983 66.9352 26.4111 66.5459L29.9199 63.2373C30.113 63.0553 30.3685 62.9542 30.6338 62.9541H31.6113ZM52.3379 60.6123C52.9127 60.6123 53.3789 61.0785 53.3789 61.6533V63.4746C53.3789 64.0494 52.9127 64.5156 52.3379 64.5156H44.7646C44.3858 64.5156 44.0425 64.7388 43.8887 65.085C43.7276 65.4474 43.8064 65.8719 44.0869 66.1523L47.4033 69.4688C47.8231 69.889 47.8068 70.575 47.3672 70.9746L46.0684 72.1543C45.6485 72.536 45.0006 72.5115 44.6113 72.0986L41.3027 68.5889C41.1207 68.3957 41.0186 68.1404 41.0186 67.875V66.8984C41.0186 66.6224 41.129 66.3573 41.3242 66.1621L46.5693 60.917C46.7645 60.7221 47.0289 60.6124 47.3047 60.6123H52.3379ZM30.3105 48.6152C30.7304 48.2338 31.3783 48.2583 31.7676 48.6709L35.0762 52.1807C35.2583 52.3738 35.3603 52.6291 35.3604 52.8945V53.8721C35.3602 54.148 35.2498 54.4123 35.0547 54.6074L29.8105 59.8525C29.6154 60.0477 29.3502 60.1572 29.0742 60.1572H24.041C23.4662 60.1572 23 59.691 23 59.1162V57.2949C23.0001 56.7202 23.4663 56.2539 24.041 56.2539H31.6143C31.9929 56.2539 32.3363 56.0315 32.4902 55.6855C32.6513 55.3231 32.5725 54.8986 32.292 54.6182L28.9756 51.3018C28.5556 50.8816 28.5723 50.1956 29.0117 49.7959L30.3105 48.6152ZM41.0186 45C41.5934 45 42.0596 45.4662 42.0596 46.041V53.6143C42.0596 53.9931 42.2827 54.3364 42.6289 54.4902C42.9914 54.6513 43.4158 54.5725 43.6963 54.292L47.0117 50.9766C47.4319 50.5563 48.1188 50.572 48.5186 51.0117L49.6982 52.3105C50.0799 52.7304 50.0554 53.3783 49.6426 53.7676L46.1328 57.0762C45.9397 57.2582 45.6844 57.3604 45.4189 57.3604H44.4424C44.1663 57.3604 43.9012 57.2499 43.7061 57.0547L38.4609 51.8105C38.2658 51.6154 38.1563 51.3502 38.1562 51.0742V46.041C38.1562 45.4662 38.6224 45 39.1973 45H41.0186Z" fill="white"/>
<path d="M72.9911 73.0208C71.5837 73.0208 70.3704 72.7418 69.3512 72.1837C68.3321 71.6013 67.5071 70.8612 66.8762 69.9634L67.2401 68.9079V72.6569H63.5639V44.3755H67.2401V60.7911L67.1309 59.4443C67.7376 58.6678 68.5869 58.0369 69.6788 57.5516C70.795 57.0663 72.0568 56.8237 73.4642 56.8237C74.8231 56.8237 76.0606 57.1513 77.1768 57.8064C78.293 58.4373 79.1909 59.3473 79.8703 60.5363C80.5497 61.7253 80.8894 63.1448 80.8894 64.7949C80.8894 66.5177 80.5133 67.9979 79.7611 69.2354C79.0331 70.4487 78.0747 71.3829 76.8857 72.0381C75.6966 72.6933 74.3984 73.0208 72.9911 73.0208ZM72.1903 69.927C73.1366 69.927 73.9859 69.7086 74.7382 69.2718C75.4904 68.8108 76.0728 68.192 76.4853 67.4155C76.922 66.639 77.1404 65.7655 77.1404 64.7949C77.1404 63.8242 76.922 62.9628 76.4853 62.2106C76.0485 61.4584 75.454 60.8639 74.7018 60.4271C73.9738 59.966 73.1366 59.7355 72.1903 59.7355C70.977 59.7355 69.9215 60.051 69.0237 60.6819C68.1258 61.3128 67.5313 62.1499 67.2401 63.1933V66.3964C67.5556 67.4155 68.138 68.2648 68.9873 68.9442C69.8608 69.5994 70.9285 69.927 72.1903 69.927ZM90.2313 73.0208C88.7996 73.0208 87.5014 72.7175 86.3367 72.1109C85.1719 71.5043 84.2498 70.6186 83.5704 69.4538C82.891 68.2648 82.5512 66.7968 82.5512 65.0496C82.5512 63.3511 82.9031 61.8951 83.6068 60.6819C84.3348 59.4443 85.2811 58.498 86.4459 57.8428C87.6349 57.1634 88.9209 56.8237 90.3041 56.8237C91.76 56.8237 92.9611 57.127 93.9075 57.7336C94.8538 58.3403 95.5818 59.0682 96.0914 59.9175L95.873 60.4999L96.237 57.4424H99.622V72.6569H95.9458V68.7987L96.3097 69.7086C96.2127 69.9027 96.0064 70.1818 95.691 70.5458C95.3755 70.9097 94.963 71.2859 94.4534 71.6741C93.9439 72.0381 93.3251 72.3535 92.5971 72.6205C91.8934 72.8874 91.1048 73.0208 90.2313 73.0208ZM91.214 69.9998C92.4273 69.9998 93.4464 69.6843 94.2715 69.0534C95.1207 68.3983 95.6788 67.5126 95.9458 66.3964V63.2661C95.6546 62.2713 95.0601 61.4462 94.1623 60.7911C93.2887 60.1359 92.2696 59.8083 91.1048 59.8083C90.2313 59.8083 89.4305 60.0267 88.7025 60.4635C87.9746 60.876 87.3922 61.4705 86.9554 62.247C86.5186 62.9992 86.3003 63.8728 86.3003 64.8677C86.3003 65.8383 86.5186 66.7118 86.9554 67.4883C87.4165 68.2648 88.0231 68.8836 88.7753 69.3446C89.5276 69.7814 90.3405 69.9998 91.214 69.9998ZM107.223 57.4424L107.55 60.9731L107.405 60.4635C107.89 59.3715 108.666 58.498 109.734 57.8428C110.826 57.1876 112.1 56.8601 113.556 56.8601C114.988 56.8601 116.164 57.2847 117.087 58.134C118.009 58.959 118.482 60.051 118.506 61.4098V72.6569H114.83V62.6838C114.806 61.9073 114.575 61.2764 114.138 60.7911C113.702 60.2815 113.022 60.0146 112.1 59.9903C110.814 59.9903 109.734 60.5241 108.861 61.5918C108.011 62.6595 107.587 64.0305 107.587 65.7048V72.6569H103.91V57.4424H107.223ZM122.822 72.6569V44.3755H126.498V72.6569H122.822ZM130.211 62.5018L137.199 72.6569H132.904L127.772 64.5765L130.211 62.5018ZM125.37 67.9251L125.006 64.3945L134.251 57.1149L136.471 59.0804L125.37 67.9251ZM143.09 57.4424L143.418 60.7547L143.236 60.4635C143.794 59.323 144.583 58.4373 145.602 57.8064C146.645 57.1513 147.834 56.8237 149.169 56.8237C150.431 56.8237 151.486 57.1149 152.336 57.6972C153.185 58.2796 153.707 59.1046 153.901 60.1723L153.719 60.3179C154.325 59.2259 155.138 58.3767 156.157 57.77C157.177 57.1391 158.244 56.8237 159.36 56.8237C160.865 56.8237 162.054 57.2483 162.927 58.0976C163.801 58.9226 164.25 60.0146 164.274 61.3734V72.6569H160.634V62.7566C160.61 61.9801 160.428 61.337 160.088 60.8275C159.773 60.3179 159.191 60.0388 158.341 59.9903C157.468 59.9903 156.691 60.2572 156.012 60.7911C155.357 61.3249 154.835 62.0165 154.447 62.8658C154.083 63.715 153.889 64.625 153.864 65.5956V72.6569H150.188V62.7566C150.164 61.9801 149.97 61.337 149.606 60.8275C149.266 60.3179 148.672 60.0388 147.822 59.9903C146.973 59.9903 146.209 60.2572 145.529 60.7911C144.874 61.3249 144.364 62.0286 144 62.9022C143.636 63.7514 143.454 64.6614 143.454 65.632V72.6569H139.778V57.4424H143.09ZM169.81 79.9729L179.82 57.4424H183.205L173.377 79.9729H169.81ZM173.596 72.7661L166.28 57.4424H170.393L176.471 70.9097L173.596 72.7661Z" fill="white"/>
</svg>
