<svg width="208" height="120" viewBox="0 0 208 120" fill="none" xmlns="http://www.w3.org/2000/svg">
<path d="M60.6408 59.7138C60.6408 57.9044 61.0576 56.2813 61.8914 54.8444C62.7428 53.4076 63.887 52.29 65.3238 51.4918C66.7784 50.6758 68.3661 50.2678 70.0868 50.2678C72.0558 50.2678 73.8031 50.7556 75.3286 51.7312C76.8719 52.6891 77.9895 54.055 78.6813 55.8289H75.0359C74.557 54.8533 73.8918 54.126 73.0403 53.6471C72.1888 53.1681 71.2043 52.9286 70.0868 52.9286C68.8628 52.9286 67.7718 53.2036 66.8139 53.7535C65.856 54.3034 65.1021 55.0928 64.5522 56.1216C64.02 57.1505 63.7539 58.3479 63.7539 59.7138C63.7539 61.0797 64.02 62.2771 64.5522 63.3059C65.1021 64.3348 65.856 65.133 66.8139 65.7007C67.7718 66.2506 68.8628 66.5255 70.0868 66.5255C71.2043 66.5255 72.1888 66.2861 73.0403 65.8071C73.8918 65.3282 74.557 64.6009 75.0359 63.6252H78.6813C77.9895 65.3991 76.8719 66.765 75.3286 67.7229C73.8031 68.6808 72.0558 69.1598 70.0868 69.1598C68.3483 69.1598 66.7607 68.7606 65.3238 67.9624C63.887 67.1464 62.7428 66.02 61.8914 64.5831C61.0576 63.1463 60.6408 61.5232 60.6408 59.7138ZM81.2207 61.603C81.2207 60.1306 81.5223 58.8268 82.1254 57.6915C82.7463 56.5562 83.58 55.6782 84.6266 55.0573C85.6909 54.4187 86.8617 54.0994 88.1389 54.0994C89.292 54.0994 90.2942 54.33 91.1457 54.7912C92.0149 55.2347 92.7067 55.7935 93.2211 56.4675V54.3389H96.2811V69.0001H93.2211V66.8182C92.7067 67.51 92.006 68.0866 91.1191 68.5478C90.2321 69.009 89.221 69.2396 88.0857 69.2396C86.8262 69.2396 85.6732 68.9203 84.6266 68.2817C83.58 67.6254 82.7463 66.7207 82.1254 65.5676C81.5223 64.3969 81.2207 63.0753 81.2207 61.603ZM93.2211 61.6562C93.2211 60.6451 93.0083 59.767 92.5825 59.022C92.1745 58.2769 91.6335 57.7093 90.9594 57.319C90.2853 56.9288 89.558 56.7336 88.7775 56.7336C87.997 56.7336 87.2697 56.9288 86.5956 57.319C85.9216 57.6915 85.3716 58.2503 84.9459 58.9953C84.5379 59.7226 84.3339 60.5919 84.3339 61.603C84.3339 62.6141 84.5379 63.501 84.9459 64.2638C85.3716 65.0266 85.9216 65.612 86.5956 66.02C87.2875 66.4102 88.0147 66.6054 88.7775 66.6054C89.558 66.6054 90.2853 66.4102 90.9594 66.02C91.6335 65.6297 92.1745 65.0621 92.5825 64.317C93.0083 63.5543 93.2211 62.6673 93.2211 61.6562ZM103.299 56.4675C103.742 55.7225 104.328 55.146 105.055 54.738C105.8 54.3123 106.678 54.0994 107.689 54.0994V57.2392H106.917C105.729 57.2392 104.824 57.5408 104.203 58.1439C103.6 58.747 103.299 59.7936 103.299 61.2837V69.0001H100.265V54.3389H103.299V56.4675ZM109.466 59.7138C109.466 57.9044 109.883 56.2813 110.717 54.8444C111.568 53.4076 112.712 52.29 114.149 51.4918C115.604 50.6758 117.192 50.2678 118.912 50.2678C120.881 50.2678 122.629 50.7556 124.154 51.7312C125.697 52.6891 126.815 54.055 127.507 55.8289H123.861C123.382 54.8533 122.717 54.126 121.866 53.6471C121.014 53.1681 120.03 52.9286 118.912 52.9286C117.688 52.9286 116.597 53.2036 115.639 53.7535C114.681 54.3034 113.928 55.0928 113.378 56.1216C112.845 57.1505 112.579 58.3479 112.579 59.7138C112.579 61.0797 112.845 62.2771 113.378 63.3059C113.928 64.3348 114.681 65.133 115.639 65.7007C116.597 66.2506 117.688 66.5255 118.912 66.5255C120.03 66.5255 121.014 66.2861 121.866 65.8071C122.717 65.3282 123.382 64.6009 123.861 63.6252H127.507C126.815 65.3991 125.697 66.765 124.154 67.7229C122.629 68.6808 120.881 69.1598 118.912 69.1598C117.174 69.1598 115.586 68.7606 114.149 67.9624C112.712 67.1464 111.568 66.02 110.717 64.5831C109.883 63.1463 109.466 61.5232 109.466 59.7138ZM137.417 69.2396C136.033 69.2396 134.782 68.9292 133.665 68.3083C132.547 67.6697 131.669 66.7828 131.031 65.6475C130.392 64.4944 130.073 63.164 130.073 61.6562C130.073 60.1661 130.401 58.8446 131.057 57.6915C131.714 56.5385 132.609 55.6516 133.745 55.0307C134.88 54.4098 136.148 54.0994 137.55 54.0994C138.951 54.0994 140.219 54.4098 141.355 55.0307C142.49 55.6516 143.386 56.5385 144.042 57.6915C144.699 58.8446 145.027 60.1661 145.027 61.6562C145.027 63.1463 144.69 64.4678 144.016 65.6209C143.342 66.7739 142.419 67.6697 141.248 68.3083C140.095 68.9292 138.818 69.2396 137.417 69.2396ZM137.417 66.6054C138.197 66.6054 138.925 66.4191 139.599 66.0466C140.29 65.6741 140.849 65.1153 141.275 64.3703C141.701 63.6252 141.914 62.7205 141.914 61.6562C141.914 60.5919 141.71 59.696 141.302 58.9687C140.894 58.2237 140.353 57.6649 139.678 57.2924C139.004 56.9199 138.277 56.7336 137.497 56.7336C136.716 56.7336 135.989 56.9199 135.315 57.2924C134.658 57.6649 134.135 58.2237 133.745 58.9687C133.354 59.696 133.159 60.5919 133.159 61.6562C133.159 63.235 133.558 64.4589 134.357 65.3282C135.173 66.1796 136.193 66.6054 137.417 66.6054ZM147.014 61.603C147.014 60.1306 147.316 58.8268 147.919 57.6915C148.54 56.5562 149.374 55.6782 150.42 55.0573C151.484 54.4187 152.664 54.0994 153.959 54.0994C154.917 54.0994 155.857 54.3123 156.78 54.738C157.72 55.146 158.465 55.6959 159.015 56.3877V49.3099H162.075V69.0001H159.015V66.7916C158.518 67.5012 157.826 68.0866 156.939 68.5478C156.07 69.009 155.068 69.2396 153.932 69.2396C152.655 69.2396 151.484 68.9203 150.42 68.2817C149.374 67.6254 148.54 66.7207 147.919 65.5676C147.316 64.3969 147.014 63.0753 147.014 61.603ZM159.015 61.6562C159.015 60.6451 158.802 59.767 158.376 59.022C157.968 58.2769 157.427 57.7093 156.753 57.319C156.079 56.9288 155.352 56.7336 154.571 56.7336C153.791 56.7336 153.063 56.9288 152.389 57.319C151.715 57.6915 151.165 58.2503 150.739 58.9953C150.331 59.7226 150.127 60.5919 150.127 61.603C150.127 62.6141 150.331 63.501 150.739 64.2638C151.165 65.0266 151.715 65.612 152.389 66.02C153.081 66.4102 153.808 66.6054 154.571 66.6054C155.352 66.6054 156.079 66.4102 156.753 66.02C157.427 65.6297 157.968 65.0621 158.376 64.317C158.802 63.5543 159.015 62.6673 159.015 61.6562ZM179.496 61.3103C179.496 61.8602 179.461 62.3569 179.39 62.8004H168.187C168.276 63.9711 168.711 64.9113 169.491 65.6209C170.272 66.3304 171.23 66.6852 172.365 66.6852C173.997 66.6852 175.15 66.0022 175.824 64.6363H179.097C178.653 65.9845 177.846 67.0932 176.676 67.9624C175.523 68.8139 174.086 69.2396 172.365 69.2396C170.964 69.2396 169.704 68.9292 168.587 68.3083C167.487 67.6697 166.618 66.7828 165.979 65.6475C165.358 64.4944 165.048 63.164 165.048 61.6562C165.048 60.1484 165.349 58.8268 165.952 57.6915C166.573 56.5385 167.434 55.6516 168.533 55.0307C169.651 54.4098 170.928 54.0994 172.365 54.0994C173.749 54.0994 174.982 54.401 176.064 55.0041C177.146 55.6072 177.988 56.4587 178.591 57.5585C179.195 58.6406 179.496 59.8912 179.496 61.3103ZM176.33 60.3524C176.312 59.2348 175.913 58.339 175.132 57.6649C174.352 56.9908 173.385 56.6538 172.232 56.6538C171.185 56.6538 170.29 56.9908 169.545 57.6649C168.799 58.3213 168.356 59.2171 168.214 60.3524H176.33Z" fill="white"/>
<path d="M35.6587 71.9962H30.7109C30.3828 71.9962 30.0682 71.8659 29.8362 71.6339C29.6042 71.4019 29.4739 71.0873 29.4739 70.7592V65.8114C29.4739 65.4833 29.3436 65.1687 29.1116 64.9367C28.8797 64.7048 28.565 64.5744 28.237 64.5744C27.9089 64.5744 27.5943 64.7048 27.3623 64.9367C27.1303 65.1687 27 65.4833 27 65.8114V70.7592C27 71.7434 27.391 72.6873 28.0869 73.3832C28.7828 74.0792 29.7267 74.4701 30.7109 74.4701H35.6587C35.9868 74.4701 36.3014 74.3398 36.5334 74.1078C36.7654 73.8759 36.8957 73.5612 36.8957 73.2332C36.8957 72.9051 36.7654 72.5905 36.5334 72.3585C36.3014 72.1265 35.9868 71.9962 35.6587 71.9962ZM52.9762 64.5744C52.6482 64.5744 52.3335 64.7048 52.1016 64.9367C51.8696 65.1687 51.7393 65.4833 51.7393 65.8114V70.7592C51.7393 71.0873 51.6089 71.4019 51.377 71.6339C51.145 71.8659 50.8304 71.9962 50.5023 71.9962H45.5544C45.2264 71.9962 44.9118 72.1265 44.6798 72.3585C44.4478 72.5905 44.3175 72.9051 44.3175 73.2332C44.3175 73.5612 44.4478 73.8759 44.6798 74.1078C44.9118 74.3398 45.2264 74.4701 45.5544 74.4701H50.5023C51.4865 74.4701 52.4304 74.0792 53.1263 73.3832C53.8222 72.6873 54.2132 71.7434 54.2132 70.7592V65.8114C54.2132 65.4833 54.0829 65.1687 53.8509 64.9367C53.6189 64.7048 53.3043 64.5744 52.9762 64.5744ZM50.5023 47.257H45.5544C45.2264 47.257 44.9118 47.3873 44.6798 47.6193C44.4478 47.8512 44.3175 48.1659 44.3175 48.4939C44.3175 48.822 44.4478 49.1366 44.6798 49.3686C44.9118 49.6006 45.2264 49.7309 45.5544 49.7309H50.5023C50.8304 49.7309 51.145 49.8612 51.377 50.0932C51.6089 50.3252 51.7393 50.6398 51.7393 50.9678V55.9157C51.7393 56.2438 51.8696 56.5584 52.1016 56.7904C52.3335 57.0223 52.6482 57.1527 52.9762 57.1527C53.3043 57.1527 53.6189 57.0223 53.8509 56.7904C54.0829 56.5584 54.2132 56.2438 54.2132 55.9157V50.9678C54.2132 49.9837 53.8222 49.0398 53.1263 48.3439C52.4304 47.6479 51.4865 47.257 50.5023 47.257ZM28.237 57.1527C28.565 57.1527 28.8797 57.0223 29.1116 56.7904C29.3436 56.5584 29.4739 56.2438 29.4739 55.9157V50.9678C29.4739 50.6398 29.6042 50.3252 29.8362 50.0932C30.0682 49.8612 30.3828 49.7309 30.7109 49.7309H35.6587C35.9868 49.7309 36.3014 49.6006 36.5334 49.3686C36.7654 49.1366 36.8957 48.822 36.8957 48.4939C36.8957 48.1659 36.7654 47.8512 36.5334 47.6193C36.3014 47.3873 35.9868 47.257 35.6587 47.257H30.7109C29.7267 47.257 28.7828 47.6479 28.0869 48.3439C27.391 49.0398 27 49.9837 27 50.9678V55.9157C27 56.2438 27.1303 56.5584 27.3623 56.7904C27.5943 57.0223 27.9089 57.1527 28.237 57.1527ZM38.1327 52.2048H33.1848C32.8568 52.2048 32.5421 52.3351 32.3101 52.5671C32.0782 52.7991 31.9479 53.1137 31.9479 53.4418V58.3896C31.9479 58.7177 32.0782 59.0323 32.3101 59.2643C32.5421 59.4963 32.8568 59.6266 33.1848 59.6266H38.1327C38.4607 59.6266 38.7754 59.4963 39.0073 59.2643C39.2393 59.0323 39.3696 58.7177 39.3696 58.3896V53.4418C39.3696 53.1137 39.2393 52.7991 39.0073 52.5671C38.7754 52.3351 38.4607 52.2048 38.1327 52.2048ZM36.8957 57.1527H34.4218V54.6787H36.8957V57.1527ZM43.0805 59.6266H48.0284C48.3564 59.6266 48.6711 59.4963 48.903 59.2643C49.135 59.0323 49.2653 58.7177 49.2653 58.3896V53.4418C49.2653 53.1137 49.135 52.7991 48.903 52.5671C48.6711 52.3351 48.3564 52.2048 48.0284 52.2048H43.0805C42.7525 52.2048 42.4378 52.3351 42.2058 52.5671C41.9739 52.7991 41.8436 53.1137 41.8436 53.4418V58.3896C41.8436 58.7177 41.9739 59.0323 42.2058 59.2643C42.4378 59.4963 42.7525 59.6266 43.0805 59.6266ZM44.3175 54.6787H46.7914V57.1527H44.3175V54.6787ZM38.1327 62.1005H33.1848C32.8568 62.1005 32.5421 62.2308 32.3101 62.4628C32.0782 62.6948 31.9479 63.0094 31.9479 63.3375V68.2853C31.9479 68.6134 32.0782 68.928 32.3101 69.16C32.5421 69.392 32.8568 69.5223 33.1848 69.5223H38.1327C38.4607 69.5223 38.7754 69.392 39.0073 69.16C39.2393 68.928 39.3696 68.6134 39.3696 68.2853V63.3375C39.3696 63.0094 39.2393 62.6948 39.0073 62.4628C38.7754 62.2308 38.4607 62.1005 38.1327 62.1005ZM36.8957 67.0484H34.4218V64.5744H36.8957V67.0484Z" fill="white"/>
<path d="M48.5995 65.2875H47.7564L47.5221 64.7017C47.2813 64.0994 46.7066 63.7103 46.0578 63.7103H44.2694C43.6207 63.7103 43.0459 64.0994 42.805 64.7017L42.5706 65.2875H41.7277C41.6177 65.2875 41.537 65.3909 41.5638 65.4975L41.6482 65.8355C41.667 65.9107 41.7346 65.9635 41.8122 65.9635H42.0948C41.9057 66.1287 41.7839 66.3688 41.7839 66.6394V67.3154C41.7839 67.5424 41.8706 67.7473 42.0092 67.9059V68.6673C42.0092 68.9161 42.211 69.1179 42.4598 69.1179H42.9104C43.1593 69.1179 43.3611 68.9161 43.3611 68.6673V68.2167H46.9661V68.6673C46.9661 68.9161 47.1679 69.1179 47.4168 69.1179H47.8674C48.1162 69.1179 48.318 68.9161 48.318 68.6673V67.9059C48.4566 67.7474 48.5433 67.5425 48.5433 67.3154V66.6394C48.5433 66.3688 48.4215 66.1287 48.2325 65.9635H48.5152C48.5928 65.9635 48.6604 65.9107 48.6791 65.8355L48.7636 65.4975C48.7902 65.3909 48.7095 65.2875 48.5995 65.2875ZM43.6417 65.0365C43.7444 64.7799 43.9929 64.6116 44.2694 64.6116H46.0578C46.3343 64.6116 46.5828 64.7799 46.6855 65.0365L46.9661 65.7382H43.3611L43.6417 65.0365ZM42.9104 67.3126C42.6401 67.3126 42.4598 67.1329 42.4598 66.8633C42.4598 66.5938 42.6401 66.4141 42.9104 66.4141C43.1808 66.4141 43.5864 66.8184 43.5864 67.088C43.5864 67.3575 43.1808 67.3126 42.9104 67.3126ZM47.4168 67.3126C47.1464 67.3126 46.7408 67.3575 46.7408 67.088C46.7408 66.8184 47.1464 66.4141 47.4168 66.4141C47.6871 66.4141 47.8674 66.5938 47.8674 66.8633C47.8674 67.1329 47.6871 67.3126 47.4168 67.3126Z" fill="white"/>
</svg>
