<svg width="208" height="120" viewBox="0 0 208 120" fill="none" xmlns="http://www.w3.org/2000/svg">
<path d="M94.9518 70.3493C93.3239 70.3493 91.8559 70.078 90.5478 69.5354C89.2493 68.9927 88.1446 68.2418 87.2338 67.2825C86.323 66.3135 85.6253 65.1798 85.1408 63.8813C84.6563 62.5732 84.4141 61.1584 84.4141 59.6371C84.4141 57.5441 84.8452 55.6934 85.7077 54.0848C86.5701 52.4763 87.762 51.2215 89.2832 50.3203C90.8143 49.4095 92.573 48.9541 94.5594 48.9541C95.2474 48.9541 95.916 49.0025 96.5652 49.0994C97.2143 49.1963 97.8248 49.332 98.3966 49.5064C98.9779 49.6808 99.5108 49.8649 99.9954 50.0587C100.48 50.2525 100.897 50.4463 101.245 50.6401L101.042 52.6459C100.296 52.2099 99.5642 51.8562 98.8471 51.5849C98.13 51.3135 97.4227 51.1149 96.7251 50.9889C96.037 50.863 95.3588 50.8 94.6902 50.8C93.101 50.8 91.6911 51.1633 90.4605 51.8901C89.2396 52.6071 88.2803 53.6294 87.5827 54.9569C86.885 56.2748 86.5361 57.8397 86.5361 59.6517C86.5361 60.8726 86.7155 62.0209 87.0739 63.0964C87.4324 64.1624 87.9702 65.1022 88.6873 65.9162C89.414 66.7301 90.3103 67.3697 91.3762 67.8348C92.4518 68.2902 93.6922 68.5179 95.0972 68.5179C95.601 68.5179 96.1001 68.4888 96.5942 68.4307C97.0981 68.3629 97.5971 68.2659 98.0913 68.14C98.5855 68.0043 99.07 67.8251 99.5448 67.6022C100.02 67.3793 100.475 67.1129 100.911 66.8028L101.115 68.7941C100.708 69.0557 100.257 69.2883 99.7628 69.4918C99.2783 69.6856 98.7696 69.8455 98.2367 69.9714C97.7134 70.0973 97.1707 70.1894 96.6088 70.2476C96.0564 70.3153 95.5041 70.3493 94.9518 70.3493ZM103.325 70.0441C103.325 68.8813 103.325 67.7621 103.325 66.6865C103.325 65.611 103.325 64.4385 103.325 63.1691V56.236C103.325 54.9473 103.325 53.7651 103.325 52.6895C103.325 51.6042 103.325 50.4802 103.325 49.3174H115.956V51.1052C114.968 51.1052 113.907 51.1052 112.773 51.1052C111.639 51.1052 110.307 51.1052 108.776 51.1052H104.226L105.331 49.5936C105.331 50.7564 105.331 51.8804 105.331 52.9657C105.331 54.0509 105.331 55.2331 105.331 56.5122V62.8784C105.331 64.138 105.331 65.3057 105.331 66.3813C105.331 67.4569 105.331 68.5761 105.331 69.7388L104.314 68.2563H108.95C110.258 68.2563 111.489 68.2563 112.642 68.2563C113.795 68.2563 114.905 68.2563 115.97 68.2563V70.0441H103.325ZM104.895 60.393V58.6633H108.994C110.35 58.6633 111.518 58.6633 112.497 58.6633C113.485 58.6633 114.435 58.6633 115.345 58.6633V60.393C114.386 60.393 113.412 60.393 112.424 60.393C111.445 60.393 110.292 60.393 108.965 60.393H104.895ZM118.231 70.0441C118.231 68.8813 118.231 67.7621 118.231 66.6865C118.231 65.611 118.231 64.4385 118.231 63.1691V56.236C118.231 54.9473 118.231 53.7651 118.231 52.6895C118.231 51.6042 118.231 50.4802 118.231 49.3174H120.281C120.281 50.4802 120.281 51.6042 120.281 52.6895C120.281 53.7651 120.281 54.9473 120.281 56.236V62.8639C120.281 64.1333 120.281 65.3057 120.281 66.3813C120.281 67.4569 120.281 68.5761 120.281 69.7388L119.467 68.1982H123.202C124.336 68.1982 125.339 68.1982 126.211 68.1982C127.083 68.1982 127.887 68.1982 128.624 68.1982C129.37 68.1982 130.131 68.1982 130.906 68.1982V70.0441H118.231ZM140.246 70.3929C138.25 70.3929 136.632 70.0586 135.391 69.39C134.161 68.7118 133.26 67.7621 132.688 66.5412C132.116 65.3203 131.83 63.8862 131.83 62.2389C131.83 61.8513 131.83 61.3377 131.83 60.6982C131.83 60.0587 131.83 59.3561 131.83 58.5906C131.83 57.8154 131.83 57.0354 131.83 56.2505C131.83 54.9327 131.83 53.736 131.83 52.6604C131.83 51.5849 131.83 50.4705 131.83 49.3174H135.232C135.232 50.4705 135.232 51.5849 135.232 52.6604C135.232 53.736 135.232 54.9327 135.232 56.2505V61.9773C135.232 63.14 135.396 64.1333 135.726 64.9569C136.065 65.7805 136.598 66.4153 137.325 66.8609C138.061 67.297 139.03 67.515 140.232 67.515C141.453 67.515 142.426 67.297 143.153 66.8609C143.88 66.4153 144.403 65.7805 144.723 64.9569C145.043 64.1333 145.202 63.1351 145.202 61.9627V56.2505C145.202 54.9327 145.202 53.736 145.202 52.6604C145.202 51.5849 145.202 50.4705 145.202 49.3174H148.604C148.604 50.4705 148.604 51.5849 148.604 52.6604C148.604 53.736 148.604 54.9327 148.604 56.2505C148.604 57.0354 148.604 57.8154 148.604 58.5906C148.604 59.3659 148.604 60.0781 148.604 60.7273C148.604 61.3668 148.604 61.8755 148.604 62.2534C148.604 63.9007 148.308 65.3348 147.717 66.5557C147.136 67.767 146.23 68.7118 144.999 69.39C143.768 70.0586 142.184 70.3929 140.246 70.3929ZM157.179 70.3784C156.317 70.3784 155.44 70.3008 154.548 70.1458C153.666 70.0005 152.843 69.8115 152.077 69.579C151.321 69.3464 150.711 69.1138 150.246 68.8813L150.522 65.6982C151.191 66.0761 151.879 66.4007 152.586 66.672C153.303 66.9336 154.025 67.142 154.752 67.297C155.488 67.4423 156.22 67.515 156.946 67.515C157.741 67.515 158.448 67.4133 159.068 67.2098C159.689 66.9967 160.173 66.672 160.522 66.236C160.881 65.7903 161.06 65.2185 161.06 64.5208C161.06 63.8522 160.861 63.2999 160.464 62.8639C160.076 62.4278 159.509 62.0499 158.763 61.7302C158.017 61.4007 157.126 61.081 156.089 60.7709C154.79 60.3735 153.681 59.9327 152.76 59.4482C151.84 58.954 151.137 58.3387 150.653 57.6023C150.178 56.8659 149.941 55.9162 149.941 54.7534C149.941 53.6294 150.197 52.6265 150.711 51.7447C151.234 50.863 152.009 50.175 153.036 49.6808C154.073 49.1769 155.367 48.925 156.917 48.925C157.538 48.925 158.158 48.9686 158.778 49.0558C159.408 49.143 160.008 49.2593 160.58 49.4046C161.161 49.5403 161.69 49.7002 162.164 49.8843C162.639 50.0684 163.051 50.2573 163.4 50.4511L163.095 53.6197C162.504 53.2224 161.874 52.893 161.205 52.6314C160.546 52.3601 159.892 52.1566 159.243 52.0209C158.603 51.8756 158.007 51.8029 157.455 51.8029C156.748 51.8029 156.099 51.9046 155.507 52.1081C154.916 52.3116 154.442 52.6217 154.083 53.0383C153.725 53.4453 153.545 53.9686 153.545 54.6081C153.545 55.1895 153.7 55.6788 154.01 56.0761C154.32 56.4734 154.81 56.8271 155.478 57.1372C156.147 57.4473 157.009 57.767 158.066 58.0965C159.723 58.6197 161.031 59.1526 161.99 59.6953C162.949 60.2282 163.628 60.8581 164.025 61.5848C164.432 62.3116 164.635 63.2224 164.635 64.3174C164.635 65.4898 164.374 66.5315 163.85 67.4423C163.337 68.3531 162.528 69.0702 161.423 69.5935C160.328 70.1167 158.913 70.3784 157.179 70.3784Z" fill="white"/>
<path d="M61.1631 42.3998C69.0085 42.3998 75.6498 47.5534 77.8877 54.6596C77.3608 54.4956 76.801 54.4067 76.2207 54.4067H68.001C67.6324 54.4067 67.311 54.1553 67.2197 53.7953C67.0901 53.2844 66.9397 52.7621 66.7734 52.2426C66.2705 50.683 64.8386 49.6353 63.21 49.6352H58.9932C57.3643 49.6352 55.9315 50.6828 55.4287 52.2426C54.6176 54.7627 54.2061 57.3837 54.2061 60.0327C54.2061 62.6816 54.6177 65.3024 55.4287 67.8227C55.9315 69.3822 57.3642 70.4301 58.9932 70.4301H63.21C64.8388 70.43 66.2713 69.3823 66.7744 67.8217C66.9382 67.3095 67.0867 66.788 67.2168 66.2719C67.3076 65.9112 67.6295 65.6586 67.999 65.6586H76.2207C76.7743 65.6586 77.3089 65.5769 77.8145 65.4272C75.5086 72.4173 68.9257 77.4633 61.1631 77.4633C51.4808 77.4631 43.6318 69.6134 43.6318 59.9311C43.632 50.2489 51.4809 42.4 61.1631 42.3998Z" fill="#EAEAEA"/>
</svg>
