<svg width="208" height="120" viewBox="0 0 208 120" fill="none" xmlns="http://www.w3.org/2000/svg">
<path d="M28.5141 75.9888C26.6179 76.714 24.4304 75.9135 23.6277 74.2006L13.4539 52.493C12.6523 50.7826 13.5374 48.8042 15.4336 48.0791L19.7249 46.438C20.3267 47.722 21.9682 48.3228 23.3897 47.7792C24.8112 47.2356 25.4763 45.7528 24.8745 44.4687L29.1658 42.8277C31.0593 42.1035 33.2506 42.9054 34.0522 44.6159L44.226 66.3235C45.0287 68.0364 44.1399 70.0133 42.2463 70.7374L37.955 72.3785C37.353 71.094 35.7117 70.4937 34.2902 71.0373C32.8687 71.5809 32.2034 73.0632 32.8054 74.3478L28.5141 75.9888Z" fill="#D1D2D2"/>
<path d="M28.7388 78.1116C26.3743 78.3916 24.2068 76.8875 23.8968 74.7517L19.9687 47.6838C19.6592 45.551 21.3239 43.5901 23.6883 43.3101L29.0393 42.6764C29.2716 44.2776 30.8982 45.4063 32.6707 45.1964C34.4433 44.9865 35.6928 43.5172 35.4605 41.9161L39.3082 43.3101C41.6693 43.0305 43.2379 44.7551 43.5474 46.8879L49.5815 71.7103C49.8915 73.8461 48.223 75.8044 45.8619 76.084L40.5109 76.7177C40.2785 75.1159 38.652 73.9878 36.8795 74.1977C35.107 74.4076 33.8573 75.8763 34.0898 77.478L28.7388 78.1116Z" fill="#EAEAEA"/>
<path d="M27.9067 78.1596C25.2861 77.8352 23.4532 75.6538 23.8123 73.2865L28.3633 43.2859C28.7219 40.922 31.1374 39.2629 33.758 39.5873L39.6888 40.3214C39.4196 42.096 40.7951 43.7331 42.7596 43.9762C44.7242 44.2194 46.5365 42.9769 46.8057 41.2024L52.7364 41.9365C55.3534 42.2604 57.1895 44.4457 56.8309 46.8095L52.2798 76.8102C51.9207 79.1774 49.502 80.8327 46.8851 80.5087L40.9543 79.7746C41.2236 77.9994 39.8481 76.363 37.8835 76.1198C35.9189 75.8766 34.1068 77.1184 33.8375 78.8937L27.9067 78.1596Z" fill="white"/>
<path d="M46.1062 65.6901C46.3841 65.7245 46.5775 65.9774 46.5113 66.2502C46.354 66.8982 46.0851 67.521 45.7134 68.0956C45.2474 68.816 44.6288 69.4464 43.893 69.9508C43.1572 70.4552 42.3187 70.8238 41.4252 71.0355C40.5318 71.2472 39.6009 71.2978 38.6858 71.1846C37.7706 71.0713 36.8892 70.7963 36.0917 70.3753C35.2942 69.9543 34.5963 69.3956 34.0379 68.7309C33.4795 68.0663 33.0714 67.3088 32.8371 66.5018C32.6502 65.8581 32.5767 65.1928 32.6182 64.5305C32.6357 64.2517 32.8973 64.0551 33.1751 64.0895L39.6407 64.8898L46.1062 65.6901Z" fill="#27255F"/>
<path d="M36.9495 62.8655L41.9217 51.3291L44.3802 50.8507L39.4081 62.3871L36.9495 62.8655ZM37.0183 58.0206C36.5043 58.1206 36.0229 58.1036 35.5741 57.9695C35.1233 57.8257 34.7352 57.564 34.4097 57.1845C34.0939 56.8031 33.8775 56.3117 33.7605 55.7104C33.6435 55.1091 33.6608 54.5773 33.8124 54.115C33.9718 53.6411 34.2335 53.2529 34.5974 52.9506C34.9613 52.6483 35.4003 52.4471 35.9143 52.3471C36.4283 52.2471 36.9107 52.269 37.3614 52.4128C37.8122 52.5566 38.1955 52.8192 38.5113 53.2006C38.8349 53.5705 39.0552 54.056 39.1722 54.6573C39.2892 55.2586 39.268 55.7962 39.1086 56.2701C38.9588 56.7422 38.702 57.1293 38.3381 57.4317C37.9723 57.7243 37.5324 57.9206 37.0183 58.0206ZM36.7126 56.4495C36.8775 56.4174 37.006 56.3018 37.0981 56.1027C37.198 55.892 37.2008 55.5442 37.1064 55.0593C37.0121 54.5744 36.88 54.2579 36.7103 54.1097C36.5483 53.95 36.3849 53.8861 36.2201 53.9182C36.0649 53.9484 35.9373 54.0689 35.8374 54.2796C35.7356 54.4805 35.7319 54.8235 35.8262 55.3084C35.9206 55.7933 36.0536 56.1147 36.2252 56.2726C36.395 56.4207 36.5574 56.4797 36.7126 56.4495ZM45.4154 61.3691C44.9014 61.4691 44.4199 61.4521 43.9711 61.318C43.5204 61.1742 43.1322 60.9125 42.8068 60.533C42.491 60.1515 42.2746 59.6602 42.1575 59.0589C42.0405 58.4576 42.0578 57.9258 42.2094 57.4634C42.3689 56.9895 42.6305 56.6014 42.9945 56.2991C43.3584 55.9968 43.7974 55.7956 44.3114 55.6956C44.8254 55.5955 45.3078 55.6174 45.7585 55.7612C46.2092 55.905 46.5925 56.1676 46.9083 56.5491C47.2319 56.9189 47.4522 57.4045 47.5692 58.0058C47.6862 58.6071 47.665 59.1447 47.5056 59.6186C47.3559 60.0906 47.0991 60.4778 46.7351 60.7801C46.3693 61.0727 45.9294 61.2691 45.4154 61.3691ZM45.1097 59.798C45.2745 59.7659 45.403 59.6503 45.4951 59.4512C45.5951 59.2405 45.5978 58.8927 45.5035 58.4078C45.4091 57.9229 45.2771 57.6063 45.1073 57.4582C44.9454 57.2984 44.782 57.2346 44.6171 57.2667C44.4619 57.2969 44.3344 57.4173 44.2345 57.628C44.1327 57.829 44.1289 58.172 44.2233 58.6569C44.3177 59.1418 44.4506 59.4632 44.6223 59.621C44.792 59.7692 44.9545 59.8282 45.1097 59.798Z" fill="#27255F"/>
<path d="M70.6041 71.317C69.4683 71.317 68.4096 71.1347 67.428 70.7702C66.4605 70.3916 65.6192 69.8587 64.9041 69.1716C64.1889 68.4846 63.628 67.6783 63.2214 66.7528C62.8288 65.8274 62.6325 64.8108 62.6325 63.703C62.6325 62.5953 62.8288 61.5787 63.2214 60.6532C63.628 59.7277 64.1889 58.9215 64.9041 58.2344C65.6332 57.5473 66.4815 57.0215 67.4491 56.6569C68.4166 56.2783 69.4753 56.089 70.6251 56.089C71.9011 56.089 73.0509 56.3133 74.0745 56.762C75.1122 57.1967 75.9816 57.8417 76.6827 58.6971L74.4952 60.7163C73.9904 60.1414 73.4295 59.7137 72.8125 59.4333C72.1956 59.1388 71.5225 58.9916 70.7934 58.9916C70.1063 58.9916 69.4753 59.1037 68.9004 59.3281C68.3255 59.5524 67.8277 59.875 67.407 60.2956C66.9863 60.7163 66.6568 61.2141 66.4184 61.789C66.1941 62.3639 66.0819 63.0019 66.0819 63.703C66.0819 64.4041 66.1941 65.0421 66.4184 65.617C66.6568 66.1919 66.9863 66.6897 67.407 67.1104C67.8277 67.5311 68.3255 67.8536 68.9004 68.0779C69.4753 68.3023 70.1063 68.4144 70.7934 68.4144C71.5225 68.4144 72.1956 68.2742 72.8125 67.9938C73.4295 67.6993 73.9904 67.2576 74.4952 66.6687L76.6827 68.6879C75.9816 69.5432 75.1122 70.1953 74.0745 70.644C73.0509 71.0927 71.8941 71.317 70.6041 71.317ZM85.4428 71.317C83.3535 71.317 81.72 70.7351 80.5421 69.5713C79.3642 68.4074 78.7753 66.7458 78.7753 64.5864V56.3414H82.1827V64.4602C82.1827 65.8624 82.4701 66.872 83.045 67.489C83.62 68.106 84.4262 68.4144 85.4639 68.4144C86.5015 68.4144 87.3078 68.106 87.8827 67.489C88.4576 66.872 88.7451 65.8624 88.7451 64.4602V56.3414H92.1104V64.5864C92.1104 66.7458 91.5214 68.4074 90.3436 69.5713C89.1657 70.7351 87.5321 71.317 85.4428 71.317ZM95.4775 71.0646V56.3414H101.851C103.169 56.3414 104.304 56.5587 105.258 56.9934C106.211 57.4141 106.948 58.024 107.466 58.8233C107.985 59.6226 108.245 60.5761 108.245 61.6838C108.245 62.7775 107.985 63.724 107.466 64.5233C106.948 65.3226 106.211 65.9395 105.258 66.3742C104.304 66.7949 103.169 67.0052 101.851 67.0052H97.3705L98.8849 65.4698V71.0646H95.4775ZM98.8849 65.8484L97.3705 64.2288H101.661C102.713 64.2288 103.498 64.0045 104.017 63.5558C104.536 63.1071 104.795 62.4831 104.795 61.6838C104.795 60.8705 104.536 60.2395 104.017 59.7908C103.498 59.3421 102.713 59.1178 101.661 59.1178H97.3705L98.8849 57.4982V65.8484ZM118.034 71.317C116.87 71.317 115.79 71.1277 114.795 70.7491C113.813 70.3705 112.958 69.8377 112.229 69.1506C111.514 68.4635 110.953 67.6573 110.546 66.7318C110.154 65.8063 109.957 64.7967 109.957 63.703C109.957 62.6093 110.154 61.5997 110.546 60.6742C110.953 59.7488 111.521 58.9425 112.25 58.2554C112.979 57.5683 113.834 57.0355 114.816 56.6569C115.797 56.2783 116.863 56.089 118.013 56.089C119.177 56.089 120.242 56.2783 121.21 56.6569C122.192 57.0355 123.04 57.5683 123.755 58.2554C124.484 58.9425 125.052 59.7488 125.459 60.6742C125.865 61.5857 126.069 62.5953 126.069 63.703C126.069 64.7967 125.865 65.8133 125.459 66.7528C125.052 67.6783 124.484 68.4846 123.755 69.1716C123.04 69.8447 122.192 70.3705 121.21 70.7491C120.242 71.1277 119.184 71.317 118.034 71.317ZM118.013 68.4144C118.672 68.4144 119.275 68.3023 119.822 68.0779C120.383 67.8536 120.873 67.5311 121.294 67.1104C121.715 66.6897 122.037 66.1919 122.262 65.617C122.5 65.0421 122.619 64.4041 122.619 63.703C122.619 63.0019 122.5 62.3639 122.262 61.789C122.037 61.2141 121.715 60.7163 121.294 60.2956C120.887 59.875 120.404 59.5524 119.843 59.3281C119.282 59.1037 118.672 58.9916 118.013 58.9916C117.354 58.9916 116.744 59.1037 116.183 59.3281C115.636 59.5524 115.152 59.875 114.732 60.2956C114.311 60.7163 113.982 61.2141 113.743 61.789C113.519 62.3639 113.407 63.0019 113.407 63.703C113.407 64.3901 113.519 65.0281 113.743 65.617C113.982 66.1919 114.304 66.6897 114.711 67.1104C115.131 67.5311 115.622 67.8536 116.183 68.0779C116.744 68.3023 117.354 68.4144 118.013 68.4144ZM128.629 71.0646V56.3414H131.448L137.716 66.7318H136.222L142.385 56.3414H145.183L145.225 71.0646H142.028L142.007 61.2421H142.596L137.674 69.5082H136.138L131.111 61.2421H131.827V71.0646H128.629ZM147.077 71.0646L153.85 56.3414H154.923L161.695 71.0646H160.539L154.144 57.0144H154.607L148.234 71.0646H147.077ZM149.559 66.9211L149.917 66.0167H158.73L159.087 66.9211H149.559ZM164.368 71.0646V56.3414H169.648C170.881 56.3414 171.94 56.5377 172.824 56.9303C173.707 57.3229 174.387 57.8908 174.864 58.634C175.341 59.3632 175.579 60.2536 175.579 61.3052C175.579 62.3288 175.341 63.2122 174.864 63.9554C174.387 64.6986 173.707 65.2665 172.824 65.6591C171.94 66.0517 170.881 66.248 169.648 66.248H164.957L165.441 65.7432V71.0646H164.368ZM165.441 65.8063L164.957 65.2805H169.648C171.232 65.2805 172.431 64.937 173.244 64.2499C174.072 63.5488 174.485 62.5672 174.485 61.3052C174.485 60.0292 174.072 59.0477 173.244 58.3606C172.431 57.6595 171.232 57.3089 169.648 57.3089H164.957L165.441 56.7831V65.8063ZM179.198 71.0646V56.3414H184.478C185.712 56.3414 186.77 56.5377 187.654 56.9303C188.537 57.3229 189.217 57.8908 189.694 58.634C190.171 59.3632 190.409 60.2536 190.409 61.3052C190.409 62.3288 190.171 63.2122 189.694 63.9554C189.217 64.6986 188.537 65.2665 187.654 65.6591C186.77 66.0517 185.712 66.248 184.478 66.248H179.787L180.271 65.7432V71.0646H179.198ZM180.271 65.8063L179.787 65.2805H184.478C186.062 65.2805 187.261 64.937 188.074 64.2499C188.902 63.5488 189.315 62.5672 189.315 61.3052C189.315 60.0292 188.902 59.0477 188.074 58.3606C187.261 57.6595 186.062 57.3089 184.478 57.3089H179.787L180.271 56.7831V65.8063Z" fill="white"/>
</svg>
