<svg width="208" height="120" viewBox="0 0 208 120" fill="none" xmlns="http://www.w3.org/2000/svg">
<path d="M57.5674 50.23C63.716 50.0544 76.2241 51.4951 77.0674 58.6626C77.7143 64.1621 75.697 70.7837 57.5674 70.7837H27V69.73C29.1081 69.73 33.5347 68.9919 34.3779 66.0406C34.905 63.581 35.6428 57.9244 34.3779 54.9732C33.8507 53.3922 31.743 51.8111 27 51.8111V50.23H57.5674ZM58.6221 60.2535C58.622 57.2027 57.5673 51.9266 51.2432 52.3482V69.2134C53.8783 69.0378 58.6221 68.1589 58.6221 60.2535Z" fill="white"/>
<path d="M92.2187 67H89.2146L89.2344 65.4486H92.2187C93.2464 65.4486 94.1028 65.2345 94.788 64.8063C95.4731 64.3715 95.9869 63.7654 96.3295 62.988C96.6787 62.2041 96.8532 61.2883 96.8532 60.2409V59.3614C96.8532 58.5379 96.7544 57.8067 96.5568 57.1677C96.3592 56.522 96.0693 55.9785 95.6872 55.5372C95.3051 55.0892 94.8374 54.7499 94.284 54.5193C93.7372 54.2888 93.1081 54.1735 92.3966 54.1735H89.1554V52.6122H92.3966C93.3386 52.6122 94.1983 52.7703 94.9757 53.0865C95.7531 53.3961 96.4217 53.8474 96.9817 54.4403C97.5483 55.0266 97.9831 55.7381 98.2861 56.5747C98.5891 57.4048 98.7407 58.3403 98.7407 59.3812V60.2409C98.7407 61.2818 98.5891 62.2205 98.2861 63.0572C97.9831 63.8872 97.545 64.5954 96.9718 65.1818C96.4053 65.7681 95.7201 66.2193 94.9164 66.5356C94.1193 66.8452 93.2201 67 92.2187 67ZM90.2325 52.6122V67H88.3253V52.6122H90.2325ZM103.316 56.3079V67H101.478V56.3079H103.316ZM101.34 53.4719C101.34 53.1754 101.428 52.9251 101.606 52.7209C101.791 52.5166 102.061 52.4145 102.417 52.4145C102.766 52.4145 103.033 52.5166 103.217 52.7209C103.408 52.9251 103.504 53.1754 103.504 53.4719C103.504 53.7552 103.408 53.9989 103.217 54.2031C103.033 54.4008 102.766 54.4996 102.417 54.4996C102.061 54.4996 101.791 54.4008 101.606 54.2031C101.428 53.9989 101.34 53.7552 101.34 53.4719ZM108.079 57.9878V67H106.251V56.3079H108.03L108.079 57.9878ZM111.419 56.2487L111.409 57.9483C111.258 57.9154 111.113 57.8956 110.974 57.889C110.843 57.8758 110.691 57.8693 110.52 57.8693C110.098 57.8693 109.726 57.9351 109.403 58.0669C109.08 58.1987 108.807 58.3831 108.583 58.6203C108.359 58.8574 108.181 59.1407 108.049 59.4701C107.924 59.7929 107.842 60.1487 107.802 60.5373L107.288 60.8338C107.288 60.1882 107.351 59.5821 107.476 59.0155C107.608 58.449 107.809 57.9483 108.079 57.5135C108.349 57.0721 108.692 56.7296 109.107 56.4858C109.528 56.2355 110.029 56.1103 110.609 56.1103C110.74 56.1103 110.892 56.1268 111.063 56.1597C111.234 56.1861 111.353 56.2157 111.419 56.2487ZM117.348 67.1976C116.604 67.1976 115.928 67.0725 115.322 66.8221C114.723 66.5652 114.206 66.2062 113.771 65.745C113.343 65.2839 113.013 64.7371 112.783 64.1046C112.552 63.4722 112.437 62.7805 112.437 62.0295V61.6144C112.437 60.7448 112.565 59.9708 112.822 59.2922C113.079 58.6071 113.428 58.0274 113.87 57.553C114.311 57.0787 114.812 56.7197 115.372 56.4759C115.932 56.2322 116.511 56.1103 117.111 56.1103C117.875 56.1103 118.534 56.2421 119.087 56.5056C119.647 56.7691 120.105 57.138 120.461 57.6123C120.816 58.0801 121.08 58.6334 121.251 59.2725C121.423 59.9049 121.508 60.5966 121.508 61.3476V62.1678H113.524V60.6757H119.68V60.5373C119.654 60.063 119.555 59.6019 119.384 59.1539C119.219 58.7059 118.955 58.337 118.593 58.0471C118.231 57.7573 117.737 57.6123 117.111 57.6123C116.696 57.6123 116.314 57.7013 115.965 57.8791C115.615 58.0504 115.316 58.3074 115.065 58.6499C114.815 58.9925 114.621 59.4108 114.482 59.9049C114.344 60.399 114.275 60.9688 114.275 61.6144V62.0295C114.275 62.5367 114.344 63.0144 114.482 63.4623C114.627 63.9037 114.835 64.2924 115.105 64.6284C115.382 64.9644 115.714 65.2279 116.103 65.4189C116.498 65.61 116.946 65.7055 117.447 65.7055C118.092 65.7055 118.639 65.5737 119.087 65.3102C119.535 65.0467 119.927 64.6943 120.263 64.2529L121.37 65.1323C121.139 65.4815 120.846 65.8142 120.49 66.1304C120.135 66.4466 119.697 66.7035 119.176 66.9012C118.662 67.0988 118.053 67.1976 117.348 67.1976ZM125.629 56.3079V67H123.791V56.3079H125.629ZM123.653 53.4719C123.653 53.1754 123.741 52.9251 123.919 52.7209C124.104 52.5166 124.374 52.4145 124.73 52.4145C125.079 52.4145 125.346 52.5166 125.53 52.7209C125.721 52.9251 125.817 53.1754 125.817 53.4719C125.817 53.7552 125.721 53.9989 125.53 54.2031C125.346 54.4008 125.079 54.4996 124.73 54.4996C124.374 54.4996 124.104 54.4008 123.919 54.2031C123.741 53.9989 123.653 53.7552 123.653 53.4719ZM133.04 56.3079V57.7112H127.259V56.3079H133.04ZM129.216 53.709H131.044V64.3517C131.044 64.714 131.1 64.9874 131.212 65.1719C131.324 65.3563 131.469 65.4782 131.647 65.5375C131.825 65.5968 132.016 65.6264 132.22 65.6264C132.372 65.6264 132.53 65.6133 132.694 65.5869C132.866 65.554 132.994 65.5276 133.08 65.5079L133.09 67C132.945 67.0461 132.754 67.0889 132.516 67.1285C132.286 67.1746 132.006 67.1976 131.677 67.1976C131.229 67.1976 130.817 67.1087 130.441 66.9308C130.066 66.753 129.766 66.4565 129.542 66.0415C129.325 65.6198 129.216 65.0533 129.216 64.3418V53.709ZM134.503 61.7726V61.5453C134.503 60.7745 134.615 60.0597 134.839 59.4009C135.063 58.7356 135.386 58.1591 135.807 57.6716C136.229 57.1775 136.739 56.7954 137.339 56.5253C137.938 56.2487 138.61 56.1103 139.355 56.1103C140.106 56.1103 140.781 56.2487 141.38 56.5253C141.987 56.7954 142.5 57.1775 142.922 57.6716C143.35 58.1591 143.676 58.7356 143.9 59.4009C144.124 60.0597 144.236 60.7745 144.236 61.5453V61.7726C144.236 62.5433 144.124 63.2581 143.9 63.9169C143.676 64.5757 143.35 65.1521 142.922 65.6462C142.5 66.1337 141.99 66.5158 141.39 66.7925C140.797 67.0626 140.125 67.1976 139.374 67.1976C138.623 67.1976 137.948 67.0626 137.349 66.7925C136.749 66.5158 136.235 66.1337 135.807 65.6462C135.386 65.1521 135.063 64.5757 134.839 63.9169C134.615 63.2581 134.503 62.5433 134.503 61.7726ZM136.331 61.5453V61.7726C136.331 62.3062 136.393 62.8101 136.519 63.2845C136.644 63.7522 136.832 64.1672 137.082 64.5296C137.339 64.8919 137.658 65.1785 138.04 65.3893C138.422 65.5935 138.867 65.6956 139.374 65.6956C139.875 65.6956 140.313 65.5935 140.689 65.3893C141.071 65.1785 141.387 64.8919 141.637 64.5296C141.888 64.1672 142.075 63.7522 142.201 63.2845C142.332 62.8101 142.398 62.3062 142.398 61.7726V61.5453C142.398 61.0182 142.332 60.5209 142.201 60.0531C142.075 59.5788 141.884 59.1605 141.627 58.7981C141.377 58.4292 141.061 58.1394 140.679 57.9285C140.303 57.7177 139.862 57.6123 139.355 57.6123C138.854 57.6123 138.413 57.7177 138.031 57.9285C137.655 58.1394 137.339 58.4292 137.082 58.7981C136.832 59.1605 136.644 59.5788 136.519 60.0531C136.393 60.5209 136.331 61.0182 136.331 61.5453ZM152.132 53.8869L147.369 67H145.422L150.906 52.6122H152.161L152.132 53.8869ZM156.124 67L151.351 53.8869L151.321 52.6122H152.576L158.081 67H156.124ZM155.877 61.6737V63.2351H147.794V61.6737H155.877ZM161.559 58.3633V71.1108H159.721V56.3079H161.401L161.559 58.3633ZM168.763 61.565V61.7726C168.763 62.5499 168.671 63.2713 168.486 63.9367C168.302 64.5954 168.032 65.1686 167.676 65.6561C167.327 66.1436 166.895 66.5224 166.381 66.7925C165.867 67.0626 165.278 67.1976 164.612 67.1976C163.934 67.1976 163.334 67.0856 162.814 66.8617C162.294 66.6377 161.852 66.3116 161.49 65.8834C161.127 65.4552 160.838 64.9413 160.62 64.3418C160.409 63.7423 160.264 63.0671 160.185 62.316V61.2093C160.264 60.4188 160.413 59.7106 160.63 59.0847C160.847 58.4589 161.134 57.9253 161.49 57.4839C161.852 57.0359 162.29 56.6966 162.804 56.466C163.318 56.2289 163.911 56.1103 164.583 56.1103C165.255 56.1103 165.851 56.2421 166.371 56.5056C166.892 56.7625 167.33 57.1314 167.686 57.6123C168.041 58.0932 168.308 58.6697 168.486 59.3416C168.671 60.007 168.763 60.7481 168.763 61.565ZM166.925 61.7726V61.565C166.925 61.0314 166.869 60.5307 166.757 60.063C166.645 59.5887 166.47 59.1737 166.233 58.8179C166.002 58.4556 165.706 58.1723 165.344 57.9681C164.981 57.7573 164.55 57.6519 164.049 57.6519C163.588 57.6519 163.186 57.7309 162.844 57.889C162.508 58.0471 162.221 58.2612 161.984 58.5313C161.747 58.7948 161.552 59.0979 161.401 59.4405C161.256 59.7764 161.147 60.1256 161.075 60.4879V63.0473C161.207 63.5084 161.391 63.9432 161.628 64.3517C161.865 64.7535 162.182 65.0796 162.577 65.33C162.972 65.5737 163.469 65.6956 164.069 65.6956C164.563 65.6956 164.988 65.5935 165.344 65.3893C165.706 65.1785 166.002 64.8919 166.233 64.5296C166.47 64.1672 166.645 63.7522 166.757 63.2845C166.869 62.8101 166.925 62.3062 166.925 61.7726ZM172.923 58.3633V71.1108H171.085V56.3079H172.765L172.923 58.3633ZM180.127 61.565V61.7726C180.127 62.5499 180.035 63.2713 179.85 63.9367C179.666 64.5954 179.396 65.1686 179.04 65.6561C178.691 66.1436 178.259 66.5224 177.745 66.7925C177.231 67.0626 176.642 67.1976 175.976 67.1976C175.298 67.1976 174.698 67.0856 174.178 66.8617C173.658 66.6377 173.216 66.3116 172.854 65.8834C172.491 65.4552 172.202 64.9413 171.984 64.3418C171.773 63.7423 171.628 63.0671 171.549 62.316V61.2093C171.628 60.4188 171.777 59.7106 171.994 59.0847C172.212 58.4589 172.498 57.9253 172.854 57.4839C173.216 57.0359 173.654 56.6966 174.168 56.466C174.682 56.2289 175.275 56.1103 175.947 56.1103C176.619 56.1103 177.215 56.2421 177.735 56.5056C178.256 56.7625 178.694 57.1314 179.05 57.6123C179.405 58.0932 179.672 58.6697 179.85 59.3416C180.035 60.007 180.127 60.7481 180.127 61.565ZM178.289 61.7726V61.565C178.289 61.0314 178.233 60.5307 178.121 60.063C178.009 59.5887 177.834 59.1737 177.597 58.8179C177.366 58.4556 177.07 58.1723 176.708 57.9681C176.345 57.7573 175.914 57.6519 175.413 57.6519C174.952 57.6519 174.55 57.7309 174.208 57.889C173.872 58.0471 173.585 58.2612 173.348 58.5313C173.111 58.7948 172.916 59.0979 172.765 59.4405C172.62 59.7764 172.511 60.1256 172.439 60.4879V63.0473C172.571 63.5084 172.755 63.9432 172.992 64.3517C173.229 64.7535 173.546 65.0796 173.941 65.33C174.336 65.5737 174.833 65.6956 175.433 65.6956C175.927 65.6956 176.352 65.5935 176.708 65.3893C177.07 65.1785 177.366 64.8919 177.597 64.5296C177.834 64.1672 178.009 63.7522 178.121 63.2845C178.233 62.8101 178.289 62.3062 178.289 61.7726Z" fill="white"/>
</svg>
