<svg width="208" height="120" viewBox="0 0 208 120" fill="none" xmlns="http://www.w3.org/2000/svg">
<path d="M99.8069 59.1466C99.8069 58.1516 99.6625 57.2448 99.3736 56.4263C99.1008 55.5918 98.6915 54.8776 98.1459 54.2838C97.6163 53.674 96.9663 53.2085 96.1959 52.8876C95.4256 52.5505 94.5509 52.382 93.5719 52.382C91.5177 52.382 89.8887 52.9838 88.685 54.1875C87.4974 55.3751 86.7592 57.0282 86.4703 59.1466H99.8069ZM103.274 70.5815C102.744 71.2235 102.11 71.7852 101.372 72.2667C100.633 72.7321 99.839 73.1172 98.9885 73.4222C98.1539 73.7271 97.2873 73.9518 96.3885 74.0962C95.4898 74.2567 94.5991 74.337 93.7164 74.337C92.0312 74.337 90.4745 74.0561 89.0461 73.4944C87.6338 72.9166 86.4061 72.0821 85.3629 70.9908C84.3358 69.8834 83.5333 68.5192 82.9556 66.8983C82.3778 65.2773 82.0889 63.4157 82.0889 61.3132C82.0889 59.6121 82.3457 58.0232 82.8593 56.5467C83.3889 55.0702 84.1432 53.7943 85.1222 52.719C86.1012 51.6277 87.2968 50.7771 88.7091 50.1673C90.1214 49.5413 91.7103 49.2284 93.4756 49.2284C94.9361 49.2284 96.2842 49.4772 97.52 49.9747C98.7718 50.4561 99.8471 51.1623 100.746 52.0931C101.661 53.0079 102.375 54.1474 102.888 55.5116C103.402 56.8597 103.659 58.4004 103.659 60.1337C103.659 60.8077 103.586 61.2571 103.442 61.4818C103.298 61.7064 103.025 61.8188 102.624 61.8188H86.3258C86.374 63.3595 86.5826 64.6996 86.9517 65.8391C87.3369 66.9785 87.8665 67.9334 88.5406 68.7038C89.2146 69.4581 90.0171 70.0278 90.9479 70.413C91.8788 70.7821 92.922 70.9667 94.0775 70.9667C95.1528 70.9667 96.0756 70.8463 96.8459 70.6056C97.6323 70.3488 98.3064 70.076 98.8681 69.7871C99.4298 69.4982 99.8952 69.2334 100.264 68.9927C100.65 68.7359 100.979 68.6075 101.251 68.6075C101.604 68.6075 101.877 68.7439 102.07 69.0167L103.274 70.5815ZM122.764 53.9468C122.636 54.1233 122.508 54.2597 122.379 54.356C122.251 54.4523 122.074 54.5005 121.85 54.5005C121.609 54.5005 121.344 54.4042 121.055 54.2116C120.766 54.003 120.405 53.7783 119.972 53.5375C119.555 53.2968 119.033 53.0801 118.407 52.8876C117.797 52.6789 117.043 52.5746 116.144 52.5746C114.94 52.5746 113.881 52.7913 112.966 53.2246C112.052 53.6419 111.281 54.2517 110.655 55.0542C110.046 55.8566 109.58 56.8276 109.259 57.967C108.954 59.1065 108.802 60.3824 108.802 61.7947C108.802 63.2712 108.97 64.5872 109.307 65.7428C109.644 66.8822 110.118 67.8452 110.728 68.6316C111.354 69.4019 112.1 69.9957 112.966 70.413C113.849 70.8142 114.836 71.0148 115.927 71.0148C116.971 71.0148 117.829 70.8945 118.503 70.6537C119.177 70.397 119.731 70.1161 120.164 69.8112C120.614 69.5062 120.983 69.2334 121.272 68.9927C121.577 68.7359 121.874 68.6075 122.163 68.6075C122.516 68.6075 122.788 68.7439 122.981 69.0167L124.185 70.5815C123.655 71.2395 123.053 71.8012 122.379 72.2667C121.705 72.7321 120.975 73.1253 120.188 73.4463C119.418 73.7512 118.608 73.9759 117.757 74.1203C116.906 74.2647 116.04 74.337 115.157 74.337C113.632 74.337 112.212 74.0561 110.896 73.4944C109.596 72.9327 108.465 72.1222 107.502 71.063C106.539 69.9877 105.785 68.6717 105.239 67.1149C104.693 65.5582 104.42 63.7848 104.42 61.7947C104.42 59.9812 104.669 58.3041 105.167 56.7634C105.68 55.2227 106.418 53.8986 107.381 52.7913C108.36 51.6678 109.556 50.7932 110.968 50.1673C112.397 49.5413 114.034 49.2284 115.879 49.2284C117.597 49.2284 119.105 49.5092 120.405 50.071C121.721 50.6166 122.885 51.395 123.896 52.4061L122.764 53.9468ZM135.511 49.2284C137.293 49.2284 138.898 49.5253 140.326 50.1191C141.754 50.7129 142.974 51.5555 143.985 52.6468C144.996 53.7381 145.766 55.0622 146.296 56.6189C146.842 58.1596 147.115 59.8849 147.115 61.7947C147.115 63.7206 146.842 65.4539 146.296 66.9946C145.766 68.5353 144.996 69.8513 143.985 70.9426C142.974 72.0339 141.754 72.8765 140.326 73.4703C138.898 74.0481 137.293 74.337 135.511 74.337C133.714 74.337 132.093 74.0481 130.648 73.4703C129.22 72.8765 128 72.0339 126.989 70.9426C125.978 69.8513 125.2 68.5353 124.654 66.9946C124.124 65.4539 123.86 63.7206 123.86 61.7947C123.86 59.8849 124.124 58.1596 124.654 56.6189C125.2 55.0622 125.978 53.7381 126.989 52.6468C128 51.5555 129.22 50.7129 130.648 50.1191C132.093 49.5253 133.714 49.2284 135.511 49.2284ZM135.511 70.9908C137.919 70.9908 139.716 70.1883 140.904 68.5834C142.091 66.9625 142.685 64.7076 142.685 61.8188C142.685 58.9139 142.091 56.651 140.904 55.0301C139.716 53.4091 137.919 52.5987 135.511 52.5987C134.291 52.5987 133.224 52.8073 132.309 53.2246C131.411 53.6419 130.656 54.2437 130.047 55.0301C129.453 55.8165 129.003 56.7874 128.698 57.943C128.41 59.0824 128.265 60.3744 128.265 61.8188C128.265 64.7076 128.859 66.9625 130.047 68.5834C131.25 70.1883 133.072 70.9908 135.511 70.9908ZM156.484 74.3851C154.558 74.3851 153.073 73.8475 152.03 72.7722C151.003 71.6969 150.489 70.1482 150.489 68.126V53.2005H147.552C147.296 53.2005 147.079 53.1283 146.902 52.9838C146.726 52.8234 146.638 52.5826 146.638 52.2616V50.5524L150.634 50.0469L151.621 42.5119C151.669 42.2712 151.773 42.0786 151.934 41.9341C152.11 41.7737 152.335 41.6934 152.608 41.6934H154.774V50.095H161.828V53.2005H154.774V67.8371C154.774 68.8643 155.023 69.6266 155.521 70.1241C156.018 70.6216 156.66 70.8704 157.447 70.8704C157.896 70.8704 158.281 70.8142 158.602 70.7019C158.939 70.5735 159.228 70.4371 159.469 70.2926C159.71 70.1482 159.91 70.0198 160.071 69.9075C160.247 69.7791 160.4 69.7149 160.528 69.7149C160.753 69.7149 160.953 69.8513 161.13 70.1241L162.382 72.1704C161.643 72.8605 160.753 73.4061 159.71 73.8074C158.666 74.1925 157.591 74.3851 156.484 74.3851ZM176.339 63.0225C174.365 63.0867 172.68 63.2471 171.284 63.5039C169.904 63.7447 168.772 64.0656 167.89 64.4669C167.023 64.8681 166.389 65.3415 165.988 65.8872C165.603 66.4329 165.41 67.0427 165.41 67.7168C165.41 68.3587 165.514 68.9124 165.723 69.3778C165.932 69.8433 166.212 70.2284 166.566 70.5334C166.935 70.8222 167.36 71.0389 167.841 71.1833C168.339 71.3117 168.869 71.3759 169.43 71.3759C170.185 71.3759 170.875 71.3037 171.501 71.1593C172.127 70.9988 172.712 70.7741 173.258 70.4852C173.82 70.1963 174.349 69.8513 174.847 69.4501C175.36 69.0488 175.858 68.5914 176.339 68.0779V63.0225ZM162.497 53.0561C163.845 51.7561 165.298 50.7851 166.854 50.1432C168.411 49.5012 170.136 49.1802 172.03 49.1802C173.394 49.1802 174.606 49.4049 175.665 49.8543C176.725 50.3037 177.615 50.9296 178.337 51.732C179.06 52.5345 179.605 53.5054 179.974 54.6449C180.344 55.7844 180.528 57.0362 180.528 58.4004V73.9999H178.626C178.209 73.9999 177.888 73.9357 177.663 73.8074C177.439 73.6629 177.262 73.3901 177.134 72.9889L176.652 70.6778C176.01 71.2716 175.384 71.8012 174.775 72.2667C174.165 72.716 173.523 73.1012 172.849 73.4222C172.175 73.7271 171.452 73.9598 170.682 74.1203C169.928 74.2968 169.085 74.3851 168.154 74.3851C167.207 74.3851 166.317 74.2567 165.482 73.9999C164.648 73.7271 163.917 73.3259 163.292 72.7963C162.682 72.2667 162.192 71.6006 161.823 70.7982C161.47 69.9797 161.293 69.0167 161.293 67.9094C161.293 66.9464 161.558 66.0236 162.088 65.1409C162.618 64.2422 163.476 63.4478 164.664 62.7577C165.851 62.0675 167.4 61.5058 169.31 61.0725C171.22 60.6231 173.563 60.3664 176.339 60.3022V58.4004C176.339 56.5066 175.93 55.0782 175.112 54.1153C174.293 53.1363 173.097 52.6468 171.525 52.6468C170.465 52.6468 169.575 52.7832 168.853 53.0561C168.146 53.3128 167.528 53.6098 166.999 53.9468C166.485 54.2678 166.036 54.5647 165.651 54.8375C165.282 55.0943 164.913 55.2227 164.543 55.2227C164.254 55.2227 164.006 55.1505 163.797 55.006C163.588 54.8455 163.412 54.6529 163.267 54.4283L162.497 53.0561Z" fill="white"/>
<path d="M35.2609 53.279L39.7285 37.7414C39.8585 37.2891 40.3233 37.0208 40.78 37.1343L56.4697 41.0341C73.6276 44.8632 73.823 60.3036 71.7759 67.5451L67.5203 83.4272C67.3953 83.8938 66.9157 84.1707 66.4491 84.0456L50.5671 79.7901C32.2315 74.621 32.7232 59.9622 35.2609 53.279Z" fill="#EAEAEA"/>
<path d="M46.0635 51.1941L40.0395 73.6762C39.9327 74.0746 40.1188 74.4934 40.4859 74.6812L46.7949 77.909C47.2846 78.1595 47.8813 77.9012 48.0336 77.3726L52.146 63.107C52.2295 62.8174 52.4562 62.5912 52.7459 62.5084L53.3572 62.3335C53.7431 62.2231 54.1546 62.3895 54.3552 62.7371L59.3161 71.3295C59.7032 72.0001 60.7067 71.8739 60.9157 71.1282L67.4969 47.6496C67.5722 47.3811 67.5186 47.0907 67.3251 46.8899C65.7251 45.2293 61.8278 43.3163 59.3723 42.2638C58.8962 42.0598 58.3557 42.3255 58.2126 42.8234L53.9739 57.5648C53.8604 57.9597 53.4872 58.2224 53.0771 58.1959L52.6499 58.1684C52.3709 58.1504 52.1174 58.0001 51.9676 57.764L47.6469 50.952C47.2389 50.3087 46.2607 50.4583 46.0635 51.1941Z" fill="white"/>
</svg>
