<svg width="208" height="120" viewBox="0 0 208 120" fill="none" xmlns="http://www.w3.org/2000/svg">
<path d="M48.7971 61.6748C48.8491 61.853 48.8986 61.9702 48.9786 62.1145L48.9796 62.1142C49.1494 62.4165 49.3781 62.6772 49.7439 62.9366L49.7503 62.942C49.7408 62.9352 49.7552 62.9443 49.8035 62.9743C49.8456 63.0003 49.8979 63.0319 49.954 63.0643C50.01 63.0968 50.0648 63.1284 50.1114 63.1536C50.1345 63.1661 50.1541 63.176 50.169 63.1837C50.178 63.1883 50.1837 63.1916 50.1867 63.1931L50.1876 63.1928C50.7611 63.4617 51.4557 63.6028 52.1886 63.5747C52.4806 63.5634 52.7752 63.5273 53.0913 63.4612L53.0923 63.4609C53.2345 63.4313 53.6296 63.319 53.7727 63.2685C54.8273 62.8881 55.6227 62.2731 56.1528 61.4994C56.2352 61.3791 56.3837 61.1092 56.4538 60.9476C56.687 60.4093 56.7284 59.8788 56.6192 59.4141L56.5628 59.2189C56.4421 58.8642 56.2204 58.5277 55.8861 58.2366L55.8847 58.2349L55.6753 58.0686C55.602 58.0165 55.5226 57.9661 55.4303 57.9128L55.4291 57.9121L55.237 57.81C54.2528 57.3247 52.8885 57.2449 51.555 57.735C50.5445 58.1074 49.7532 58.7232 49.2308 59.486L49.2298 59.4863C49.2279 59.4893 49.2148 59.5103 49.189 59.5528C49.1626 59.5965 49.1319 59.6496 49.1004 59.705C49.0687 59.7605 49.0388 59.814 49.0151 59.8583L48.9822 59.9206C48.7598 60.4024 48.6876 60.8176 48.7122 61.2032L48.7125 61.2082C48.7171 61.2839 48.7251 61.355 48.7385 61.4297L48.7971 61.6748Z" fill="white" stroke="white" stroke-width="3.17899"/>
<path d="M42.9411 53.5934L42.9947 53.7368C43.2353 54.3272 43.6295 54.733 44.1306 54.9651L44.1316 54.9649C45.1254 55.4235 46.7555 55.1599 48.0808 53.7772L48.0815 53.7761C48.7544 53.0744 49.2206 52.2145 49.4272 51.3237L49.427 51.3227C49.4457 51.2419 49.4616 51.1667 49.4751 51.0874L49.511 50.8291C49.5541 50.453 49.5462 50.1036 49.4881 49.7474L49.4866 49.7417C49.4896 49.7607 49.4913 49.7668 49.4879 49.7505C49.4854 49.738 49.4814 49.7189 49.4758 49.694C49.4648 49.6446 49.4506 49.5829 49.4352 49.5199C49.4199 49.4568 49.4046 49.3984 49.3929 49.3543C49.3888 49.339 49.3857 49.3273 49.3836 49.3194C49.3806 49.3111 49.3776 49.3024 49.3748 49.2945C49.366 49.2693 49.3557 49.241 49.3465 49.2151C49.1334 48.618 48.7292 48.1726 48.2254 47.9252L48.0043 47.8318C47.62 47.6942 47.1795 47.6483 46.6434 47.7334C46.6434 47.7334 46.6171 47.738 46.56 47.7507C46.5077 47.7623 46.4447 47.7776 46.3795 47.794C46.3144 47.8103 46.2517 47.8266 46.1991 47.8413C46.173 47.8486 46.1509 47.8547 46.1343 47.8597C46.1208 47.8638 46.1137 47.8661 46.1119 47.8667L46.111 47.8669C45.3525 48.1255 44.6729 48.5782 44.0834 49.2463L44.0837 49.2473C43.6301 49.7615 43.3074 50.2946 43.0729 50.9083C42.6994 51.8859 42.6913 52.8634 42.9411 53.5934Z" fill="white" stroke="white" stroke-width="3.17899"/>
<path d="M47.5436 70.1863C47.7068 70.9348 48.3796 71.7881 49.4753 72.264C50.2675 72.6081 51.0707 72.7032 51.8379 72.5691L51.8389 72.5689C51.8396 72.5687 51.8423 72.5687 51.8457 72.5681C51.8502 72.5672 51.8564 72.5658 51.8639 72.5642C51.8796 72.5609 51.8993 72.5559 51.9229 72.5504C51.9705 72.5394 52.0262 72.5265 52.0833 72.5115C52.1406 72.4964 52.1948 72.4808 52.2394 72.4676C52.2828 72.4548 52.3038 72.4475 52.3065 72.4466C52.6785 72.3107 52.9316 72.1561 53.1335 71.9783C53.3921 71.75 53.5463 71.5049 53.6345 71.2183C53.6977 71.0123 53.7194 70.7825 53.6817 70.508C53.6802 70.5003 53.6788 70.4885 53.6755 70.4733C53.6669 70.4338 53.6544 70.3832 53.6408 70.3289C53.6274 70.2748 53.6141 70.2237 53.6028 70.1834C53.5979 70.1655 53.5937 70.152 53.591 70.1431C53.4564 69.7782 53.2369 69.4302 52.9117 69.1058L52.7632 68.9667C52.3647 68.6121 51.9043 68.3459 51.3288 68.156C50.7468 67.964 50.1539 67.9037 49.597 67.9679L49.5959 67.9672L49.3721 67.9999C49.3039 68.0132 49.2294 68.0321 49.1093 68.0642C48.8368 68.1372 48.7605 68.1673 48.5626 68.2653L48.5617 68.2656C47.9406 68.5724 47.618 69.037 47.5291 69.5057L47.5284 69.5069C47.4971 69.6722 47.49 69.8284 47.5119 70.0037L47.5436 70.1863Z" fill="white" stroke="white" stroke-width="3.17899"/>
<path d="M28.2274 62.0186C28.2836 62.601 28.4772 63.3172 28.6688 63.7263L28.67 63.727C28.8462 64.1046 29.0191 64.2965 29.2118 64.4361C29.2168 64.4393 29.2253 64.4449 29.2374 64.4525C29.2623 64.468 29.2932 64.4869 29.3267 64.5064C29.3602 64.5259 29.3922 64.5437 29.4183 64.5577C29.4351 64.5667 29.4456 64.5714 29.4498 64.5735L29.451 64.5742C29.6349 64.6589 29.768 64.7114 30.4308 64.9031L30.4318 64.9028C30.9988 65.067 31.3157 65.1711 31.6786 65.33L31.6819 65.3312C31.9464 65.4478 32.2176 65.5925 32.4662 65.7529L32.7066 65.918C33.5734 66.5576 34.1764 67.4504 34.5984 68.4957C34.7143 68.7823 34.8653 69.3559 34.9113 69.6523L34.9118 69.6542C34.9752 70.0649 35.0045 70.4036 35.0395 71.0213L35.0389 71.0225C35.0904 71.9373 35.1327 72.1622 35.2298 72.501C35.2646 72.6222 35.2825 72.6775 35.2964 72.7156C35.3087 72.7492 35.3242 72.7896 35.3633 72.8747L35.3642 72.8744C35.49 73.1461 35.6841 73.4171 35.8926 73.6164L35.8938 73.6171C36.46 74.1594 37.4397 74.4864 38.5372 74.3172C39.4135 74.182 40.2123 73.7683 40.8606 73.0951L40.8613 73.0939C41.2501 72.6903 41.7163 72.0052 42.1221 71.1587C42.6589 70.0388 43.06 68.7115 43.2477 67.4095C43.4059 66.3119 43.4171 65.2637 43.2917 64.2909L43.2298 63.8788C43.1771 63.5759 43.0389 63.0106 42.9607 62.765L42.9609 62.7659C42.7101 61.9855 42.3963 61.3561 41.965 60.7469L41.9647 60.746C41.5405 60.1465 41.0875 59.6501 40.5805 59.2212L40.3596 59.0418C39.8989 58.681 39.4063 58.3845 38.8816 58.1518L38.6547 58.0559C37.2272 57.4835 35.5394 57.3388 33.506 57.7178C32.9413 57.8233 32.0864 58.0478 31.5113 58.2422L31.5094 58.2427C31.3847 58.2847 31.1562 58.3559 30.9888 58.4054L30.987 58.4059C30.657 58.5033 30.4916 58.5649 30.2843 58.6589L30.2827 58.6603C29.5432 58.9949 29.0405 59.4137 28.6979 59.8958C28.6956 59.8992 28.6831 59.9185 28.6596 59.9566C28.6356 59.9955 28.6069 60.0421 28.5785 60.0916C28.55 60.1411 28.5243 60.1891 28.5031 60.2291C28.4797 60.273 28.47 60.2923 28.471 60.2903L28.4691 60.2948C28.257 60.7594 28.1587 61.3154 28.2271 62.0177L28.2274 62.0186Z" fill="white" stroke="white" stroke-width="3.17899"/>
<path d="M34.1441 49.3223C33.8483 50.3759 34.0162 51.3341 34.4099 51.9444L34.492 52.0619C34.5674 52.1619 34.6297 52.2303 34.7402 52.3281L34.7411 52.3278C34.8485 52.4225 34.9471 52.491 35.0699 52.5511L35.2016 52.6088C35.4446 52.7039 35.7176 52.7427 36.0743 52.6924L36.0802 52.6919C36.0593 52.6947 36.0656 52.6943 36.1116 52.6845C36.1498 52.6763 36.1979 52.6653 36.2496 52.6525C36.3014 52.6397 36.351 52.6269 36.3914 52.6156C36.4369 52.6028 36.4517 52.5977 36.443 52.6007L36.4439 52.6005C37.2203 52.3273 37.9678 51.6579 38.4229 50.674L38.4236 50.6728C38.7824 49.8983 38.8881 49.0969 38.7673 48.3747C38.7658 48.3671 38.7617 48.3484 38.7547 48.3164C38.7449 48.2721 38.7329 48.218 38.7197 48.163C38.7064 48.1079 38.693 48.0566 38.6824 48.0163C38.6779 47.9994 38.6745 47.9865 38.672 47.9776C38.4718 47.3823 38.1623 47.0339 37.8333 46.8435L37.8312 46.8431L37.6833 46.7665C37.33 46.6069 36.9155 46.5751 36.4214 46.7285C35.6505 46.9683 34.8567 47.6564 34.3882 48.6675L34.299 48.8744C34.254 48.9862 34.1749 49.2151 34.1441 49.3223Z" fill="white" stroke="white" stroke-width="3.17899"/>
<path d="M57.1323 58.3358C56.9162 57.7012 56.5285 57.1318 55.9943 56.6666C55.7746 56.4747 55.5571 56.3204 55.2891 56.1657C53.828 55.3208 51.8678 55.2108 50.0693 55.8723C48.7749 56.3493 47.7072 57.1604 46.9837 58.2168C46.8882 58.356 46.6722 58.735 46.6035 58.8835C46.284 59.5757 46.1472 60.2536 46.1905 60.9335C46.2074 61.2136 46.2523 61.4619 46.3362 61.7492C46.4216 62.0421 46.5174 62.2699 46.6578 62.522C46.9531 63.0477 47.3491 63.4796 47.8891 63.8625C48.0265 63.961 48.4115 64.1833 48.5773 64.2612C49.397 64.6455 50.346 64.8294 51.314 64.7922C51.6996 64.7773 52.0825 64.7294 52.481 64.6461C52.6996 64.6005 53.172 64.4661 53.3764 64.3931C54.7144 63.9105 55.7929 63.1009 56.5289 62.0264C56.673 61.816 56.8698 61.4561 56.9771 61.2087C57.3883 60.2594 57.4422 59.2463 57.1323 58.3358Z" fill="#EAEAEA"/>
<path d="M49.9586 48.4528C49.9515 48.433 49.9291 48.3687 49.9082 48.3101C49.5113 47.1981 48.6773 46.3491 47.6051 45.9648C46.9399 45.7265 46.2237 45.6703 45.4508 45.7941C45.2762 45.8226 44.8387 45.9321 44.6622 45.9924C43.6278 46.345 42.7184 46.9601 41.9557 47.8248C41.3793 48.4782 40.956 49.1747 40.652 49.9703C40.1328 51.3294 40.1089 52.7944 40.5868 53.9662C40.9719 54.9112 41.6448 55.6282 42.5301 56.0374C44.3025 56.8554 46.6355 56.2355 48.2928 54.5063C49.1576 53.6047 49.7666 52.4905 50.04 51.3118C50.0919 51.0879 50.1262 50.8886 50.1547 50.6389C50.2139 50.1215 50.2033 49.6254 50.1211 49.1208C50.102 49.0009 49.9891 48.5374 49.9586 48.4528Z" fill="#EAEAEA"/>
<path d="M54.1561 69.2464C53.9056 68.5543 53.4782 67.9373 52.8855 67.4089C52.3145 66.9007 51.6606 66.5293 50.8914 66.2755C50.1004 66.0145 49.2757 65.9257 48.4795 66.0176C48.2025 66.0493 48.0666 66.0762 47.7621 66.1577C47.3994 66.2549 47.2235 66.3203 46.9216 66.4697C45.9048 66.9721 45.2234 67.8263 45.0315 68.8392C44.948 69.2789 44.9557 69.6994 45.055 70.1544C45.3467 71.4924 46.4336 72.7118 47.9065 73.3515C48.9691 73.813 50.0864 73.9544 51.1756 73.7641C51.3605 73.7319 51.7487 73.6296 51.9093 73.5718C52.4438 73.3774 52.8776 73.1276 53.2496 72.7997C53.7198 72.3847 54.0414 71.8916 54.219 71.3138C54.3556 70.8685 54.3896 70.3995 54.3197 69.9054C54.3016 69.7732 54.2014 69.3731 54.1561 69.2464Z" fill="#EAEAEA"/>
<path d="M43.539 61.9088C43.2415 60.9828 42.8572 60.2059 42.3267 59.4569C41.7584 58.6539 41.131 57.9898 40.4058 57.4206C39.7621 56.9162 39.0629 56.5118 38.3112 56.2099C36.5486 55.503 34.5455 55.362 32.2794 55.7844C31.6381 55.9042 30.7099 56.1477 30.0662 56.3653C29.9659 56.3991 29.757 56.4646 29.6018 56.5105C29.2183 56.6237 28.981 56.7099 28.6917 56.8412C27.732 57.2753 26.9915 57.8634 26.4627 58.6099C26.3596 58.7564 26.1625 59.099 26.0878 59.2639C25.7439 60.0173 25.6181 60.8597 25.7098 61.8009C25.7812 62.5401 26.0158 63.4352 26.2938 64.0289C26.5667 64.6135 26.9015 65.034 27.3489 65.3566C27.4638 65.4387 27.7167 65.5861 27.8503 65.6475C28.1493 65.7852 28.3795 65.864 29.0539 66.059C29.6033 66.2181 29.8401 66.2987 30.1055 66.415C30.3663 66.53 30.6264 66.6781 30.8275 66.8264C31.3986 67.2478 31.8463 67.8697 32.1896 68.7201C32.2537 68.8782 32.3756 69.3332 32.4054 69.5256C32.4572 69.8614 32.4827 70.141 32.5168 70.741C32.5707 71.6966 32.6203 72.0599 32.7663 72.5692C32.8436 72.8383 32.886 72.9545 32.9856 73.1708C33.1938 73.6208 33.5039 74.0558 33.8585 74.3946C34.8332 75.3283 36.3328 75.7499 37.8443 75.5167C39.0734 75.3271 40.1867 74.7442 41.0705 73.8262C41.6102 73.266 42.1649 72.4249 42.6202 71.4751C43.2297 70.2037 43.6756 68.7202 43.8853 67.2652C44.0874 65.8627 44.0792 64.5043 43.8602 63.2371C43.7963 62.869 43.6414 62.2293 43.539 61.9088Z" fill="#EAEAEA"/>
<path d="M39.2481 47.1142C38.9455 46.2052 38.412 45.5125 37.6932 45.0969C36.8919 44.6322 35.9657 44.5436 35.0133 44.8396C33.6661 45.2587 32.4903 46.4146 31.8889 47.9103C31.8227 48.0747 31.727 48.3554 31.6817 48.5134C31.2551 50.0238 31.4819 51.5761 32.2857 52.6458C32.4298 52.8372 32.5663 52.9837 32.7539 53.1495C33.0368 53.3991 33.3221 53.5734 33.6776 53.715C34.1987 53.9207 34.753 53.9813 35.3608 53.8957C35.5073 53.8755 35.8833 53.7826 36.0363 53.7286C37.2669 53.2956 38.3183 52.2937 38.9303 50.9704C39.4141 49.9262 39.577 48.8014 39.3997 47.7417C39.3776 47.6105 39.2841 47.2225 39.2481 47.1142Z" fill="#EAEAEA"/>
<path d="M67.6956 69.9735V50.6921H80.7168V54.3369H72.036V58.1209H79.743V61.6822H72.036V66.3287H81.3567V69.9735H67.6956ZM88.2692 69.9735C87.3232 68.1186 86.3587 65.9484 85.3756 63.4629C84.4111 60.9774 83.4929 58.2693 82.6211 55.3386H87.0172C87.2027 56.062 87.416 56.8503 87.6571 57.7035C87.9168 58.5382 88.1765 59.3915 88.4362 60.2633C88.7144 61.1165 88.9833 61.9512 89.243 62.7673C89.5213 63.5835 89.7902 64.3254 90.0499 64.9932C90.291 64.3254 90.5507 63.5835 90.8289 62.7673C91.1072 61.9512 91.3761 61.1165 91.6358 60.2633C91.914 59.3915 92.1737 58.5382 92.4149 57.7035C92.6745 56.8503 92.8971 56.062 93.0826 55.3386H97.3674C96.4956 58.2693 95.5681 60.9774 94.5851 63.4629C93.6205 65.9484 92.6653 68.1186 91.7193 69.9735H88.2692ZM98.5118 62.7673C98.5118 61.4689 98.7066 60.3375 99.0961 59.3729C99.5042 58.3898 100.033 57.5737 100.682 56.9245C101.331 56.2753 102.073 55.7837 102.908 55.4499C103.761 55.116 104.633 54.949 105.523 54.949C107.601 54.949 109.242 55.589 110.448 56.8688C111.654 58.1302 112.256 59.9943 112.256 62.4613C112.256 62.7024 112.247 62.9714 112.229 63.2681C112.21 63.5464 112.191 63.7968 112.173 64.0194H102.769C102.861 64.8726 103.26 65.5496 103.965 66.0505C104.67 66.5513 105.616 66.8017 106.803 66.8017C107.564 66.8017 108.306 66.7368 109.029 66.6069C109.771 66.4585 110.374 66.2823 110.837 66.0783L111.394 69.4449C111.171 69.5562 110.875 69.6675 110.504 69.7787C110.133 69.89 109.715 69.9828 109.252 70.057C108.806 70.1497 108.324 70.2239 107.805 70.2796C107.285 70.3352 106.766 70.363 106.247 70.363C104.93 70.363 103.78 70.1683 102.797 69.7787C101.832 69.3892 101.025 68.8606 100.376 68.1928C99.7453 67.5065 99.2723 66.6997 98.957 65.7722C98.6602 64.8448 98.5118 63.8432 98.5118 62.7673ZM108.25 61.1814C108.231 60.829 108.166 60.4858 108.055 60.152C107.962 59.8181 107.805 59.5213 107.582 59.2616C107.378 59.0019 107.109 58.7886 106.775 58.6217C106.46 58.4548 106.061 58.3713 105.579 58.3713C105.115 58.3713 104.716 58.4548 104.382 58.6217C104.049 58.7701 103.77 58.9741 103.548 59.2338C103.325 59.4935 103.149 59.7995 103.019 60.152C102.908 60.4858 102.824 60.829 102.769 61.1814H108.25ZM124.276 59.0112C123.905 58.9185 123.469 58.8257 122.968 58.733C122.467 58.6217 121.929 58.566 121.354 58.566C121.094 58.566 120.779 58.5939 120.408 58.6495C120.056 58.6866 119.787 58.733 119.601 58.7886V69.9735H115.456V56.1176C116.198 55.8579 117.069 55.6168 118.071 55.3942C119.091 55.1531 120.223 55.0325 121.465 55.0325C121.688 55.0325 121.957 55.0511 122.272 55.0882C122.588 55.1067 122.903 55.1438 123.218 55.1995C123.534 55.2366 123.849 55.2922 124.164 55.3664C124.48 55.422 124.749 55.4962 124.971 55.589L124.276 59.0112Z" fill="#EAEAEA"/>
<path d="M133.259 50.4695C136.134 50.4695 138.341 50.9796 139.881 51.9998C141.42 53.0014 142.19 54.6523 142.19 56.9523C142.19 59.2709 141.411 60.9496 139.853 61.9883C138.295 63.0085 136.069 63.5186 133.175 63.5186H131.812V69.9735H127.472V50.9703C128.418 50.7849 129.419 50.655 130.477 50.5808C131.534 50.5066 132.461 50.4695 133.259 50.4695ZM133.537 54.17C133.222 54.17 132.906 54.1793 132.591 54.1978C132.294 54.2164 132.035 54.2349 131.812 54.2535V59.8181H133.175C134.678 59.8181 135.809 59.6141 136.57 59.206C137.33 58.7979 137.711 58.0374 137.711 56.9245C137.711 56.3866 137.609 55.9414 137.405 55.589C137.219 55.2366 136.941 54.9583 136.57 54.7543C136.217 54.5317 135.782 54.3833 135.262 54.3091C134.743 54.2164 134.168 54.17 133.537 54.17ZM143.996 62.7673C143.996 61.4689 144.191 60.3375 144.58 59.3729C144.988 58.3898 145.517 57.5737 146.166 56.9245C146.815 56.2753 147.557 55.7837 148.392 55.4499C149.245 55.116 150.117 54.949 151.007 54.949C153.085 54.949 154.726 55.589 155.932 56.8688C157.138 58.1302 157.741 59.9943 157.741 62.4613C157.741 62.7024 157.731 62.9714 157.713 63.2681C157.694 63.5464 157.676 63.7968 157.657 64.0194H148.253C148.346 64.8726 148.744 65.5496 149.449 66.0505C150.154 66.5513 151.1 66.8017 152.287 66.8017C153.048 66.8017 153.79 66.7368 154.513 66.6069C155.255 66.4585 155.858 66.2823 156.322 66.0783L156.878 69.4449C156.656 69.5562 156.359 69.6675 155.988 69.7787C155.617 69.89 155.199 69.9828 154.736 70.057C154.291 70.1497 153.808 70.2239 153.289 70.2796C152.77 70.3352 152.25 70.363 151.731 70.363C150.414 70.363 149.264 70.1683 148.281 69.7787C147.316 69.3892 146.509 68.8606 145.86 68.1928C145.23 67.5065 144.757 66.6997 144.441 65.7722C144.144 64.8448 143.996 63.8432 143.996 62.7673ZM153.734 61.1814C153.716 60.829 153.651 60.4858 153.539 60.152C153.447 59.8181 153.289 59.5213 153.066 59.2616C152.862 59.0019 152.593 58.7886 152.259 58.6217C151.944 58.4548 151.545 58.3713 151.063 58.3713C150.599 58.3713 150.201 58.4548 149.867 58.6217C149.533 58.7701 149.255 58.9741 149.032 59.2338C148.809 59.4935 148.633 59.7995 148.503 60.152C148.392 60.4858 148.309 60.829 148.253 61.1814H153.734ZM160.801 51.6937L164.946 51.026V55.3386H169.927V58.7886H164.946V63.9359C164.946 64.8077 165.095 65.5033 165.392 66.0226C165.707 66.542 166.328 66.8017 167.256 66.8017C167.701 66.8017 168.155 66.7646 168.619 66.6904C169.101 66.5976 169.537 66.4771 169.927 66.3287L170.511 69.5562C170.01 69.7602 169.454 69.9364 168.842 70.0848C168.229 70.2332 167.478 70.3074 166.588 70.3074C165.456 70.3074 164.52 70.159 163.778 69.8622C163.036 69.5469 162.442 69.1203 161.997 68.5824C161.552 68.0259 161.237 67.3581 161.051 66.5791C160.884 65.8 160.801 64.9375 160.801 63.9915V51.6937ZM184.293 58.1209C183.959 58.4919 183.504 58.9927 182.929 59.6233C182.373 60.254 181.77 60.9496 181.121 61.7101C180.472 62.4706 179.813 63.2681 179.145 64.1028C178.496 64.9375 177.903 65.7444 177.365 66.5234H184.432V69.9735H172.329V67.5251C172.718 66.8573 173.182 66.1432 173.72 65.3827C174.276 64.6037 174.851 63.8246 175.445 63.0456C176.057 62.2665 176.66 61.5153 177.254 60.7919C177.847 60.0499 178.394 59.3822 178.895 58.7886H172.663V55.3386H184.293V58.1209Z" fill="white"/>
</svg>
