<svg width="208" height="120" viewBox="0 0 208 120" fill="none" xmlns="http://www.w3.org/2000/svg">
<path fill-rule="evenodd" clip-rule="evenodd" d="M81.0182 54.2854C77.5166 56.442 75.1704 60.3737 75.1592 64.8692V64.9014V64.934C75.1594 65.0079 75.1601 65.0814 75.1616 65.155C75.1918 66.6991 75.4976 68.1737 76.0303 69.529C77.8112 74.0593 82.1283 77.2589 87.1746 77.2723H87.2063H87.2378C90.1743 77.2645 92.8641 76.178 94.9508 74.3777V77.2723H99.2534V64.934V64.9246V64.9014V64.8783V64.8689C99.2363 58.0515 93.8492 52.5305 87.2061 52.5305C86.4841 52.5305 85.7769 52.5958 85.0895 52.7209C83.6237 52.9875 82.2497 53.5267 81.0182 54.2854ZM94.9512 64.9016C94.9512 64.9106 94.9512 64.9191 94.9512 64.928C94.9375 69.3081 91.4753 72.8546 87.2066 72.8546C83.8103 72.8546 80.9244 70.6096 79.8801 67.4858C79.6091 66.6758 79.462 65.8066 79.462 64.9019C79.462 61.1311 82.0179 57.9731 85.4476 57.1552C86.0128 57.0203 86.6014 56.9493 87.2064 56.9493C91.4837 56.9493 94.9512 60.5093 94.9512 64.9016Z" fill="white"/>
<path fill-rule="evenodd" clip-rule="evenodd" d="M63 60.539V77.345H67.3026V66.4281V60.5391H68.3175H73.3261V56.1168H67.3026V56.1514C67.3026 56.1399 67.3026 56.1283 67.3026 56.1168C67.3208 50.7595 71.5517 46.4224 76.7684 46.4224V42C69.1756 42 63.0182 48.3172 63.0002 56.117V56.1516V56.1865L63 60.539Z" fill="white"/>
<path fill-rule="evenodd" clip-rule="evenodd" d="M105.277 71.7503V63.1369C105.277 59.7206 107.974 56.9514 111.3 56.9514C114.627 56.9514 117.324 59.7207 117.324 63.1369C117.324 63.1445 117.324 63.152 117.324 63.1599V71.7504V77.2752H121.627V63.137C121.627 57.2809 117.003 52.5334 111.3 52.5334C105.598 52.5334 100.975 57.2809 100.975 63.137V77.2752H105.277V71.7503Z" fill="white"/>
<path fill-rule="evenodd" clip-rule="evenodd" d="M137.828 68.3651C138.47 68.7472 138.966 69.1473 139.21 69.6224C139.476 70.1421 139.486 70.3295 139.284 70.8153C138.842 71.8763 137.613 72.5327 135.757 72.8542C134.924 72.9986 133.954 73.0707 132.847 73.0707C131.917 73.0707 131.017 72.9983 130.147 72.8542C129.39 72.7285 128.655 72.5483 127.944 72.3132C127.385 72.1283 126.876 71.9208 126.398 71.6907L123.393 75.0858C123.454 75.1188 123.516 75.1532 123.579 75.1858C124.258 75.5345 124.987 75.8476 125.764 76.1223C127.973 76.8909 130.327 77.2722 132.828 77.2722C136.226 77.2722 138.91 76.6791 140.887 75.511C142.112 74.7868 142.966 73.9027 143.436 72.854C143.547 72.6059 143.649 72.4537 143.813 71.8995C143.988 71.3097 144.015 70.6407 143.993 70.2031C143.961 69.5572 143.847 68.8788 143.724 68.4149C143.605 67.9612 143.41 67.5261 143.14 67.1102C142.616 66.3023 141.807 65.5662 140.711 64.9013C140.666 64.8739 140.62 64.8468 140.574 64.8197C139.749 64.3372 138.745 63.8773 137.564 63.4398C137.103 63.2773 136.601 63.0976 136.051 62.9127L135.339 62.6996C135.196 62.6504 135.046 62.6069 134.901 62.5614C134.824 62.538 134.741 62.5133 134.651 62.4863L133.559 62.1274L133.486 62.0938C131.431 61.4771 129.999 60.9327 129.198 60.4504C128.63 60.1129 128.163 59.7728 127.994 59.3375C127.972 59.2812 127.95 59.2326 127.941 59.1858C127.66 57.7217 129.641 57.1592 130.731 56.9487C131.479 56.8044 132.366 56.7324 133.394 56.7324C134.251 56.7324 135.08 56.8045 135.882 56.9487C136.458 57.0524 137.021 57.1936 137.569 57.3718C138.03 57.5122 138.467 57.6858 138.896 57.8821C139.049 57.9606 139.203 58.0337 139.349 58.1122C139.405 58.1484 139.462 58.1833 139.518 58.2179L140.866 56.9487L142.863 55.0699C142.843 55.0496 142.815 55.0315 142.783 55.0098C142.652 54.9218 142.507 54.8302 142.354 54.7293C142.127 54.6115 141.909 54.4937 141.69 54.3872C141.075 54.0673 140.412 53.787 139.724 53.5458C137.742 52.8672 135.646 52.5305 133.413 52.5305C130.33 52.5305 127.903 53.0578 126.115 54.1235C124.845 54.8679 124.029 55.8104 123.662 56.9487C123.592 57.1661 123.502 57.5098 123.454 57.8728C123.393 58.3415 123.348 58.6795 123.348 59.0497V59.0603C123.348 59.2609 123.361 59.4711 123.391 59.7169C123.438 60.0928 123.468 60.3207 123.498 60.4669C123.661 61.2741 124.075 62.0161 124.739 62.6925C125.176 63.1383 125.723 63.5563 126.379 63.9455C126.947 64.2797 127.606 64.5975 128.357 64.9014C128.59 64.9954 128.831 65.088 129.081 65.1795C129.494 65.3306 129.951 65.5017 130.457 65.6562L131.097 65.8521L132.803 66.408L132.876 66.425C133.649 66.6603 134.347 66.8893 134.97 67.1108C136.23 67.5594 137.183 67.9783 137.828 68.3651Z" fill="white"/>
</svg>
