<svg width="208" height="120" viewBox="0 0 208 120" fill="none" xmlns="http://www.w3.org/2000/svg">
<path d="M67.2334 50.8581C67.2334 47.7424 67.2334 46.1846 66.6271 44.9946C66.0937 43.9478 65.2426 43.0967 64.1959 42.5634C63.0058 41.957 61.448 41.957 58.3323 41.957H42.7555C39.6399 41.957 38.082 41.957 36.892 42.5634C35.8452 43.0967 34.9942 43.9478 34.4608 44.9946C33.8545 46.1846 33.8545 47.7424 33.8545 50.8581V60.8718C33.8545 63.9874 33.8545 65.5453 34.4608 66.7353C34.9942 67.7821 35.8452 68.6331 36.892 69.1665C38.082 69.7728 39.6399 69.7728 42.7555 69.7728H54.8392C55.9964 69.7728 56.575 69.7728 57.1285 69.8864C57.6195 69.9872 58.0946 70.1538 58.541 70.3819C59.0441 70.6389 59.4959 71.0004 60.3996 71.7233L64.8231 75.2622C65.5947 75.8794 65.9805 76.1881 66.3052 76.1884C66.5876 76.1887 66.8547 76.0603 67.0308 75.8396C67.2334 75.5859 67.2334 75.0918 67.2334 74.1037V50.8581Z" fill="white"/>
<path d="M65.3789 52.7126C65.3789 49.597 65.3789 48.0391 64.7726 46.8491C64.2392 45.8023 63.3881 44.9513 62.3414 44.4179C61.1513 43.8116 59.5935 43.8116 56.4779 43.8116H40.901C37.7854 43.8116 36.2275 43.8116 35.0375 44.4179C33.9907 44.9513 33.1397 45.8023 32.6063 46.8491C32 48.0391 32 49.597 32 52.7126V62.7263C32 65.842 32 67.3998 32.6063 68.5898C33.1397 69.6366 33.9907 70.4877 35.0375 71.021C36.2275 71.6274 37.7854 71.6274 40.901 71.6274H52.9847C54.1419 71.6274 54.7205 71.6274 55.274 71.741C55.765 71.8417 56.2401 72.0084 56.6865 72.2364C57.1896 72.4935 57.6415 72.8549 58.5451 73.5779L62.9687 77.1167C63.7402 77.734 64.126 78.0426 64.4507 78.043C64.7331 78.0433 65.0002 77.9149 65.1764 77.6942C65.3789 77.4404 65.3789 76.9464 65.3789 75.9583V52.7126Z" fill="#EAEAEA" stroke="white" stroke-width="0.518138" stroke-linecap="round" stroke-linejoin="round"/>
<path d="M44.5352 57.7523L47.0196 60.2367L51.9884 55.2679M56.5431 57.7523C56.5431 62.326 52.8355 66.0337 48.2618 66.0337C43.6881 66.0337 39.9805 62.326 39.9805 57.7523C39.9805 53.1787 43.6881 49.471 48.2618 49.471C52.8355 49.471 56.5431 53.1787 56.5431 57.7523Z" stroke="#1B1A47" stroke-width="1.77729" stroke-linecap="round" stroke-linejoin="round"/>
<path d="M92.9669 55.1271C92.7202 54.3532 92.3886 53.66 91.9718 53.0477C91.5636 52.4268 91.0746 51.8995 90.5047 51.4658C89.9349 51.0235 89.2843 50.6876 88.5529 50.458C87.83 50.2283 87.0348 50.1135 86.1673 50.1135C84.696 50.1135 83.3692 50.492 82.1871 51.2489C81.0049 52.0058 80.0694 53.1157 79.3805 54.5785C78.7001 56.0329 78.3599 57.8146 78.3599 59.9238C78.3599 62.0415 78.7043 63.8318 79.3932 65.2946C80.0821 66.7574 81.0261 67.8673 82.2253 68.6242C83.4245 69.3811 84.7895 69.7596 86.3204 69.7596C87.7407 69.7596 88.9781 69.4704 90.0327 68.8921C91.0958 68.3138 91.9165 67.4973 92.4949 66.4427C93.0817 65.3796 93.3751 64.1294 93.3751 62.6921L94.3957 62.8835H86.92V59.6304H97.1895V62.6028C97.1895 64.7971 96.7218 66.7021 95.7862 68.318C94.8592 69.9255 93.575 71.1672 91.9336 72.0431C90.3006 72.9191 88.4296 73.3571 86.3204 73.3571C83.9561 73.3571 81.8809 72.8128 80.0949 71.7242C78.3174 70.6356 76.9311 69.092 75.936 67.0934C74.941 65.0862 74.4434 62.7049 74.4434 59.9493C74.4434 57.8657 74.7326 55.9946 75.3109 54.3362C75.8892 52.6777 76.7015 51.2702 77.7475 50.1135C78.8021 48.9484 80.0396 48.0596 81.4599 47.4473C82.8887 46.8264 84.4493 46.516 86.1418 46.516C87.5536 46.516 88.8676 46.7244 90.0838 47.1411C91.3084 47.5578 92.3971 48.1489 93.3496 48.9144C94.3106 49.6798 95.1058 50.5898 95.7352 51.6444C96.3646 52.6905 96.7898 53.8514 97.0109 55.1271H92.9669ZM108.177 73.3954C106.247 73.3954 104.584 72.9829 103.189 72.158C101.803 71.3245 100.731 70.1551 99.9743 68.6497C99.2259 67.1359 98.8516 65.3626 98.8516 63.33C98.8516 61.3229 99.2259 59.5539 99.9743 58.023C100.731 56.4921 101.786 55.2972 103.138 54.4382C104.499 53.5792 106.089 53.1497 107.909 53.1497C109.015 53.1497 110.086 53.3326 111.124 53.6983C112.162 54.064 113.093 54.6381 113.918 55.4205C114.743 56.203 115.393 57.2193 115.87 58.4695C116.346 59.7112 116.584 61.2208 116.584 62.9983V64.3506H101.008V61.4929H112.846C112.846 60.4894 112.642 59.6006 112.234 58.8267C111.826 58.0443 111.252 57.4277 110.512 56.9769C109.78 56.5261 108.921 56.3008 107.935 56.3008C106.863 56.3008 105.928 56.5644 105.128 57.0917C104.337 57.6105 103.725 58.2909 103.291 59.1329C102.866 59.9663 102.653 60.8721 102.653 61.8501V64.0827C102.653 65.3924 102.883 66.5065 103.342 67.425C103.81 68.3436 104.461 69.0452 105.294 69.53C106.128 70.0062 107.101 70.2444 108.215 70.2444C108.938 70.2444 109.597 70.1423 110.193 69.9382C110.788 69.7256 111.303 69.4109 111.736 68.9942C112.17 68.5774 112.502 68.0629 112.731 67.4506L116.342 68.1012C116.053 69.1643 115.534 70.0956 114.785 70.895C114.045 71.6859 113.114 72.3025 111.992 72.7448C110.877 73.1785 109.606 73.3954 108.177 73.3954ZM133.344 58.1888L129.887 58.8012C129.743 58.3589 129.513 57.9379 129.198 57.5382C128.892 57.1385 128.475 56.8111 127.948 56.5559C127.421 56.3008 126.762 56.1732 125.971 56.1732C124.891 56.1732 123.989 56.4156 123.266 56.9004C122.543 57.3766 122.182 57.9932 122.182 58.7501C122.182 59.405 122.424 59.9323 122.909 60.332C123.394 60.7318 124.176 61.0592 125.256 61.3143L128.369 62.0287C130.172 62.4455 131.516 63.0876 132.4 63.9551C133.285 64.8226 133.727 65.9495 133.727 67.3357C133.727 68.5094 133.387 69.5555 132.707 70.474C132.035 71.384 131.095 72.0984 129.887 72.6172C128.688 73.136 127.298 73.3954 125.716 73.3954C123.521 73.3954 121.731 72.9276 120.345 71.9921C118.959 71.0481 118.108 69.7086 117.793 67.9736L121.48 67.4123C121.71 68.3733 122.182 69.1005 122.896 69.5938C123.611 70.0785 124.542 70.3209 125.69 70.3209C126.94 70.3209 127.94 70.0615 128.688 69.5427C129.436 69.0154 129.811 68.3733 129.811 67.6164C129.811 67.0041 129.581 66.4895 129.122 66.0728C128.671 65.656 127.978 65.3414 127.042 65.1287L123.726 64.4016C121.897 63.9849 120.545 63.3215 119.669 62.4115C118.801 61.5015 118.367 60.3491 118.367 58.9543C118.367 57.7976 118.691 56.7855 119.337 55.9181C119.983 55.0506 120.876 54.3744 122.016 53.8897C123.156 53.3964 124.461 53.1497 125.933 53.1497C128.05 53.1497 129.717 53.609 130.933 54.5275C132.15 55.4375 132.953 56.658 133.344 58.1888ZM144.913 53.4049V56.4666H134.209V53.4049H144.913ZM137.08 48.7102H140.894V67.2464C140.894 67.9864 141.005 68.5434 141.226 68.9176C141.447 69.2833 141.732 69.5342 142.08 69.6703C142.438 69.7979 142.825 69.8617 143.241 69.8617C143.548 69.8617 143.815 69.8404 144.045 69.7979C144.275 69.7554 144.453 69.7213 144.581 69.6958L145.27 72.8469C145.049 72.9319 144.734 73.0169 144.326 73.102C143.917 73.1955 143.407 73.2466 142.795 73.2551C141.791 73.2721 140.856 73.0935 139.988 72.7193C139.121 72.3451 138.419 71.7667 137.883 70.9843C137.348 70.2019 137.08 69.2196 137.08 68.0374V48.7102ZM146.977 72.9999V53.4049H150.663V56.5176H150.867C151.225 55.463 151.854 54.6338 152.756 54.03C153.666 53.4176 154.695 53.1115 155.843 53.1115C156.081 53.1115 156.362 53.12 156.685 53.137C157.016 53.154 157.276 53.1753 157.463 53.2008V56.8493C157.31 56.8068 157.038 56.76 156.646 56.709C156.255 56.6495 155.864 56.6197 155.473 56.6197C154.571 56.6197 153.768 56.8111 153.062 57.1938C152.364 57.568 151.811 58.091 151.403 58.7629C150.995 59.4263 150.791 60.1832 150.791 61.0337V72.9999H146.977ZM158.608 72.9999V53.4049H162.423V72.9999H158.608ZM160.535 50.3814C159.871 50.3814 159.302 50.1603 158.825 49.7181C158.358 49.2673 158.124 48.7315 158.124 48.1106C158.124 47.4813 158.358 46.9455 158.825 46.5032C159.302 46.0525 159.871 45.8271 160.535 45.8271C161.198 45.8271 161.764 46.0525 162.231 46.5032C162.708 46.9455 162.946 47.4813 162.946 48.1106C162.946 48.7315 162.708 49.2673 162.231 49.7181C161.764 50.1603 161.198 50.3814 160.535 50.3814ZM174.724 53.4049V56.4666H163.651V53.4049H174.724ZM166.687 72.9999V51.1341C166.687 49.9094 166.955 48.8931 167.491 48.0851C168.027 47.2687 168.737 46.6606 169.622 46.2609C170.506 45.8526 171.467 45.6485 172.505 45.6485C173.27 45.6485 173.925 45.7123 174.469 45.8399C175.014 45.9589 175.418 46.0695 175.681 46.1716L174.788 49.2588C174.61 49.2078 174.38 49.1482 174.099 49.0802C173.819 49.0037 173.478 48.9654 173.079 48.9654C172.152 48.9654 171.488 49.195 171.089 49.6543C170.697 50.1135 170.502 50.7769 170.502 51.6444V72.9999H166.687Z" fill="white"/>
</svg>
