<svg width="208" height="120" viewBox="0 0 208 120" fill="none" xmlns="http://www.w3.org/2000/svg">
<path d="M88.2758 70.3822C87.1907 70.3822 86.1755 70.1547 85.2303 69.6996C84.2852 69.2445 83.5151 68.5882 82.92 67.7305L84.4427 65.9452C84.9503 66.6454 85.5191 67.1879 86.1492 67.573C86.7968 67.9406 87.5057 68.1243 88.2758 68.1243C90.3762 68.1243 91.4264 66.8816 91.4264 64.3962V54.0783H84.784V51.7942H94.0255V64.265C94.0255 66.3128 93.5354 67.8443 92.5553 68.8595C91.5926 69.8746 90.1661 70.3822 88.2758 70.3822ZM104.861 70.3297C103.67 70.3297 102.62 70.1109 101.71 69.6733C100.817 69.2358 100.117 68.5707 99.6097 67.678C99.1196 66.7679 98.8746 65.6302 98.8746 64.265V56.2574H101.395V63.9762C101.395 65.3414 101.719 66.3653 102.366 67.0479C103.031 67.7305 103.959 68.0718 105.149 68.0718C106.024 68.0718 106.786 67.8968 107.433 67.5468C108.081 67.1792 108.58 66.6541 108.93 65.9715C109.28 65.2714 109.455 64.4312 109.455 63.4511V56.2574H111.975V70.1722H109.586V66.4178L109.98 67.4155C109.525 68.3431 108.842 69.0607 107.932 69.5683C107.022 70.0759 105.998 70.3297 104.861 70.3297ZM120.764 70.3297C119.609 70.3297 118.506 70.1722 117.456 69.8571C116.424 69.5421 115.61 69.157 115.015 68.7019L116.065 66.7066C116.66 67.1092 117.395 67.4505 118.27 67.7305C119.145 68.0106 120.038 68.1506 120.948 68.1506C122.121 68.1506 122.961 67.9843 123.468 67.6518C123.994 67.3192 124.256 66.8554 124.256 66.2603C124.256 65.8227 124.099 65.4814 123.784 65.2364C123.468 64.9913 123.048 64.8076 122.523 64.685C122.016 64.5625 121.447 64.4575 120.817 64.37C120.187 64.265 119.557 64.1424 118.926 64.0024C118.296 63.8449 117.719 63.6349 117.194 63.3723C116.669 63.0923 116.249 62.716 115.933 62.2434C115.618 61.7533 115.461 61.1057 115.461 60.3006C115.461 59.4604 115.697 58.7253 116.17 58.0952C116.642 57.4651 117.307 56.9838 118.165 56.6512C119.04 56.3012 120.073 56.1261 121.263 56.1261C122.173 56.1261 123.092 56.2399 124.02 56.4674C124.965 56.6775 125.735 56.9838 126.33 57.3863L125.254 59.3817C124.624 58.9616 123.967 58.6728 123.285 58.5153C122.602 58.3578 121.919 58.279 121.237 58.279C120.134 58.279 119.312 58.4628 118.769 58.8303C118.226 59.1804 117.955 59.6355 117.955 60.1956C117.955 60.6681 118.113 61.0357 118.428 61.2982C118.76 61.5433 119.18 61.7358 119.688 61.8758C120.213 62.0158 120.791 62.1384 121.421 62.2434C122.051 62.3309 122.681 62.4534 123.311 62.6109C123.941 62.751 124.51 62.9523 125.017 63.2148C125.543 63.4773 125.963 63.8449 126.278 64.3175C126.61 64.7901 126.777 65.4202 126.777 66.2078C126.777 67.0479 126.531 67.7743 126.041 68.3869C125.551 68.9995 124.86 69.4808 123.967 69.8309C123.075 70.1634 122.007 70.3297 120.764 70.3297ZM137.199 70.2772C135.991 70.2772 134.897 69.9972 133.917 69.4371C132.954 68.877 132.184 68.0806 131.607 67.0479C131.047 65.9977 130.767 64.755 130.767 63.3198C130.767 61.8846 131.047 60.6506 131.607 59.618C132.184 58.5678 132.954 57.7627 133.917 57.2026C134.897 56.6425 135.991 56.3624 137.199 56.3624C138.494 56.3624 139.649 56.66 140.664 57.2551C141.697 57.8327 142.502 58.6465 143.08 59.6967C143.675 60.7469 143.972 61.9546 143.972 63.3198C143.972 64.685 143.675 65.8927 143.08 66.9429C142.502 67.9931 141.697 68.8157 140.664 69.4108C139.649 69.9884 138.494 70.2772 137.199 70.2772ZM130.32 75.2655V56.4674H131.58V60.9569L131.37 63.3461L131.633 65.7352V75.2655H130.32ZM137.12 69.0958C138.17 69.0958 139.115 68.8595 139.956 68.3869C140.796 67.8968 141.452 67.2142 141.925 66.3391C142.415 65.4639 142.66 64.4575 142.66 63.3198C142.66 62.1646 142.415 61.1582 141.925 60.3006C141.452 59.4254 140.796 58.7516 139.956 58.279C139.115 57.7889 138.17 57.5439 137.12 57.5439C136.07 57.5439 135.125 57.7889 134.285 58.279C133.462 58.7516 132.806 59.4254 132.316 60.3006C131.843 61.1582 131.607 62.1646 131.607 63.3198C131.607 64.4575 131.843 65.4639 132.316 66.3391C132.806 67.2142 133.462 67.8968 134.285 68.3869C135.125 68.8595 136.07 69.0958 137.12 69.0958ZM148.037 70.1722V56.4674H149.297V60.2218L149.166 59.8017C149.551 58.6991 150.198 57.8502 151.108 57.2551C152.019 56.66 153.156 56.3624 154.522 56.3624V57.6489C154.469 57.6489 154.417 57.6489 154.364 57.6489C154.312 57.6314 154.259 57.6226 154.206 57.6226C152.684 57.6226 151.494 58.104 150.636 59.0666C149.778 60.0118 149.349 61.3332 149.349 63.031V70.1722H148.037ZM163.366 70.2772C162.053 70.2772 160.881 69.9796 159.848 69.3846C158.833 68.7895 158.019 67.9668 157.406 66.9166C156.811 65.8665 156.514 64.6675 156.514 63.3198C156.514 61.9546 156.811 60.7556 157.406 59.723C158.019 58.6728 158.833 57.8502 159.848 57.2551C160.881 56.66 162.053 56.3624 163.366 56.3624C164.679 56.3624 165.852 56.66 166.884 57.2551C167.917 57.8502 168.731 58.6728 169.326 59.723C169.921 60.7556 170.219 61.9546 170.219 63.3198C170.219 64.6675 169.921 65.8665 169.326 66.9166C168.731 67.9668 167.917 68.7895 166.884 69.3846C165.852 69.9796 164.679 70.2772 163.366 70.2772ZM163.366 69.0958C164.416 69.0958 165.361 68.8595 166.202 68.3869C167.042 67.8968 167.698 67.2142 168.171 66.3391C168.643 65.4639 168.88 64.4575 168.88 63.3198C168.88 62.1646 168.643 61.1582 168.171 60.3006C167.698 59.4254 167.042 58.7516 166.202 58.279C165.361 57.7889 164.416 57.5439 163.366 57.5439C162.316 57.5439 161.371 57.7889 160.531 58.279C159.708 58.7516 159.052 59.4254 158.562 60.3006C158.089 61.1582 157.853 62.1646 157.853 63.3198C157.853 64.4575 158.089 65.4639 158.562 66.3391C159.052 67.2142 159.708 67.8968 160.531 68.3869C161.371 68.8595 162.316 69.0958 163.366 69.0958ZM179.568 70.2772C178.29 70.2772 177.135 69.9884 176.103 69.4108C175.087 68.8157 174.282 67.9931 173.687 66.9429C173.092 65.8927 172.795 64.685 172.795 63.3198C172.795 61.9371 173.092 60.7294 173.687 59.6967C174.282 58.6465 175.087 57.8327 176.103 57.2551C177.135 56.66 178.29 56.3624 179.568 56.3624C180.776 56.3624 181.861 56.6425 182.824 57.2026C183.804 57.7627 184.574 58.559 185.134 59.5917C185.712 60.6244 186 61.8671 186 63.3198C186 64.7375 185.72 65.9715 185.16 67.0217C184.6 68.0718 183.83 68.877 182.85 69.4371C181.887 69.9972 180.793 70.2772 179.568 70.2772ZM179.647 69.0958C180.697 69.0958 181.633 68.8595 182.456 68.3869C183.296 67.8968 183.953 67.2142 184.425 66.3391C184.915 65.4639 185.16 64.4575 185.16 63.3198C185.16 62.1646 184.915 61.1582 184.425 60.3006C183.953 59.4254 183.296 58.7516 182.456 58.279C181.633 57.7889 180.697 57.5439 179.647 57.5439C178.597 57.5439 177.652 57.7889 176.811 58.279C175.989 58.7516 175.332 59.4254 174.842 60.3006C174.37 61.1582 174.134 62.1646 174.134 63.3198C174.134 64.4575 174.37 65.4639 174.842 66.3391C175.332 67.2142 175.989 67.8968 176.811 68.3869C177.652 68.8595 178.597 69.0958 179.647 69.0958ZM185.187 70.1722V65.6827L185.423 63.2936L185.16 60.9044V50.6915H186.473V70.1722H185.187Z" fill="white"/>
<path d="M38.266 55.1237C37.7101 54.9817 37.131 55.0248 36.6449 55.2445L26.6494 59.7616C24.6782 60.6523 23.9861 62.7447 25.0896 64.4212L37.109 82.7179C38.2124 84.3943 40.728 85.0371 42.6991 84.1463L71.3707 71.1895C73.3419 70.2987 74.0518 68.1982 72.9484 66.5218L62.9173 51.2813C61.8139 49.6048 59.2983 48.962 57.3271 49.8528L43.7477 55.9894C43.2615 56.2091 42.6825 56.2523 42.1266 56.1102L38.266 55.1237Z" fill="#EAEAEA"/>
<rect width="39.9486" height="25.2629" rx="4.06691" transform="matrix(0.91127 -0.411809 0.549787 0.835305 25.4951 63.423)" fill="white"/>
<g filter="url(#filter0_d_19218_925)">
<rect width="39.9486" height="25.2629" rx="4.06691" transform="matrix(0.91127 -0.411809 0.549787 0.835305 26.4287 60.8054)" fill="white"/>
</g>
<g filter="url(#filter1_d_19218_925)">
<rect width="39.9486" height="25.2629" rx="4.06691" transform="matrix(0.91127 -0.411809 0.549787 0.835305 27.8477 57.7968)" fill="white"/>
</g>
<path d="M42.7216 45.0835C42.1707 44.9466 41.5986 44.9912 41.1176 45.2086L30.9441 49.8061C28.9419 50.7109 28.2247 52.8146 29.3281 54.491L41.3473 72.7879C42.4507 74.4643 44.9916 75.0957 46.9939 74.1908L76.117 61.0299C78.1192 60.1251 78.8546 58.0131 77.7512 56.3367L67.7201 41.0962C66.6167 39.4197 64.0757 38.7884 62.0735 39.6932L48.2596 45.9358C47.7786 46.1532 47.2065 46.1978 46.6556 46.0609L42.7216 45.0835Z" fill="#EAEAEA"/>
<defs>
<filter id="filter0_d_19218_925" x="26.0085" y="45.6378" width="51.1333" height="39.0532" filterUnits="userSpaceOnUse" color-interpolation-filters="sRGB">
<feFlood flood-opacity="0" result="BackgroundImageFix"/>
<feColorMatrix in="SourceAlpha" type="matrix" values="0 0 0 0 0 0 0 0 0 0 0 0 0 0 0 0 0 0 127 0" result="hardAlpha"/>
<feOffset dy="2.03346"/>
<feGaussianBlur stdDeviation="1.01673"/>
<feComposite in2="hardAlpha" operator="out"/>
<feColorMatrix type="matrix" values="0 0 0 0 0 0 0 0 0 0 0 0 0 0 0 0 0 0 0.1 0"/>
<feBlend mode="normal" in2="BackgroundImageFix" result="effect1_dropShadow_19218_925"/>
<feBlend mode="normal" in="SourceGraphic" in2="effect1_dropShadow_19218_925" result="shape"/>
</filter>
<filter id="filter1_d_19218_925" x="27.4275" y="42.6292" width="51.1333" height="39.0532" filterUnits="userSpaceOnUse" color-interpolation-filters="sRGB">
<feFlood flood-opacity="0" result="BackgroundImageFix"/>
<feColorMatrix in="SourceAlpha" type="matrix" values="0 0 0 0 0 0 0 0 0 0 0 0 0 0 0 0 0 0 127 0" result="hardAlpha"/>
<feOffset dy="2.03346"/>
<feGaussianBlur stdDeviation="1.01673"/>
<feComposite in2="hardAlpha" operator="out"/>
<feColorMatrix type="matrix" values="0 0 0 0 0 0 0 0 0 0 0 0 0 0 0 0 0 0 0.1 0"/>
<feBlend mode="normal" in2="BackgroundImageFix" result="effect1_dropShadow_19218_925"/>
<feBlend mode="normal" in="SourceGraphic" in2="effect1_dropShadow_19218_925" result="shape"/>
</filter>
</defs>
</svg>
