<svg width="180" height="58" viewBox="0 0 180 58" fill="none" xmlns="http://www.w3.org/2000/svg">
<g filter="url(#filter0_f_19218_1965)">
<ellipse cx="29.6238" cy="28.8488" rx="22.7732" ry="22.8625" fill="#6D29F3" fill-opacity="0.3"/>
</g>
<ellipse cx="20.9928" cy="21.0201" rx="20.9928" ry="21.0201" transform="matrix(0.815172 0.57922 -0.576207 0.817304 24.2236 0)" fill="url(#paint0_linear_19218_1965)"/>
<ellipse cx="3.30177" cy="3.30607" rx="3.30177" ry="3.30607" transform="matrix(0.815172 0.57922 -0.576207 0.817304 39.8691 22.2324)" fill="#7944D8"/>
<ellipse cx="6.19592" cy="6.20399" rx="6.19592" ry="6.20399" transform="matrix(0.815172 0.57922 -0.576207 0.817304 19.915 21.6729)" fill="#6B39B9" fill-opacity="0.81"/>
<ellipse cx="3.09796" cy="3.10199" rx="3.09796" ry="3.10199" transform="matrix(0.815172 0.57922 -0.576207 0.817304 20.834 13.0127)" fill="#6837B3" fill-opacity="0.51"/>
<ellipse cx="0.978303" cy="0.979577" rx="0.978303" ry="0.979577" transform="matrix(0.815172 0.57922 -0.576207 0.817304 41.3281 20.1646)" fill="#7233EE"/>
<ellipse cx="0.978303" cy="0.979577" rx="0.978303" ry="0.979577" transform="matrix(0.815172 0.57922 -0.576207 0.817304 44.4736 32.1143)" fill="#7233EE"/>
<ellipse cx="1.10059" cy="1.10202" rx="1.10059" ry="1.10202" transform="matrix(0.815172 0.57922 -0.576207 0.817304 17.916 21.2544)" fill="#7233EE"/>
<ellipse cx="6.1144" cy="6.12236" rx="6.1144" ry="6.12236" transform="matrix(0.815172 0.57922 -0.576207 0.817304 29.9648 7.98535)" fill="#874BFF"/>
<ellipse cx="3.50559" cy="3.51015" rx="3.50559" ry="3.51015" transform="matrix(0.815172 0.57922 -0.576207 0.817304 14.3008 34.3066)" fill="#671CFB" fill-opacity="0.15"/>
<ellipse cx="3.06155" cy="3.06553" rx="3.06155" ry="3.06553" transform="matrix(0.815172 0.57922 -0.576207 0.817304 14.374 34.9331)" fill="#7233EE" fill-opacity="0.05"/>
<ellipse cx="2.26184" cy="2.26478" rx="2.26184" ry="2.26478" transform="matrix(0.815172 0.57922 -0.576207 0.817304 39.4707 38.9546)" fill="#522879"/>
<g filter="url(#filter1_f_19218_1965)">
<path d="M49.6123 19.6167C53.575 19.6874 56.2411 20.5587 56.8809 22.2788C58.4206 26.4226 47.6224 33.9043 32.7617 38.9888C17.9009 44.0732 4.60446 44.8353 3.06348 40.6919C2.45972 39.067 3.75473 36.9309 6.44629 34.6255C6.74914 34.8298 7.07654 35.0211 7.42676 35.1997C6.5105 36.3904 6.16101 37.4768 6.49609 38.3784C7.81196 41.9162 19.1645 41.2657 31.8535 36.9243C44.5424 32.5829 53.7625 26.195 52.4482 22.6567C52.0806 21.6678 50.9286 21.0059 49.1826 20.6606C49.338 20.3139 49.482 19.9661 49.6123 19.6167Z" fill="#FF0059"/>
</g>
<path d="M70.3337 36.2613C69.299 36.2613 68.3075 36.1258 67.3591 35.8548C66.4107 35.5715 65.647 35.2081 65.0681 34.7647L66.0843 32.5107C66.6385 32.9048 67.2914 33.2312 68.0427 33.4899C68.8064 33.7362 69.5762 33.8594 70.3522 33.8594C70.9434 33.8594 71.4176 33.804 71.7748 33.6931C72.1443 33.57 72.4153 33.4037 72.5877 33.1943C72.7602 32.9849 72.8464 32.7447 72.8464 32.4737C72.8464 32.1289 72.7109 31.8579 72.4399 31.6608C72.1689 31.4514 71.8118 31.2851 71.3683 31.162C70.9249 31.0265 70.4322 30.9033 69.8903 30.7924C69.3606 30.6693 68.8248 30.5215 68.2829 30.349C67.7532 30.1766 67.2667 29.9549 66.8233 29.6839C66.3799 29.4129 66.0165 29.0557 65.7332 28.6123C65.4623 28.1689 65.3268 27.6023 65.3268 26.9125C65.3268 26.1735 65.5238 25.5022 65.918 24.8987C66.3245 24.2828 66.928 23.7963 67.7286 23.4391C68.5415 23.0696 69.5577 22.8848 70.7771 22.8848C71.59 22.8848 72.3907 22.9834 73.179 23.1804C73.9673 23.3652 74.6632 23.6485 75.2667 24.0303L74.3429 26.3028C73.7394 25.958 73.1358 25.7054 72.5323 25.5453C71.9288 25.3729 71.3375 25.2867 70.7586 25.2867C70.1797 25.2867 69.7055 25.3544 69.336 25.4899C68.9665 25.6254 68.7017 25.804 68.5415 26.0257C68.3814 26.2351 68.3014 26.4814 68.3014 26.7647C68.3014 27.0973 68.4368 27.3683 68.7078 27.5777C68.9788 27.7747 69.336 27.9349 69.7794 28.058C70.2228 28.1812 70.7094 28.3044 71.239 28.4275C71.781 28.5507 72.3168 28.6924 72.8464 28.8525C73.3883 29.0126 73.881 29.2282 74.3245 29.4991C74.7679 29.7701 75.1251 30.1273 75.396 30.5707C75.6793 31.0141 75.821 31.5746 75.821 32.252C75.821 32.9787 75.6178 33.6439 75.2113 34.2474C74.8048 34.8509 74.1951 35.3375 73.3822 35.707C72.5816 36.0765 71.5654 36.2613 70.3337 36.2613ZM77.8662 36.0396V23.1065H83.4643C84.6221 23.1065 85.6198 23.2974 86.4574 23.6793C87.295 24.0488 87.9416 24.5846 88.3973 25.2867C88.8531 25.9887 89.0809 26.8263 89.0809 27.7994C89.0809 28.7601 88.8531 29.5915 88.3973 30.2936C87.9416 30.9957 87.295 31.5376 86.4574 31.9195C85.6198 32.289 84.6221 32.4737 83.4643 32.4737H79.529L80.8592 31.125V36.0396H77.8662ZM80.8592 31.4576L79.529 30.0349H83.298C84.2218 30.0349 84.9116 29.8379 85.3673 29.4437C85.8231 29.0496 86.0509 28.5014 86.0509 27.7994C86.0509 27.085 85.8231 26.5307 85.3673 26.1365C84.9116 25.7424 84.2218 25.5453 83.298 25.5453H79.529L80.8592 24.1227V31.4576ZM88.8685 36.0396L94.6329 23.1065H97.589L103.372 36.0396H100.231L95.5013 24.6215H96.6837L91.9354 36.0396H88.8685ZM91.7507 33.2682L92.5451 30.9957H99.1964L100.009 33.2682H91.7507ZM110.723 36.2613C109.725 36.2613 108.795 36.1011 107.933 35.7809C107.083 35.4483 106.344 34.9803 105.716 34.3767C105.088 33.7732 104.595 33.065 104.238 32.252C103.893 31.4391 103.72 30.5461 103.72 29.573C103.72 28.6 103.893 27.707 104.238 26.8941C104.595 26.0811 105.088 25.3729 105.716 24.7693C106.356 24.1658 107.101 23.7039 107.951 23.3837C108.801 23.0511 109.731 22.8848 110.741 22.8848C111.862 22.8848 112.872 23.0819 113.771 23.476C114.683 23.8579 115.446 24.4245 116.062 25.1758L114.141 26.9495C113.697 26.4445 113.205 26.0688 112.663 25.8225C112.121 25.5638 111.529 25.4345 110.889 25.4345C110.285 25.4345 109.731 25.533 109.226 25.7301C108.721 25.9272 108.284 26.2105 107.914 26.58C107.545 26.9495 107.255 27.3867 107.046 27.8917C106.849 28.3967 106.75 28.9572 106.75 29.573C106.75 30.1889 106.849 30.7493 107.046 31.2543C107.255 31.7593 107.545 32.1966 107.914 32.5661C108.284 32.9356 108.721 33.2189 109.226 33.416C109.731 33.6131 110.285 33.7116 110.889 33.7116C111.529 33.7116 112.121 33.5884 112.663 33.3421C113.205 33.0834 113.697 32.6954 114.141 32.1781L116.062 33.9518C115.446 34.7031 114.683 35.2759 113.771 35.67C112.872 36.0642 111.856 36.2613 110.723 36.2613ZM120.836 28.3167H127.063V30.6446H120.836V28.3167ZM121.058 33.6377H128.097V36.0396H118.083V23.1065H127.857V25.5084H121.058V33.6377ZM128.982 36.0396L134.894 23.1065H136.243L142.155 36.0396H140.714L135.282 23.901H135.837L130.405 36.0396H128.982ZM131.31 32.5846L131.717 31.476H139.236L139.643 32.5846H131.31ZM144.295 36.0396V23.1065H149.135C150.232 23.1065 151.174 23.2851 151.962 23.6423C152.751 23.9872 153.354 24.4922 153.773 25.1573C154.204 25.8101 154.42 26.6046 154.42 27.5407C154.42 28.4522 154.204 29.2405 153.773 29.9056C153.354 30.5584 152.751 31.0634 151.962 31.4206C151.174 31.7778 150.232 31.9564 149.135 31.9564H145.052L145.662 31.3098V36.0396H144.295ZM145.662 31.4206L145.052 30.7555H149.099C150.392 30.7555 151.371 30.4784 152.036 29.9241C152.714 29.3575 153.052 28.563 153.052 27.5407C153.052 26.5061 152.714 25.7054 152.036 25.1389C151.371 24.5723 150.392 24.289 149.099 24.289H145.052L145.662 23.6423V31.4206ZM157.376 36.0396V23.1065H162.216C163.313 23.1065 164.255 23.2851 165.043 23.6423C165.832 23.9872 166.435 24.4922 166.854 25.1573C167.285 25.8101 167.501 26.6046 167.501 27.5407C167.501 28.4522 167.285 29.2405 166.854 29.9056C166.435 30.5584 165.832 31.0634 165.043 31.4206C164.255 31.7778 163.313 31.9564 162.216 31.9564H158.133L158.743 31.3098V36.0396H157.376ZM158.743 31.4206L158.133 30.7555H162.18C163.473 30.7555 164.452 30.4784 165.117 29.9241C165.795 29.3575 166.133 28.563 166.133 27.5407C166.133 26.5061 165.795 25.7054 165.117 25.1389C164.452 24.5723 163.473 24.289 162.18 24.289H158.133L158.743 23.6423V31.4206ZM174.203 36.1504C173.242 36.1504 172.319 35.9964 171.432 35.6885C170.557 35.3683 169.88 34.9618 169.399 34.4691L169.935 33.416C170.391 33.8594 171.001 34.2351 171.764 34.543C172.54 34.8386 173.353 34.9864 174.203 34.9864C175.016 34.9864 175.675 34.8879 176.18 34.6908C176.697 34.4814 177.073 34.2043 177.307 33.8594C177.553 33.5145 177.676 33.1327 177.676 32.7139C177.676 32.2089 177.529 31.8024 177.233 31.4945C176.95 31.1866 176.574 30.9464 176.106 30.774C175.638 30.5892 175.121 30.4291 174.554 30.2936C173.987 30.1581 173.421 30.0165 172.854 29.8687C172.288 29.7085 171.764 29.4991 171.284 29.2405C170.816 28.9818 170.434 28.6431 170.138 28.2243C169.855 27.7932 169.713 27.2328 169.713 26.543C169.713 25.9025 169.88 25.3175 170.212 24.7878C170.557 24.2459 171.081 23.8148 171.783 23.4945C172.485 23.162 173.384 22.9957 174.48 22.9957C175.207 22.9957 175.927 23.1004 176.642 23.3098C177.356 23.5068 177.972 23.784 178.489 24.1412L178.028 25.2312C177.473 24.8617 176.882 24.5907 176.254 24.4183C175.638 24.2459 175.041 24.1596 174.462 24.1596C173.686 24.1596 173.045 24.2643 172.54 24.4737C172.035 24.6831 171.66 24.9664 171.413 25.3236C171.179 25.6685 171.062 26.0626 171.062 26.5061C171.062 27.0111 171.204 27.4175 171.487 27.7255C171.783 28.0334 172.165 28.2736 172.633 28.446C173.113 28.6185 173.636 28.7724 174.203 28.9079C174.77 29.0434 175.33 29.1912 175.884 29.3513C176.451 29.5115 176.968 29.7208 177.436 29.9795C177.917 30.2258 178.299 30.5584 178.582 30.9772C178.877 31.396 179.025 31.9441 179.025 32.6215C179.025 33.2497 178.853 33.8348 178.508 34.3767C178.163 34.9064 177.633 35.3375 176.919 35.67C176.217 35.9903 175.312 36.1504 174.203 36.1504Z" fill="white"/>
<defs>
<filter id="filter0_f_19218_1965" x="3.41137" y="2.54711" width="52.4243" height="52.6035" filterUnits="userSpaceOnUse" color-interpolation-filters="sRGB">
<feFlood flood-opacity="0" result="BackgroundImageFix"/>
<feBlend mode="normal" in="SourceGraphic" in2="BackgroundImageFix" result="shape"/>
<feGaussianBlur stdDeviation="1.71961" result="effect1_foregroundBlur_19218_1965"/>
</filter>
<filter id="filter1_f_19218_1965" x="0.693958" y="17.3937" width="58.5564" height="28.1917" filterUnits="userSpaceOnUse" color-interpolation-filters="sRGB">
<feFlood flood-opacity="0" result="BackgroundImageFix"/>
<feBlend mode="normal" in="SourceGraphic" in2="BackgroundImageFix" result="shape"/>
<feGaussianBlur stdDeviation="1.11152" result="effect1_foregroundBlur_19218_1965"/>
</filter>
<linearGradient id="paint0_linear_19218_1965" x1="15.7344" y1="10.857" x2="29.0114" y2="42.0277" gradientUnits="userSpaceOnUse">
<stop stop-color="#8C52FF"/>
<stop offset="1" stop-color="#260528"/>
</linearGradient>
</defs>
</svg>
