<svg width="118" height="38" viewBox="0 0 118 38" fill="none" xmlns="http://www.w3.org/2000/svg">
<g filter="url(#filter0_f_19218_1548)">
<ellipse cx="19.4203" cy="18.9119" rx="14.9291" ry="14.9876" fill="#6D29F3" fill-opacity="0.3"/>
</g>
<ellipse cx="13.7619" cy="13.7798" rx="13.7619" ry="13.7798" transform="matrix(0.815172 0.57922 -0.576207 0.817304 15.8799 0)" fill="url(#paint0_linear_19218_1548)"/>
<ellipse cx="2.1645" cy="2.16731" rx="2.1645" ry="2.16731" transform="matrix(0.815172 0.57922 -0.576207 0.817304 26.1367 14.5748)" fill="#7944D8"/>
<ellipse cx="4.06177" cy="4.06706" rx="4.06177" ry="4.06706" transform="matrix(0.815172 0.57922 -0.576207 0.817304 13.0557 14.2081)" fill="#6B39B9" fill-opacity="0.81"/>
<ellipse cx="2.03088" cy="2.03353" rx="2.03088" ry="2.03353" transform="matrix(0.815172 0.57922 -0.576207 0.817304 13.6582 8.53101)" fill="#6837B3" fill-opacity="0.51"/>
<ellipse cx="0.641332" cy="0.642167" rx="0.641332" ry="0.642167" transform="matrix(0.815172 0.57922 -0.576207 0.817304 27.0928 13.2191)" fill="#7233EE"/>
<ellipse cx="0.641332" cy="0.642167" rx="0.641332" ry="0.642167" transform="matrix(0.815172 0.57922 -0.576207 0.817304 29.1553 21.0525)" fill="#7233EE"/>
<ellipse cx="0.721499" cy="0.722438" rx="0.721499" ry="0.722438" transform="matrix(0.815172 0.57922 -0.576207 0.817304 11.7451 13.9337)" fill="#7233EE"/>
<ellipse cx="4.00833" cy="4.01354" rx="4.00833" ry="4.01354" transform="matrix(0.815172 0.57922 -0.576207 0.817304 19.6436 5.23486)" fill="#874BFF"/>
<ellipse cx="2.29811" cy="2.3011" rx="2.29811" ry="2.3011" transform="matrix(0.815172 0.57922 -0.576207 0.817304 9.375 22.4902)" fill="#671CFB" fill-opacity="0.15"/>
<ellipse cx="2.00701" cy="2.00963" rx="2.00701" ry="2.00963" transform="matrix(0.815172 0.57922 -0.576207 0.817304 9.42285 22.9009)" fill="#7233EE" fill-opacity="0.05"/>
<ellipse cx="1.48276" cy="1.48469" rx="1.48276" ry="1.48469" transform="matrix(0.815172 0.57922 -0.576207 0.817304 25.875 25.537)" fill="#522879"/>
<g filter="url(#filter1_f_19218_1548)">
<path d="M32.5225 12.86C35.1209 12.9064 36.8688 13.4782 37.2881 14.6061C38.2971 17.3226 31.2185 22.2261 21.4766 25.5592C11.7344 28.8924 3.01783 29.3927 2.00781 26.6764C1.61192 25.6111 2.46096 24.2103 4.22559 22.6989C4.42415 22.8328 4.63854 22.9587 4.86816 23.0758C4.26748 23.8564 4.03808 24.5687 4.25781 25.1598C5.12056 27.4789 12.5627 27.0516 20.8809 24.2057C29.1992 21.3597 35.2435 17.1727 34.3818 14.8531C34.1408 14.2048 33.3859 13.7709 32.2412 13.5446C32.3431 13.3172 32.437 13.089 32.5225 12.86Z" fill="#FF0059"/>
</g>
<path d="M46.1074 23.9714C45.4292 23.9714 44.7792 23.8826 44.1574 23.7049C43.5357 23.5192 43.035 23.281 42.6555 22.9903L43.3217 21.5127C43.685 21.7711 44.113 21.985 44.6056 22.1546C45.1062 22.3161 45.6108 22.3968 46.1195 22.3968C46.5071 22.3968 46.818 22.3605 47.0522 22.2878C47.2944 22.2071 47.472 22.0981 47.5851 21.9608C47.6981 21.8236 47.7546 21.6661 47.7546 21.4885C47.7546 21.2624 47.6658 21.0847 47.4882 20.9555C47.3105 20.8183 47.0764 20.7093 46.7857 20.6285C46.495 20.5397 46.172 20.4589 45.8167 20.3863C45.4695 20.3055 45.1183 20.2086 44.763 20.0956C44.4158 19.9825 44.0969 19.8372 43.8062 19.6596C43.5155 19.4819 43.2773 19.2478 43.0916 18.9571C42.9139 18.6664 42.8251 18.295 42.8251 17.8428C42.8251 17.3583 42.9543 16.9182 43.2127 16.5226C43.4791 16.1189 43.8748 15.7999 44.3996 15.5657C44.9326 15.3235 45.5987 15.2024 46.3981 15.2024C46.931 15.2024 47.4559 15.267 47.9727 15.3962C48.4894 15.5173 48.9456 15.703 49.3413 15.9533L48.7357 17.4431C48.34 17.217 47.9444 17.0515 47.5487 16.9465C47.1531 16.8335 46.7655 16.7769 46.386 16.7769C46.0065 16.7769 45.6956 16.8213 45.4534 16.9102C45.2111 16.999 45.0375 17.1161 44.9326 17.2614C44.8276 17.3987 44.7751 17.5602 44.7751 17.7459C44.7751 17.9639 44.8639 18.1415 45.0416 18.2788C45.2192 18.408 45.4534 18.513 45.7441 18.5937C46.0348 18.6745 46.3537 18.7552 46.7009 18.836C47.0562 18.9167 47.4074 19.0096 47.7546 19.1145C48.1099 19.2195 48.4329 19.3608 48.7236 19.5384C49.0143 19.7161 49.2484 19.9502 49.4261 20.2409C49.6118 20.5316 49.7047 20.899 49.7047 21.3431C49.7047 21.8195 49.5714 22.2555 49.305 22.6512C49.0385 23.0469 48.6388 23.3658 48.1059 23.608C47.581 23.8503 46.9149 23.9714 46.1074 23.9714ZM51.0454 23.826V15.3477H54.7153C55.4743 15.3477 56.1283 15.4729 56.6774 15.7232C57.2265 15.9654 57.6504 16.3167 57.9492 16.7769C58.2479 17.2372 58.3973 17.7863 58.3973 18.4242C58.3973 19.054 58.2479 19.599 57.9492 20.0593C57.6504 20.5195 57.2265 20.8748 56.6774 21.1251C56.1283 21.3673 55.4743 21.4885 54.7153 21.4885H52.1354L53.0075 20.6043V23.826H51.0454ZM53.0075 20.8223L52.1354 19.8897H54.6063C55.2119 19.8897 55.664 19.7605 55.9628 19.5021C56.2616 19.2437 56.4109 18.8844 56.4109 18.4242C56.4109 17.9558 56.2616 17.5925 55.9628 17.3341C55.664 17.0757 55.2119 16.9465 54.6063 16.9465H52.1354L53.0075 16.0139V20.8223ZM58.258 23.826L62.0369 15.3477H63.9748L67.7658 23.826H65.7068L62.6062 16.3409H63.3813L60.2686 23.826H58.258ZM60.1475 22.0093L60.6683 20.5195H65.0285L65.5615 22.0093H60.1475ZM72.5847 23.9714C71.9306 23.9714 71.321 23.8664 70.7558 23.6565C70.1986 23.4385 69.7141 23.1316 69.3023 22.736C68.8905 22.3403 68.5675 21.876 68.3334 21.3431C68.1073 20.8102 67.9943 20.2248 67.9943 19.5869C67.9943 18.949 68.1073 18.3636 68.3334 17.8307C68.5675 17.2977 68.8905 16.8335 69.3023 16.4378C69.7222 16.0421 70.2107 15.7394 70.7679 15.5294C71.325 15.3114 71.9346 15.2024 72.5968 15.2024C73.3316 15.2024 73.9937 15.3316 74.5831 15.59C75.1806 15.8403 75.6813 16.2117 76.085 16.7043L74.8254 17.867C74.5347 17.5359 74.2117 17.2897 73.8564 17.1282C73.5011 16.9586 73.1135 16.8738 72.6937 16.8738C72.298 16.8738 71.9346 16.9384 71.6036 17.0676C71.2725 17.1968 70.9859 17.3825 70.7436 17.6248C70.5014 17.867 70.3117 18.1537 70.1744 18.4847C70.0452 18.8158 69.9806 19.1832 69.9806 19.5869C69.9806 19.9906 70.0452 20.358 70.1744 20.6891C70.3117 21.0201 70.5014 21.3068 70.7436 21.549C70.9859 21.7913 71.2725 21.977 71.6036 22.1062C71.9346 22.2354 72.298 22.3 72.6937 22.3C73.1135 22.3 73.5011 22.2192 73.8564 22.0577C74.2117 21.8881 74.5347 21.6338 74.8254 21.2947L76.085 22.4574C75.6813 22.95 75.1806 23.3254 74.5831 23.5838C73.9937 23.8422 73.3275 23.9714 72.5847 23.9714ZM79.2147 18.7633H83.2964V20.2894H79.2147V18.7633ZM79.36 22.2515H83.9746V23.826H77.41V15.3477H83.8172V16.9223H79.36V22.2515ZM84.5548 23.826L88.4306 15.3477H89.3148L93.1906 23.826H92.2458L88.6849 15.8685H89.0483L85.4874 23.826H84.5548ZM86.0809 21.5611L86.3473 20.8344H91.2769L91.5433 21.5611H86.0809ZM94.5931 23.826V15.3477H97.7664C98.485 15.3477 99.1027 15.4648 99.6195 15.699C100.136 15.9251 100.532 16.2561 100.806 16.6922C101.089 17.1201 101.23 17.6409 101.23 18.2546C101.23 18.8521 101.089 19.3689 100.806 19.8049C100.532 20.2329 100.136 20.5639 99.6195 20.7981C99.1027 21.0322 98.485 21.1493 97.7664 21.1493H95.0897L95.4894 20.7254V23.826H94.5931ZM95.4894 20.7981L95.0897 20.3621H97.7422C98.59 20.3621 99.2319 20.1804 99.668 19.817C100.112 19.4456 100.334 18.9248 100.334 18.2546C100.334 17.5763 100.112 17.0515 99.668 16.68C99.2319 16.3086 98.59 16.1229 97.7422 16.1229H95.0897L95.4894 15.699V20.7981ZM103.168 23.826V15.3477H106.342C107.06 15.3477 107.678 15.4648 108.195 15.699C108.712 15.9251 109.107 16.2561 109.382 16.6922C109.664 17.1201 109.806 17.6409 109.806 18.2546C109.806 18.8521 109.664 19.3689 109.382 19.8049C109.107 20.2329 108.712 20.5639 108.195 20.7981C107.678 21.0322 107.06 21.1493 106.342 21.1493H103.665L104.065 20.7254V23.826H103.168ZM104.065 20.7981L103.665 20.3621H106.317C107.165 20.3621 107.807 20.1804 108.243 19.817C108.687 19.4456 108.909 18.9248 108.909 18.2546C108.909 17.5763 108.687 17.0515 108.243 16.68C107.807 16.3086 107.165 16.1229 106.317 16.1229H103.665L104.065 15.699V20.7981ZM114.2 23.8987C113.57 23.8987 112.964 23.7978 112.383 23.5959C111.809 23.386 111.365 23.1195 111.05 22.7965L111.402 22.1062C111.7 22.3968 112.1 22.6431 112.601 22.845C113.109 23.0388 113.642 23.1357 114.2 23.1357C114.732 23.1357 115.164 23.0711 115.496 22.9419C115.835 22.8046 116.081 22.6229 116.234 22.3968C116.396 22.1708 116.477 21.9204 116.477 21.6459C116.477 21.3149 116.38 21.0484 116.186 20.8465C116 20.6447 115.754 20.4872 115.447 20.3742C115.14 20.253 114.801 20.1481 114.43 20.0593C114.058 19.9704 113.687 19.8776 113.315 19.7807C112.944 19.6757 112.601 19.5384 112.286 19.3689C111.979 19.1993 111.729 18.9773 111.535 18.7027C111.349 18.4201 111.256 18.0527 111.256 17.6005C111.256 17.1807 111.365 16.7971 111.583 16.4499C111.809 16.0946 112.153 15.812 112.613 15.6021C113.073 15.3841 113.663 15.2751 114.381 15.2751C114.858 15.2751 115.33 15.3437 115.798 15.481C116.267 15.6102 116.67 15.7918 117.01 16.026L116.707 16.7406C116.343 16.4984 115.956 16.3207 115.544 16.2077C115.14 16.0946 114.749 16.0381 114.369 16.0381C113.86 16.0381 113.441 16.1067 113.109 16.244C112.778 16.3813 112.532 16.567 112.371 16.8012C112.217 17.0272 112.141 17.2856 112.141 17.5763C112.141 17.9074 112.233 18.1738 112.419 18.3757C112.613 18.5776 112.863 18.735 113.17 18.8481C113.485 18.9611 113.828 19.062 114.2 19.1509C114.571 19.2397 114.938 19.3366 115.302 19.4415C115.673 19.5465 116.012 19.6838 116.319 19.8534C116.634 20.0148 116.884 20.2329 117.07 20.5074C117.264 20.7819 117.361 21.1413 117.361 21.5854C117.361 21.9972 117.248 22.3807 117.022 22.736C116.796 23.0832 116.448 23.3658 115.98 23.5838C115.52 23.7938 114.926 23.8987 114.2 23.8987Z" fill="white"/>
<defs>
<filter id="filter0_f_19218_1548" x="2.23662" y="1.66972" width="34.3676" height="34.4844" filterUnits="userSpaceOnUse" color-interpolation-filters="sRGB">
<feFlood flood-opacity="0" result="BackgroundImageFix"/>
<feBlend mode="normal" in="SourceGraphic" in2="BackgroundImageFix" result="shape"/>
<feGaussianBlur stdDeviation="1.1273" result="effect1_foregroundBlur_19218_1548"/>
</filter>
<filter id="filter1_f_19218_1548" x="0.454787" y="11.4027" width="38.3863" height="18.4814" filterUnits="userSpaceOnUse" color-interpolation-filters="sRGB">
<feFlood flood-opacity="0" result="BackgroundImageFix"/>
<feBlend mode="normal" in="SourceGraphic" in2="BackgroundImageFix" result="shape"/>
<feGaussianBlur stdDeviation="0.728661" result="effect1_foregroundBlur_19218_1548"/>
</filter>
<linearGradient id="paint0_linear_19218_1548" x1="10.3148" y1="7.11735" x2="19.0186" y2="27.5515" gradientUnits="userSpaceOnUse">
<stop stop-color="#8C52FF"/>
<stop offset="1" stop-color="#260528"/>
</linearGradient>
</defs>
</svg>
