<svg width="208" height="120" viewBox="0 0 208 120" fill="none" xmlns="http://www.w3.org/2000/svg">
<path d="M54.4209 56.6606C54.4209 53.9609 54.4209 52.611 53.8955 51.5799C53.4333 50.6729 52.6959 49.9354 51.7889 49.4733C50.7577 48.9479 49.4079 48.9479 46.7082 48.9479H33.2109C30.5111 48.9479 29.1613 48.9479 28.1301 49.4733C27.2231 49.9354 26.4857 50.6729 26.0235 51.5799C25.4981 52.611 25.4981 53.9609 25.4981 56.6606V65.3375C25.4981 68.0372 25.4981 69.387 26.0235 70.4182C26.4857 71.3252 27.2231 72.0626 28.1301 72.5248C29.1613 73.0502 30.5111 73.0502 33.2109 73.0502H43.6813C44.684 73.0502 45.1854 73.0502 45.665 73.1486C46.0904 73.2359 46.5022 73.3804 46.8889 73.578C47.3249 73.8007 47.7164 74.1139 48.4994 74.7403L52.3324 77.8067C53.001 78.3416 53.3353 78.609 53.6166 78.6093C53.8613 78.6096 54.0927 78.4983 54.2454 78.3071C54.4209 78.0872 54.4209 77.6591 54.4209 76.8029V56.6606Z" fill="#EAEAEA"/>
<path d="M48.5791 44.6762C48.5791 44.6762 51.1609 41.4913 53.4601 41.0262C55.7593 40.5611 55.1807 41.0981 55.0736 42.2071C54.9665 43.316 54.4282 47.5392 54.2669 47.897C54.1055 48.2548 48.5791 44.6762 48.5791 44.6762Z" fill="white" stroke="#263238" stroke-width="0.135932" stroke-miterlimit="10"/>
<path d="M50.2734 45.8572C50.2734 45.8572 51.6449 41.7419 54.1863 41.241" stroke="#263238" stroke-width="0.135932" stroke-miterlimit="10"/>
<path d="M31.5368 47.1212C31.5368 47.1212 30.904 46.776 30.2712 47.0061C29.6384 47.2362 29.0056 47.7827 29.0632 48.0416C29.1207 48.3005 29.811 47.869 29.8973 47.8115C29.9836 47.754 30.8177 47.6677 30.8177 47.6677C30.8177 47.6677 31.4505 47.8115 31.5368 47.1212Z" fill="white" stroke="#263238" stroke-width="0.135932" stroke-miterlimit="10"/>
<path d="M32.787 50.2927C33.547 49.3042 33.5109 48.0015 32.7066 47.3831C31.9022 46.7647 30.634 47.0647 29.8741 48.0532C29.1141 49.0417 29.1501 50.3444 29.9545 50.9628C30.7589 51.5812 32.027 51.2812 32.787 50.2927Z" fill="white" stroke="#263238" stroke-width="0.135932" stroke-miterlimit="10"/>
<path d="M41.7126 71.7254C48.4315 71.7254 52.4626 71.0949 52.4626 70.5198C52.4626 69.9447 48.4315 69.6429 41.7126 69.6429C34.9936 69.6429 30.8906 69.9447 30.8906 70.5198C30.8906 71.0949 34.9936 71.7254 41.7126 71.7254Z" fill="#BCBCBC"/>
<path d="M50.7244 64.5828C50.7244 64.5828 50.7819 66.5099 50.7532 66.9413C50.7244 67.3727 51.2422 69.3861 51.1846 69.8176C51.1271 70.249 50.3792 70.4216 49.6027 70.4791C48.8261 70.5366 47.1003 70.5941 46.8415 70.1915C46.5826 69.7888 46.6402 67.6029 46.6402 67.6029L45.7773 66.7688" fill="white"/>
<path d="M50.7244 64.5828C50.7244 64.5828 50.7819 66.5099 50.7532 66.9413C50.7244 67.3727 51.2422 69.3861 51.1846 69.8176C51.1271 70.249 50.3792 70.4216 49.6027 70.4791C48.8261 70.5366 47.1003 70.5941 46.8415 70.1915C46.5826 69.7888 46.6402 67.6029 46.6402 67.6029L45.7773 66.7688" stroke="#263238" stroke-width="0.135932" stroke-miterlimit="10"/>
<path d="M35.7949 62.1089C35.7949 62.1089 36.3126 65.5317 36.3126 65.9056C36.3126 66.2795 36.0538 68.7813 36.1688 69.0695C36.3704 69.574 37.298 69.7027 37.761 69.7838C38.45 69.9045 39.1568 69.9109 39.8511 69.834C40.3692 69.7765 41.1906 69.7543 41.4611 69.2134C41.6624 68.8107 41.2885 66.5097 41.2885 66.5097L41.2022 64.5251" fill="white"/>
<path d="M35.7949 62.1089C35.7949 62.1089 36.3126 65.5317 36.3126 65.9056C36.3126 66.2795 36.0538 68.7813 36.1688 69.0695C36.3704 69.574 37.298 69.7027 37.761 69.7838C38.45 69.9045 39.1568 69.9109 39.8511 69.834C40.3692 69.7765 41.1906 69.7543 41.4611 69.2134C41.6624 68.8107 41.2885 66.5097 41.2885 66.5097L41.2022 64.5251" stroke="#263238" stroke-width="0.135932" stroke-miterlimit="10"/>
<path d="M57.0986 53.9272C57.0986 60.7382 50.2368 67.9332 42.3943 67.9332C34.5519 67.9332 28.1943 62.4118 28.1943 55.6008C28.1943 48.7898 34.5519 43.2682 42.3943 43.2682C50.2368 43.2682 57.0986 47.1162 57.0986 53.9272Z" fill="white" stroke="#263238" stroke-width="0.135932" stroke-miterlimit="10"/>
<path d="M40.0166 43.8217C40.6404 43.7489 41.2772 43.7113 41.924 43.7113C43.7047 43.7113 45.435 43.9097 47.0458 44.2963" stroke="#263238" stroke-width="0.407796" stroke-miterlimit="10" stroke-linecap="round" stroke-linejoin="round"/>
<path d="M54.5609 58.4417C57.0747 57.5468 58.4167 54.8665 57.5583 52.4553C56.6998 50.044 53.966 48.8148 51.4522 49.7098C48.9383 50.6047 47.5963 53.285 48.4547 55.6962C49.3132 58.1075 52.047 59.3367 54.5609 58.4417Z" fill="white" stroke="#263238" stroke-width="0.135932" stroke-miterlimit="10"/>
<path d="M53.3014 54.0507C53.3014 54.6361 53.0586 55.1107 52.7591 55.1107C52.4595 55.1107 52.2168 54.6361 52.2168 54.0507C52.2168 53.4653 52.4595 52.9907 52.7591 52.9907C53.0586 52.9907 53.3014 53.4653 53.3014 54.0507Z" stroke="#263238" stroke-width="0.135932" stroke-miterlimit="10"/>
<path d="M55.5208 54.3217C55.8203 54.3217 56.0631 53.8472 56.0631 53.2618C56.0631 52.6763 55.8203 52.2018 55.5208 52.2018C55.2213 52.2018 54.9785 52.6763 54.9785 53.2618C54.9785 53.8472 55.2213 54.3217 55.5208 54.3217Z" stroke="#263238" stroke-width="0.135932" stroke-miterlimit="10"/>
<path d="M47.1709 54.7979C47.1709 54.7979 47.8351 56.8238 49.861 57.7869" stroke="#263238" stroke-width="0.135932" stroke-miterlimit="10"/>
<path d="M47.6028 54.5322L46.374 55.2296" stroke="#263238" stroke-width="0.135932" stroke-miterlimit="10"/>
<path d="M41.1455 66.0785L42.1234 68.0344C42.1234 68.0344 42.1809 70.4505 42.3823 70.6806C42.5836 70.9107 44.4244 71.1696 45.9201 70.997C47.4158 70.8244 47.7897 70.508 47.7609 70.0191C47.7321 69.5301 47.502 68.0057 47.502 68.0057L48.1059 65.0431" fill="white"/>
<path d="M41.1455 66.0785L42.1234 68.0344C42.1234 68.0344 42.1809 70.4505 42.3823 70.6806C42.5836 70.9107 44.4244 71.1696 45.9201 70.997C47.4158 70.8244 47.7897 70.508 47.7609 70.0191C47.7321 69.5301 47.502 68.0057 47.502 68.0057L48.1059 65.0431" stroke="#263238" stroke-width="0.135932" stroke-miterlimit="10"/>
<path d="M31.8535 62.8857C31.8535 62.8857 32.3712 66.3085 32.3712 66.6824C32.3712 67.0563 32.1123 69.5587 32.2274 69.8463C32.3425 70.1338 33.7518 70.7955 35.3338 70.6517C36.9158 70.5079 37.3184 70.3928 37.5198 69.9902C37.7212 69.5876 37.3472 67.2865 37.3472 67.2865L37.2609 65.3019" fill="white"/>
<path d="M31.8535 62.8857C31.8535 62.8857 32.3712 66.3085 32.3712 66.6824C32.3712 67.0563 32.1123 69.5587 32.2274 69.8463C32.3425 70.1338 33.7518 70.7955 35.3338 70.6517C36.9158 70.5079 37.3184 70.3928 37.5198 69.9902C37.7212 69.5876 37.3472 67.2865 37.3472 67.2865L37.2609 65.3019" stroke="#263238" stroke-width="0.135932" stroke-miterlimit="10"/>
<path d="M41.3241 49.4021C41.3241 49.4021 40.7554 46.8044 41.4991 44.1659C42.2429 41.5276 42.8115 40.7158 43.7739 40.8782C44.7363 41.0407 47.186 43.4354 47.6672 45.3026" fill="white"/>
<path d="M41.3241 49.4021C41.3241 49.4021 40.7554 46.8044 41.4991 44.1659C42.2429 41.5276 42.8115 40.7158 43.7739 40.8782C44.7363 41.0407 47.186 43.4354 47.6672 45.3026" stroke="#263238" stroke-width="0.135932" stroke-miterlimit="10"/>
<path d="M42.9528 43.6379C42.9156 44.4966 42.9475 45.4647 43.162 46.2841C43.6869 48.29 44.5618 48.6912 45.4805 48.1118" stroke="#263238" stroke-width="0.135932" stroke-miterlimit="10"/>
<path d="M43.2055 41.3806C43.2055 41.3806 43.0837 42.0009 43.0049 42.8662" stroke="#263238" stroke-width="0.135932" stroke-miterlimit="10"/>
<path d="M50.542 48.3809C50.5311 48.3375 50.5254 48.2924 50.5254 48.2461C50.5254 47.9203 50.8077 47.6561 51.156 47.6561C51.3738 47.6561 51.5657 47.7592 51.679 47.9162" stroke="#263238" stroke-width="0.135932" stroke-miterlimit="10" stroke-linecap="round" stroke-linejoin="round"/>
<path d="M48.4395 48.6749C48.4448 48.6306 48.4554 48.5863 48.4719 48.543C48.5877 48.2384 48.9456 48.0919 49.2711 48.2155C49.4746 48.2929 49.6173 48.4576 49.6675 48.6445" stroke="#263238" stroke-width="0.135932" stroke-miterlimit="10" stroke-linecap="round" stroke-linejoin="round"/>
<path d="M67.4843 72.2338C67.3081 72.2338 67.22 72.1583 67.22 72.0073V56.3407C67.22 56.0135 67.2704 55.7744 67.371 55.6234C67.4969 55.4724 67.673 55.3466 67.8995 55.2459C68.2015 55.1201 68.6168 54.9817 69.1453 54.8307C69.699 54.6797 70.303 54.5538 70.9574 54.4532C71.6117 54.3273 72.2283 54.2644 72.8072 54.2644C74.292 54.2644 75.4749 54.5035 76.3557 54.9817C77.2618 55.4598 77.979 56.1016 78.5075 56.907C78.8347 56.3533 79.2626 55.8877 79.7911 55.5102C80.3447 55.1075 80.9488 54.8055 81.6031 54.6042C82.2575 54.3777 82.8866 54.2644 83.4907 54.2644C85.3279 54.2644 86.7372 54.6419 87.7188 55.3969C88.7254 56.1268 89.4301 57.1335 89.8328 58.417C90.2355 59.7005 90.4368 61.1351 90.4368 62.7206C90.4368 64.0041 90.4117 65.2499 90.3613 66.4579C90.311 67.666 90.2481 68.7482 90.1726 69.7045C90.1222 70.6357 90.0719 71.3781 90.0216 71.9318C90.0216 72.0577 89.9964 72.1457 89.9461 72.1961C89.8957 72.2212 89.8328 72.2338 89.7573 72.2338H88.2473C88.1214 72.2338 88.0333 72.2087 87.983 72.1583C87.9578 72.108 87.9453 72.0199 87.9453 71.8941C87.9956 71.5166 88.0333 70.8245 88.0585 69.8178C88.1088 68.8111 88.1592 67.666 88.2095 66.3824C88.2599 65.0737 88.285 63.8028 88.285 62.5696C88.285 61.7894 88.1969 61.0092 88.0208 60.229C87.8698 59.4489 87.6055 58.7442 87.228 58.115C86.8757 57.4858 86.3975 56.9825 85.7935 56.605C85.1894 56.2274 84.4344 56.0387 83.5284 56.0387C82.4714 56.0387 81.5905 56.3407 80.8858 56.9447C80.2063 57.5487 79.8666 58.3667 79.8666 59.3985C79.8666 60.8079 79.8666 62.0537 79.8666 63.1359C79.8917 64.2181 79.9043 65.2247 79.9043 66.1559C79.9043 67.0871 79.8917 68.0183 79.8666 68.9495C79.8666 69.8555 79.8666 70.837 79.8666 71.8941C79.8666 72.1206 79.7533 72.2338 79.5268 72.2338H78.0545C77.8532 72.2338 77.7525 72.1332 77.7525 71.9318V62.6828C77.7525 61.349 77.6015 60.1913 77.2995 59.2098C76.9975 58.2031 76.4942 57.4229 75.7895 56.8692C75.0848 56.3155 74.1033 56.0387 72.8449 56.0387C72.3164 56.0387 71.8005 56.1016 71.2971 56.2274C70.8189 56.3281 70.3785 56.454 69.9758 56.605C69.5228 56.756 69.2963 57.058 69.2963 57.511V71.9696C69.2963 72.1457 69.2208 72.2338 69.0698 72.2338H67.4843ZM92.5131 63.2869C92.5131 62.104 92.6264 60.9715 92.8529 59.8893C93.0794 58.8071 93.4695 57.8382 94.0232 56.9825C94.5768 56.1268 95.3319 55.4473 96.2882 54.9439C97.2446 54.4406 98.4526 54.1889 99.9123 54.1889C101.447 54.1889 102.668 54.4154 103.574 54.8684C104.48 55.3214 105.16 55.9254 105.613 56.6805C106.091 57.4103 106.405 58.2282 106.556 59.1343C106.707 60.0403 106.783 60.9463 106.783 61.8523C106.783 62.7584 106.695 63.312 106.519 63.5134C106.343 63.7147 106.091 63.8154 105.764 63.8154H95.0047C94.9543 63.8154 94.8788 63.8405 94.7782 63.8909C94.6775 63.9412 94.6272 64.0796 94.6272 64.3061C94.6523 65.5645 94.8537 66.6844 95.2312 67.666C95.6087 68.6475 96.2001 69.4151 97.0055 69.9688C97.836 70.4973 98.9056 70.7615 100.214 70.7615C101.07 70.7615 101.963 70.6609 102.895 70.4595C103.851 70.2582 104.669 69.9814 105.348 69.629C105.525 69.5283 105.663 69.478 105.764 69.478C105.89 69.4528 105.99 69.5283 106.066 69.7045L106.443 70.4595C106.519 70.5602 106.531 70.6483 106.481 70.7238C106.456 70.7741 106.393 70.837 106.292 70.9125C105.487 71.4159 104.518 71.806 103.385 72.0828C102.278 72.3345 101.133 72.4603 99.95 72.4603C98.44 72.4603 97.1942 72.2212 96.2127 71.7431C95.2563 71.2649 94.5013 70.6105 93.9477 69.78C93.4191 68.9495 93.0416 67.9806 92.8151 66.8732C92.6138 65.7658 92.5131 64.5704 92.5131 63.2869ZM104.631 61.5126C104.631 60.5562 104.505 59.6628 104.254 58.8323C104.027 57.9766 103.574 57.2845 102.895 56.756C102.215 56.2023 101.208 55.9254 99.8745 55.9254C98.9182 55.9254 98.1003 56.1142 97.4207 56.4917C96.7664 56.844 96.2379 57.3096 95.8352 57.8885C95.4577 58.4673 95.1808 59.0965 95.0047 59.776C94.8285 60.4304 94.7153 61.0596 94.6649 61.6636C94.6398 61.8901 94.6398 62.0537 94.6649 62.1543C94.7153 62.2298 94.8537 62.2676 95.0802 62.2676H103.952C104.203 62.2676 104.379 62.2298 104.48 62.1543C104.606 62.0537 104.656 61.8397 104.631 61.5126ZM115.24 72.4603C113.73 72.4603 112.472 72.2338 111.465 71.7808C110.484 71.3026 109.716 70.6483 109.162 69.8178C108.609 68.9872 108.219 68.0309 107.992 66.9487C107.791 65.8413 107.69 64.6459 107.69 63.3624C107.69 62.1795 107.803 61.047 108.03 59.9648C108.256 58.8574 108.647 57.8759 109.2 57.0202C109.754 56.1394 110.521 55.4473 111.503 54.9439C112.485 54.4406 113.718 54.1889 115.203 54.1889C116.26 54.1889 117.166 54.3021 117.921 54.5287C118.701 54.73 119.355 55.0572 119.884 55.5102C120.01 55.636 120.085 55.7367 120.11 55.8122C120.161 55.8625 120.186 55.9632 120.186 56.1142V57.7752C120.186 57.9262 120.135 58.0143 120.035 58.0395C119.934 58.0395 119.833 57.9892 119.733 57.8885C119.229 57.3851 118.588 57.0202 117.807 56.7937C117.027 56.5672 116.247 56.454 115.467 56.454C114.51 56.454 113.693 56.6553 113.013 57.058C112.359 57.4606 111.843 58.0017 111.465 58.6813C111.088 59.3608 110.811 60.1158 110.635 60.9463C110.459 61.7517 110.37 62.5696 110.37 63.4001C110.37 64.7843 110.534 66.0049 110.861 67.062C111.188 68.0938 111.717 68.8992 112.447 69.478C113.202 70.0317 114.183 70.3085 115.391 70.3085C116.172 70.3085 116.876 70.233 117.505 70.082C118.135 69.9059 118.739 69.6793 119.317 69.4025C119.569 69.2767 119.745 69.327 119.846 69.5535L120.412 70.7615C120.488 70.8874 120.5 70.988 120.45 71.0635C120.425 71.1139 120.362 71.1768 120.261 71.2523C119.657 71.655 118.915 71.957 118.034 72.1583C117.153 72.3597 116.222 72.4603 115.24 72.4603ZM128.586 72.4603C126.548 72.4603 124.962 72.0702 123.83 71.2901C122.697 70.5099 121.905 69.4277 121.452 68.0435C121.024 66.6593 120.81 65.0737 120.81 63.2869C120.81 61.5252 121.049 59.9648 121.527 58.6058C122.03 57.2216 122.848 56.1394 123.981 55.3592C125.113 54.579 126.649 54.1889 128.586 54.1889C130.55 54.1889 132.097 54.579 133.23 55.3592C134.362 56.1394 135.168 57.2216 135.646 58.6058C136.149 59.9648 136.401 61.5252 136.401 63.2869C136.401 65.0486 136.174 66.6215 135.721 68.0057C135.294 69.3899 134.513 70.4847 133.381 71.2901C132.273 72.0702 130.675 72.4603 128.586 72.4603ZM128.586 70.3085C130.474 70.3085 131.783 69.7045 132.513 68.4965C133.268 67.2633 133.645 65.5393 133.645 63.3246C133.645 61.1099 133.242 59.4111 132.437 58.2282C131.632 57.0454 130.348 56.454 128.586 56.454C126.85 56.454 125.566 57.0454 124.736 58.2282C123.931 59.4111 123.528 61.1099 123.528 63.3246C123.528 65.5645 123.905 67.2885 124.66 68.4965C125.415 69.7045 126.724 70.3085 128.586 70.3085ZM138.861 72.2338C138.66 72.2338 138.559 72.1332 138.559 71.9318C138.559 69.2641 138.559 66.5964 138.559 63.9286C138.559 61.2609 138.559 58.5806 138.559 55.8877C138.559 55.7367 138.609 55.6108 138.71 55.5102C138.811 55.3843 139.037 55.2585 139.389 55.1327C139.717 55.032 140.195 54.9187 140.824 54.7929C141.478 54.6419 142.17 54.5035 142.9 54.3777C143.655 54.2518 144.347 54.1889 144.977 54.1889C146.914 54.1889 148.399 54.5664 149.431 55.3214C150.488 56.0764 151.218 57.1083 151.621 58.417C152.023 59.7005 152.225 61.1225 152.225 62.6828C152.225 63.8405 152.2 65.0108 152.149 66.1937C152.099 67.3514 152.036 68.421 151.96 69.4025C151.91 70.384 151.86 71.1642 151.809 71.7431C151.784 71.9696 151.734 72.108 151.658 72.1583C151.608 72.2087 151.47 72.2338 151.243 72.2338H149.62C149.419 72.2338 149.28 72.2087 149.205 72.1583C149.129 72.0828 149.104 71.957 149.129 71.7808C149.129 71.6298 149.142 71.2271 149.167 70.5728C149.217 69.9184 149.268 69.1383 149.318 68.2322C149.368 67.301 149.406 66.3447 149.431 65.3632C149.481 64.3565 149.507 63.4379 149.507 62.6073C149.507 61.2483 149.343 60.1158 149.016 59.2098C148.689 58.3037 148.185 57.6242 147.506 57.1712C146.852 56.7182 145.996 56.4917 144.939 56.4917C144.385 56.4917 143.844 56.542 143.316 56.6427C142.787 56.7434 142.309 56.8692 141.881 57.0202C141.73 57.0454 141.579 57.1335 141.428 57.2845C141.302 57.4103 141.239 57.6368 141.239 57.964C141.239 59.3734 141.239 60.8582 141.239 62.4186C141.239 63.979 141.239 65.5645 141.239 67.1752C141.239 68.7607 141.239 70.3463 141.239 71.9318C141.239 72.1332 141.151 72.2338 140.975 72.2338H138.861ZM160.882 72.2338C159.322 72.2338 158.164 71.9067 157.409 71.2523C156.654 70.5728 156.163 69.629 155.937 68.421C155.71 67.364 155.597 66.2566 155.597 65.0989C155.597 63.916 155.597 62.708 155.597 61.4748C155.597 60.6191 155.597 59.8012 155.597 59.021C155.622 58.2408 155.66 57.4481 155.71 56.6427C155.71 56.4162 155.61 56.3029 155.408 56.3029H153.483C153.382 56.3029 153.307 56.2778 153.256 56.2274C153.206 56.1771 153.181 56.1016 153.181 56.0009V54.7174C153.181 54.6167 153.206 54.5412 153.256 54.4909C153.307 54.4406 153.395 54.4154 153.521 54.4154H155.446C155.572 54.4154 155.66 54.3902 155.71 54.3399C155.761 54.2644 155.786 54.1386 155.786 53.9624L155.974 50.7536C155.974 50.5774 156.05 50.4893 156.201 50.4893H158.315C158.39 50.4893 158.453 50.5145 158.504 50.5648C158.579 50.6151 158.617 50.6781 158.617 50.7536L158.466 53.9624C158.441 54.1386 158.441 54.2644 158.466 54.3399C158.516 54.3902 158.604 54.4154 158.73 54.4154H163.147C163.273 54.4154 163.348 54.4406 163.374 54.4909C163.424 54.5161 163.449 54.6042 163.449 54.7552V55.9632C163.449 56.0639 163.424 56.1519 163.374 56.2274C163.323 56.2778 163.235 56.3029 163.109 56.3029H158.73C158.63 56.3029 158.542 56.3407 158.466 56.4162C158.39 56.4665 158.353 56.5672 158.353 56.7182C158.328 57.5236 158.302 58.3415 158.277 59.172C158.252 60.0025 158.239 60.8456 158.239 61.7013C158.239 62.7332 158.239 63.7902 158.239 64.8724C158.265 65.9294 158.39 66.9613 158.617 67.968C158.768 68.6727 159.045 69.2012 159.448 69.5535C159.875 69.9059 160.53 70.082 161.411 70.082C161.763 70.082 162.115 70.0443 162.468 69.9688C162.82 69.8681 163.172 69.7674 163.525 69.6668C163.701 69.5661 163.814 69.5283 163.864 69.5535C163.915 69.5787 163.965 69.6668 164.015 69.8178L164.431 71.0635C164.481 71.2146 164.456 71.3278 164.355 71.4033C164.28 71.4788 164.116 71.5795 163.864 71.7053C163.588 71.806 163.248 71.9067 162.845 72.0073C162.468 72.0828 162.103 72.1457 161.75 72.1961C161.398 72.2212 161.109 72.2338 160.882 72.2338ZM171.722 72.5358C170.489 72.5358 169.344 72.3974 168.287 72.1206C167.255 71.8186 166.424 71.2775 165.795 70.4973C165.166 69.6919 164.852 68.5342 164.852 67.0242C164.852 65.7407 165.065 64.6962 165.493 63.8909C165.921 63.0604 166.487 62.4312 167.192 62.0033C167.897 61.5503 168.652 61.2357 169.457 61.0596C170.262 60.8834 171.03 60.7953 171.76 60.7953C172.515 60.7953 173.257 60.8331 173.987 60.9086C174.717 60.9841 175.309 61.0721 175.762 61.1728C176.114 61.2483 176.29 60.9966 176.29 60.4178C176.29 58.9078 175.913 57.8507 175.157 57.2467C174.428 56.6175 173.27 56.3029 171.684 56.3029C170.703 56.3029 169.784 56.4414 168.929 56.7182C168.073 56.995 167.368 57.3096 166.815 57.662C166.664 57.7626 166.55 57.8004 166.475 57.7752C166.399 57.7501 166.362 57.6746 166.362 57.5487L166.135 56.1142C166.11 55.9632 166.11 55.8625 166.135 55.8122C166.185 55.7367 166.261 55.6612 166.362 55.5857C166.966 55.1578 167.721 54.8307 168.627 54.6042C169.558 54.3525 170.59 54.2266 171.722 54.2266C173.333 54.2266 174.616 54.4154 175.573 54.7929C176.529 55.1704 177.246 55.6738 177.725 56.3029C178.203 56.9321 178.517 57.662 178.668 58.4925C178.845 59.2979 178.933 60.1535 178.933 61.0596C178.958 62.2928 178.958 63.4379 178.933 64.4949C178.933 65.5519 178.907 66.5964 178.857 67.6282C178.807 68.6349 178.731 69.6793 178.631 70.7615C178.605 70.9377 178.53 71.1013 178.404 71.2523C178.303 71.3781 178.077 71.5166 177.725 71.6676C177.347 71.7934 176.907 71.9192 176.403 72.0451C175.9 72.1457 175.371 72.2338 174.818 72.3093C174.264 72.3848 173.723 72.4352 173.194 72.4603C172.666 72.5107 172.175 72.5358 171.722 72.5358ZM171.911 70.686C172.137 70.686 172.452 70.6735 172.855 70.6483C173.283 70.6231 173.723 70.5602 174.176 70.4595C174.629 70.3589 175.019 70.233 175.346 70.082C175.673 69.9059 175.862 69.6919 175.913 69.4403C176.013 68.6852 176.089 67.8044 176.139 66.7977C176.189 65.791 176.202 64.8472 176.177 63.9664C176.177 63.463 176.001 63.161 175.648 63.0604C175.321 62.9597 174.793 62.8716 174.063 62.7961C173.333 62.6954 172.54 62.6451 171.684 62.6451C171.307 62.6451 170.866 62.708 170.363 62.8339C169.885 62.9597 169.432 63.1736 169.004 63.4756C168.576 63.7776 168.211 64.2181 167.909 64.7969C167.632 65.3757 167.494 66.1182 167.494 67.0242C167.494 67.8799 167.683 68.5846 168.06 69.1383C168.438 69.6668 168.954 70.0569 169.608 70.3085C170.288 70.5602 171.055 70.686 171.911 70.686Z" fill="white"/>
</svg>
