<svg width="208" height="120" viewBox="0 0 208 120" fill="none" xmlns="http://www.w3.org/2000/svg">
<path d="M20 59.6005C20 44.283 23.283 41 38.6005 41C53.918 41 57.201 44.283 57.201 59.6005C57.201 74.918 53.918 78.201 38.6005 78.201C23.283 78.201 20 74.918 20 59.6005Z" fill="#EAEAEA"/>
<path d="M48.2444 60.2683L48.4797 57.7762C48.6639 55.8202 48.7559 54.8412 48.4204 54.4371C48.336 54.3318 48.2315 54.2443 48.1129 54.1799C47.9944 54.1154 47.8641 54.0752 47.7299 54.0617C47.2429 54.0187 46.6322 54.7144 45.4097 56.1057C44.7775 56.8259 44.4614 57.1849 44.1095 57.2412C43.9129 57.2718 43.7117 57.2396 43.5345 57.1491C43.2082 56.9854 42.9923 56.5404 42.5576 55.6514L40.2691 50.962C39.4487 49.2812 39.0384 48.4403 38.4144 48.4403C37.7904 48.4403 37.3802 49.2812 36.5597 50.962L34.2713 55.6514C33.8375 56.5415 33.6206 56.9854 33.2943 57.1491C33.1171 57.2395 32.9159 57.2717 32.7194 57.2412C32.3674 57.1849 32.0513 56.8259 31.4191 56.1057C30.1966 54.7144 29.5859 54.0187 29.099 54.0617C28.9647 54.0752 28.8344 54.1154 28.7159 54.1799C28.5973 54.2443 28.4928 54.3318 28.4084 54.4371C28.0739 54.8412 28.166 55.8202 28.3501 57.7762L28.5844 60.2683C28.9711 64.3725 29.1634 66.4257 30.3746 67.6625C31.5828 68.9003 33.3956 68.9003 37.0231 68.9003H39.8047C43.4312 68.9003 45.244 68.9003 46.4542 67.6625C47.6644 66.4247 47.8577 64.3725 48.2444 60.2683Z" fill="#363279"/>
<path d="M145.878 48.5314H152.23V57.266H158.519V48.5314H164.872V70.765H158.519V62.0304H152.23V70.765H145.878V48.5314Z" fill="white"/>
<path d="M125.623 48.5314H133.754L138.264 60.9505V48.5314H144.617V70.765H136.74L131.975 57.6472V70.765H125.623V48.5314Z" fill="white"/>
<path d="M117.919 48.4507H124.464V70.7781H117.919V48.4507Z" fill="white"/>
<path d="M98.2959 48.5314H116.718V54.8839H104.648V57.266H112.525V62.0304H104.648V64.4125H116.718V70.765H98.2959V48.5314Z" fill="white"/>
<path d="M71.373 48.5314H78.6784L84.205 63.7773L89.7316 48.5314H97.0369V70.765H90.6845V59.9023L86.746 70.765H81.664L77.7255 59.9023V70.765H71.373V48.5314Z" fill="white"/>
<path d="M177.502 48.0864C183.845 48.0864 189 53.2321 189 59.5844C189 65.9686 183.845 71.1147 177.502 71.1147C171.13 71.1147 165.975 65.9686 165.975 59.5844C165.975 53.2321 171.13 48.0864 177.502 48.0864ZM177.556 53.1782C177.134 53.1783 176.858 53.7465 176.304 54.8813L174.758 58.0483C174.464 58.6487 174.318 58.9495 174.098 59.06C173.978 59.121 173.842 59.1431 173.71 59.1225C173.472 59.0845 173.258 58.8413 172.831 58.3549C172.006 57.4156 171.593 56.9461 171.265 56.975C171.174 56.9842 171.086 57.0107 171.006 57.0541C170.926 57.0977 170.855 57.1568 170.798 57.228C170.571 57.5009 170.633 58.1628 170.758 59.4838L170.917 61.1664C171.178 63.9383 171.309 63.6732 172.126 64.5092C172.943 65.3451 174.168 65.3452 176.617 65.3452H178.495C180.945 65.3452 182.169 65.3449 182.985 64.5092C183.803 63.6739 183.933 63.9383 184.194 61.1664L184.353 59.4838C184.477 58.1628 184.539 57.5009 184.313 57.228C184.257 57.1569 184.185 57.0976 184.105 57.0541C184.026 57.0108 183.937 56.9841 183.847 56.975C183.518 56.9465 183.105 57.4159 182.28 58.3549C181.853 58.8412 181.64 59.0844 181.402 59.1225C181.27 59.1431 181.133 59.121 181.014 59.06C180.793 58.9494 180.646 58.6493 180.354 58.0483L178.809 54.8813C178.255 53.7462 177.977 53.1782 177.556 53.1782Z" fill="white"/>
</svg>
