<svg width="208" height="120" viewBox="0 0 208 120" fill="none" xmlns="http://www.w3.org/2000/svg">
<path d="M77.3804 51.1267L84.8178 60.4568L92.2552 51.1267H93.1883V69.6802H91.0023V57.6044C91.0023 57.3378 91.029 56.8758 91.0823 56.2182C90.2293 57.3201 89.1985 58.573 87.9901 59.9769C86.7994 61.3631 85.7331 62.5538 84.7912 63.549L83.7249 62.3494C81.5745 59.8969 80.2594 58.3952 79.7796 57.8443C79.6196 57.6488 79.4597 57.4445 79.2997 57.2312C79.1576 57.0179 79.0154 56.8225 78.8732 56.6447L78.5533 56.1916C78.6066 56.6892 78.6333 57.1601 78.6333 57.6044V69.6802H76.4474V51.1267H77.3804ZM106.496 70.24C104.737 70.2223 103.155 69.8135 101.751 69.0138C100.365 68.1963 99.272 67.0945 98.4723 65.7083C97.6903 64.3043 97.2993 62.7226 97.2993 60.9632V60.1902C97.2993 58.5019 97.6992 56.9557 98.4989 55.5518C99.3164 54.1301 100.418 53.0104 101.804 52.1929C103.208 51.3577 104.737 50.94 106.39 50.94C108.06 50.94 109.588 51.3577 110.975 52.1929C112.361 53.0104 113.463 54.1301 114.28 55.5518C115.098 56.9557 115.506 58.5019 115.506 60.1902V60.9632C115.506 62.7226 115.106 64.3132 114.307 65.7349C113.525 67.1567 112.45 68.2674 111.081 69.0671C109.713 69.8668 108.184 70.2578 106.496 70.24ZM106.416 68.2141C107.713 68.2141 108.886 67.9031 109.935 67.2811C110.983 66.6413 111.81 65.7705 112.414 64.6686C113.018 63.5668 113.32 62.3317 113.32 60.9632V60.1902C113.32 58.8928 113.009 57.6933 112.387 56.5914C111.765 55.4718 110.921 54.5921 109.855 53.9523C108.806 53.2948 107.642 52.966 106.363 52.966C105.101 52.966 103.946 53.2948 102.897 53.9523C101.849 54.5921 101.014 55.4718 100.392 56.5914C99.7874 57.6933 99.4852 58.8928 99.4852 60.1902V60.9632C99.4852 62.3317 99.7874 63.5668 100.392 64.6686C100.996 65.7705 101.822 66.6413 102.871 67.2811C103.937 67.9031 105.119 68.2141 106.416 68.2141ZM119.583 51.1H120.516L131.952 65.3884L132.325 66.0548L132.298 65.3084L132.272 51.3399H134.431V69.6802H133.311L131.765 68.1607L122.675 57.2312L121.635 55.845L121.769 57.6044V69.6802H119.583V51.1ZM139.602 51.3666H151.544V53.3925H141.735V58.9639H148.959V60.9899H141.735V67.6543H152.051V69.6802H139.602V51.3666ZM155.048 53.8191C154.959 53.5702 154.852 53.4103 154.728 53.3392C154.604 53.2681 154.408 53.2326 154.142 53.2326V51.2066C154.213 51.1889 154.319 51.18 154.461 51.18C154.728 51.18 155.012 51.2244 155.314 51.3133C155.617 51.4021 155.856 51.4999 156.034 51.6065C156.265 51.7487 156.461 51.9441 156.621 52.1929C156.798 52.424 156.932 52.6728 157.021 52.9394L161.099 65.8149L161.259 66.9878L161.446 65.8149L166.004 51.3399H167.977L172.562 65.8149L172.748 66.9878L172.908 65.8149L177.493 51.3399H179.679L173.708 69.6802H171.735L166.99 55.0719L162.245 69.6802H160.273L155.048 53.8191Z" fill="white"/>
<path d="M45.8803 50.7634L39.9839 48.0419C39.9242 48.0143 39.8592 48 39.7934 48C39.7276 48 39.6626 48.0143 39.6029 48.0419L33.7064 50.7634C33.6277 50.7998 33.5611 50.8581 33.5144 50.9312C33.4678 51.0044 33.4431 51.0894 33.4434 51.1761V58.8869C33.4431 58.9736 33.4678 59.0586 33.5144 59.1318C33.5611 59.2049 33.6277 59.2632 33.7064 59.2996L39.6029 62.0211C39.6626 62.0487 39.7276 62.063 39.7934 62.063C39.8592 62.063 39.9242 62.0487 39.9839 62.0211L45.8803 59.2996C45.9591 59.2632 46.0257 59.2049 46.0723 59.1318C46.119 59.0586 46.1436 58.9736 46.1434 58.8869V51.1761C46.1436 51.0894 46.119 51.0044 46.0723 50.9312C46.0257 50.8581 45.9591 50.7998 45.8803 50.7634ZM39.7934 53.3986L34.981 51.1761L39.7934 48.9536L44.6058 51.1761L39.7934 53.3986ZM45.2363 58.5966L40.247 60.9008V54.1879L45.2363 51.8837V58.5966Z" fill="white"/>
<path d="M45.4986 50.7634L51.395 48.0419C51.4547 48.0143 51.5197 48 51.5855 48C51.6513 48 51.7163 48.0143 51.776 48.0419L57.6725 50.7634C57.7512 50.7998 57.8178 50.8581 57.8645 50.9312C57.9111 51.0044 57.9358 51.0894 57.9355 51.1761V58.8869C57.9358 58.9736 57.9111 59.0586 57.8645 59.1318C57.8178 59.2049 57.7512 59.2632 57.6725 59.2996L51.776 62.0211C51.7163 62.0487 51.6513 62.063 51.5855 62.063C51.5197 62.063 51.4547 62.0487 51.395 62.0211L45.4986 59.2996C45.4198 59.2632 45.3532 59.2049 45.3066 59.1318C45.2599 59.0586 45.2353 58.9736 45.2355 58.8869V51.1761C45.2353 51.0894 45.2599 51.0044 45.3066 50.9312C45.3532 50.8581 45.4198 50.7998 45.4986 50.7634ZM51.5855 53.3986L56.3979 51.1761L51.5855 48.9536L46.7731 51.1761L51.5855 53.3986ZM46.1426 58.5966L51.1319 60.9008V54.1879L46.1426 51.8837V58.5966Z" fill="white"/>
<path d="M39.6021 61.1955L45.4985 58.4741C45.5582 58.4464 45.6232 58.4321 45.689 58.4321C45.7548 58.4321 45.8198 58.4464 45.8795 58.4741L51.776 61.1955C51.8547 61.232 51.9214 61.2902 51.968 61.3634C52.0146 61.4365 52.0393 61.5215 52.0391 61.6083V69.319C52.0393 69.4058 52.0146 69.4908 51.968 69.5639C51.9214 69.6371 51.8547 69.6953 51.776 69.7318L45.8795 72.4532C45.8198 72.4808 45.7548 72.4952 45.689 72.4952C45.6232 72.4952 45.5582 72.4808 45.4985 72.4532L39.6021 69.7318C39.5233 69.6953 39.4567 69.6371 39.4101 69.5639C39.3635 69.4908 39.3388 69.4058 39.339 69.319V61.6083C39.3388 61.5215 39.3635 61.4365 39.4101 61.3634C39.4567 61.2902 39.5233 61.232 39.6021 61.1955ZM45.689 63.8308L50.5014 61.6083L45.689 59.3858L40.8766 61.6083L45.689 63.8308ZM40.2462 69.0287L45.2355 71.3329V64.62L40.2462 62.3158V69.0287Z" fill="white"/>
<path d="M51.8491 61.1955L57.7456 58.4741C57.8053 58.4464 57.8703 58.4321 57.9361 58.4321C58.0019 58.4321 58.0669 58.4464 58.1266 58.4741L64.0231 61.1955C64.1018 61.232 64.1684 61.2902 64.215 61.3634C64.2617 61.4365 64.2863 61.5215 64.2861 61.6083V69.319C64.2863 69.4058 64.2617 69.4908 64.215 69.5639C64.1684 69.6371 64.1018 69.6953 64.0231 69.7318L58.1266 72.4532C58.0669 72.4808 58.0019 72.4952 57.9361 72.4952C57.8703 72.4952 57.8053 72.4808 57.7456 72.4532L51.8491 69.7318C51.7704 69.6953 51.7038 69.6371 51.6572 69.5639C51.6105 69.4908 51.5859 69.4058 51.5861 69.319V61.6083C51.5859 61.5215 51.6105 61.4365 51.6572 61.3634C51.7038 61.2902 51.7704 61.232 51.8491 61.1955ZM57.9361 63.8308L62.7485 61.6083L57.9361 59.3858L53.1237 61.6083L57.9361 63.8308ZM52.4932 69.0287L57.4825 71.3329V64.62L52.4932 62.3158V69.0287Z" fill="white"/>
<path d="M40.437 61.1955L34.5405 58.4741C34.4808 58.4464 34.4158 58.4321 34.35 58.4321C34.2842 58.4321 34.2192 58.4464 34.1595 58.4741L28.2631 61.1955C28.1843 61.232 28.1177 61.2902 28.0711 61.3634C28.0245 61.4365 27.9998 61.5215 28 61.6083V69.319C27.9998 69.4058 28.0245 69.4908 28.0711 69.5639C28.1177 69.6371 28.1843 69.6953 28.2631 69.7318L34.1595 72.4532C34.2192 72.4808 34.2842 72.4952 34.35 72.4952C34.4158 72.4952 34.4808 72.4808 34.5405 72.4532L40.437 69.7318C40.5157 69.6953 40.5823 69.6371 40.629 69.5639C40.6756 69.4908 40.7003 69.4058 40.7001 69.319V61.6083C40.7003 61.5215 40.6756 61.4365 40.629 61.3634C40.5823 61.2902 40.5157 61.232 40.437 61.1955ZM34.35 63.8308L29.5376 61.6083L34.35 59.3858L39.1624 61.6083L34.35 63.8308ZM39.7929 69.0287L34.8036 71.3329V64.62L39.7929 62.3158V69.0287Z" fill="white"/>
</svg>
