<svg width="208" height="120" viewBox="0 0 208 120" fill="none" xmlns="http://www.w3.org/2000/svg">
<path d="M13.4004 52.2477C14.8301 51.3226 18.1856 49.7967 20.1719 51.0915C20.517 51.3653 20.9691 51.8525 21.1895 52.4841L19.248 52.7477C19.1346 52.7631 19.0774 52.7709 19.0264 52.7809C18.3745 52.9101 17.8543 53.4032 17.6914 54.0475C17.6787 54.0979 17.6677 54.155 17.6465 54.2673C17.6253 54.3795 17.6152 54.4367 17.6025 54.487C17.4396 55.1314 16.9196 55.6256 16.2676 55.7546C16.2166 55.7646 16.155 55.7724 16.0342 55.7888C15.7201 55.8314 15.5624 55.853 15.4385 55.8825C14.2417 56.1675 13.4117 57.2576 13.4561 58.487C13.4607 58.6143 13.481 58.7641 13.5215 59.0622L14.4268 65.7331C14.6211 67.1654 14.7183 67.882 15.0713 68.3913C15.3818 68.8392 15.8264 69.1782 16.3408 69.3581C16.9257 69.5625 17.6423 69.4645 19.0742 69.2702L23.8701 68.6188C23.7111 69.5993 23.9574 70.7616 25.0557 71.9724C25.1444 72.0708 25.0841 72.2328 24.9521 72.2438L23.332 72.3718C22.2782 72.5775 19.8105 73.2349 18.3662 74.2214C17.0618 74.9667 13.9719 76.1953 12.0459 75.1472C11.3185 74.7872 9.89446 73.2959 10.0146 70.2126C9.93943 67.103 10.1203 59.7273 11.4443 55.1013C11.645 54.3971 12.3173 52.8402 13.4004 52.2477ZM26.8564 66.027C28.1363 64.8609 36.9735 63.9713 44.0088 68.7653C45.1778 69.5706 46.8915 71.8816 43.7051 75.153C43.6996 75.1586 43.6938 75.164 43.6875 75.1686C43.0597 75.6308 41.7515 75.7474 39.6406 74.3815C38.1846 73.4715 34.1492 71.8073 29.6562 72.4313C28.3302 72.6133 25.5686 72.3217 25.1318 69.7009C25.0023 68.9482 25.163 67.1661 26.8369 66.0427C26.844 66.0379 26.8502 66.0327 26.8564 66.027ZM22.7158 56.5651C25.3004 56.5651 27.3962 58.6602 27.3965 61.2448L27.3906 61.486C27.2653 63.9589 25.2199 65.9255 22.7158 65.9255L22.4756 65.9196C20.0027 65.7943 18.0362 63.7488 18.0361 61.2448C18.0364 58.6604 20.1314 56.5654 22.7158 56.5651ZM22.7158 57.0329C20.3899 57.0332 18.5042 58.9189 18.5039 61.2448C18.5039 63.5709 20.3898 65.4574 22.7158 65.4577C25.0421 65.4577 26.9287 63.5711 26.9287 61.2448C26.9285 58.9187 25.042 57.0329 22.7158 57.0329ZM16.0059 43.7263C17.1642 43.263 19.6835 42.8769 21.792 47.1052C21.8284 47.1775 21.9142 47.2139 21.9902 47.1862C23.7247 46.5498 27.8082 45.7828 31.4316 47.4265C31.4898 47.4527 31.5591 47.4409 31.6055 47.3972L34.7188 44.4362C34.7238 44.4314 34.7297 44.4266 34.7354 44.4225C35.3648 43.9811 36.8532 43.3732 37.8467 44.4284C39.3027 45.8065 42.5695 49.5861 40.8115 51.4489C40.2568 51.9015 38.833 51.6031 36.0908 50.3669C35.995 50.3241 35.8833 50.3857 35.8701 50.4899L35.6631 52.1511C35.6113 52.7751 35.8022 53.8165 36.5205 55.1931C37.7561 57.4327 39.6642 62.5165 37.5225 65.1003C37.4833 65.147 37.4187 65.165 37.3604 65.1472L35.6035 64.6061C35.5951 64.6036 35.5859 64.6014 35.5771 64.6003L32.207 64.1794H31.5801C31.5511 63.9506 31.5183 63.6984 31.4805 63.4196L30.5752 56.7487C30.5347 56.4504 30.5139 56.3005 30.4844 56.1765C30.1994 54.9797 29.1094 54.1506 27.8799 54.195C27.7525 54.1997 27.5944 54.2207 27.2803 54.2634C27.1596 54.2797 27.0987 54.2878 27.0469 54.2917C26.3841 54.3409 25.7515 54.0041 25.4229 53.4265C25.3971 53.3812 25.3718 53.3292 25.3213 53.2263C25.2709 53.1237 25.2453 53.0721 25.2197 53.027C24.8911 52.4491 24.2587 52.1115 23.5957 52.1608C23.5439 52.1647 23.4865 52.1728 23.373 52.1882L22.1504 52.3532C21.5301 50.6621 20.1015 49.5519 18.1123 49.8112L15.0703 50.5905C13.3281 51.0845 8.94292 51.7 10.3115 48.7966C10.8458 47.6823 14.0559 44.3507 16.0059 43.7263ZM22.6387 57.5807C24.6634 57.5807 26.3046 59.2221 26.3047 61.2468C26.3045 63.2714 24.6633 64.9128 22.6387 64.9128C20.6141 64.9127 18.9728 63.2713 18.9727 61.2468C18.9727 59.2221 20.614 57.5808 22.6387 57.5807ZM25.0596 62.2878C25.2098 61.1756 24.6085 61.2357 24.6084 61.4235C24.2704 62.8881 23.5819 63.1728 23.4814 63.3024C23.1811 63.6929 23.4555 63.7659 23.6309 63.7536C24.623 63.7235 24.9969 62.7638 25.0596 62.2878ZM21.9775 63.2272C21.853 63.2272 21.752 63.3383 21.752 63.4753C21.7521 63.6122 21.8531 63.7233 21.9775 63.7233C22.1019 63.7233 22.203 63.6121 22.2031 63.4753C22.2031 63.3383 22.102 63.2273 21.9775 63.2272ZM21.1523 62.4753C20.9448 62.4753 20.7764 62.661 20.7764 62.8893C20.7765 63.1175 20.9449 63.3024 21.1523 63.3024C21.3596 63.3022 21.5272 63.1174 21.5273 62.8893C21.5273 62.6612 21.3597 62.4755 21.1523 62.4753ZM22.6924 58.6804C21.5273 58.6428 19.5507 59.3495 19.9111 61.5739C19.9738 62.0122 20.3618 62.8516 20.3623 62.2888C20.3245 61.2365 20.723 59.1018 23.6689 59.2819C23.8944 59.2819 23.8946 58.7931 22.6924 58.6804ZM33.6143 53.4831C33.3046 53.4522 32.8757 53.5619 32.3818 53.7936C31.944 53.9991 31.4383 54.309 30.8896 54.7292L30.6514 54.9167C30.433 55.0935 30.6138 55.4205 30.8701 55.361C31.3104 55.2585 31.6382 55.1914 32.0469 55.238C32.459 55.285 32.9691 55.4501 33.7559 55.8434C33.8432 55.8867 33.9495 55.8515 33.9932 55.7643C34.0368 55.6769 34.0005 55.5707 33.9131 55.527C33.1116 55.1263 32.5592 54.9403 32.0869 54.8864C31.7708 54.8504 31.497 54.877 31.2188 54.9274C31.7067 54.5636 32.1504 54.2942 32.5322 54.1149C33.0081 53.8916 33.366 53.8145 33.5791 53.8356C33.6763 53.8453 33.7636 53.7736 33.7734 53.6765C33.783 53.5793 33.7114 53.4928 33.6143 53.4831Z" fill="white"/>
<path d="M66.2743 62.55V63.484C66.2743 64.0341 66.4092 64.4648 66.679 64.7761C66.9592 65.0771 67.4626 65.2275 68.189 65.2275H69.7769V71.0029H54.5367V65.2275C55.45 65.2275 56.1038 65.1082 56.4981 64.8695C56.8925 64.6204 57.0897 64.1586 57.0897 63.484V55.6071C57.0897 54.9221 56.8925 54.4603 56.4981 54.2216C56.1038 53.9725 55.45 53.848 54.5367 53.848V48.0726H71.3336C72.8695 48.0726 74.1564 48.2542 75.1942 48.6175C76.232 48.9807 77.0623 49.4892 77.685 50.143C78.318 50.7865 78.7643 51.57 79.0237 52.4937C79.2936 53.4173 79.4285 54.4344 79.4285 55.5448C79.4285 56.6656 79.2936 57.6567 79.0237 58.5181C78.7643 59.3795 78.318 60.1163 77.685 60.7286C77.0623 61.3306 76.232 61.7872 75.1942 62.0986C74.1564 62.3995 72.8695 62.55 71.3336 62.55H66.2743ZM66.2743 58.8606H67.9555C68.8273 58.8606 69.4292 58.6323 69.7613 58.1756C70.0934 57.719 70.2595 57.1171 70.2595 56.3699C70.2595 55.6642 70.0934 55.0674 69.7613 54.5796C69.4292 54.0919 68.8273 53.848 67.9555 53.848H66.2743V58.8606ZM89.1423 63.3906C89.1838 64.937 89.4744 66.0059 90.0141 66.5974C90.5641 67.1786 91.3477 67.4692 92.3647 67.4692C92.7072 67.4692 93.0393 67.4225 93.361 67.3291C93.6931 67.2253 93.9993 67.0645 94.2795 66.8465C94.5597 66.6182 94.7984 66.3224 94.9956 65.9592C95.2031 65.5856 95.338 65.1186 95.4003 64.5582H101.067C100.859 65.8969 100.475 67.0178 99.9148 67.9206C99.3647 68.8235 98.6538 69.5552 97.7821 70.1156C96.9103 70.6656 95.8933 71.06 94.7309 71.2987C93.579 71.5478 92.2921 71.6723 90.8703 71.6723C89.407 71.6723 88.0319 71.4855 86.745 71.1119C85.4581 70.7383 84.3269 70.1727 83.3514 69.4151C82.3862 68.6471 81.6286 67.6871 81.0786 66.5352C80.5285 65.3728 80.2535 63.9925 80.2535 62.3943C80.2535 60.8688 80.513 59.53 81.0319 58.378C81.5508 57.2261 82.2772 56.2661 83.2113 55.4981C84.1557 54.7198 85.2661 54.1334 86.5426 53.739C87.8295 53.3447 89.2409 53.1475 90.7769 53.1475C92.6657 53.1475 94.2899 53.3965 95.6494 53.8947C97.0089 54.3928 98.1194 55.0882 98.9807 55.9807C99.8421 56.8732 100.475 57.9473 100.88 59.2031C101.285 60.4588 101.477 61.8547 101.456 63.3906H89.1423ZM91.4463 57.3506C90.7198 57.3506 90.1801 57.61 89.8273 58.1289C89.4848 58.6375 89.2565 59.4833 89.1423 60.6664H93.7035C93.6412 59.6493 93.4233 58.845 93.0497 58.2535C92.6761 57.6516 92.1416 57.3506 91.4463 57.3506ZM113.661 48.0726V53.848H118.315V59.6234H113.661V64.4025C113.661 65.0874 113.754 65.6478 113.941 66.0837C114.138 66.5196 114.537 66.7375 115.139 66.7375C115.471 66.7375 115.736 66.6753 115.933 66.5507C116.141 66.4158 116.302 66.2446 116.416 66.037C116.54 65.8191 116.618 65.5752 116.649 65.3054C116.681 65.0252 116.696 64.7242 116.696 64.4025V62.083H118.486V64.5893C118.486 65.596 118.377 66.5352 118.159 67.4069C117.952 68.2787 117.589 69.0311 117.07 69.6642C116.561 70.2972 115.866 70.8006 114.984 71.1742C114.102 71.5478 112.991 71.7346 111.652 71.7346C110.168 71.7346 108.985 71.553 108.103 71.1897C107.221 70.8265 106.552 70.3284 106.095 69.6953C105.638 69.0622 105.337 68.3098 105.192 67.4381C105.057 66.5663 104.99 65.6167 104.99 64.5893V59.6234H102.546V54.4862C103.324 54.4862 104.045 54.3202 104.709 53.9881C105.384 53.6456 105.96 53.1786 106.437 52.5871C106.925 51.9851 107.299 51.3002 107.558 50.5322C107.828 49.7642 107.963 48.9444 107.963 48.0726H113.661ZM133.726 53.848C132.813 53.848 132.159 53.9725 131.765 54.2216C131.381 54.4603 131.189 54.9221 131.189 55.6071V65.2275H134.302C134.728 65.2275 135.086 65.186 135.377 65.103C135.667 65.02 135.895 64.8487 136.062 64.5893C136.228 64.3195 136.342 63.9458 136.404 63.4685C136.477 62.9911 136.513 62.358 136.513 61.5693H141.961V71.0029H119.451V65.2275C120.365 65.2275 121.019 65.1082 121.413 64.8695C121.807 64.6204 122.004 64.1586 122.004 63.484V55.6071C122.004 54.9221 121.807 54.4603 121.413 54.2216C121.019 53.9725 120.365 53.848 119.451 53.848V48.0726H133.726V53.848ZM154.742 53.848V63.5463C154.742 64.2416 154.913 64.6983 155.256 64.9162C155.598 65.1238 156.034 65.2275 156.563 65.2275H156.984V71.0029H143.876V65.2275H144.483C145.033 65.2275 145.438 65.0563 145.698 64.7138C145.967 64.361 146.102 63.9822 146.102 63.5774V61.3825C146.102 60.7805 145.91 60.3395 145.526 60.0593C145.153 59.7687 144.717 59.6234 144.219 59.6234H143.876V53.848H154.742ZM145.853 50.0185C145.853 49.126 146.191 48.3632 146.865 47.7301C147.55 47.0971 148.52 46.7805 149.776 46.7805C151.053 46.7805 152.033 47.0971 152.718 47.7301C153.414 48.3632 153.761 49.126 153.761 50.0185C153.761 50.9318 153.414 51.7049 152.718 52.338C152.033 52.9607 151.053 53.272 149.776 53.272C148.52 53.272 147.55 52.9607 146.865 52.338C146.191 51.7049 145.853 50.9318 145.853 50.0185ZM160.455 53.848C160.279 53.765 160.087 53.6456 159.879 53.49C159.682 53.3239 159.5 53.1215 159.334 52.8828C159.168 52.6338 159.023 52.3536 158.898 52.0422C158.784 51.7205 158.727 51.3573 158.727 50.9525C158.727 50.2261 158.935 49.5982 159.35 49.0689C159.765 48.5396 160.341 48.1037 161.078 47.7613C161.825 47.4188 162.718 47.1697 163.755 47.014C164.804 46.8584 165.966 46.7805 167.242 46.7805C168.726 46.7805 169.972 46.8687 170.979 47.0452C171.996 47.2216 172.815 47.4759 173.438 47.808C174.071 48.1401 174.517 48.5396 174.777 49.0066C175.047 49.4736 175.182 49.9925 175.182 50.5633C175.182 50.9058 175.125 51.2379 175.01 51.5596C174.907 51.871 174.725 52.1564 174.466 52.4158C174.216 52.6753 173.884 52.8828 173.469 53.0385C173.054 53.1942 172.551 53.272 171.959 53.272C170.88 53.272 170.081 53.0177 169.562 52.5092C169.053 52.0007 168.799 51.3728 168.799 50.6256C168.799 50.2001 168.913 49.8473 169.142 49.567C169.38 49.2765 169.64 49.0793 169.92 48.9755L169.733 48.851C169.173 48.851 168.716 48.9236 168.363 49.0689C168.021 49.2142 167.751 49.3906 167.554 49.5982C167.367 49.7954 167.242 50.0237 167.18 50.2831C167.118 50.5322 167.087 50.7761 167.087 51.0148C167.087 51.3573 167.154 51.6997 167.289 52.0422C167.424 52.3743 167.652 52.6753 167.974 52.9451C168.296 53.2046 168.721 53.4225 169.251 53.5989C169.78 53.765 170.439 53.848 171.228 53.848H172.956V59.6234H169.437V63.5463C169.437 64.2416 169.609 64.6983 169.951 64.9162C170.294 65.1238 170.729 65.2275 171.259 65.2275H172.317V71.0029H158.572V65.2275H159.179C159.729 65.2275 160.133 65.0563 160.393 64.7138C160.663 64.361 160.798 63.9822 160.798 63.5774V59.6234H157.933V53.848H160.455ZM183.759 63.3906C183.801 64.937 184.091 66.0059 184.631 66.5974C185.181 67.1786 185.964 67.4692 186.982 67.4692C187.324 67.4692 187.656 67.4225 187.978 67.3291C188.31 67.2253 188.616 67.0645 188.896 66.8465C189.176 66.6182 189.415 66.3224 189.612 65.9592C189.82 65.5856 189.955 65.1186 190.017 64.5582H195.684C195.476 65.8969 195.092 67.0178 194.532 67.9206C193.982 68.8235 193.271 69.5552 192.399 70.1156C191.527 70.6656 190.51 71.06 189.348 71.2987C188.196 71.5478 186.909 71.6723 185.487 71.6723C184.024 71.6723 182.649 71.4855 181.362 71.1119C180.075 70.7383 178.944 70.1727 177.968 69.4151C177.003 68.6471 176.245 67.6871 175.695 66.5352C175.145 65.3728 174.87 63.9925 174.87 62.3943C174.87 60.8688 175.13 59.53 175.649 58.378C176.168 57.2261 176.894 56.2661 177.828 55.4981C178.772 54.7198 179.883 54.1334 181.159 53.739C182.446 53.3447 183.858 53.1475 185.394 53.1475C187.282 53.1475 188.907 53.3965 190.266 53.8947C191.626 54.3928 192.736 55.0882 193.598 55.9807C194.459 56.8732 195.092 57.9473 195.497 59.2031C195.901 60.4588 196.093 61.8547 196.073 63.3906H183.759ZM186.063 57.3506C185.337 57.3506 184.797 57.61 184.444 58.1289C184.102 58.6375 183.873 59.4833 183.759 60.6664H188.32C188.258 59.6493 188.04 58.845 187.666 58.2535C187.293 57.6516 186.758 57.3506 186.063 57.3506Z" fill="white"/>
</svg>
