<svg width="208" height="120" viewBox="0 0 208 120" fill="none" xmlns="http://www.w3.org/2000/svg">
<path d="M59.502 39.2836C68.6007 39.2836 76.0039 46.6868 76.0039 55.7855C76.0199 59.3314 74.8504 62.7473 73.1289 65.851L69.9561 62.6791C69.9474 62.6752 69.9384 62.6711 69.9297 62.6674C71.1241 60.7784 71.8154 58.5391 71.8154 56.139C71.8154 49.3837 66.3383 43.9077 59.583 43.9076C52.8278 43.9077 47.3516 49.3837 47.3516 56.139C47.3518 62.8942 52.8278 68.3713 59.583 68.3715C61.6271 68.3714 63.5544 67.8694 65.248 66.9828C65.2464 66.9904 65.2448 66.9986 65.2432 67.0062L69.4463 71.2103C64.8415 76.8392 59.502 80.5384 59.502 80.5385C58.8735 80.0919 42.9402 69.0685 43 55.7748C43.0002 46.6866 50.4034 39.2837 59.502 39.2836ZM59.4893 45.7015C65.304 45.7672 69.9815 50.5518 69.916 56.3666C69.896 58.1069 69.4436 59.8053 68.6113 61.3129C68.1177 62.2072 68.1541 63.347 68.8682 64.0775L72.4258 67.7162C72.9344 68.2367 72.9247 69.0716 72.4043 69.5804C71.8837 70.0892 71.0489 70.0794 70.54 69.559L66.9824 65.9203C66.2683 65.1903 65.1297 65.1278 64.2246 65.601C62.6988 66.3986 60.9909 66.8126 59.251 66.7933C53.4363 66.7276 48.7587 61.9431 48.8242 56.1283C48.89 50.3136 53.6745 45.636 59.4893 45.7015ZM59.459 48.3383C55.097 48.2893 51.5101 51.7965 51.4609 56.1586C51.4119 60.5207 54.9191 64.1084 59.2812 64.1576C63.6433 64.2066 67.2302 60.6984 67.2793 56.3363C67.3282 51.9743 63.821 48.3874 59.459 48.3383Z" fill="white"/>
<path d="M97.9237 70.1072H84.3855C83.8428 70.1072 83.443 69.9929 83.1859 69.7644C82.9574 69.5074 82.8432 69.1075 82.8432 68.5648V63.5523C82.8432 63.0096 82.9574 62.624 83.1859 62.3955C83.443 62.1385 83.8428 62.01 84.3855 62.01H95.9101C96.2814 62.01 96.5528 61.8957 96.7241 61.6672C96.9241 61.4102 97.024 61.1103 97.024 60.7675C97.024 60.282 96.9241 59.925 96.7241 59.6965C96.5528 59.468 96.2814 59.3394 95.9101 59.3109L89.4837 58.4112C87.4844 58.1256 85.8707 57.4687 84.6426 56.4404C83.443 55.4122 82.8432 53.6985 82.8432 51.2993V46.8009C82.8432 44.3731 83.6286 42.5166 85.1995 41.2314C86.7704 39.9175 88.9411 39.2606 91.7116 39.2606H103.707C104.25 39.2606 104.636 39.3891 104.864 39.6462C105.121 39.8747 105.25 40.2603 105.25 40.8029V45.9012C105.25 46.4439 105.121 46.8437 104.864 47.1008C104.636 47.3293 104.25 47.4435 103.707 47.4435H93.7252C93.3538 47.4435 93.0682 47.572 92.8683 47.8291C92.6684 48.0576 92.5684 48.3575 92.5684 48.7288C92.5684 49.1001 92.6684 49.4143 92.8683 49.6713C93.0682 49.9284 93.3538 50.0712 93.7252 50.0998L100.109 50.9566C102.108 51.2422 103.722 51.8991 104.95 52.9274C106.178 53.9556 106.792 55.6693 106.792 58.0684V62.5669C106.792 64.9946 105.992 66.8654 104.393 68.1793C102.822 69.4645 100.666 70.1072 97.9237 70.1072ZM125.617 70.1072H109.165C108.622 70.1072 108.223 69.9929 107.966 69.7644C107.737 69.5074 107.623 69.1075 107.623 68.5648V40.8029C107.623 40.2603 107.737 39.8747 107.966 39.6462C108.223 39.3891 108.622 39.2606 109.165 39.2606H122.832C125.631 39.2606 127.702 39.8033 129.044 40.8886C130.386 41.9454 131.058 43.5877 131.058 45.8155V47.8719C131.058 49.0715 130.843 50.0569 130.415 50.8281C130.015 51.5707 129.387 52.1276 128.53 52.4989C130.358 52.6703 131.715 53.2987 132.6 54.384C133.485 55.4693 133.928 57.0545 133.928 59.1395V63.081C133.928 65.4802 133.243 67.251 131.872 68.3935C130.529 69.5359 128.444 70.1072 125.617 70.1072ZM117.262 46.5438V51.1708H120.904C121.447 51.1708 121.847 51.028 122.104 50.7424C122.389 50.4568 122.532 50.0283 122.532 49.4571V48.2575C122.532 47.6863 122.389 47.2579 122.104 46.9723C121.847 46.6866 121.447 46.5438 120.904 46.5438H117.262ZM117.262 57.7686V62.824H122.832C123.375 62.824 123.774 62.6812 124.031 62.3955C124.317 62.1099 124.46 61.6815 124.46 61.1103V59.4394C124.46 58.8682 124.317 58.454 124.031 58.197C123.774 57.9114 123.375 57.7686 122.832 57.7686H117.262ZM150.791 70.1072H136.353C135.811 70.1072 135.411 69.9929 135.154 69.7644C134.925 69.5074 134.811 69.1075 134.811 68.5648V40.8029C134.811 40.2603 134.925 39.8747 135.154 39.6462C135.411 39.3891 135.811 39.2606 136.353 39.2606H150.791C154.361 39.2606 157.003 39.9747 158.717 41.4027C160.459 42.8308 161.331 45.0301 161.331 48.0005V61.3673C161.331 64.3377 160.459 66.537 158.717 67.9651C157.003 69.3931 154.361 70.1072 150.791 70.1072ZM144.536 47.4435V62.01H149.635C150.32 62.01 150.82 61.8386 151.134 61.4958C151.477 61.1531 151.648 60.6247 151.648 59.9107V49.5C151.648 48.7859 151.477 48.2718 151.134 47.9576C150.82 47.6149 150.32 47.4435 149.635 47.4435H144.536Z" fill="white"/>
<path d="M88.3701 75.0012C88.3303 75.0662 88.2887 75.115 88.2454 75.1476C88.202 75.1765 88.1477 75.191 88.0827 75.191C88.014 75.191 87.9362 75.162 87.8495 75.1042C87.7663 75.0463 87.6615 74.9831 87.5349 74.9144C87.412 74.8421 87.2656 74.777 87.0957 74.7192C86.9257 74.6577 86.7233 74.627 86.4883 74.627C86.2714 74.627 86.0797 74.6541 85.9134 74.7083C85.7507 74.7625 85.6133 74.8385 85.5013 74.9361C85.3892 75.0337 85.3042 75.1494 85.2464 75.2832C85.1922 75.4133 85.165 75.5561 85.165 75.7116C85.165 75.9104 85.2175 76.0767 85.3223 76.2105C85.4272 76.3407 85.5645 76.4527 85.7345 76.5467C85.908 76.6407 86.105 76.7239 86.3256 76.7962C86.5461 76.8649 86.7703 76.939 86.998 77.0185C87.2294 77.0981 87.4554 77.1885 87.6759 77.2897C87.8965 77.3909 88.0917 77.5193 88.2616 77.6747C88.4352 77.8302 88.5744 78.02 88.6792 78.2442C88.784 78.4683 88.8365 78.7413 88.8365 79.063C88.8365 79.4101 88.7768 79.7355 88.6575 80.0392C88.5382 80.3429 88.3647 80.6086 88.1369 80.8364C87.9127 81.0605 87.6344 81.2377 87.3017 81.3679C86.9727 81.498 86.5967 81.5631 86.1737 81.5631C85.9243 81.5631 85.6802 81.5378 85.4416 81.4872C85.2066 81.4402 84.9807 81.3733 84.7637 81.2865C84.5504 81.1961 84.3498 81.0877 84.1618 80.9611C83.9738 80.8346 83.8057 80.6936 83.6574 80.5381L84.0262 79.9307C84.0587 79.8801 84.1003 79.8404 84.1509 79.8114C84.2015 79.7825 84.2576 79.768 84.319 79.768C84.4022 79.768 84.4944 79.8078 84.5956 79.8874C84.6968 79.9633 84.818 80.0482 84.959 80.1422C85.1036 80.2326 85.2771 80.3176 85.4796 80.3971C85.682 80.473 85.9243 80.511 86.2063 80.511C86.6654 80.511 87.0197 80.3989 87.2692 80.1748C87.5223 79.9506 87.6488 79.6415 87.6488 79.2474C87.6488 79.0269 87.5964 78.8479 87.4915 78.7105C87.3867 78.5695 87.2475 78.452 87.074 78.358C86.904 78.264 86.7088 78.1845 86.4883 78.1194C86.2677 78.0544 86.0436 77.9857 85.8158 77.9134C85.588 77.8374 85.3639 77.7507 85.1433 77.653C84.9228 77.5518 84.7258 77.4217 84.5522 77.2626C84.3823 77.0999 84.2449 76.901 84.1401 76.666C84.0352 76.4274 83.9828 76.131 83.9828 75.7767C83.9828 75.4947 84.037 75.2217 84.1455 74.9578C84.2576 74.6938 84.4185 74.4607 84.6282 74.2582C84.8415 74.0521 85.1036 73.8876 85.4145 73.7647C85.7254 73.6418 86.0797 73.5803 86.4774 73.5803C86.9257 73.5803 87.3361 73.6508 87.7085 73.7918C88.0845 73.9328 88.408 74.1335 88.6792 74.3938L88.3701 75.0012ZM91.0717 76.601C91.2995 76.3768 91.5489 76.1978 91.8201 76.0641C92.0913 75.9267 92.4076 75.858 92.7691 75.858C93.0728 75.858 93.3386 75.9086 93.5663 76.0098C93.7977 76.1111 93.9911 76.2539 94.1466 76.4383C94.3057 76.6227 94.425 76.845 94.5045 77.1053C94.5841 77.362 94.6238 77.6458 94.6238 77.9567V81.4763H93.4633V77.9567C93.4633 77.5844 93.3765 77.2951 93.203 77.089C93.0331 76.883 92.7728 76.7799 92.4221 76.7799C92.1618 76.7799 91.9195 76.8396 91.6954 76.9589C91.4748 77.0782 91.2669 77.2409 91.0717 77.447V81.4763H89.9057V73.4502H91.0717V76.601ZM97.2003 75.9448V81.4763H96.0343V75.9448H97.2003ZM97.3955 74.2745C97.3955 74.3793 97.3738 74.4787 97.3305 74.5727C97.2907 74.6667 97.2347 74.7499 97.1623 74.8222C97.09 74.8909 97.0051 74.9469 96.9075 74.9903C96.8135 75.0301 96.7122 75.05 96.6038 75.05C96.4989 75.05 96.3995 75.0301 96.3055 74.9903C96.2151 74.9469 96.1356 74.8909 96.0669 74.8222C95.9982 74.7499 95.9422 74.6667 95.8988 74.5727C95.859 74.4787 95.8391 74.3793 95.8391 74.2745C95.8391 74.166 95.859 74.0648 95.8988 73.9708C95.9422 73.8768 95.9982 73.7954 96.0669 73.7267C96.1356 73.6544 96.2151 73.5984 96.3055 73.5586C96.3995 73.5152 96.4989 73.4935 96.6038 73.4935C96.7122 73.4935 96.8135 73.5152 96.9075 73.5586C97.0051 73.5984 97.09 73.6544 97.1623 73.7267C97.2347 73.7954 97.2907 73.8768 97.3305 73.9708C97.3738 74.0648 97.3955 74.166 97.3955 74.2745ZM99.7553 76.6769C99.8746 76.554 99.9976 76.4437 100.124 76.3461C100.254 76.2448 100.392 76.1581 100.536 76.0858C100.681 76.0135 100.835 75.9574 100.997 75.9177C101.16 75.8779 101.337 75.858 101.529 75.858C101.832 75.858 102.098 75.9086 102.326 76.0098C102.557 76.1111 102.751 76.2539 102.906 76.4383C103.065 76.6227 103.185 76.845 103.264 77.1053C103.344 77.362 103.383 77.6458 103.383 77.9567V81.4763H102.223V77.9567C102.223 77.5844 102.136 77.2951 101.963 77.089C101.793 76.883 101.532 76.7799 101.182 76.7799C100.921 76.7799 100.679 76.8396 100.455 76.9589C100.234 77.0782 100.026 77.2409 99.8313 77.447V81.4763H98.6653V75.9448H99.3703C99.5294 75.9448 99.6306 76.0189 99.674 76.1671L99.7553 76.6769ZM108.373 78.0869C108.373 77.8917 108.344 77.7109 108.286 77.5446C108.232 77.3747 108.151 77.2282 108.042 77.1053C107.934 76.9788 107.798 76.8812 107.636 76.8125C107.477 76.7402 107.292 76.704 107.082 76.704C106.659 76.704 106.327 76.8251 106.085 77.0674C105.842 77.3096 105.689 77.6494 105.624 78.0869H108.373ZM105.591 78.8027C105.606 79.1173 105.654 79.3902 105.738 79.6216C105.821 79.8494 105.931 80.0392 106.068 80.191C106.209 80.3429 106.376 80.4568 106.567 80.5327C106.762 80.605 106.979 80.6412 107.218 80.6412C107.446 80.6412 107.643 80.6159 107.809 80.5652C107.975 80.511 108.12 80.4532 108.243 80.3917C108.366 80.3266 108.471 80.2688 108.558 80.2182C108.644 80.1639 108.724 80.1368 108.796 80.1368C108.89 80.1368 108.962 80.173 109.013 80.2453L109.344 80.6737C109.206 80.8364 109.051 80.9738 108.877 81.0859C108.704 81.1979 108.52 81.2901 108.324 81.3624C108.129 81.4311 107.928 81.4799 107.722 81.5089C107.516 81.5414 107.316 81.5577 107.12 81.5577C106.737 81.5577 106.381 81.4944 106.052 81.3679C105.727 81.2377 105.443 81.0479 105.201 80.7984C104.962 80.549 104.774 80.2399 104.637 79.8711C104.503 79.5023 104.436 79.0775 104.436 78.5967C104.436 78.2134 104.496 77.8555 104.615 77.5229C104.738 77.1903 104.911 76.901 105.136 76.6552C105.363 76.4093 105.638 76.2159 105.96 76.0749C106.285 75.9303 106.652 75.858 107.061 75.858C107.401 75.858 107.715 75.914 108.004 76.0261C108.294 76.1346 108.543 76.2955 108.753 76.5088C108.962 76.7221 109.125 76.9842 109.241 77.2951C109.36 77.6024 109.42 77.9531 109.42 78.3472C109.42 78.528 109.4 78.6491 109.36 78.7105C109.32 78.772 109.248 78.8027 109.143 78.8027H105.591ZM114.374 80.088C114.537 80.2977 114.714 80.4459 114.905 80.5327C115.101 80.6159 115.312 80.6574 115.54 80.6574C115.999 80.6574 116.357 80.4911 116.614 80.1585C116.87 79.8259 116.999 79.3107 116.999 78.6129C116.999 77.9766 116.887 77.512 116.663 77.2192C116.442 76.9264 116.126 76.7799 115.714 76.7799C115.428 76.7799 115.178 76.845 114.965 76.9752C114.755 77.1017 114.558 77.2843 114.374 77.5229V80.088ZM114.374 76.6769C114.602 76.4274 114.857 76.2286 115.139 76.0803C115.421 75.9321 115.742 75.858 116.104 75.858C116.426 75.858 116.715 75.9213 116.972 76.0478C117.232 76.1707 117.453 76.3497 117.633 76.5847C117.814 76.8197 117.953 77.1053 118.051 77.4415C118.148 77.7742 118.197 78.1502 118.197 78.5695C118.197 79.0179 118.141 79.4264 118.029 79.7952C117.921 80.1603 117.763 80.4749 117.557 80.7388C117.351 80.9991 117.102 81.2015 116.809 81.3462C116.516 81.4872 116.189 81.5577 115.827 81.5577C115.65 81.5577 115.489 81.5396 115.345 81.5034C115.2 81.4709 115.066 81.4221 114.943 81.357C114.821 81.2919 114.707 81.2142 114.602 81.1238C114.501 81.0334 114.403 80.9304 114.309 80.8147L114.26 81.2431C114.242 81.3263 114.21 81.3859 114.163 81.4221C114.116 81.4582 114.05 81.4763 113.967 81.4763H113.208V73.4502H114.374V76.6769ZM120.431 76.9697C120.605 76.619 120.814 76.3443 121.06 76.1454C121.306 75.943 121.601 75.8417 121.944 75.8417C122.063 75.8417 122.176 75.8562 122.28 75.8851C122.385 75.9104 122.479 75.9502 122.562 76.0044L122.481 76.883C122.467 76.9444 122.443 76.9878 122.411 77.0131C122.382 77.0348 122.342 77.0457 122.291 77.0457C122.237 77.0457 122.159 77.0366 122.058 77.0185C121.957 76.9969 121.85 76.986 121.738 76.986C121.575 76.986 121.431 77.0095 121.304 77.0565C121.181 77.1035 121.069 77.1722 120.968 77.2626C120.87 77.353 120.784 77.4632 120.708 77.5934C120.632 77.7235 120.561 77.8718 120.496 78.0381V81.4763H119.33V75.9448H120.008C120.131 75.9448 120.216 75.9683 120.263 76.0153C120.31 76.0587 120.343 76.1364 120.361 76.2485L120.431 76.9697ZM124.549 75.9448V81.4763H123.383V75.9448H124.549ZM124.744 74.2745C124.744 74.3793 124.722 74.4787 124.679 74.5727C124.639 74.6667 124.583 74.7499 124.511 74.8222C124.438 74.8909 124.354 74.9469 124.256 74.9903C124.162 75.0301 124.061 75.05 123.952 75.05C123.847 75.05 123.748 75.0301 123.654 74.9903C123.564 74.9469 123.484 74.8909 123.415 74.8222C123.347 74.7499 123.291 74.6667 123.247 74.5727C123.207 74.4787 123.188 74.3793 123.188 74.2745C123.188 74.166 123.207 74.0648 123.247 73.9708C123.291 73.8768 123.347 73.7954 123.415 73.7267C123.484 73.6544 123.564 73.5984 123.654 73.5586C123.748 73.5152 123.847 73.4935 123.952 73.4935C124.061 73.4935 124.162 73.5152 124.256 73.5586C124.354 73.5984 124.438 73.6544 124.511 73.7267C124.583 73.7954 124.639 73.8768 124.679 73.9708C124.722 74.0648 124.744 74.166 124.744 74.2745ZM127.988 78.6617C128.349 78.6617 128.62 78.5695 128.801 78.3852C128.982 78.2008 129.072 77.9604 129.072 77.6639C129.072 77.3602 128.982 77.1198 128.801 76.9426C128.62 76.7655 128.349 76.6769 127.988 76.6769C127.63 76.6769 127.359 76.7655 127.174 76.9426C126.994 77.1198 126.903 77.3602 126.903 77.6639C126.903 77.8085 126.927 77.9423 126.974 78.0652C127.021 78.1881 127.089 78.2948 127.18 78.3852C127.27 78.4719 127.382 78.5406 127.516 78.5912C127.653 78.6382 127.811 78.6617 127.988 78.6617ZM129.609 81.7475C129.609 81.6245 129.573 81.5269 129.501 81.4546C129.432 81.3787 129.338 81.3209 129.219 81.2811C129.099 81.2377 128.96 81.207 128.801 81.1889C128.642 81.1672 128.472 81.1527 128.291 81.1455C128.114 81.1347 127.932 81.1256 127.744 81.1184C127.559 81.1075 127.38 81.0895 127.207 81.0642C127.033 81.1545 126.89 81.263 126.778 81.3895C126.67 81.5161 126.616 81.6625 126.616 81.8288C126.616 81.9373 126.643 82.0385 126.697 82.1325C126.755 82.2265 126.842 82.3079 126.957 82.3766C127.077 82.4452 127.227 82.4995 127.407 82.5392C127.592 82.579 127.812 82.5989 128.069 82.5989C128.582 82.5989 128.968 82.5194 129.224 82.3603C129.481 82.2012 129.609 81.9969 129.609 81.7475ZM130.781 76.1454V76.5793C130.781 76.7239 130.694 76.8125 130.52 76.845L129.967 76.9372C130.061 77.1469 130.108 77.3801 130.108 77.6368C130.108 77.9079 130.054 78.1538 129.945 78.3743C129.841 78.5949 129.694 78.7829 129.506 78.9383C129.318 79.0938 129.094 79.2131 128.834 79.2962C128.573 79.3794 128.291 79.421 127.988 79.421C127.872 79.421 127.758 79.4155 127.646 79.4047C127.538 79.3902 127.431 79.3722 127.326 79.3505C127.221 79.4119 127.144 79.477 127.093 79.5457C127.042 79.6144 127.017 79.6849 127.017 79.7572C127.017 79.8765 127.069 79.9651 127.174 80.0229C127.279 80.0808 127.417 80.1224 127.586 80.1477C127.76 80.173 127.957 80.1892 128.178 80.1965C128.398 80.2037 128.622 80.2164 128.85 80.2344C129.078 80.2525 129.302 80.2832 129.522 80.3266C129.743 80.3664 129.938 80.4351 130.108 80.5327C130.282 80.6267 130.421 80.755 130.526 80.9177C130.631 81.0804 130.683 81.2919 130.683 81.5522C130.683 81.7909 130.623 82.024 130.504 82.2518C130.385 82.4796 130.211 82.6821 129.983 82.8592C129.759 83.0364 129.485 83.1774 129.159 83.2822C128.834 83.3907 128.463 83.4449 128.047 83.4449C127.635 83.4449 127.276 83.4051 126.968 83.3256C126.665 83.2461 126.41 83.1376 126.204 83.0002C126.001 82.8664 125.849 82.711 125.748 82.5338C125.65 82.3567 125.602 82.1723 125.602 81.9807C125.602 81.7204 125.683 81.498 125.846 81.3136C126.012 81.1292 126.236 80.9846 126.518 80.8798C126.366 80.8075 126.243 80.708 126.149 80.5815C126.059 80.455 126.014 80.2887 126.014 80.0826C126.014 79.9199 126.073 79.75 126.193 79.5728C126.312 79.3957 126.491 79.2456 126.73 79.1227C126.455 78.9709 126.238 78.7702 126.079 78.5207C125.92 78.2677 125.84 77.973 125.84 77.6368C125.84 77.362 125.893 77.1144 125.997 76.8938C126.106 76.6733 126.256 76.4853 126.448 76.3298C126.639 76.1743 126.865 76.055 127.125 75.9719C127.389 75.8887 127.677 75.8472 127.988 75.8472C128.465 75.8472 128.881 75.9466 129.235 76.1454H130.781ZM132.868 76.601C133.095 76.3768 133.345 76.1978 133.616 76.0641C133.887 75.9267 134.203 75.858 134.565 75.858C134.869 75.858 135.134 75.9086 135.362 76.0098C135.594 76.1111 135.787 76.2539 135.942 76.4383C136.102 76.6227 136.221 76.845 136.3 77.1053C136.38 77.362 136.42 77.6458 136.42 77.9567V81.4763H135.259V77.9567C135.259 77.5844 135.172 77.2951 134.999 77.089C134.829 76.883 134.569 76.7799 134.218 76.7799C133.958 76.7799 133.715 76.8396 133.491 76.9589C133.271 77.0782 133.063 77.2409 132.868 77.447V81.4763H131.702V73.4502H132.868V76.601ZM139.481 81.5631C139.021 81.5631 138.667 81.4347 138.418 81.178C138.172 80.9177 138.049 80.5526 138.049 80.0826V76.8613H137.442C137.376 76.8613 137.32 76.8414 137.273 76.8016C137.226 76.7582 137.203 76.695 137.203 76.6118V76.14L138.098 76.0098L138.353 74.41C138.371 74.3486 138.401 74.2998 138.445 74.2636C138.488 74.2238 138.546 74.204 138.618 74.204H139.215V76.0207H140.75V76.8613H139.215V80.0012C139.215 80.2001 139.264 80.3519 139.361 80.4568C139.459 80.5616 139.589 80.614 139.752 80.614C139.842 80.614 139.92 80.6032 139.985 80.5815C140.05 80.5562 140.106 80.5309 140.153 80.5056C140.2 80.4767 140.24 80.4514 140.272 80.4297C140.309 80.4044 140.343 80.3917 140.375 80.3917C140.441 80.3917 140.493 80.4279 140.533 80.5002L140.88 81.0696C140.699 81.2287 140.486 81.3516 140.24 81.4384C139.994 81.5215 139.741 81.5631 139.481 81.5631ZM147.9 77.306C147.737 77.0963 147.558 76.9499 147.363 76.8667C147.168 76.7835 146.956 76.742 146.729 76.742C146.273 76.742 145.917 76.9101 145.66 77.2463C145.404 77.5789 145.275 78.0724 145.275 78.7268C145.275 79.0667 145.304 79.3577 145.362 79.5999C145.42 79.8385 145.503 80.0338 145.612 80.1856C145.72 80.3375 145.852 80.4477 146.007 80.5164C146.163 80.5851 146.338 80.6195 146.533 80.6195C146.83 80.6195 147.085 80.5562 147.298 80.4297C147.515 80.2995 147.716 80.1169 147.9 79.8819V77.306ZM149.066 73.4502V81.4763H148.361C148.206 81.4763 148.106 81.4022 148.063 81.254L147.96 80.652C147.728 80.9232 147.464 81.1419 147.168 81.3082C146.875 81.4745 146.533 81.5577 146.143 81.5577C145.832 81.5577 145.55 81.4962 145.297 81.3733C145.044 81.2467 144.827 81.0642 144.646 80.8255C144.465 80.5869 144.324 80.2923 144.223 79.9416C144.126 79.5873 144.077 79.1824 144.077 78.7268C144.077 78.3147 144.131 77.9332 144.239 77.5825C144.352 77.2319 144.511 76.9282 144.717 76.6715C144.923 76.4112 145.172 76.2087 145.465 76.0641C145.762 75.9158 146.092 75.8417 146.458 75.8417C146.783 75.8417 147.059 75.8942 147.287 75.999C147.515 76.1002 147.719 76.243 147.9 76.4274V73.4502H149.066ZM153.447 79.0576C153.032 79.0721 152.681 79.1064 152.395 79.1607C152.11 79.2113 151.878 79.2782 151.701 79.3613C151.524 79.4409 151.396 79.5367 151.316 79.6487C151.24 79.7608 151.202 79.8837 151.202 80.0175C151.202 80.1477 151.222 80.2597 151.262 80.3537C151.305 80.4441 151.363 80.52 151.435 80.5815C151.511 80.6394 151.598 80.6827 151.696 80.7117C151.797 80.737 151.907 80.7496 152.027 80.7496C152.33 80.7496 152.591 80.6936 152.807 80.5815C153.028 80.4658 153.241 80.2995 153.447 80.0826V79.0576ZM150.356 76.7148C150.982 76.1328 151.726 75.8417 152.591 75.8417C152.909 75.8417 153.191 75.8942 153.437 75.999C153.686 76.1002 153.894 76.2448 154.06 76.4328C154.23 76.6208 154.358 76.845 154.445 77.1053C154.536 77.362 154.581 77.6476 154.581 77.9622V81.4763H154.06C153.948 81.4763 153.863 81.46 153.805 81.4275C153.747 81.3914 153.699 81.3209 153.659 81.216L153.545 80.7659C153.404 80.8924 153.265 81.0063 153.127 81.1075C152.99 81.2052 152.847 81.2883 152.699 81.357C152.554 81.4257 152.397 81.4763 152.227 81.5089C152.061 81.545 151.876 81.5631 151.674 81.5631C151.45 81.5631 151.24 81.5324 151.045 81.4709C150.853 81.4094 150.687 81.3172 150.546 81.1943C150.405 81.0678 150.293 80.9123 150.21 80.7279C150.13 80.5435 150.09 80.3266 150.09 80.0772C150.09 79.8639 150.147 79.656 150.259 79.4535C150.374 79.251 150.562 79.0703 150.823 78.9112C151.087 78.7485 151.432 78.6147 151.858 78.5099C152.289 78.405 152.818 78.3454 153.447 78.3309V77.9622C153.447 77.5645 153.362 77.268 153.192 77.0728C153.023 76.8775 152.773 76.7799 152.444 76.7799C152.22 76.7799 152.032 76.8088 151.88 76.8667C151.728 76.9209 151.596 76.9806 151.484 77.0457C151.372 77.1107 151.273 77.1722 151.186 77.23C151.099 77.2843 151.007 77.3114 150.909 77.3114C150.83 77.3114 150.761 77.2915 150.703 77.2517C150.649 77.2084 150.604 77.1559 150.568 77.0945L150.356 76.7148ZM160.706 75.9448L157.658 83.049C157.619 83.1322 157.57 83.1972 157.512 83.2442C157.458 83.2912 157.373 83.3147 157.257 83.3147H156.395L157.414 81.1021L155.158 75.9448H156.173C156.27 75.9448 156.344 75.9683 156.395 76.0153C156.449 76.0587 156.489 76.1111 156.514 76.1725L157.832 79.3125C157.865 79.4029 157.893 79.4933 157.919 79.5837C157.948 79.6704 157.975 79.7608 158 79.8548C158.029 79.7608 158.058 79.6686 158.087 79.5782C158.116 79.4879 158.148 79.3975 158.185 79.3071L159.448 76.1725C159.473 76.1075 159.515 76.0532 159.573 76.0098C159.634 75.9665 159.701 75.9448 159.773 75.9448H160.706Z" fill="white"/>
</svg>
