<svg width="63" height="64" viewBox="0 0 63 64" fill="none" xmlns="http://www.w3.org/2000/svg">
<path d="M0 10.5C0 4.97715 4.47715 0.5 10 0.5H53C58.5228 0.5 63 4.97715 63 10.5V53.5C63 59.0228 58.5228 63.5 53 63.5H10C4.47715 63.5 0 59.0228 0 53.5V10.5Z" fill="#1F1E50"/>
<path d="M41.5849 36.4885C42.5417 34.4377 42.9102 32.1076 42.5552 29.8514C42.2498 27.9112 41.6111 26.321 40.6025 24.9897C39.7577 23.8745 38.6549 22.955 37.2313 22.1785C35.547 21.2598 33.5847 20.8085 31.5572 20.8733C29.5166 20.9385 27.493 21.5261 25.7052 22.5724C23.6185 23.7937 22.1186 25.4113 21.2471 27.3801C21.1654 27.5647 21.0894 27.7522 21.0185 27.9424C20.9352 28.0675 20.8854 28.2116 20.8728 28.3599C20.4173 29.7626 20.2405 31.321 20.3336 33.0913C20.3853 34.0744 20.5928 35.0564 20.9506 36.01C21.0083 36.164 21.0701 36.3166 21.1353 36.468C21.1371 36.4723 21.1389 36.4766 21.1407 36.4808C21.4653 37.2324 21.8799 37.9511 22.3775 38.6229C22.9752 39.4297 23.6785 40.1506 24.4681 40.7658C25.2766 41.3956 26.1589 41.9012 27.0904 42.2685C28.3668 42.7721 29.7484 43.0276 31.161 43.0276C31.7858 43.0276 32.4169 42.9776 33.0475 42.8769C35.0899 42.5508 36.9792 41.7183 38.5114 40.4693L38.5115 40.4693C39.7924 39.425 40.8148 38.093 41.5276 36.6096C41.5497 36.5706 41.569 36.5302 41.5849 36.4885ZM40.8046 30.1269C40.8208 30.23 40.8352 30.3334 40.8479 30.437C38.5677 31.4287 36.0955 32.589 33.6504 33.7489L40.5862 29.0547C40.673 29.3966 40.7458 29.7536 40.8046 30.1269ZM40.2739 35.0458C40.2227 35.1815 40.1685 35.3155 40.1117 35.4481C38.9017 35.8473 36.8306 36.6263 34.7014 37.484C34.7874 37.4213 34.8731 37.3588 34.9589 37.2962C37.095 35.7386 39.2887 34.1391 40.8344 32.8169C40.7357 33.5702 40.5485 34.319 40.2739 35.0458ZM39.9036 27.2046L30.4958 31.3701L38.867 25.6637C38.9798 25.7925 39.0875 25.9245 39.19 26.0598C39.4593 26.4153 39.6967 26.7961 39.9036 27.2046ZM24.1657 38.0283C24.0397 37.8789 23.9181 37.7256 23.8015 37.5681C23.5601 37.2421 23.3432 36.9053 23.1512 36.5601L32.3587 32.4833L24.1657 38.0283ZM22.5277 29.0046C24.7995 27.6542 27.4654 26.2996 29.814 25.174C29.295 25.529 28.775 25.87 28.2844 26.1916C27.7981 26.5105 27.3388 26.8116 26.9184 27.1004C25.7486 27.9042 24.6129 28.7012 23.5794 29.6147C23.0253 30.1044 22.5435 30.5926 22.1289 31.085C22.1939 30.3421 22.3264 29.6512 22.5277 29.0046ZM22.2207 33.9935C23.4862 33.3094 24.7193 32.6235 25.9124 31.9597C26.9267 31.3954 27.9274 30.8386 28.9308 30.2922L22.3965 34.7465C22.3257 34.4974 22.267 34.2462 22.2207 33.9935ZM37.2988 24.2919C33.2288 25.9321 29.7809 27.7867 26.2495 29.745C26.7804 29.3516 27.3414 28.9598 27.9219 28.5611C28.3264 28.2831 28.778 27.987 29.2561 27.6736C30.3197 26.9762 31.5253 26.1857 32.5917 25.3418C33.594 24.5485 34.346 23.8062 34.8717 23.0891C35.3986 23.2581 35.9047 23.4735 36.3828 23.7343C36.7085 23.9119 37.0134 24.0976 37.2988 24.2919ZM26.6003 24.1018C27.9338 23.3214 29.4185 22.8387 30.9312 22.6893C28.9481 23.6077 26.5173 24.7815 24.2035 26.0263C24.2222 26.0053 24.2407 25.9842 24.2597 25.9633C24.8922 25.2669 25.6797 24.6406 26.6003 24.1018ZM25.6549 39.4426C28.0312 38.3814 30.5663 37.1764 33.0305 36.0052C33.6859 35.6936 34.3463 35.3797 35.0073 35.0668C34.644 35.3327 34.2786 35.5992 33.9149 35.8644C31.4589 37.6551 29.1365 39.3486 27.7584 40.6269C27.7525 40.6246 27.7465 40.6224 27.7406 40.6201C27.0038 40.3295 26.3028 39.9335 25.6549 39.4426ZM30.4629 41.2278C31.5635 40.7133 33.0344 40.0769 34.7293 39.3853C34.8007 39.3562 34.8723 39.327 34.9437 39.298C34.2161 39.8821 33.4874 40.4975 32.8103 41.1182C32.0335 41.2454 31.2431 41.2832 30.4629 41.2278Z" fill="white"/>
<path d="M31.4993 19.045C31.9887 19.045 32.3854 18.6483 32.3854 18.159V12.5062C32.3854 12.0168 31.9887 11.6201 31.4993 11.6201C31.01 11.6201 30.6133 12.0168 30.6133 12.5062V18.159C30.6133 18.6483 31.01 19.045 31.4993 19.045Z" fill="white"/>
<path d="M25.4722 19.6092C25.6135 19.9504 25.9434 20.1564 26.2911 20.1564C26.4041 20.1564 26.519 20.1347 26.6299 20.0887C27.082 19.9015 27.2967 19.3832 27.1094 18.9311L26.073 16.429C25.8858 15.977 25.3675 15.7622 24.9154 15.9495C24.4633 16.1368 24.2486 16.6551 24.4358 17.1072L25.4722 19.6092Z" fill="white"/>
<path d="M21.2742 22.9174C21.4472 23.0905 21.674 23.1769 21.9007 23.1769C22.1275 23.1769 22.3543 23.0904 22.5273 22.9174C22.8733 22.5714 22.8733 22.0104 22.5273 21.6644L18.5301 17.6672C18.1841 17.3212 17.6231 17.3212 17.2771 17.6672C16.9311 18.0132 16.9311 18.5743 17.2771 18.9203L21.2742 22.9174Z" fill="white"/>
<path d="M15.557 26.2903L18.6681 27.579C18.779 27.6249 18.8938 27.6467 19.0068 27.6467C19.3545 27.6467 19.6844 27.4407 19.8257 27.0995C20.013 26.6474 19.7983 26.1291 19.3462 25.9418L16.2351 24.6531C15.7831 24.4659 15.2647 24.6805 15.0774 25.1326C14.8902 25.5847 15.1049 26.103 15.557 26.2903Z" fill="white"/>
<path d="M18.9249 31.9984C18.9249 31.509 18.5282 31.1123 18.0388 31.1123H12.386C11.8967 31.1123 11.5 31.509 11.5 31.9984C11.5 32.4877 11.8967 32.8844 12.386 32.8844H18.0388C18.5282 32.8844 18.9249 32.4877 18.9249 31.9984Z" fill="white"/>
<path d="M36.3705 20.0887C36.4814 20.1347 36.5962 20.1564 36.7092 20.1564C37.0569 20.1564 37.3868 19.9504 37.5281 19.6092L38.5645 17.1072C38.7518 16.6551 38.5371 16.1368 38.085 15.9495C37.6329 15.7623 37.1145 15.9769 36.9273 16.429L35.8909 18.9311C35.7037 19.3831 35.9184 19.9014 36.3705 20.0887Z" fill="white"/>
<path d="M41.096 23.1769C41.3228 23.1769 41.5495 23.0904 41.7225 22.9174L45.7197 18.9203C46.0657 18.5743 46.0657 18.0132 45.7197 17.6672C45.3737 17.3212 44.8126 17.3212 44.4666 17.6672L40.4695 21.6644C40.1235 22.0104 40.1235 22.5714 40.4695 22.9174C40.6425 23.0904 40.8692 23.1769 41.096 23.1769Z" fill="white"/>
<path d="M43.1731 27.0995C43.3145 27.4407 43.6444 27.6467 43.9921 27.6467C44.1051 27.6467 44.2199 27.6249 44.3308 27.579L47.4419 26.2903C47.894 26.103 48.1087 25.5847 47.9215 25.1326C47.7342 24.6805 47.2158 24.4659 46.7638 24.6531L43.6527 25.9418C43.2006 26.1291 42.9859 26.6474 43.1731 27.0995Z" fill="white"/>
<path d="M50.614 31.1123H44.9612C44.4719 31.1123 44.0752 31.509 44.0752 31.9984C44.0752 32.4877 44.4719 32.8844 44.9612 32.8844H50.614C51.1034 32.8844 51.5001 32.4877 51.5001 31.9984C51.5001 31.509 51.1034 31.1123 50.614 31.1123Z" fill="white"/>
<path d="M31.4993 44.9526C31.01 44.9526 30.6133 45.3493 30.6133 45.8387V51.4915C30.6133 51.9808 31.01 52.3775 31.4993 52.3775C31.9887 52.3775 32.3854 51.9808 32.3854 51.4915V45.8387C32.3854 45.3493 31.9887 44.9526 31.4993 44.9526Z" fill="white"/>
<path d="M26.6299 43.9085C26.1778 43.7212 25.6594 43.9359 25.4722 44.388L24.4358 46.89C24.2486 47.3421 24.4633 47.8604 24.9154 48.0477C25.0263 48.0936 25.1411 48.1154 25.2541 48.1154C25.6018 48.1154 25.9317 47.9094 26.073 47.5682L27.1094 45.0662C27.2967 44.6141 27.082 44.0958 26.6299 43.9085Z" fill="white"/>
<path d="M21.2742 41.0798L17.2771 45.077C16.9311 45.423 16.9311 45.984 17.2771 46.33C17.4501 46.503 17.6769 46.5895 17.9036 46.5895C18.1304 46.5895 18.3572 46.503 18.5302 46.33L22.5273 42.3329C22.8733 41.9869 22.8733 41.4258 22.5273 41.0799C22.1812 40.7338 21.6202 40.7338 21.2742 41.0798Z" fill="white"/>
<path d="M19.8257 36.8978C19.6385 36.4457 19.1203 36.231 18.6681 36.4183L15.557 37.7069C15.1049 37.8942 14.8902 38.4125 15.0774 38.8646C15.2188 39.2058 15.5487 39.4118 15.8964 39.4118C16.0094 39.4118 16.1242 39.39 16.2351 39.3441L19.3462 38.0554C19.7983 37.8682 20.013 37.3499 19.8257 36.8978Z" fill="white"/>
<path d="M37.5281 44.388C37.3409 43.9359 36.8226 43.7212 36.3705 43.9085C35.9184 44.0957 35.7037 44.614 35.8909 45.0661L36.9273 47.5682C37.0686 47.9094 37.3985 48.1154 37.7462 48.1154C37.8592 48.1154 37.9741 48.0936 38.085 48.0477C38.5371 47.8604 38.7518 47.3421 38.5645 46.89L37.5281 44.388Z" fill="white"/>
<path d="M41.7225 41.0803C41.3765 40.7343 40.8155 40.7343 40.4695 41.0803C40.1235 41.4263 40.1235 41.9874 40.4695 42.3334L44.4666 46.3305C44.6396 46.5035 44.8664 46.59 45.0931 46.59C45.3199 46.59 45.5467 46.5035 45.7197 46.3305C46.0657 45.9845 46.0657 45.4235 45.7197 45.0775L41.7225 41.0803Z" fill="white"/>
<path d="M47.4419 37.7069L44.3308 36.4183C43.8787 36.231 43.3604 36.4457 43.1731 36.8978C42.9859 37.3499 43.2006 37.8682 43.6527 38.0554L46.7638 39.3441C46.8747 39.39 46.9895 39.4118 47.1025 39.4118C47.4502 39.4118 47.7802 39.2058 47.9215 38.8646C48.1087 38.4125 47.894 37.8942 47.4419 37.7069Z" fill="white"/>
</svg>
