<svg width="208" height="120" viewBox="0 0 208 120" fill="none" xmlns="http://www.w3.org/2000/svg">
<path d="M85.9279 67.0045C87.484 63.6693 88.0833 59.8797 87.5058 56.2104C87.0092 53.055 85.9705 50.4687 84.3302 48.3036C82.9562 46.49 81.1627 44.9945 78.8474 43.7317C76.1082 42.2376 72.9169 41.5037 69.6194 41.609C66.3008 41.715 63.0098 42.6706 60.1023 44.3723C56.7085 46.3585 54.2692 48.9892 52.8519 52.1912C52.7191 52.4914 52.5955 52.7963 52.4801 53.1057C52.3446 53.3092 52.2637 53.5434 52.2432 53.7847C51.5024 56.0659 51.2148 58.6003 51.3663 61.4795C51.4503 63.0784 51.7878 64.6754 52.3696 66.2263C52.4635 66.4767 52.5641 66.7249 52.6701 66.9712C52.673 66.9781 52.6758 66.985 52.6789 66.9919C53.2067 68.2143 53.881 69.3832 54.6903 70.4758C55.6623 71.7878 56.8062 72.9603 58.0903 73.9607C59.4052 74.985 60.8401 75.8073 62.3551 76.4047C64.4309 77.2236 66.6778 77.6392 68.9751 77.6392C69.9914 77.6392 71.0176 77.5578 72.0432 77.3941C75.3648 76.8638 78.4375 75.5099 80.9294 73.4786L80.9294 73.4786C83.0126 71.7803 84.6754 69.614 85.8346 67.2014C85.8706 67.138 85.902 67.0722 85.9279 67.0045ZM84.6588 56.6584C84.6852 56.826 84.7086 56.9942 84.7293 57.1627C81.0209 58.7755 77.0003 60.6626 73.0238 62.5489L84.3036 54.9147C84.4449 55.4707 84.5633 56.0512 84.6588 56.6584ZM83.7958 64.6582C83.7125 64.8788 83.6243 65.0968 83.532 65.3124C81.5641 65.9617 78.1957 67.2286 74.733 68.6235C74.8728 68.5216 75.0123 68.4198 75.1518 68.3181C78.6259 65.785 82.1935 63.1835 84.7073 61.0332C84.5468 62.2584 84.2423 63.4761 83.7958 64.6582ZM83.1936 51.9057L67.8933 58.6803L81.5077 49.3997C81.6911 49.6093 81.8663 49.8239 82.033 50.044C82.471 50.6221 82.857 51.2415 83.1936 51.9057ZM57.5985 69.5087C57.3936 69.2657 57.1959 69.0163 57.0062 68.7603C56.6135 68.2301 56.2609 67.6824 55.9486 67.1209L70.923 60.4906L57.5985 69.5087ZM54.9346 54.8332C58.6293 52.637 62.9649 50.4339 66.7845 48.6034C65.9404 49.1807 65.0947 49.7352 64.2968 50.2584C63.506 50.7769 62.759 51.2667 62.0753 51.7364C60.1728 53.0435 58.3258 54.3398 56.645 55.8254C55.7438 56.6218 54.9603 57.4158 54.2861 58.2165C54.3917 57.0085 54.6072 55.8847 54.9346 54.8332ZM54.4353 62.9467C56.4935 61.8342 58.4989 60.7187 60.4392 59.6392C62.0887 58.7214 63.7163 57.8159 65.3482 56.9273L54.7213 64.1713C54.606 63.7663 54.5106 63.3578 54.4353 62.9467ZM78.9572 47.1688C72.3381 49.8363 66.7306 52.8525 60.9874 56.0373C61.8509 55.3975 62.7633 54.7604 63.7073 54.1118C64.3652 53.6598 65.0996 53.1783 65.8771 52.6686C67.607 51.5343 69.5677 50.2488 71.3019 48.8763C72.932 47.5861 74.155 46.3788 75.01 45.2127C75.8669 45.4875 76.69 45.8378 77.4675 46.2619C77.9973 46.5508 78.4931 46.8527 78.9572 47.1688ZM61.558 46.8596C63.7267 45.5903 66.1413 44.8054 68.6014 44.5624C65.3763 46.056 61.423 47.965 57.66 49.9896C57.6904 49.9554 57.7205 49.921 57.7513 49.8871C58.78 48.7545 60.0608 47.7359 61.558 46.8596ZM60.0205 71.8088C63.885 70.0829 68.008 68.1232 72.0155 66.2184C73.0815 65.7118 74.1555 65.2013 75.2305 64.6924C74.6396 65.1248 74.0453 65.5581 73.4538 65.9894C69.4597 68.9018 65.6826 71.6559 63.4414 73.7349C63.4318 73.7311 63.4221 73.7276 63.4125 73.7238C62.2142 73.2512 61.0741 72.6072 60.0205 71.8088ZM67.8399 74.7122C69.6297 73.8755 72.022 72.8404 74.7783 71.7157C74.8944 71.6683 75.0109 71.6208 75.1271 71.5737C73.9438 72.5235 72.7586 73.5245 71.6574 74.534C70.3942 74.7407 69.1087 74.8022 67.8399 74.7122Z" fill="white"/>
<path d="M69.525 38.6357C70.3208 38.6357 70.966 37.9906 70.966 37.1947V28.0014C70.966 27.2056 70.3208 26.5604 69.525 26.5604C68.7292 26.5604 68.084 27.2056 68.084 28.0014V37.1947C68.084 37.9906 68.7292 38.6357 69.525 38.6357Z" fill="white"/>
<path d="M59.7243 39.5538C59.9541 40.1087 60.4906 40.4437 61.0561 40.4437C61.2399 40.4437 61.4267 40.4083 61.607 40.3336C62.3423 40.0291 62.6914 39.1861 62.3869 38.4509L60.7014 34.3818C60.3969 33.6465 59.554 33.2973 58.8187 33.6019C58.0834 33.9065 57.7342 34.7494 58.0388 35.4846L59.7243 39.5538Z" fill="white"/>
<path d="M52.8954 44.9338C53.1767 45.2152 53.5455 45.3559 53.9143 45.3559C54.283 45.3559 54.6519 45.2151 54.9332 44.9338C55.496 44.3711 55.496 43.4587 54.9332 42.8959L48.4326 36.3952C47.8698 35.8325 46.9574 35.8325 46.3947 36.3952C45.832 36.958 45.832 37.8704 46.3947 38.4331L52.8954 44.9338Z" fill="white"/>
<path d="M43.5979 50.4191L48.6577 52.5149C48.838 52.5897 49.0247 52.625 49.2085 52.625C49.774 52.625 50.3106 52.29 50.5404 51.7351C50.845 50.9998 50.4958 50.1569 49.7605 49.8523L44.7008 47.7565C43.9657 47.452 43.1227 47.8011 42.8181 48.5364C42.5135 49.2716 42.8627 50.1146 43.5979 50.4191Z" fill="white"/>
<path d="M49.0753 59.7028C49.0753 58.907 48.4301 58.2618 47.6343 58.2618H38.441C37.6451 58.2618 37 58.907 37 59.7028C37 60.4986 37.6451 61.1438 38.441 61.1438H47.6343C48.4301 61.1438 49.0753 60.4986 49.0753 59.7028Z" fill="white"/>
<path d="M77.4476 40.3336C77.6279 40.4083 77.8146 40.4437 77.9984 40.4437C78.5639 40.4437 79.1005 40.1086 79.3303 39.5537L81.0158 35.4846C81.3203 34.7494 80.9712 33.9064 80.2359 33.6019C79.5007 33.2973 78.6577 33.6465 78.3532 34.3818L76.6677 38.4509C76.3631 39.1861 76.7123 40.029 77.4476 40.3336Z" fill="white"/>
<path d="M85.1324 45.3559C85.5012 45.3559 85.87 45.2152 86.1513 44.9338L92.652 38.4331C93.2148 37.8704 93.2148 36.958 92.652 36.3953C92.0893 35.8325 91.1768 35.8325 90.6141 36.3953L84.1135 42.8959C83.5507 43.4587 83.5507 44.3711 84.1135 44.9338C84.3948 45.2152 84.7636 45.3559 85.1324 45.3559Z" fill="white"/>
<path d="M88.5114 51.7351C88.7413 52.2901 89.2778 52.625 89.8433 52.625C90.027 52.625 90.2139 52.5897 90.3942 52.515L95.4539 50.4192C96.1892 50.1146 96.5383 49.2717 96.2338 48.5364C95.9292 47.8011 95.0862 47.452 94.351 47.7565L89.2913 49.8523C88.556 50.1569 88.2069 50.9999 88.5114 51.7351Z" fill="white"/>
<path d="M100.612 58.2618H91.4185C90.6227 58.2618 89.9775 58.907 89.9775 59.7028C89.9775 60.4986 90.6227 61.1438 91.4185 61.1438H100.612C101.408 61.1438 102.053 60.4986 102.053 59.7028C102.053 58.907 101.408 58.2618 100.612 58.2618Z" fill="white"/>
<path d="M69.525 80.7704C68.7292 80.7704 68.084 81.4156 68.084 82.2114V91.4047C68.084 92.2005 68.7292 92.8457 69.525 92.8457C70.3208 92.8457 70.966 92.2005 70.966 91.4047V82.2114C70.966 81.4156 70.3208 80.7704 69.525 80.7704Z" fill="white"/>
<path d="M61.607 79.0724C60.8718 78.7679 60.0288 79.117 59.7243 79.8523L58.0388 83.9214C57.7342 84.6566 58.0834 85.4996 58.8187 85.8041C58.999 85.8788 59.1857 85.9142 59.3695 85.9142C59.935 85.9142 60.4716 85.5792 60.7014 85.0243L62.3869 80.9552C62.6914 80.2199 62.3423 79.377 61.607 79.0724Z" fill="white"/>
<path d="M52.8954 74.4721L46.3947 80.9728C45.832 81.5355 45.832 82.448 46.3947 83.0107C46.6761 83.292 47.0449 83.4327 47.4137 83.4327C47.7825 83.4327 48.1512 83.292 48.4326 83.0107L54.9333 76.51C55.496 75.9473 55.496 75.0349 54.9333 74.4722C54.3705 73.9094 53.4581 73.9094 52.8954 74.4721Z" fill="white"/>
<path d="M50.5404 67.6707C50.2359 66.9354 49.393 66.5863 48.6577 66.8908L43.5979 68.9866C42.8627 69.2911 42.5135 70.1341 42.8181 70.8693C43.0479 71.4243 43.5845 71.7592 44.1499 71.7592C44.3337 71.7592 44.5205 71.7239 44.7008 71.6492L49.7605 69.5534C50.4958 69.2489 50.845 68.406 50.5404 67.6707Z" fill="white"/>
<path d="M79.3303 79.8523C79.0258 79.1171 78.183 78.7678 77.4476 79.0724C76.7123 79.3769 76.3631 80.2199 76.6677 80.9551L78.3532 85.0242C78.583 85.5792 79.1196 85.9142 79.685 85.9142C79.8688 85.9142 80.0556 85.8788 80.2359 85.8041C80.9712 85.4995 81.3204 84.6566 81.0158 83.9214L79.3303 79.8523Z" fill="white"/>
<path d="M86.1513 74.4721C85.5886 73.9093 84.6762 73.9094 84.1135 74.4721C83.5507 75.0349 83.5507 75.9473 84.1135 76.51L90.6141 83.0106C90.8955 83.292 91.2643 83.4327 91.6331 83.4327C92.0018 83.4327 92.3707 83.292 92.652 83.0106C93.2148 82.4479 93.2148 81.5355 92.652 80.9728L86.1513 74.4721Z" fill="white"/>
<path d="M95.4539 68.9866L90.3942 66.8908C89.659 66.5863 88.8159 66.9355 88.5114 67.6707C88.2069 68.406 88.556 69.2489 89.2913 69.5534L94.351 71.6492C94.5314 71.7239 94.7181 71.7593 94.9019 71.7593C95.4674 71.7593 96.004 71.4243 96.2338 70.8693C96.5383 70.134 96.1892 69.2911 95.4539 68.9866Z" fill="white"/>
<path d="M109.087 51.3605V42.6975C109.087 40.5585 109.814 38.8901 111.269 37.6922C112.723 36.4944 114.67 35.8955 117.108 35.8955C119.59 35.8955 121.557 36.4516 123.012 37.5639C124.466 38.6334 125.194 40.0451 125.194 41.7991V49.7563C125.194 50.5263 124.638 51.0611 123.525 51.3605C122.926 51.5317 122.327 51.6172 121.729 51.6172C121.13 51.6172 120.531 51.5531 119.932 51.4247C120.06 50.398 120.124 49.3071 120.124 48.152V42.6975C120.124 41.8847 119.846 41.2644 119.29 40.8366C118.734 40.366 118.007 40.1307 117.108 40.1307C116.21 40.1307 115.483 40.366 114.926 40.8366C114.413 41.2644 114.156 41.8847 114.156 42.6975V50.2055C114.156 51.7028 114.648 52.7509 115.632 53.3498L122.434 57.7134C124.36 58.9113 125.322 60.7508 125.322 63.2321V72.0876C125.322 74.2266 124.573 75.8951 123.076 77.0929C121.579 78.2908 119.59 78.8897 117.108 78.8897C114.67 78.8897 112.702 78.3549 111.205 77.2854C109.707 76.1731 108.959 74.74 108.959 72.986V65.0289C108.959 64.2588 109.515 63.7241 110.627 63.4246C111.226 63.2535 111.825 63.1679 112.424 63.1679C113.023 63.1679 113.622 63.2321 114.221 63.3604C114.092 64.3872 114.028 65.4781 114.028 66.6331V72.0876C114.028 72.8577 114.328 73.478 114.926 73.9486C115.525 74.4191 116.274 74.6544 117.172 74.6544C118.071 74.6544 118.798 74.4191 119.354 73.9486C119.953 73.478 120.253 72.8577 120.253 72.0876V64.8364C120.253 63.1679 119.675 61.9701 118.52 61.2428L111.718 56.815C109.964 55.7027 109.087 53.8846 109.087 51.3605ZM141.073 41.7991C141.073 39.7029 140.923 37.9489 140.624 36.5372C142.078 36.366 143.554 36.2805 145.052 36.2805C145.779 36.2805 146.142 36.6013 146.142 37.243V72.0876C146.142 74.2266 145.415 75.8951 143.961 77.0929C142.506 78.2908 140.538 78.8897 138.057 78.8897C135.618 78.8897 133.672 78.3549 132.217 77.2854C130.763 76.1731 130.036 74.74 130.036 72.986V68.6224C130.036 67.8524 130.592 67.3176 131.704 67.0181C132.303 66.847 132.902 66.7615 133.501 66.7615C134.1 66.7615 134.699 66.8256 135.298 66.954C135.169 67.9807 135.105 69.0716 135.105 70.2267V72.0876C135.105 72.9004 135.383 73.5421 135.939 74.0127C136.495 74.4405 137.223 74.6544 138.121 74.6544C139.019 74.6544 139.725 74.4405 140.239 74.0127C140.795 73.5421 141.073 72.9004 141.073 72.0876V62.077C139.961 63.1893 138.463 63.7455 136.581 63.7455C132.217 63.7455 130.036 61.692 130.036 57.5851V41.9917C130.036 41.0933 129.843 40.4729 129.458 40.1307C129.116 39.7457 128.496 39.5532 127.597 39.5532C127.597 37.1147 128.966 35.8955 131.704 35.8955C133.971 35.8955 135.105 37.3714 135.105 40.3232V57.2001C135.105 58.7402 135.875 59.5102 137.415 59.5102C138.998 59.5102 140.217 58.7615 141.073 57.2642V41.7991ZM159.752 40.7724C158.596 40.7724 157.441 41.3499 156.286 42.505V74.0127H159.238C160.137 74.0127 160.864 73.7988 161.42 73.371C161.976 72.9004 162.254 72.2587 162.254 71.4459V43.2109C162.254 41.5852 161.42 40.7724 159.752 40.7724ZM160.971 36.5372C165.206 36.5372 167.324 38.6334 167.324 42.8259V71.4459C167.324 73.5849 166.575 75.2534 165.078 76.4512C163.623 77.6491 161.634 78.248 159.11 78.248H151.217V42.7617C151.217 41.8205 151.046 41.1574 150.704 40.7724C150.361 40.3446 149.741 40.1307 148.843 40.1307C148.8 39.0184 149.099 38.1414 149.741 37.4997C150.383 36.858 151.409 36.5372 152.821 36.5372C154.276 36.5372 155.281 37.243 155.837 38.6548C157.506 37.243 159.217 36.5372 160.971 36.5372Z" fill="white"/>
<path d="M111.367 89.7414C111.367 90.2459 111.591 90.4982 112.039 90.4982C112.499 90.4982 112.729 90.2235 112.729 89.6742V88.9847C112.729 88.5699 112.583 88.2728 112.292 88.0934L110.812 87.2022C110.374 86.9331 110.156 86.4791 110.156 85.8401V84.6629C110.156 84.1696 110.313 83.7717 110.627 83.469C110.952 83.1551 111.423 82.9981 112.039 82.9981C112.667 82.9981 113.144 83.127 113.469 83.3849C113.794 83.6427 113.956 83.9959 113.956 84.4443V85.5037C113.956 85.6943 113.822 85.8232 113.553 85.8905C113.418 85.9354 113.272 85.9578 113.116 85.9578C112.97 85.9578 112.824 85.941 112.678 85.9073C112.712 85.6607 112.729 85.3972 112.729 85.117V84.8647C112.729 84.3378 112.516 84.0743 112.09 84.0743C111.641 84.0743 111.417 84.3098 111.417 84.7806V85.5542C111.417 85.9466 111.54 86.21 111.787 86.3445L113.267 87.2022C113.749 87.4712 113.99 87.9309 113.99 88.5811V89.8423C113.99 90.3805 113.827 90.8065 113.502 91.1204C113.188 91.4231 112.723 91.5744 112.107 91.5744C111.49 91.5744 111.008 91.4511 110.66 91.2045C110.313 90.9578 110.139 90.6047 110.139 90.145V89.0352C110.139 88.8446 110.274 88.7156 110.543 88.6484C110.677 88.6035 110.817 88.5811 110.963 88.5811C111.12 88.5811 111.271 88.5979 111.417 88.6316C111.383 88.8782 111.367 89.1417 111.367 89.4219V89.7414ZM116.652 88.3289C116.282 88.5755 116.097 88.9903 116.097 89.5733C116.097 90.145 116.271 90.4309 116.618 90.4309C116.977 90.4309 117.257 90.2291 117.459 89.8255V87.7907L116.652 88.3289ZM116.837 82.9981C118.093 82.9981 118.72 83.553 118.72 84.6629V90.0105C118.72 90.2459 118.76 90.4141 118.838 90.515C118.928 90.6159 119.09 90.6663 119.326 90.6663C119.337 90.9578 119.258 91.182 119.09 91.339C118.933 91.4959 118.704 91.5744 118.401 91.5744C117.93 91.5744 117.644 91.4006 117.543 91.0531C117.196 91.4006 116.786 91.5744 116.316 91.5744C115.845 91.5744 115.469 91.395 115.189 91.0363C114.909 90.6775 114.769 90.1955 114.769 89.5901C114.769 88.6708 115.155 87.9757 115.929 87.5049L117.459 86.5968V84.7806C117.459 84.3098 117.235 84.0743 116.786 84.0743C116.349 84.0743 116.131 84.3378 116.131 84.8647V85.4197L116.181 86.21C116.035 86.2436 115.884 86.2605 115.727 86.2605C115.581 86.2605 115.441 86.238 115.307 86.1932C115.038 86.1259 114.903 85.997 114.903 85.8064V84.4275C114.903 83.9791 115.077 83.6315 115.424 83.3849C115.783 83.127 116.254 82.9981 116.837 82.9981ZM120.316 82.9981C120.63 82.9981 120.854 83.0878 120.989 83.2672C121.135 83.4465 121.207 83.8501 121.207 84.4779C121.207 85.0945 121.286 86.025 121.443 87.2694C121.6 88.5138 121.774 89.534 121.964 90.33C122.48 88.0318 122.738 85.997 122.738 84.2257L122.704 83.1326C122.917 83.0878 123.119 83.0654 123.309 83.0654C123.511 83.0654 123.691 83.0878 123.848 83.1326C124.016 83.1775 124.1 83.2896 124.1 83.469C124.1 84.4219 123.988 85.6551 123.764 87.1685C123.539 88.682 123.287 89.8928 123.007 90.8009C122.883 91.2045 122.682 91.4062 122.401 91.4062H121.409C121.129 91.4062 120.927 91.2045 120.804 90.8009C120.557 89.9488 120.35 88.9062 120.182 87.673C120.025 86.4286 119.946 85.3916 119.946 84.562C119.946 84.3266 119.901 84.1584 119.812 84.0575C119.733 83.9566 119.576 83.9062 119.341 83.9062C119.33 83.6259 119.408 83.4073 119.576 83.2503C119.756 83.0822 120.002 82.9981 120.316 82.9981ZM127.577 84.7974C127.577 84.5732 127.51 84.3995 127.375 84.2761C127.241 84.1416 127.073 84.0743 126.871 84.0743C126.456 84.0743 126.249 84.2481 126.249 84.5957V87.0004L127.056 86.395C127.403 86.1371 127.577 85.6046 127.577 84.7974ZM124.987 89.9096V84.6461C124.987 83.5474 125.632 82.9981 126.921 82.9981C128.222 82.9981 128.872 83.6147 128.872 84.8479C128.872 85.3412 128.782 85.7952 128.603 86.21C128.424 86.6248 128.177 86.9387 127.863 87.1517L126.249 88.2616V89.7919C126.249 90.2627 126.467 90.4982 126.904 90.4982C127.353 90.4982 127.577 90.2347 127.577 89.7078V89.321L127.527 88.5307C127.672 88.497 127.818 88.4802 127.964 88.4802C128.121 88.4802 128.267 88.5026 128.401 88.5475C128.67 88.6147 128.805 88.7437 128.805 88.9343V90.145C128.805 90.5935 128.625 90.9466 128.267 91.2045C127.919 91.4511 127.454 91.5744 126.871 91.5744C125.615 91.5744 124.987 91.0195 124.987 89.9096ZM134.51 84.5452C134.51 83.9959 134.471 83.5362 134.392 83.1663C134.729 83.1214 135.093 83.099 135.485 83.099C135.676 83.099 135.771 83.1831 135.771 83.3512V92.6002C135.771 93.1047 135.592 93.4859 135.233 93.7437C134.886 94.0016 134.415 94.1305 133.821 94.1305C133.226 94.1305 132.767 94.0184 132.442 93.7942C132.117 93.5699 131.954 93.2616 131.954 92.8693V92.2471C131.954 92.0565 132.089 91.9219 132.358 91.8435C132.492 91.8098 132.632 91.793 132.778 91.793C132.935 91.793 133.086 91.8098 133.232 91.8435C133.198 92.1125 133.182 92.348 133.182 92.5498V92.6338C133.182 92.9141 133.4 93.0542 133.837 93.0542C134.286 93.0542 134.51 92.8581 134.51 92.4657V90.8009C134.23 91.0811 133.865 91.2213 133.417 91.2213C132.98 91.2213 132.627 91.0811 132.358 90.8009C132.089 90.5094 131.954 90.089 131.954 89.5396V84.562C131.954 84.3266 131.909 84.1584 131.819 84.0575C131.741 83.9566 131.584 83.9062 131.349 83.9062C131.337 83.6259 131.416 83.4073 131.584 83.2503C131.763 83.0822 132.01 82.9981 132.324 82.9981C132.638 82.9981 132.862 83.0878 132.997 83.2672C133.142 83.4465 133.215 83.7436 133.215 84.1584V89.5228C133.215 89.8928 133.361 90.0778 133.652 90.0778C133.809 90.0778 133.972 90.0273 134.14 89.9264C134.308 89.8143 134.432 89.691 134.51 89.5565V84.5452ZM136.91 89.8592V84.7806C136.91 84.2201 137.084 83.7829 137.431 83.469C137.779 83.1551 138.25 82.9981 138.844 82.9981C139.438 82.9981 139.898 83.1438 140.223 83.4353C140.559 83.7268 140.727 84.1528 140.727 84.7134V89.7919C140.727 90.3524 140.548 90.7897 140.189 91.1036C139.842 91.4175 139.371 91.5744 138.777 91.5744C138.182 91.5744 137.723 91.4287 137.398 91.1372C137.072 90.8457 136.91 90.4197 136.91 89.8592ZM138.171 84.7134V89.8592C138.171 90.0497 138.233 90.2123 138.356 90.3468C138.479 90.4701 138.631 90.5318 138.81 90.5318C139.001 90.5318 139.158 90.4701 139.281 90.3468C139.404 90.2123 139.466 90.0497 139.466 89.8592V84.7134C139.466 84.5228 139.404 84.3658 139.281 84.2425C139.158 84.108 139.001 84.0407 138.81 84.0407C138.631 84.0407 138.479 84.108 138.356 84.2425C138.233 84.3658 138.171 84.5228 138.171 84.7134ZM144.494 84.5452C144.494 84.1192 144.455 83.6595 144.377 83.1663C144.713 83.1214 145.077 83.099 145.47 83.099C145.66 83.099 145.756 83.1831 145.756 83.3512V90.0105C145.756 90.2459 145.795 90.4141 145.873 90.515C145.963 90.6159 146.126 90.6663 146.361 90.6663C146.372 90.9578 146.294 91.182 146.126 91.339C145.969 91.4959 145.739 91.5744 145.436 91.5744C144.988 91.5744 144.702 91.4006 144.578 91.0531C144.231 91.4006 143.838 91.5744 143.401 91.5744C142.964 91.5744 142.611 91.4287 142.342 91.1372C142.073 90.8345 141.938 90.4085 141.938 89.8592V84.562C141.938 84.3266 141.893 84.1584 141.804 84.0575C141.725 83.9566 141.568 83.9062 141.333 83.9062C141.322 83.6259 141.4 83.4073 141.568 83.2503C141.748 83.0822 141.994 82.9981 142.308 82.9981C142.622 82.9981 142.846 83.0878 142.981 83.2672C143.127 83.4465 143.199 83.7436 143.199 84.1584V89.8423C143.199 90.2347 143.362 90.4309 143.687 90.4309C143.855 90.4309 144.012 90.3692 144.158 90.2459C144.315 90.1114 144.427 89.9713 144.494 89.8255V84.5452ZM148.489 90.0273C148.489 90.5654 148.528 91.0139 148.607 91.3726C148.27 91.4399 147.906 91.4735 147.514 91.4735C147.323 91.4735 147.228 91.3894 147.228 91.2213V84.562C147.228 84.3266 147.183 84.1584 147.093 84.0575C147.015 83.9566 146.858 83.9062 146.622 83.9062C146.611 83.6147 146.684 83.3905 146.841 83.2335C147.009 83.0766 147.245 82.9981 147.547 82.9981C147.996 82.9981 148.276 83.2223 148.388 83.6708C148.668 83.2223 149.066 82.9981 149.582 82.9981C150.501 82.9981 150.961 83.4409 150.961 84.3266V86.0082C150.961 86.1988 150.826 86.3277 150.557 86.395C150.423 86.4398 150.277 86.4623 150.12 86.4623C149.974 86.4623 149.829 86.4454 149.683 86.4118C149.717 86.1652 149.733 85.9017 149.733 85.6214V84.7638C149.733 84.3939 149.565 84.2089 149.229 84.2089C149.072 84.2089 148.926 84.2817 148.792 84.4275C148.657 84.5732 148.556 84.7358 148.489 84.9152V90.0273ZM156.315 84.2425H155.659C155.469 84.2425 155.312 84.3042 155.188 84.4275C155.076 84.5396 155.02 84.6909 155.02 84.8815V89.8423C155.02 90.2347 155.183 90.4309 155.508 90.4309C155.676 90.4309 155.833 90.3692 155.979 90.2459C156.136 90.1114 156.248 89.9713 156.315 89.8255V84.2425ZM156.315 80.9802C156.315 80.6438 156.265 80.3019 156.164 79.9544C156.5 79.775 156.859 79.6853 157.24 79.6853C157.464 79.6853 157.576 79.7694 157.576 79.9375V90.0105C157.576 90.2459 157.616 90.4141 157.694 90.515C157.784 90.6159 157.946 90.6663 158.182 90.6663C158.193 90.9578 158.114 91.182 157.946 91.339C157.789 91.4959 157.56 91.5744 157.257 91.5744C156.808 91.5744 156.523 91.4006 156.399 91.0531C156.052 91.4006 155.659 91.5744 155.222 91.5744C154.785 91.5744 154.432 91.4287 154.163 91.1372C153.894 90.8345 153.759 90.4085 153.759 89.8592V84.9488C153.759 84.3883 153.933 83.951 154.28 83.6371C154.628 83.3232 155.099 83.1663 155.693 83.1663H156.315V80.9802ZM160.532 88.3289C160.162 88.5755 159.977 88.9903 159.977 89.5733C159.977 90.145 160.151 90.4309 160.498 90.4309C160.857 90.4309 161.137 90.2291 161.339 89.8255V87.7907L160.532 88.3289ZM160.717 82.9981C161.973 82.9981 162.6 83.553 162.6 84.6629V90.0105C162.6 90.2459 162.64 90.4141 162.718 90.515C162.808 90.6159 162.97 90.6663 163.206 90.6663C163.217 90.9578 163.138 91.182 162.97 91.339C162.813 91.4959 162.584 91.5744 162.281 91.5744C161.81 91.5744 161.524 91.4006 161.423 91.0531C161.076 91.4006 160.666 91.5744 160.196 91.5744C159.725 91.5744 159.349 91.395 159.069 91.0363C158.789 90.6775 158.649 90.1955 158.649 89.5901C158.649 88.6708 159.035 87.9757 159.809 87.5049L161.339 86.5968V84.7806C161.339 84.3098 161.115 84.0743 160.666 84.0743C160.229 84.0743 160.011 84.3378 160.011 84.8647V85.4197L160.061 86.21C159.915 86.2436 159.764 86.2605 159.607 86.2605C159.461 86.2605 159.321 86.238 159.187 86.1932C158.918 86.1259 158.783 85.997 158.783 85.8064V84.4275C158.783 83.9791 158.957 83.6315 159.304 83.3849C159.663 83.127 160.134 82.9981 160.717 82.9981ZM166.517 84.5452C166.517 83.9959 166.478 83.5362 166.399 83.1663C166.735 83.1214 167.1 83.099 167.492 83.099C167.683 83.099 167.778 83.1831 167.778 83.3512V92.6002C167.778 93.1047 167.599 93.4859 167.24 93.7437C166.892 94.0016 166.422 94.1305 165.827 94.1305C165.233 94.1305 164.774 94.0184 164.448 93.7942C164.123 93.5699 163.961 93.2616 163.961 92.8693V92.2471C163.961 92.0565 164.095 91.9219 164.364 91.8435C164.499 91.8098 164.639 91.793 164.785 91.793C164.942 91.793 165.093 91.8098 165.239 91.8435C165.205 92.1125 165.188 92.348 165.188 92.5498V92.6338C165.188 92.9141 165.407 93.0542 165.844 93.0542C166.293 93.0542 166.517 92.8581 166.517 92.4657V90.8009C166.237 91.0811 165.872 91.2213 165.424 91.2213C164.987 91.2213 164.633 91.0811 164.364 90.8009C164.095 90.5094 163.961 90.089 163.961 89.5396V84.562C163.961 84.3266 163.916 84.1584 163.826 84.0575C163.748 83.9566 163.591 83.9062 163.355 83.9062C163.344 83.6259 163.423 83.4073 163.591 83.2503C163.77 83.0822 164.017 82.9981 164.331 82.9981C164.645 82.9981 164.869 83.0878 165.003 83.2672C165.149 83.4465 165.222 83.7436 165.222 84.1584V89.5228C165.222 89.8928 165.368 90.0778 165.659 90.0778C165.816 90.0778 165.979 90.0273 166.147 89.9264C166.315 89.8143 166.438 89.691 166.517 89.5565V84.5452Z" fill="white"/>
</svg>
