<svg width="208" height="120" viewBox="0 0 208 120" fill="none" xmlns="http://www.w3.org/2000/svg">
<path d="M39.5394 68.3463L37.5848 75.4437L29.0807 70.4889C28.99 70.0466 29.2862 69.584 29.799 69.2702L29.8017 69.2689C30.0371 69.1255 30.3184 69.0132 30.6295 68.9497C31.4478 68.7833 32.2107 69.0011 32.5245 69.4502C32.6368 68.9132 33.2523 68.2774 34.0693 68.1097C34.8876 67.942 35.6505 68.2964 35.9643 68.7455C36.0766 68.2085 36.692 67.708 37.5104 67.5403C38.4979 67.3386 39.4069 67.6984 39.5394 68.3463Z" fill="#FFDB9C"/>
<path d="M39.5394 68.3463L37.5848 75.4437L29.0807 70.4889C28.99 70.0466 29.2862 69.584 29.799 69.2702L29.8017 69.2689C30.0371 69.1255 30.3184 69.0132 30.6295 68.9497C31.4478 68.7833 32.2107 69.0011 32.5245 69.4502C32.6368 68.9132 33.2523 68.2774 34.0693 68.1097C34.8876 67.942 35.6505 68.2964 35.9643 68.7455C36.0766 68.2085 36.692 67.708 37.5104 67.5403C38.4979 67.3386 39.4069 67.6984 39.5394 68.3463Z" fill="black" style="mix-blend-mode:color"/>
<path d="M36.1754 74.183L35.7182 74.3562L29.0807 70.489C28.99 70.0466 29.2862 69.5841 29.799 69.2703L29.8017 69.2689L36.1754 74.183Z" fill="#FFECC9"/>
<path d="M36.1754 74.183L35.7182 74.3562L29.0807 70.489C28.99 70.0466 29.2862 69.5841 29.799 69.2703L29.8017 69.2689L36.1754 74.183Z" fill="black" style="mix-blend-mode:color"/>
<path d="M37.5841 75.5788C37.5604 75.5788 37.5369 75.5726 37.516 75.5605L29.0119 70.6057C28.9786 70.5863 28.9552 70.5537 28.9475 70.516C28.8483 70.0317 29.1471 69.51 29.7277 69.1547C29.9863 68.9973 30.2875 68.8811 30.6017 68.8169C31.348 68.6653 32.0609 68.8125 32.4689 69.1846C32.6916 68.6739 33.2801 68.1333 34.0414 67.9771C34.8099 67.8196 35.5161 68.09 35.9112 68.4766C36.141 67.9746 36.738 67.5602 37.4826 67.4076C38.5423 67.191 39.5242 67.6002 39.6712 68.3192C39.6754 68.34 39.6747 68.3616 39.669 68.3822L37.7146 75.4795C37.7034 75.52 37.6741 75.5529 37.6352 75.5688C37.6188 75.5755 37.6014 75.5788 37.5841 75.5788ZM29.2034 70.4042L37.5004 75.2382L39.3992 68.3432C39.2591 67.7895 38.4339 67.4895 37.5368 67.6726C36.792 67.8252 36.1996 68.2777 36.0961 68.7729C36.0851 68.8257 36.0437 68.8669 35.9909 68.8777C35.9378 68.8884 35.8837 68.8669 35.8528 68.8227C35.574 68.4237 34.864 68.085 34.0957 68.242C33.3233 68.4006 32.7572 68.9947 32.6563 69.4776C32.6452 69.5304 32.6039 69.5716 32.551 69.5824C32.4981 69.5931 32.4439 69.5716 32.413 69.5274C32.1238 69.1136 31.401 68.9305 30.6557 69.0821C30.3719 69.14 30.1007 69.2445 29.8714 69.3842C29.4132 69.6644 29.1633 70.0498 29.2034 70.4042Z" fill="#FC9B2D"/>
<path d="M37.5841 75.5788C37.5604 75.5788 37.5369 75.5726 37.516 75.5605L29.0119 70.6057C28.9786 70.5863 28.9552 70.5537 28.9475 70.516C28.8483 70.0317 29.1471 69.51 29.7277 69.1547C29.9863 68.9973 30.2875 68.8811 30.6017 68.8169C31.348 68.6653 32.0609 68.8125 32.4689 69.1846C32.6916 68.6739 33.2801 68.1333 34.0414 67.9771C34.8099 67.8196 35.5161 68.09 35.9112 68.4766C36.141 67.9746 36.738 67.5602 37.4826 67.4076C38.5423 67.191 39.5242 67.6002 39.6712 68.3192C39.6754 68.34 39.6747 68.3616 39.669 68.3822L37.7146 75.4795C37.7034 75.52 37.6741 75.5529 37.6352 75.5688C37.6188 75.5755 37.6014 75.5788 37.5841 75.5788ZM29.2034 70.4042L37.5004 75.2382L39.3992 68.3432C39.2591 67.7895 38.4339 67.4895 37.5368 67.6726C36.792 67.8252 36.1996 68.2777 36.0961 68.7729C36.0851 68.8257 36.0437 68.8669 35.9909 68.8777C35.9378 68.8884 35.8837 68.8669 35.8528 68.8227C35.574 68.4237 34.864 68.085 34.0957 68.242C33.3233 68.4006 32.7572 68.9947 32.6563 69.4776C32.6452 69.5304 32.6039 69.5716 32.551 69.5824C32.4981 69.5931 32.4439 69.5716 32.413 69.5274C32.1238 69.1136 31.401 68.9305 30.6557 69.0821C30.3719 69.14 30.1007 69.2445 29.8714 69.3842C29.4132 69.6644 29.1633 70.0498 29.2034 70.4042Z" fill="black" style="mix-blend-mode:color"/>
<path d="M38.3262 72.7504L37.585 75.4436L35.1895 74.0476C35.368 73.3551 35.8076 72.7897 36.4461 72.5394C37.0615 72.2974 37.7392 72.3961 38.3262 72.7504Z" fill="#9397B4"/>
<path d="M38.3262 72.7504L37.585 75.4436L35.1895 74.0476C35.368 73.3551 35.8076 72.7897 36.4461 72.5394C37.0615 72.2974 37.7392 72.3961 38.3262 72.7504Z" fill="black" style="mix-blend-mode:color"/>
<path d="M37.5846 75.5788C37.5609 75.5788 37.5375 75.5726 37.5165 75.5604L35.1209 74.1646C35.0686 74.1341 35.0429 74.0725 35.058 74.0139C35.2541 73.2532 35.7419 72.67 36.3962 72.4135C37.0245 72.1663 37.7534 72.247 38.3957 72.6347C38.4476 72.666 38.4723 72.7279 38.4562 72.7863L37.715 75.4795C37.7039 75.5199 37.6745 75.553 37.6357 75.5688C37.6193 75.5755 37.602 75.5788 37.5846 75.5788ZM35.3474 73.9833L37.5008 75.2381L38.1676 72.8152C37.6148 72.5108 37.0242 72.457 36.4951 72.6652C35.9505 72.8788 35.5364 73.3561 35.3474 73.9833Z" fill="#505578"/>
<path d="M37.5846 75.5788C37.5609 75.5788 37.5375 75.5726 37.5165 75.5604L35.1209 74.1646C35.0686 74.1341 35.0429 74.0725 35.058 74.0139C35.2541 73.2532 35.7419 72.67 36.3962 72.4135C37.0245 72.1663 37.7534 72.247 38.3957 72.6347C38.4476 72.666 38.4723 72.7279 38.4562 72.7863L37.715 75.4795C37.7039 75.5199 37.6745 75.553 37.6357 75.5688C37.6193 75.5755 37.602 75.5788 37.5846 75.5788ZM35.3474 73.9833L37.5008 75.2381L38.1676 72.8152C37.6148 72.5108 37.0242 72.457 36.4951 72.6652C35.9505 72.8788 35.5364 73.3561 35.3474 73.9833Z" fill="black" style="mix-blend-mode:color"/>
<path d="M33.4863 47.9996C34.4303 47.2858 35.9038 45.8353 37.1701 45.7432C39.1992 45.5957 43.7549 47.5851 44.6068 49.335C44.9906 50.1232 43.4326 52.7885 43.4326 52.7885L33.4863 47.9996Z" fill="#EA5189"/>
<path d="M33.4863 47.9996C34.4303 47.2858 35.9038 45.8353 37.1701 45.7432C39.1992 45.5957 43.7549 47.5851 44.6068 49.335C44.9906 50.1232 43.4326 52.7885 43.4326 52.7885L33.4863 47.9996Z" fill="black" style="mix-blend-mode:color"/>
<path d="M44.6643 49.7501C43.3428 48.1297 39.3835 46.4835 37.5304 46.6187C36.4888 46.6945 35.308 47.6887 34.3963 48.4367L33.4873 47.9998C34.4314 47.2856 35.9045 45.8356 37.1706 45.7436C39.1995 45.5961 43.7553 47.5845 44.6074 49.3349C44.6602 49.4417 44.6764 49.5837 44.6643 49.7501Z" fill="#FF73A5"/>
<path d="M44.6643 49.7501C43.3428 48.1297 39.3835 46.4835 37.5304 46.6187C36.4888 46.6945 35.308 47.6887 34.3963 48.4367L33.4873 47.9998C34.4314 47.2856 35.9045 45.8356 37.1706 45.7436C39.1995 45.5961 43.7553 47.5845 44.6074 49.3349C44.6602 49.4417 44.6764 49.5837 44.6643 49.7501Z" fill="black" style="mix-blend-mode:color"/>
<path d="M43.4331 52.9238C43.4133 52.9238 43.3933 52.9195 43.3745 52.9104L33.4282 48.1214C33.3856 48.101 33.357 48.0598 33.3522 48.0129C33.3476 47.9661 33.3676 47.9201 33.4053 47.8916C33.5944 47.7486 33.808 47.5733 34.0341 47.3876C34.9582 46.6289 36.1083 45.6848 37.1608 45.6082C39.2837 45.4544 43.8537 47.4778 44.7289 49.2757C45.1327 50.105 43.7131 52.5775 43.5498 52.8567C43.5249 52.8995 43.4797 52.9238 43.4331 52.9238ZM33.7426 47.9725L43.3787 52.6122C43.8322 51.8139 44.7612 49.9598 44.4858 49.3942C43.6643 47.7069 39.1832 45.7304 37.1806 45.8782C36.2137 45.9485 35.1004 46.8624 34.2058 47.5968C34.0439 47.7297 33.8884 47.8573 33.7426 47.9725Z" fill="#AD1D52"/>
<path d="M43.4331 52.9238C43.4133 52.9238 43.3933 52.9195 43.3745 52.9104L33.4282 48.1214C33.3856 48.101 33.357 48.0598 33.3522 48.0129C33.3476 47.9661 33.3676 47.9201 33.4053 47.8916C33.5944 47.7486 33.808 47.5733 34.0341 47.3876C34.9582 46.6289 36.1083 45.6848 37.1608 45.6082C39.2837 45.4544 43.8537 47.4778 44.7289 49.2757C45.1327 50.105 43.7131 52.5775 43.5498 52.8567C43.5249 52.8995 43.4797 52.9238 43.4331 52.9238ZM33.7426 47.9725L43.3787 52.6122C43.8322 51.8139 44.7612 49.9598 44.4858 49.3942C43.6643 47.7069 39.1832 45.7304 37.1806 45.8782C36.2137 45.9485 35.1004 46.8624 34.2058 47.5968C34.0439 47.7297 33.8884 47.8573 33.7426 47.9725Z" fill="black" style="mix-blend-mode:color"/>
<path d="M39.5389 68.3463C39.4064 67.6984 38.4973 67.3386 37.5099 67.5401C36.6916 67.7079 36.0761 68.2083 35.9639 68.7453C35.65 68.2962 34.8871 67.9419 34.0688 68.1095C33.2518 68.2773 32.6363 68.913 32.524 69.45C32.2102 69.0009 31.4473 68.7831 30.629 68.9495C29.6402 69.1524 28.9476 69.8423 29.0802 70.4888C27.1554 62.8275 29.8715 53.3291 32.497 49.6459L34.3961 48.7828L39.9907 50.2654C39.9907 50.2654 42.4078 51.6139 42.8231 53.3291C40.6819 57.5387 39.056 64.5819 39.5389 68.3463Z" fill="#FCD242"/>
<path d="M39.5389 68.3463C39.4064 67.6984 38.4973 67.3386 37.5099 67.5401C36.6916 67.7079 36.0761 68.2083 35.9639 68.7453C35.65 68.2962 34.8871 67.9419 34.0688 68.1095C33.2518 68.2773 32.6363 68.913 32.524 69.45C32.2102 69.0009 31.4473 68.7831 30.629 68.9495C29.6402 69.1524 28.9476 69.8423 29.0802 70.4888C27.1554 62.8275 29.8715 53.3291 32.497 49.6459L34.3961 48.7828L39.9907 50.2654C39.9907 50.2654 42.4078 51.6139 42.8231 53.3291C40.6819 57.5387 39.056 64.5819 39.5389 68.3463Z" fill="black" style="mix-blend-mode:color"/>
<path d="M41.5611 51.4273C41.2974 51.2514 41.1215 51.154 41.1215 51.154L35.5269 49.6716L33.7415 50.2673C31.3527 53.6192 28.7745 62.0524 29.8011 69.2688C29.2857 69.5813 28.9895 70.0453 29.0802 70.489C27.1554 62.8276 29.8715 53.3292 32.497 49.646L34.3961 48.783L39.9907 50.2655C39.9907 50.2653 40.7982 50.7158 41.5611 51.4273Z" fill="#FFE280"/>
<path d="M41.5611 51.4273C41.2974 51.2514 41.1215 51.154 41.1215 51.154L35.5269 49.6716L33.7415 50.2673C31.3527 53.6192 28.7745 62.0524 29.8011 69.2688C29.2857 69.5813 28.9895 70.0453 29.0802 70.489C27.1554 62.8276 29.8715 53.3292 32.497 49.646L34.3961 48.783L39.9907 50.2655C39.9907 50.2653 40.7982 50.7158 41.5611 51.4273Z" fill="black" style="mix-blend-mode:color"/>
<path d="M32.5234 69.5854C32.4647 69.5854 32.4107 69.5468 32.3935 69.4875C31.2011 65.3595 32.3251 56.0001 35.5094 50.569C35.5471 50.5046 35.63 50.4828 35.6946 50.5207C35.759 50.5584 35.7806 50.6413 35.7429 50.7058C32.5911 56.0815 31.4757 65.3351 32.6535 69.4126C32.6742 69.4843 32.6328 69.5593 32.5611 69.58C32.5485 69.5836 32.5358 69.5854 32.5234 69.5854Z" fill="#FC9B2D"/>
<path d="M32.5234 69.5854C32.4647 69.5854 32.4107 69.5468 32.3935 69.4875C31.2011 65.3595 32.3251 56.0001 35.5094 50.569C35.5471 50.5046 35.63 50.4828 35.6946 50.5207C35.759 50.5584 35.7806 50.6413 35.7429 50.7058C32.5911 56.0815 31.4757 65.3351 32.6535 69.4126C32.6742 69.4843 32.6328 69.5593 32.5611 69.58C32.5485 69.5836 32.5358 69.5854 32.5234 69.5854Z" fill="black" style="mix-blend-mode:color"/>
<path d="M35.9632 68.8805C35.8931 68.8805 35.8338 68.8266 35.8284 68.7555C35.4859 64.2623 37.0788 55.7921 39.5709 52.0129C39.6121 51.9506 39.6959 51.9334 39.7582 51.9745C39.8207 52.0156 39.8378 52.0995 39.7967 52.1618C37.3328 55.8982 35.7587 64.2835 36.0981 68.7349C36.1038 68.8094 36.048 68.8744 35.9735 68.8801C35.9701 68.8804 35.9666 68.8805 35.9632 68.8805Z" fill="#FC9B2D"/>
<path d="M35.9632 68.8805C35.8931 68.8805 35.8338 68.8266 35.8284 68.7555C35.4859 64.2623 37.0788 55.7921 39.5709 52.0129C39.6121 51.9506 39.6959 51.9334 39.7582 51.9745C39.8207 52.0156 39.8378 52.0995 39.7967 52.1618C37.3328 55.8982 35.7587 64.2835 36.0981 68.7349C36.1038 68.8094 36.048 68.8744 35.9735 68.8801C35.9701 68.8804 35.9666 68.8805 35.9632 68.8805Z" fill="black" style="mix-blend-mode:color"/>
<path d="M29.079 70.6243C29.0183 70.6243 28.9633 70.5833 28.9479 70.522C27.0184 62.8419 29.7558 53.257 32.3857 49.5676C32.3996 49.5482 32.4183 49.5328 32.4399 49.5229L34.3391 48.66C34.3675 48.647 34.3994 48.6444 34.4297 48.6523L40.0242 50.1349C40.0351 50.1378 40.0456 50.142 40.0554 50.1476C40.1562 50.2038 42.5292 51.5451 42.9534 53.2976C42.961 53.3289 42.9572 53.3619 42.9426 53.3908C40.7359 57.7287 39.2076 64.7094 39.6719 68.3293C39.6812 68.4014 39.6317 68.4681 39.56 68.4799C39.4876 68.4921 39.4199 68.4449 39.4053 68.3736C39.2881 67.8008 38.4491 67.4862 37.5359 67.6729C36.7912 67.8255 36.1988 68.278 36.0952 68.7732C36.0842 68.826 36.0428 68.8672 35.99 68.878C35.937 68.8887 35.8829 68.8672 35.8519 68.823C35.5731 68.424 34.8631 68.0854 34.0949 68.2423C33.3224 68.4009 32.7564 68.9951 32.6554 69.4779C32.6444 69.5307 32.603 69.5719 32.5502 69.5827C32.4972 69.5934 32.4431 69.5719 32.4121 69.5277C32.123 69.1139 31.4002 68.9308 30.6549 69.0824C29.7417 69.2697 29.0942 69.8887 29.2117 70.462C29.2265 70.534 29.181 70.6046 29.1093 70.621C29.099 70.6232 29.089 70.6243 29.079 70.6243ZM32.5851 49.7542C30.0628 53.3223 27.4533 62.3577 29.0632 69.825C29.3121 69.361 29.8838 68.9644 30.6006 68.8173C31.3469 68.6653 32.0602 68.8128 32.4679 69.1849C32.6907 68.6742 33.2791 68.1336 34.0404 67.9774C34.809 67.8199 35.5152 68.0903 35.9103 68.4769C36.1401 67.9749 36.7371 67.5605 37.4817 67.4079C38.2323 67.2547 38.9438 67.415 39.3472 67.7771C39.0936 64.0007 40.5776 57.4701 42.6784 53.3135C42.2663 51.765 40.1336 50.5047 39.9378 50.3919L34.407 48.9263L32.5851 49.7542Z" fill="#F77036"/>
<path d="M29.079 70.6243C29.0183 70.6243 28.9633 70.5833 28.9479 70.522C27.0184 62.8419 29.7558 53.257 32.3857 49.5676C32.3996 49.5482 32.4183 49.5328 32.4399 49.5229L34.3391 48.66C34.3675 48.647 34.3994 48.6444 34.4297 48.6523L40.0242 50.1349C40.0351 50.1378 40.0456 50.142 40.0554 50.1476C40.1562 50.2038 42.5292 51.5451 42.9534 53.2976C42.961 53.3289 42.9572 53.3619 42.9426 53.3908C40.7359 57.7287 39.2076 64.7094 39.6719 68.3293C39.6812 68.4014 39.6317 68.4681 39.56 68.4799C39.4876 68.4921 39.4199 68.4449 39.4053 68.3736C39.2881 67.8008 38.4491 67.4862 37.5359 67.6729C36.7912 67.8255 36.1988 68.278 36.0952 68.7732C36.0842 68.826 36.0428 68.8672 35.99 68.878C35.937 68.8887 35.8829 68.8672 35.8519 68.823C35.5731 68.424 34.8631 68.0854 34.0949 68.2423C33.3224 68.4009 32.7564 68.9951 32.6554 69.4779C32.6444 69.5307 32.603 69.5719 32.5502 69.5827C32.4972 69.5934 32.4431 69.5719 32.4121 69.5277C32.123 69.1139 31.4002 68.9308 30.6549 69.0824C29.7417 69.2697 29.0942 69.8887 29.2117 70.462C29.2265 70.534 29.181 70.6046 29.1093 70.621C29.099 70.6232 29.089 70.6243 29.079 70.6243ZM32.5851 49.7542C30.0628 53.3223 27.4533 62.3577 29.0632 69.825C29.3121 69.361 29.8838 68.9644 30.6006 68.8173C31.3469 68.6653 32.0602 68.8128 32.4679 69.1849C32.6907 68.6742 33.2791 68.1336 34.0404 67.9774C34.809 67.8199 35.5152 68.0903 35.9103 68.4769C36.1401 67.9749 36.7371 67.5605 37.4817 67.4079C38.2323 67.2547 38.9438 67.415 39.3472 67.7771C39.0936 64.0007 40.5776 57.4701 42.6784 53.3135C42.2663 51.765 40.1336 50.5047 39.9378 50.3919L34.407 48.9263L32.5851 49.7542Z" fill="black" style="mix-blend-mode:color"/>
<path d="M33.3764 59.9434C34.7752 59.9434 35.9091 58.8095 35.9091 57.4107C35.9091 56.012 34.7752 54.8781 33.3764 54.8781C31.9777 54.8781 30.8438 56.012 30.8438 57.4107C30.8438 58.8095 31.9777 59.9434 33.3764 59.9434Z" fill="white"/>
<path d="M33.3764 59.9434C34.7752 59.9434 35.9091 58.8095 35.9091 57.4107C35.9091 56.012 34.7752 54.8781 33.3764 54.8781C31.9777 54.8781 30.8438 56.012 30.8438 57.4107C30.8438 58.8095 31.9777 59.9434 33.3764 59.9434Z" fill="black" style="mix-blend-mode:color"/>
<path d="M33.3729 60.0795C33.0506 60.0795 32.7232 60.0207 32.4054 59.8966C31.0352 59.3614 30.3557 57.8111 30.8909 56.4409C31.1501 55.7771 31.6523 55.254 32.3051 54.968C32.9577 54.6818 33.6826 54.667 34.3466 54.9264C35.0103 55.1856 35.5335 55.6878 35.8195 56.3405C36.1056 56.9932 36.1203 57.7182 35.8611 58.382C35.45 59.4345 34.4401 60.0795 33.3729 60.0795ZM33.3753 55.0129C33.0484 55.0129 32.7222 55.0806 32.4137 55.2158C31.8272 55.4728 31.3758 55.9429 31.1429 56.5393C30.662 57.7707 31.2725 59.1637 32.5039 59.6446C33.7355 60.1258 35.1283 59.515 35.6091 58.2836C35.8421 57.6872 35.8288 57.0356 35.5718 56.4491C35.3148 55.8627 34.8447 55.4113 34.2482 55.1784C33.9654 55.0679 33.67 55.0129 33.3753 55.0129Z" fill="black"/>
<path d="M33.3729 60.0795C33.0506 60.0795 32.7232 60.0207 32.4054 59.8966C31.0352 59.3614 30.3557 57.8111 30.8909 56.4409C31.1501 55.7771 31.6523 55.254 32.3051 54.968C32.9577 54.6818 33.6826 54.667 34.3466 54.9264C35.0103 55.1856 35.5335 55.6878 35.8195 56.3405C36.1056 56.9932 36.1203 57.7182 35.8611 58.382C35.45 59.4345 34.4401 60.0795 33.3729 60.0795ZM33.3753 55.0129C33.0484 55.0129 32.7222 55.0806 32.4137 55.2158C31.8272 55.4728 31.3758 55.9429 31.1429 56.5393C30.662 57.7707 31.2725 59.1637 32.5039 59.6446C33.7355 60.1258 35.1283 59.515 35.6091 58.2836C35.8421 57.6872 35.8288 57.0356 35.5718 56.4491C35.3148 55.8627 34.8447 55.4113 34.2482 55.1784C33.9654 55.0679 33.67 55.0129 33.3753 55.0129Z" fill="black" style="mix-blend-mode:color"/>
<path d="M31.9189 56.8426C31.6227 57.6011 31.9966 58.4544 32.7551 58.7506C33.5136 59.0468 34.3669 58.6729 34.6631 57.9144C34.9593 57.1559 34.5854 56.3026 33.8269 56.0064C33.5245 55.8882 33.2081 55.8765 32.9164 55.9543C33.1652 56.4697 33.2209 56.9183 33.025 57.0481C32.8319 57.1745 32.4516 56.9548 32.0822 56.5361C32.0166 56.6295 31.9622 56.7317 31.9189 56.8426Z" fill="black"/>
<path d="M31.9189 56.8426C31.6227 57.6011 31.9966 58.4544 32.7551 58.7506C33.5136 59.0468 34.3669 58.6729 34.6631 57.9144C34.9593 57.1559 34.5854 56.3026 33.8269 56.0064C33.5245 55.8882 33.2081 55.8765 32.9164 55.9543C33.1652 56.4697 33.2209 56.9183 33.025 57.0481C32.8319 57.1745 32.4516 56.9548 32.0822 56.5361C32.0166 56.6295 31.9622 56.7317 31.9189 56.8426Z" fill="black" style="mix-blend-mode:color"/>
<path d="M42.656 58.8504C42.8118 57.4603 41.9684 56.2247 40.7722 56.0906C39.576 55.9566 38.48 56.9747 38.3241 58.3648C38.1683 59.7549 39.0117 60.9905 40.2079 61.1246C41.4042 61.2587 42.5002 60.2405 42.656 58.8504Z" fill="white"/>
<path d="M42.656 58.8504C42.8118 57.4603 41.9684 56.2247 40.7722 56.0906C39.576 55.9566 38.48 56.9747 38.3241 58.3648C38.1683 59.7549 39.0117 60.9905 40.2079 61.1246C41.4042 61.2587 42.5002 60.2405 42.656 58.8504Z" fill="black" style="mix-blend-mode:color"/>
<path d="M40.4171 61.2725C40.3423 61.2725 40.267 61.2684 40.1913 61.2598C38.923 61.1177 38.0244 59.8127 38.1882 58.3507C38.3521 56.8888 39.5177 55.8141 40.7857 55.9572C42.054 56.0994 42.9526 57.4045 42.7888 58.8664C42.6347 60.241 41.5952 61.2725 40.4171 61.2725ZM40.5596 56.2151C39.5175 56.2151 38.5958 57.1442 38.4571 58.3809C38.3099 59.6946 39.1014 60.8654 40.2215 60.991C41.3416 61.1162 42.3728 60.15 42.52 58.8363C42.6672 57.5226 41.8757 56.3517 40.7556 56.2261C40.69 56.2187 40.6245 56.2151 40.5596 56.2151Z" fill="black"/>
<path d="M40.4171 61.2725C40.3423 61.2725 40.267 61.2684 40.1913 61.2598C38.923 61.1177 38.0244 59.8127 38.1882 58.3507C38.3521 56.8888 39.5177 55.8141 40.7857 55.9572C42.054 56.0994 42.9526 57.4045 42.7888 58.8664C42.6347 60.241 41.5952 61.2725 40.4171 61.2725ZM40.5596 56.2151C39.5175 56.2151 38.5958 57.1442 38.4571 58.3809C38.3099 59.6946 39.1014 60.8654 40.2215 60.991C41.3416 61.1162 42.3728 60.15 42.52 58.8363C42.6672 57.5226 41.8757 56.3517 40.7556 56.2261C40.69 56.2187 40.6245 56.2151 40.5596 56.2151Z" fill="black" style="mix-blend-mode:color"/>
<path d="M38.4072 57.9931C38.111 58.7516 38.4849 59.6049 39.2434 59.9011C40.0019 60.1973 40.8551 59.8234 41.1514 59.0649C41.4476 58.3064 41.0737 57.4531 40.3152 57.1569C40.0128 57.0388 39.6965 57.027 39.4047 57.1048C39.6535 57.6202 39.7092 58.0689 39.5133 58.1986C39.3202 58.325 38.9398 58.1053 38.5705 57.6866C38.5049 57.7801 38.4505 57.8822 38.4072 57.9931Z" fill="black"/>
<path d="M38.4072 57.9931C38.111 58.7516 38.4849 59.6049 39.2434 59.9011C40.0019 60.1973 40.8551 59.8234 41.1514 59.0649C41.4476 58.3064 41.0737 57.4531 40.3152 57.1569C40.0128 57.0388 39.6965 57.027 39.4047 57.1048C39.6535 57.6202 39.7092 58.0689 39.5133 58.1986C39.3202 58.325 38.9398 58.1053 38.5705 57.6866C38.5049 57.7801 38.4505 57.8822 38.4072 57.9931Z" fill="black" style="mix-blend-mode:color"/>
<path d="M36.3278 62.9394C36.1825 62.9394 36.0376 62.9258 35.895 62.8979C34.9934 62.7209 34.2197 61.9719 34.0132 61.0766C33.9965 61.0038 34.0419 60.9311 34.1147 60.9144C34.1879 60.898 34.2601 60.9431 34.2769 61.0158C34.4601 61.8105 35.1469 62.4753 35.9472 62.6324C36.7475 62.7896 37.6347 62.4338 38.1046 61.7672C38.1476 61.7061 38.2318 61.6915 38.293 61.7346C38.3541 61.7777 38.3688 61.862 38.3257 61.9231C37.88 62.5552 37.1009 62.9394 36.3278 62.9394Z" fill="black"/>
<path d="M36.3278 62.9394C36.1825 62.9394 36.0376 62.9258 35.895 62.8979C34.9934 62.7209 34.2197 61.9719 34.0132 61.0766C33.9965 61.0038 34.0419 60.9311 34.1147 60.9144C34.1879 60.898 34.2601 60.9431 34.2769 61.0158C34.4601 61.8105 35.1469 62.4753 35.9472 62.6324C36.7475 62.7896 37.6347 62.4338 38.1046 61.7672C38.1476 61.7061 38.2318 61.6915 38.293 61.7346C38.3541 61.7777 38.3688 61.862 38.3257 61.9231C37.88 62.5552 37.1009 62.9394 36.3278 62.9394Z" fill="black" style="mix-blend-mode:color"/>
<path d="M34.9281 61.3747C34.8951 61.3747 34.8622 61.3628 34.8361 61.3387C34.6681 61.1829 34.4404 61.0913 34.2114 61.0873C33.9818 61.0803 33.7516 61.1666 33.5781 61.3163C33.5215 61.3651 33.4361 61.3587 33.3874 61.3023C33.3385 61.2457 33.3448 61.1604 33.4014 61.1115C33.6246 60.9189 33.9222 60.8096 34.2162 60.8167C34.5108 60.8219 34.8038 60.9399 35.02 61.1402C35.0748 61.191 35.078 61.2766 35.0272 61.3314C35.0006 61.3603 34.9644 61.3747 34.9281 61.3747Z" fill="black"/>
<path d="M34.9281 61.3747C34.8951 61.3747 34.8622 61.3628 34.8361 61.3387C34.6681 61.1829 34.4404 61.0913 34.2114 61.0873C33.9818 61.0803 33.7516 61.1666 33.5781 61.3163C33.5215 61.3651 33.4361 61.3587 33.3874 61.3023C33.3385 61.2457 33.3448 61.1604 33.4014 61.1115C33.6246 60.9189 33.9222 60.8096 34.2162 60.8167C34.5108 60.8219 34.8038 60.9399 35.02 61.1402C35.0748 61.191 35.078 61.2766 35.0272 61.3314C35.0006 61.3603 34.9644 61.3747 34.9281 61.3747Z" fill="black" style="mix-blend-mode:color"/>
<path d="M33.8159 53.6106C33.8915 53.86 34.4115 53.9233 34.9774 53.7517C35.5432 53.5802 35.9406 53.2389 35.8651 52.9895C35.7894 52.74 35.2694 52.6768 34.7036 52.8484C34.1376 53.0198 33.7402 53.3611 33.8159 53.6106Z" fill="black"/>
<path d="M33.8159 53.6106C33.8915 53.86 34.4115 53.9233 34.9774 53.7517C35.5432 53.5802 35.9406 53.2389 35.8651 52.9895C35.7894 52.74 35.2694 52.6768 34.7036 52.8484C34.1376 53.0198 33.7402 53.3611 33.8159 53.6106Z" fill="black" style="mix-blend-mode:color"/>
<path d="M37.9878 53.3519C37.8195 53.551 38.0489 54.0219 38.5003 54.4038C38.9517 54.7857 39.4541 54.934 39.6224 54.735C39.7908 54.536 39.5614 54.0651 39.11 53.6832C38.6586 53.3012 38.1563 53.153 37.9878 53.3519Z" fill="black"/>
<path d="M37.9878 53.3519C37.8195 53.551 38.0489 54.0219 38.5003 54.4038C38.9517 54.7857 39.4541 54.934 39.6224 54.735C39.7908 54.536 39.5614 54.0651 39.11 53.6832C38.6586 53.3012 38.1563 53.153 37.9878 53.3519Z" fill="black" style="mix-blend-mode:color"/>
<path d="M32.229 50.1622C34.5261 50.0922 40.1215 51.5296 42.5436 54.0493C42.7011 54.2131 42.9613 54.2167 43.1172 54.0515L44.0973 53.0124C44.224 52.878 44.24 52.6737 44.1368 52.5205C41.737 48.9633 35.7629 47.2397 33.0103 47.8897C32.9149 47.9122 32.8327 47.9727 32.7793 48.0549C32.4334 48.5871 32.1097 49.1542 31.876 49.5813C31.7309 49.8465 31.9269 50.1714 32.229 50.1622Z" fill="#9397B4"/>
<path d="M32.229 50.1622C34.5261 50.0922 40.1215 51.5296 42.5436 54.0493C42.7011 54.2131 42.9613 54.2167 43.1172 54.0515L44.0973 53.0124C44.224 52.878 44.24 52.6737 44.1368 52.5205C41.737 48.9633 35.7629 47.2397 33.0103 47.8897C32.9149 47.9122 32.8327 47.9727 32.7793 48.0549C32.4334 48.5871 32.1097 49.1542 31.876 49.5813C31.7309 49.8465 31.9269 50.1714 32.229 50.1622Z" fill="black" style="mix-blend-mode:color"/>
<path d="M44.1741 52.8951C41.5973 49.6392 36.0081 48.0851 33.3718 48.7086C33.2758 48.7303 33.1946 48.7911 33.1405 48.8736C32.8551 49.3105 32.5859 49.7731 32.3695 50.16C32.3208 50.16 32.2748 50.1613 32.2288 50.1627C31.9272 50.1722 31.731 49.8462 31.8758 49.5811C32.1098 49.155 32.4331 48.5869 32.7794 48.0553C32.8334 47.9728 32.9146 47.9119 33.0107 47.8903C35.7633 47.2396 41.738 48.9629 44.1375 52.5204C44.2133 52.6326 44.2242 52.7747 44.1741 52.8951Z" fill="#B5BBDE"/>
<path d="M44.1741 52.8951C41.5973 49.6392 36.0081 48.0851 33.3718 48.7086C33.2758 48.7303 33.1946 48.7911 33.1405 48.8736C32.8551 49.3105 32.5859 49.7731 32.3695 50.16C32.3208 50.16 32.2748 50.1613 32.2288 50.1627C31.9272 50.1722 31.731 49.8462 31.8758 49.5811C32.1098 49.155 32.4331 48.5869 32.7794 48.0553C32.8334 47.9728 32.9146 47.9119 33.0107 47.8903C35.7633 47.2396 41.738 48.9629 44.1375 52.5204C44.2133 52.6326 44.2242 52.7747 44.1741 52.8951Z" fill="black" style="mix-blend-mode:color"/>
<path d="M42.8327 54.3091C42.6877 54.3091 42.5466 54.2486 42.445 54.1431C40.037 51.638 34.4656 50.23 32.2321 50.2974C32.0397 50.3045 31.8692 50.2096 31.7695 50.0471C31.669 49.8833 31.664 49.6849 31.7562 49.5164C31.9728 49.1206 32.3062 48.5331 32.6648 47.9812C32.7385 47.8676 32.8498 47.7884 32.9782 47.758C35.7294 47.1082 41.8081 48.8284 44.2479 52.445C44.3878 52.6522 44.3659 52.9237 44.1948 53.1052L43.2145 54.1442C43.115 54.2498 42.9803 54.3083 42.8352 54.3091C42.8344 54.3091 42.8335 54.3091 42.8327 54.3091ZM32.3863 50.0245C34.7581 50.0245 40.237 51.4555 42.6401 53.9555C42.6918 54.0093 42.7542 54.0364 42.8338 54.0385C42.9041 54.0381 42.9694 54.0097 43.0177 53.9586L43.9979 52.9195C44.0816 52.8308 44.0922 52.6978 44.0235 52.5962C41.6434 49.068 35.7196 47.3887 33.0403 48.0213C32.981 48.0353 32.9268 48.0744 32.8917 48.1285C32.5376 48.6733 32.2078 49.2545 31.9936 49.6461C31.9485 49.7285 31.9509 49.8255 32.0001 49.9056C32.0483 49.9844 32.129 50.0281 32.2239 50.0269C32.2762 50.0253 32.3305 50.0245 32.3863 50.0245Z" fill="#505578"/>
<path d="M42.8327 54.3091C42.6877 54.3091 42.5466 54.2486 42.445 54.1431C40.037 51.638 34.4656 50.23 32.2321 50.2974C32.0397 50.3045 31.8692 50.2096 31.7695 50.0471C31.669 49.8833 31.664 49.6849 31.7562 49.5164C31.9728 49.1206 32.3062 48.5331 32.6648 47.9812C32.7385 47.8676 32.8498 47.7884 32.9782 47.758C35.7294 47.1082 41.8081 48.8284 44.2479 52.445C44.3878 52.6522 44.3659 52.9237 44.1948 53.1052L43.2145 54.1442C43.115 54.2498 42.9803 54.3083 42.8352 54.3091C42.8344 54.3091 42.8335 54.3091 42.8327 54.3091ZM32.3863 50.0245C34.7581 50.0245 40.237 51.4555 42.6401 53.9555C42.6918 54.0093 42.7542 54.0364 42.8338 54.0385C42.9041 54.0381 42.9694 54.0097 43.0177 53.9586L43.9979 52.9195C44.0816 52.8308 44.0922 52.6978 44.0235 52.5962C41.6434 49.068 35.7196 47.3887 33.0403 48.0213C32.981 48.0353 32.9268 48.0744 32.8917 48.1285C32.5376 48.6733 32.2078 49.2545 31.9936 49.6461C31.9485 49.7285 31.9509 49.8255 32.0001 49.9056C32.0483 49.9844 32.129 50.0281 32.2239 50.0269C32.2762 50.0253 32.3305 50.0245 32.3863 50.0245Z" fill="black" style="mix-blend-mode:color"/>
<path d="M38.1966 69.6124C37.9839 69.6124 37.7772 69.5006 37.6655 69.3019L34.1065 62.9709C33.9418 62.6779 34.0458 62.3068 34.3389 62.1421C34.6319 61.9775 35.003 62.0814 35.1678 62.3745L38.7268 68.7055C38.8915 68.9985 38.7875 69.3696 38.4944 69.5343C38.4001 69.5872 38.2977 69.6124 38.1966 69.6124Z" fill="#BD491F"/>
<path d="M38.1966 69.6124C37.9839 69.6124 37.7772 69.5006 37.6655 69.3019L34.1065 62.9709C33.9418 62.6779 34.0458 62.3068 34.3389 62.1421C34.6319 61.9775 35.003 62.0814 35.1678 62.3745L38.7268 68.7055C38.8915 68.9985 38.7875 69.3696 38.4944 69.5343C38.4001 69.5872 38.2977 69.6124 38.1966 69.6124Z" fill="black" style="mix-blend-mode:color"/>
<path d="M38.1958 69.7476C37.9271 69.7476 37.6784 69.6022 37.5468 69.3681L33.9879 63.0371C33.7869 62.6795 33.9143 62.2251 34.2718 62.024C34.6294 61.8232 35.084 61.9506 35.2849 62.308L38.8439 68.639C39.0448 68.9965 38.9174 69.451 38.5599 69.6521C38.4485 69.7146 38.3226 69.7476 38.1958 69.7476ZM34.6354 62.1993C34.5569 62.1993 34.4774 62.2189 34.4043 62.2599C34.1767 62.3879 34.0957 62.677 34.2236 62.9046L37.7826 69.2355C37.8664 69.3845 38.0247 69.4771 38.1958 69.4771C38.2764 69.4771 38.3564 69.456 38.4273 69.4162C38.6549 69.2883 38.7359 68.9991 38.608 68.7715L35.0491 62.4406C34.9623 62.2863 34.8012 62.1993 34.6354 62.1993Z" fill="#702509"/>
<path d="M38.1958 69.7476C37.9271 69.7476 37.6784 69.6022 37.5468 69.3681L33.9879 63.0371C33.7869 62.6795 33.9143 62.2251 34.2718 62.024C34.6294 61.8232 35.084 61.9506 35.2849 62.308L38.8439 68.639C39.0448 68.9965 38.9174 69.451 38.5599 69.6521C38.4485 69.7146 38.3226 69.7476 38.1958 69.7476ZM34.6354 62.1993C34.5569 62.1993 34.4774 62.2189 34.4043 62.2599C34.1767 62.3879 34.0957 62.677 34.2236 62.9046L37.7826 69.2355C37.8664 69.3845 38.0247 69.4771 38.1958 69.4771C38.2764 69.4771 38.3564 69.456 38.4273 69.4162C38.6549 69.2883 38.7359 68.9991 38.608 68.7715L35.0491 62.4406C34.9623 62.2863 34.8012 62.1993 34.6354 62.1993Z" fill="black" style="mix-blend-mode:color"/>
<path d="M32.306 52.2994C29.5886 52.2994 27.3779 54.5102 27.3779 57.2276C27.3779 59.9449 29.5886 62.1556 32.306 62.1556C35.0234 62.1556 37.2341 59.9449 37.2341 57.2276C37.2341 54.5102 35.0234 52.2994 32.306 52.2994Z" fill="#FCD242"/>
<path d="M32.306 52.2994C29.5886 52.2994 27.3779 54.5102 27.3779 57.2276C27.3779 59.9449 29.5886 62.1556 32.306 62.1556C35.0234 62.1556 37.2341 59.9449 37.2341 57.2276C37.2341 54.5102 35.0234 52.2994 32.306 52.2994Z" fill="black" style="mix-blend-mode:color"/>
<path d="M32.3066 63.1973C29.0149 63.1973 26.3369 60.5193 26.3369 57.2276C26.3369 53.936 29.0149 51.2579 32.3066 51.2579C35.5983 51.2579 38.2763 53.936 38.2763 57.2276C38.2763 60.5193 35.5983 63.1973 32.3066 63.1973ZM32.3066 52.2996C29.5892 52.2996 27.3786 54.5103 27.3786 57.2277C27.3786 59.945 29.5892 62.1557 32.3066 62.1557C35.024 62.1557 37.2347 59.945 37.2347 57.2277C37.2347 54.5103 35.0241 52.2996 32.3066 52.2996Z" fill="#BD491F"/>
<path d="M32.3066 63.1973C29.0149 63.1973 26.3369 60.5193 26.3369 57.2276C26.3369 53.936 29.0149 51.2579 32.3066 51.2579C35.5983 51.2579 38.2763 53.936 38.2763 57.2276C38.2763 60.5193 35.5983 63.1973 32.3066 63.1973ZM32.3066 52.2996C29.5892 52.2996 27.3786 54.5103 27.3786 57.2277C27.3786 59.945 29.5892 62.1557 32.3066 62.1557C35.024 62.1557 37.2347 59.945 37.2347 57.2277C37.2347 54.5103 35.0241 52.2996 32.3066 52.2996Z" fill="black" style="mix-blend-mode:color"/>
<path d="M32.3052 63.3325C28.9389 63.3325 26.2002 60.5939 26.2002 57.2276C26.2002 53.8613 28.9389 51.1227 32.3052 51.1227C35.6715 51.1227 38.4101 53.8613 38.4101 57.2276C38.4101 60.5939 35.6715 63.3325 32.3052 63.3325ZM32.3052 51.3932C29.0881 51.3932 26.4707 54.0106 26.4707 57.2276C26.4707 60.4447 29.0881 63.062 32.3052 63.062C35.5223 63.062 38.1396 60.4447 38.1396 57.2276C38.1396 54.0106 35.5223 51.3932 32.3052 51.3932ZM32.3052 62.291C29.5132 62.291 27.2418 60.0196 27.2418 57.2276C27.2418 54.4357 29.5132 52.1643 32.3052 52.1643C35.0971 52.1643 37.3685 54.4357 37.3685 57.2276C37.3685 60.0196 35.0971 62.291 32.3052 62.291ZM32.3052 52.4349C29.6624 52.4349 27.5124 54.5849 27.5124 57.2276C27.5124 59.8704 29.6624 62.0204 32.3052 62.0204C34.948 62.0204 37.098 59.8704 37.098 57.2276C37.098 54.5849 34.948 52.4349 32.3052 52.4349Z" fill="#702509"/>
<path d="M32.3052 63.3325C28.9389 63.3325 26.2002 60.5939 26.2002 57.2276C26.2002 53.8613 28.9389 51.1227 32.3052 51.1227C35.6715 51.1227 38.4101 53.8613 38.4101 57.2276C38.4101 60.5939 35.6715 63.3325 32.3052 63.3325ZM32.3052 51.3932C29.0881 51.3932 26.4707 54.0106 26.4707 57.2276C26.4707 60.4447 29.0881 63.062 32.3052 63.062C35.5223 63.062 38.1396 60.4447 38.1396 57.2276C38.1396 54.0106 35.5223 51.3932 32.3052 51.3932ZM32.3052 62.291C29.5132 62.291 27.2418 60.0196 27.2418 57.2276C27.2418 54.4357 29.5132 52.1643 32.3052 52.1643C35.0971 52.1643 37.3685 54.4357 37.3685 57.2276C37.3685 60.0196 35.0971 62.291 32.3052 62.291ZM32.3052 52.4349C29.6624 52.4349 27.5124 54.5849 27.5124 57.2276C27.5124 59.8704 29.6624 62.0204 32.3052 62.0204C34.948 62.0204 37.098 59.8704 37.098 57.2276C37.098 54.5849 34.948 52.4349 32.3052 52.4349Z" fill="black" style="mix-blend-mode:color"/>
<path d="M32.3046 61.1502C34.4711 61.1502 36.2274 59.3939 36.2274 57.2275C36.2274 55.061 34.4711 53.3047 32.3046 53.3047C30.1381 53.3047 28.3818 55.061 28.3818 57.2275C28.3818 59.3939 30.1381 61.1502 32.3046 61.1502Z" fill="white"/>
<path d="M32.3046 61.1502C34.4711 61.1502 36.2274 59.3939 36.2274 57.2275C36.2274 55.061 34.4711 53.3047 32.3046 53.3047C30.1381 53.3047 28.3818 55.061 28.3818 57.2275C28.3818 59.3939 30.1381 61.1502 32.3046 61.1502Z" fill="black" style="mix-blend-mode:color"/>
<path d="M32.2997 61.2857C31.8095 61.2857 31.3115 61.1963 30.8281 61.0075C29.8184 60.6131 29.0227 59.8492 28.5876 58.8564C28.1525 57.8637 28.1301 56.7608 28.5243 55.7511C29.3384 53.6668 31.6966 52.6337 33.7807 53.4474C35.865 54.2615 36.8984 56.6195 36.0844 58.7037C35.4592 60.3047 33.9229 61.2857 32.2997 61.2857ZM32.3088 53.4397C30.7936 53.4397 29.3599 54.3553 28.7765 55.8495C28.4083 56.7919 28.4293 57.8212 28.8354 58.7478C29.2415 59.6745 29.9842 60.3875 30.9266 60.7555C32.8718 61.5152 35.0727 60.5508 35.8325 58.6054C36.5922 56.66 35.6276 54.4591 33.6824 53.6994C33.2312 53.5232 32.7663 53.4397 32.3088 53.4397Z" fill="black"/>
<path d="M32.2997 61.2857C31.8095 61.2857 31.3115 61.1963 30.8281 61.0075C29.8184 60.6131 29.0227 59.8492 28.5876 58.8564C28.1525 57.8637 28.1301 56.7608 28.5243 55.7511C29.3384 53.6668 31.6966 52.6337 33.7807 53.4474C35.865 54.2615 36.8984 56.6195 36.0844 58.7037C35.4592 60.3047 33.9229 61.2857 32.2997 61.2857ZM32.3088 53.4397C30.7936 53.4397 29.3599 54.3553 28.7765 55.8495C28.4083 56.7919 28.4293 57.8212 28.8354 58.7478C29.2415 59.6745 29.9842 60.3875 30.9266 60.7555C32.8718 61.5152 35.0727 60.5508 35.8325 58.6054C36.5922 56.66 35.6276 54.4591 33.6824 53.6994C33.2312 53.5232 32.7663 53.4397 32.3088 53.4397Z" fill="black" style="mix-blend-mode:color"/>
<path d="M30.0489 56.3465C29.59 57.5213 30.1693 58.8429 31.3441 59.3018C32.5189 59.7607 33.8406 59.1814 34.2994 58.0066C34.7583 56.8318 34.179 55.5101 33.0042 55.0513C32.5358 54.8684 32.0458 54.8502 31.5939 54.9706C31.9794 55.7689 32.0656 56.4639 31.7622 56.6648C31.463 56.8607 30.8739 56.5204 30.3017 55.8718C30.2002 56.0164 30.116 56.1747 30.0489 56.3465Z" fill="black"/>
<path d="M30.0489 56.3465C29.59 57.5213 30.1693 58.8429 31.3441 59.3018C32.5189 59.7607 33.8406 59.1814 34.2994 58.0066C34.7583 56.8318 34.179 55.5101 33.0042 55.0513C32.5358 54.8684 32.0458 54.8502 31.5939 54.9706C31.9794 55.7689 32.0656 56.4639 31.7622 56.6648C31.463 56.8607 30.8739 56.5204 30.3017 55.8718C30.2002 56.0164 30.116 56.1747 30.0489 56.3465Z" fill="black" style="mix-blend-mode:color"/>
<path d="M38.229 67.944C38.1331 67.944 38.0478 67.8756 38.0298 67.7778C38.0095 67.6675 38.0824 67.5618 38.1926 67.5415C38.9439 67.4033 39.6826 67.1846 40.388 66.8915C40.9228 66.6693 41.2074 66.418 41.2578 66.1236C41.2981 65.8887 41.1852 65.6321 41.0761 65.41C40.7026 64.6491 40.2332 63.9372 39.6808 63.2939C39.6079 63.2089 39.6176 63.0808 39.7026 63.0077C39.7875 62.9349 39.9157 62.9445 39.9888 63.0296C40.5634 63.6988 41.0518 64.4395 41.4403 65.2312C41.5874 65.5308 41.7156 65.8547 41.6578 66.1922C41.5567 66.7819 40.9736 67.0877 40.5438 67.2663C39.8118 67.5704 39.0454 67.7973 38.266 67.9406C38.2536 67.9429 38.2413 67.944 38.229 67.944Z" fill="#505578"/>
<path d="M38.229 67.944C38.1331 67.944 38.0478 67.8756 38.0298 67.7778C38.0095 67.6675 38.0824 67.5618 38.1926 67.5415C38.9439 67.4033 39.6826 67.1846 40.388 66.8915C40.9228 66.6693 41.2074 66.418 41.2578 66.1236C41.2981 65.8887 41.1852 65.6321 41.0761 65.41C40.7026 64.6491 40.2332 63.9372 39.6808 63.2939C39.6079 63.2089 39.6176 63.0808 39.7026 63.0077C39.7875 62.9349 39.9157 62.9445 39.9888 63.0296C40.5634 63.6988 41.0518 64.4395 41.4403 65.2312C41.5874 65.5308 41.7156 65.8547 41.6578 66.1922C41.5567 66.7819 40.9736 67.0877 40.5438 67.2663C39.8118 67.5704 39.0454 67.7973 38.266 67.9406C38.2536 67.9429 38.2413 67.944 38.229 67.944Z" fill="black" style="mix-blend-mode:color"/>
<path d="M38.2295 68.0792C38.0664 68.0792 37.9267 67.9627 37.8972 67.8021C37.8635 67.6188 37.9852 67.4422 38.1686 67.4084C38.9106 67.2719 39.64 67.0559 40.3366 66.7665C40.8183 66.5663 41.0836 66.3423 41.1249 66.1007C41.1584 65.9055 41.0548 65.6726 40.9552 65.4695C40.5868 64.719 40.1237 64.0166 39.5787 63.3819C39.4572 63.2404 39.4735 63.0265 39.6151 62.905C39.7565 62.7836 39.9705 62.7998 40.092 62.9414C40.674 63.6192 41.1687 64.3695 41.5623 65.1715C41.7195 65.4916 41.856 65.8396 41.7916 66.215C41.6793 66.8706 41.0556 67.2002 40.5962 67.3911C39.8554 67.6989 39.0798 67.9285 38.291 68.0736C38.2705 68.0773 38.2499 68.0792 38.2295 68.0792ZM39.8352 63.094C39.8196 63.094 39.8039 63.0993 39.7912 63.1103C39.7728 63.1261 39.7687 63.146 39.7679 63.1564C39.7671 63.1668 39.7681 63.1871 39.784 63.2056C40.3439 63.8578 40.8196 64.5794 41.198 65.3504C41.3164 65.5913 41.4387 65.8715 41.3917 66.1463C41.3327 66.4902 41.0215 66.7748 40.4405 67.0163C39.7262 67.313 38.9783 67.5345 38.2176 67.6745C38.181 67.6812 38.1565 67.7166 38.1633 67.7532C38.17 67.7893 38.2046 67.8139 38.2417 67.8075C39.0121 67.6658 39.7692 67.4416 40.4923 67.1412C40.8926 66.9749 41.4351 66.6931 41.5249 66.1692C41.5763 65.8696 41.4565 65.5699 41.3194 65.2906C40.9358 64.5092 40.4537 63.7781 39.8866 63.1175C39.8733 63.102 39.8544 63.094 39.8352 63.094Z" fill="#252945"/>
<path d="M38.2295 68.0792C38.0664 68.0792 37.9267 67.9627 37.8972 67.8021C37.8635 67.6188 37.9852 67.4422 38.1686 67.4084C38.9106 67.2719 39.64 67.0559 40.3366 66.7665C40.8183 66.5663 41.0836 66.3423 41.1249 66.1007C41.1584 65.9055 41.0548 65.6726 40.9552 65.4695C40.5868 64.719 40.1237 64.0166 39.5787 63.3819C39.4572 63.2404 39.4735 63.0265 39.6151 62.905C39.7565 62.7836 39.9705 62.7998 40.092 62.9414C40.674 63.6192 41.1687 64.3695 41.5623 65.1715C41.7195 65.4916 41.856 65.8396 41.7916 66.215C41.6793 66.8706 41.0556 67.2002 40.5962 67.3911C39.8554 67.6989 39.0798 67.9285 38.291 68.0736C38.2705 68.0773 38.2499 68.0792 38.2295 68.0792ZM39.8352 63.094C39.8196 63.094 39.8039 63.0993 39.7912 63.1103C39.7728 63.1261 39.7687 63.146 39.7679 63.1564C39.7671 63.1668 39.7681 63.1871 39.784 63.2056C40.3439 63.8578 40.8196 64.5794 41.198 65.3504C41.3164 65.5913 41.4387 65.8715 41.3917 66.1463C41.3327 66.4902 41.0215 66.7748 40.4405 67.0163C39.7262 67.313 38.9783 67.5345 38.2176 67.6745C38.181 67.6812 38.1565 67.7166 38.1633 67.7532C38.17 67.7893 38.2046 67.8139 38.2417 67.8075C39.0121 67.6658 39.7692 67.4416 40.4923 67.1412C40.8926 66.9749 41.4351 66.6931 41.5249 66.1692C41.5763 65.8696 41.4565 65.5699 41.3194 65.2906C40.9358 64.5092 40.4537 63.7781 39.8866 63.1175C39.8733 63.102 39.8544 63.094 39.8352 63.094Z" fill="black" style="mix-blend-mode:color"/>
<path d="M31.7347 67.2234C31.6333 67.2234 31.5314 67.2141 31.4296 67.1933C29.945 66.8909 29.5496 64.8052 29.4461 63.5888C29.4365 63.4772 29.5194 63.379 29.6311 63.3694C29.7428 63.3606 29.8409 63.4428 29.8504 63.5544C29.926 64.4427 30.239 66.5367 31.5105 66.7957C31.9115 66.8773 32.3361 66.7217 32.7354 66.5414C33.7676 66.0753 34.722 65.4598 35.5722 64.712C35.6565 64.6381 35.7847 64.6464 35.8586 64.7303C35.9326 64.8145 35.9244 64.9427 35.8403 65.0168C34.9598 65.7911 33.9713 66.4285 32.9025 66.9113C32.55 67.0705 32.1466 67.2234 31.7347 67.2234Z" fill="#505578"/>
<path d="M31.7347 67.2234C31.6333 67.2234 31.5314 67.2141 31.4296 67.1933C29.945 66.8909 29.5496 64.8052 29.4461 63.5888C29.4365 63.4772 29.5194 63.379 29.6311 63.3694C29.7428 63.3606 29.8409 63.4428 29.8504 63.5544C29.926 64.4427 30.239 66.5367 31.5105 66.7957C31.9115 66.8773 32.3361 66.7217 32.7354 66.5414C33.7676 66.0753 34.722 65.4598 35.5722 64.712C35.6565 64.6381 35.7847 64.6464 35.8586 64.7303C35.9326 64.8145 35.9244 64.9427 35.8403 65.0168C34.9598 65.7911 33.9713 66.4285 32.9025 66.9113C32.55 67.0705 32.1466 67.2234 31.7347 67.2234Z" fill="black" style="mix-blend-mode:color"/>
<path d="M31.7343 67.3584C31.6204 67.3584 31.5087 67.3474 31.4022 67.3257C29.8311 67.0056 29.4176 64.8542 29.3108 63.6001C29.3031 63.5101 29.331 63.4225 29.3893 63.3535C29.4474 63.2844 29.5291 63.2421 29.6191 63.2345C29.8046 63.2203 29.969 63.3583 29.9847 63.5428C30.0577 64.4008 30.3551 66.4222 31.5371 66.6631C31.9003 66.7371 32.3008 66.589 32.6793 66.418C33.6991 65.9574 34.6423 65.3492 35.4824 64.6103C35.6226 64.4874 35.8367 64.501 35.9596 64.6408C36.0828 64.7809 36.0691 64.995 35.9292 65.1181C35.0385 65.9013 34.0388 66.5461 32.9577 67.0342C32.6029 67.1946 32.1801 67.3584 31.7343 67.3584ZM29.6468 63.5039C29.6449 63.5039 29.6432 63.5041 29.6412 63.5042C29.6178 63.5062 29.6029 63.5199 29.5962 63.5279C29.5894 63.5359 29.5784 63.5529 29.5805 63.5772C29.6807 64.7559 30.0578 66.7758 31.4562 67.0607C31.545 67.0787 31.6385 67.0879 31.7343 67.0879C32.1288 67.0879 32.5178 66.9362 32.8464 66.7879C33.9031 66.3106 34.8802 65.6805 35.7506 64.915C35.7786 64.8904 35.7813 64.8475 35.7567 64.8195C35.732 64.7915 35.6891 64.7888 35.6611 64.8135C34.8009 65.5701 33.8351 66.1929 32.7907 66.6645C32.3708 66.8542 31.9219 67.0174 31.4831 66.9281C30.122 66.6508 29.7933 64.4843 29.7151 63.5658C29.7122 63.5307 29.6821 63.5039 29.6468 63.5039Z" fill="#252945"/>
<path d="M31.7343 67.3584C31.6204 67.3584 31.5087 67.3474 31.4022 67.3257C29.8311 67.0056 29.4176 64.8542 29.3108 63.6001C29.3031 63.5101 29.331 63.4225 29.3893 63.3535C29.4474 63.2844 29.5291 63.2421 29.6191 63.2345C29.8046 63.2203 29.969 63.3583 29.9847 63.5428C30.0577 64.4008 30.3551 66.4222 31.5371 66.6631C31.9003 66.7371 32.3008 66.589 32.6793 66.418C33.6991 65.9574 34.6423 65.3492 35.4824 64.6103C35.6226 64.4874 35.8367 64.501 35.9596 64.6408C36.0828 64.7809 36.0691 64.995 35.9292 65.1181C35.0385 65.9013 34.0388 66.5461 32.9577 67.0342C32.6029 67.1946 32.1801 67.3584 31.7343 67.3584ZM29.6468 63.5039C29.6449 63.5039 29.6432 63.5041 29.6412 63.5042C29.6178 63.5062 29.6029 63.5199 29.5962 63.5279C29.5894 63.5359 29.5784 63.5529 29.5805 63.5772C29.6807 64.7559 30.0578 66.7758 31.4562 67.0607C31.545 67.0787 31.6385 67.0879 31.7343 67.0879C32.1288 67.0879 32.5178 66.9362 32.8464 66.7879C33.9031 66.3106 34.8802 65.6805 35.7506 64.915C35.7786 64.8904 35.7813 64.8475 35.7567 64.8195C35.732 64.7915 35.6891 64.7888 35.6611 64.8135C34.8009 65.5701 33.8351 66.1929 32.7907 66.6645C32.3708 66.8542 31.9219 67.0174 31.4831 66.9281C30.122 66.6508 29.7933 64.4843 29.7151 63.5658C29.7122 63.5307 29.6821 63.5039 29.6468 63.5039Z" fill="black" style="mix-blend-mode:color"/>
<path d="M35.3349 63.8108C35.9297 63.4256 36.6692 63.5106 36.9865 64.0006C37.3038 64.4907 37.0789 65.2002 36.484 65.5854C35.8892 65.9706 35.1497 65.8856 34.8324 65.3956C34.5151 64.9055 34.7401 64.1961 35.3349 63.8108Z" fill="#505578"/>
<path d="M35.3349 63.8108C35.9297 63.4256 36.6692 63.5106 36.9865 64.0006C37.3038 64.4907 37.0789 65.2002 36.484 65.5854C35.8892 65.9706 35.1497 65.8856 34.8324 65.3956C34.5151 64.9055 34.7401 64.1961 35.3349 63.8108Z" fill="black" style="mix-blend-mode:color"/>
<path d="M35.6965 65.9612C35.295 65.9612 34.9264 65.792 34.7175 65.4694C34.3601 64.9176 34.6035 64.1227 35.26 63.6977C35.9164 63.2726 36.7412 63.3756 37.0986 63.9275C37.4559 64.4793 37.2125 65.2742 36.5561 65.6992C36.2834 65.8758 35.9816 65.9612 35.6965 65.9612ZM36.1217 63.7049C35.887 63.7049 35.6354 63.7768 35.407 63.9247C34.8758 64.2687 34.6682 64.8957 34.9445 65.3223C35.2208 65.749 35.8779 65.816 36.409 65.4721C36.9402 65.1282 37.1476 64.5012 36.8715 64.0745C36.714 63.8313 36.4328 63.7049 36.1217 63.7049Z" fill="#252945"/>
<path d="M35.6965 65.9612C35.295 65.9612 34.9264 65.792 34.7175 65.4694C34.3601 64.9176 34.6035 64.1227 35.26 63.6977C35.9164 63.2726 36.7412 63.3756 37.0986 63.9275C37.4559 64.4793 37.2125 65.2742 36.5561 65.6992C36.2834 65.8758 35.9816 65.9612 35.6965 65.9612ZM36.1217 63.7049C35.887 63.7049 35.6354 63.7768 35.407 63.9247C34.8758 64.2687 34.6682 64.8957 34.9445 65.3223C35.2208 65.749 35.8779 65.816 36.409 65.4721C36.9402 65.1282 37.1476 64.5012 36.8715 64.0745C36.714 63.8313 36.4328 63.7049 36.1217 63.7049Z" fill="black" style="mix-blend-mode:color"/>
<path d="M37.6757 68.7021C38.3837 68.6722 38.9395 68.217 38.917 67.6855C38.8946 67.1539 38.3024 66.7472 37.5944 66.7772C36.8864 66.8071 36.3307 67.2622 36.3532 67.7938C36.3756 68.3253 36.9677 68.732 37.6757 68.7021Z" fill="#505578"/>
<path d="M37.6757 68.7021C38.3837 68.6722 38.9395 68.217 38.917 67.6855C38.8946 67.1539 38.3024 66.7472 37.5944 66.7772C36.8864 66.8071 36.3307 67.2622 36.3532 67.7938C36.3756 68.3253 36.9677 68.732 37.6757 68.7021Z" fill="black" style="mix-blend-mode:color"/>
<path d="M37.603 68.8402C36.8564 68.8402 36.2422 68.3857 36.2176 67.8008C36.192 67.1956 36.8069 66.6764 37.5884 66.6433C37.9599 66.6273 38.3152 66.7226 38.589 66.9106C38.8747 67.1068 39.039 67.3806 39.0517 67.6812C39.0644 67.9818 38.9237 68.2683 38.6556 68.4879C38.3986 68.6984 38.0525 68.8229 37.681 68.8385C37.6549 68.8397 37.6289 68.8402 37.603 68.8402ZM37.6679 66.9121C37.6453 66.9121 37.6226 66.9127 37.5998 66.9136C36.9675 66.9403 36.4686 67.3332 36.4878 67.7894C36.5071 68.2455 37.0364 68.5931 37.6696 68.5683C37.983 68.5551 38.2722 68.4521 38.4841 68.2787C38.6848 68.1143 38.7904 67.9061 38.7814 67.6926C38.7724 67.479 38.6497 67.2805 38.4358 67.1336C38.2265 66.9898 37.9559 66.9121 37.6679 66.9121Z" fill="#252945"/>
<path d="M37.603 68.8402C36.8564 68.8402 36.2422 68.3857 36.2176 67.8008C36.192 67.1956 36.8069 66.6764 37.5884 66.6433C37.9599 66.6273 38.3152 66.7226 38.589 66.9106C38.8747 67.1068 39.039 67.3806 39.0517 67.6812C39.0644 67.9818 38.9237 68.2683 38.6556 68.4879C38.3986 68.6984 38.0525 68.8229 37.681 68.8385C37.6549 68.8397 37.6289 68.8402 37.603 68.8402ZM37.6679 66.9121C37.6453 66.9121 37.6226 66.9127 37.5998 66.9136C36.9675 66.9403 36.4686 67.3332 36.4878 67.7894C36.5071 68.2455 37.0364 68.5931 37.6696 68.5683C37.983 68.5551 38.2722 68.4521 38.4841 68.2787C38.6848 68.1143 38.7904 67.9061 38.7814 67.6926C38.7724 67.479 38.6497 67.2805 38.4358 67.1336C38.2265 66.9898 37.9559 66.9121 37.6679 66.9121Z" fill="black" style="mix-blend-mode:color"/>
<path d="M48.9883 53.6748H66.5707V59.7377H63.8424V58.5251C63.8424 58.2775 63.8197 58.0224 63.7742 57.7597C63.7338 57.4969 63.6681 57.2367 63.5771 56.9791C63.4912 56.7214 63.3649 56.5117 63.1982 56.35C63.0315 56.1833 62.842 56.0999 62.6298 56.0999H60.2047V70.0446H62.6298V72.4697H52.9292V70.0446H55.3544V56.0999H52.9292C52.717 56.0999 52.5275 56.1833 52.3608 56.35C52.1941 56.5117 52.0652 56.7214 51.9743 56.9791C51.8884 57.2367 51.8227 57.4969 51.7773 57.7597C51.7368 58.0224 51.7166 58.2775 51.7166 58.5251V59.7377H48.9883V53.6748ZM79.7575 63.3375V70.0446H81.2732V72.4697H76.5517L75.8772 70.8934C75.3619 71.631 74.7632 72.1363 74.0811 72.4091C73.4041 72.6819 72.4567 72.8183 71.2391 72.8183C70.6076 72.8183 70.0189 72.7072 69.4733 72.4849C68.9327 72.2676 68.4704 71.9695 68.0864 71.5906C67.7075 71.2117 67.4094 70.757 67.1921 70.2265C66.9799 69.696 66.8738 69.1276 66.8738 68.5213C66.8738 67.4754 67.2831 66.6089 68.1016 65.9218C68.9201 65.2296 69.9659 64.8835 71.2391 64.8835C72.2647 64.8835 73.1135 64.9821 73.7855 65.1791C74.4575 65.3711 75.0335 65.6793 75.5134 66.1037V62.8904C75.5134 62.4357 75.4503 62.0567 75.324 61.7536C75.2027 61.4454 75.0183 61.2105 74.7707 61.0488C74.5232 60.882 74.2453 60.7658 73.9371 60.7002C73.6289 60.6345 73.2601 60.6016 72.8306 60.6016C72.487 60.6016 72.1763 60.6749 71.8984 60.8214C72.0551 61.1498 72.1334 61.4959 72.1334 61.8597C72.1334 62.5317 71.8959 63.1051 71.421 63.58C70.9511 64.0499 70.3802 64.2848 69.7082 64.2848C69.0363 64.2848 68.4628 64.0499 67.9879 63.58C67.518 63.1051 67.2831 62.5317 67.2831 61.8597C67.2831 61.5161 67.3488 61.1928 67.4801 60.8896C67.6165 60.5865 67.8035 60.3212 68.0409 60.0939C68.243 59.8817 68.4527 59.6922 68.67 59.5255C68.8872 59.3537 69.16 59.1844 69.4884 59.0177C69.8219 58.8459 70.1832 58.7045 70.5722 58.5933C70.9612 58.4822 71.426 58.3937 71.9666 58.3281C72.5123 58.2573 73.1085 58.222 73.7552 58.222C74.5939 58.222 75.3821 58.3457 76.1197 58.5933C76.8574 58.8409 77.494 59.1844 78.0295 59.624C78.5651 60.0636 78.987 60.6042 79.2952 61.2458C79.6034 61.8875 79.7575 62.5847 79.7575 63.3375ZM75.5134 69.1048V68.059C75.2002 67.7609 74.8465 67.5108 74.4524 67.3087C74.0634 67.1016 73.7021 66.998 73.3687 66.998C72.6512 66.998 72.146 67.1192 71.853 67.3617C71.5599 67.5992 71.4134 67.9857 71.4134 68.5213C71.4134 69.1629 71.5397 69.6353 71.7923 69.9385C72.045 70.2416 72.5148 70.3932 73.202 70.3932C73.591 70.3932 73.9952 70.2694 74.4145 70.0218C74.8389 69.7692 75.2052 69.4635 75.5134 69.1048ZM85.9719 55.4937H87.4876V58.5251H91.7316V60.9503H87.4876V68.832C87.4876 69.1756 87.5836 69.4635 87.7756 69.696C87.9727 69.9284 88.2809 70.0446 88.7002 70.0446C89.1701 70.0446 89.5692 69.8905 89.8976 69.5823C90.226 69.269 90.4332 68.8168 90.5191 68.2257L92.3379 68.5289C92.2621 69.12 92.1156 69.6682 91.8984 70.1734C91.6862 70.6736 91.4083 71.1207 91.0647 71.5148C90.7212 71.9039 90.2942 72.2121 89.7839 72.4394C89.2787 72.6617 88.7154 72.7729 88.0939 72.7729C86.5832 72.7729 85.3959 72.4217 84.532 71.7194C83.6731 71.0121 83.2436 70.0496 83.2436 68.832V60.9503H81.7279V58.5251H82.031C82.8091 58.5251 83.4962 58.3028 84.0924 57.8582C84.6886 57.4136 85.3151 56.6254 85.9719 55.4937ZM106.586 63.3375V70.0446H108.101V72.4697H103.38L102.705 70.8934C102.19 71.631 101.591 72.1363 100.909 72.4091C100.232 72.6819 99.285 72.8183 98.0674 72.8183C97.4358 72.8183 96.8472 72.7072 96.3015 72.4849C95.7609 72.2676 95.2986 71.9695 94.9147 71.5906C94.5357 71.2117 94.2376 70.757 94.0204 70.2265C93.8082 69.696 93.7021 69.1276 93.7021 68.5213C93.7021 67.4754 94.1113 66.6089 94.9298 65.9218C95.7483 65.2296 96.7942 64.8835 98.0674 64.8835C99.093 64.8835 99.9418 64.9821 100.614 65.1791C101.286 65.3711 101.862 65.6793 102.342 66.1037V62.8904C102.342 62.4357 102.279 62.0567 102.152 61.7536C102.031 61.4454 101.847 61.2105 101.599 61.0488C101.351 60.882 101.074 60.7658 100.765 60.7002C100.457 60.6345 100.088 60.6016 99.6589 60.6016C99.3153 60.6016 99.0046 60.6749 98.7267 60.8214C98.8833 61.1498 98.9616 61.4959 98.9616 61.8597C98.9616 62.5317 98.7242 63.1051 98.2492 63.58C97.7794 64.0499 97.2084 64.2848 96.5365 64.2848C95.8645 64.2848 95.2911 64.0499 94.8161 63.58C94.3463 63.1051 94.1113 62.5317 94.1113 61.8597C94.1113 61.5161 94.177 61.1928 94.3084 60.8896C94.4448 60.5865 94.6317 60.3212 94.8692 60.0939C95.0713 59.8817 95.281 59.6922 95.4982 59.5255C95.7155 59.3537 95.9883 59.1844 96.3167 59.0177C96.6502 58.8459 97.0114 58.7045 97.4004 58.5933C97.7895 58.4822 98.2543 58.3937 98.7949 58.3281C99.3406 58.2573 99.9367 58.222 100.583 58.222C101.422 58.222 102.21 58.3457 102.948 58.5933C103.686 58.8409 104.322 59.1844 104.858 59.624C105.393 60.0636 105.815 60.6042 106.123 61.2458C106.432 61.8875 106.586 62.5847 106.586 63.3375ZM102.342 69.1048V68.059C102.028 67.7609 101.675 67.5108 101.281 67.3087C100.892 67.1016 100.53 66.998 100.197 66.998C99.4795 66.998 98.9743 67.1192 98.6812 67.3617C98.3882 67.5992 98.2417 67.9857 98.2417 68.5213C98.2417 69.1629 98.368 69.6353 98.6206 69.9385C98.8732 70.2416 99.3431 70.3932 100.03 70.3932C100.419 70.3932 100.823 70.2694 101.243 70.0218C101.667 69.7692 102.033 69.4635 102.342 69.1048ZM109.769 53.6748H120.076V56.0999H117.044V70.0446H121.894C122.107 70.0446 122.296 69.9637 122.463 69.8021C122.63 69.6353 122.756 69.4231 122.842 69.1655C122.933 68.9078 122.998 68.6476 123.039 68.3849C123.084 68.1221 123.107 67.867 123.107 67.6194V65.1943H125.835V72.4697H109.769V70.0446H112.194V56.0999H109.769V53.6748ZM132.239 58.7903C133.128 58.4417 134.071 58.2674 135.066 58.2674C136.061 58.2674 137.001 58.4417 137.885 58.7903C138.775 59.139 139.548 59.6265 140.204 60.253C140.861 60.8745 141.379 61.6424 141.758 62.5569C142.142 63.4714 142.334 64.4667 142.334 65.5429C142.334 66.619 142.142 67.6144 141.758 68.5289C141.379 69.4433 140.861 70.2138 140.204 70.8403C139.548 71.4618 138.775 71.9468 137.885 72.2954C137.001 72.644 136.061 72.8183 135.066 72.8183C134.071 72.8183 133.128 72.644 132.239 72.2954C131.355 71.9468 130.585 71.4618 129.928 70.8403C129.276 70.2138 128.758 69.4433 128.374 68.5289C127.995 67.6144 127.806 66.619 127.806 65.5429C127.806 64.4667 127.995 63.4714 128.374 62.5569C128.758 61.6424 129.276 60.8745 129.928 60.253C130.585 59.6265 131.355 59.139 132.239 58.7903ZM135.066 60.6926C134.712 60.6926 134.397 60.7431 134.119 60.8442C133.841 60.9452 133.586 61.1119 133.353 61.3443C133.121 61.5767 132.929 61.8774 132.777 62.2462C132.631 62.615 132.515 63.0748 132.429 63.6255C132.348 64.1762 132.307 64.8153 132.307 65.5429C132.307 66.2704 132.348 66.9096 132.429 67.4603C132.515 68.011 132.631 68.4708 132.777 68.8396C132.929 69.2084 133.121 69.509 133.353 69.7414C133.586 69.9738 133.841 70.1406 134.119 70.2416C134.397 70.3427 134.712 70.3932 135.066 70.3932C135.511 70.3932 135.897 70.3098 136.226 70.1431C136.554 69.9713 136.839 69.6985 137.082 69.3246C137.33 68.9507 137.514 68.448 137.635 67.8165C137.762 67.1849 137.825 66.4271 137.825 65.5429C137.825 64.6587 137.762 63.9009 137.635 63.2693C137.514 62.6378 137.33 62.135 137.082 61.7612C136.839 61.3873 136.554 61.117 136.226 60.9503C135.897 60.7785 135.511 60.6926 135.066 60.6926ZM153.088 55.7968C153.088 55.1248 153.323 54.5539 153.793 54.084C154.268 53.6091 154.841 53.3716 155.513 53.3716C155.766 53.3716 156.013 53.4095 156.256 53.4853C156.569 53.5813 156.842 53.7076 157.074 53.8643C157.312 54.0209 157.504 54.1927 157.65 54.3796C157.797 54.5665 157.916 54.7838 158.007 55.0314C158.097 55.2739 158.158 55.5189 158.188 55.7665C158.224 56.009 158.241 56.2793 158.241 56.5774C158.241 56.8856 158.181 57.2089 158.06 57.5475C157.938 57.886 157.777 58.2068 157.575 58.5099C157.377 58.808 157.16 59.0884 156.923 59.3512C156.69 59.6088 156.45 59.8362 156.203 60.0332C156.956 60.7759 157.332 61.6879 157.332 62.7691C157.332 63.5775 157.155 64.2975 156.802 64.929C156.453 65.5555 155.97 66.0633 155.354 66.4523C154.738 66.8363 154.033 67.1268 153.24 67.3239C152.451 67.5209 151.592 67.6194 150.663 67.6194C149.895 67.6194 149.16 67.5335 148.457 67.3617C147.998 67.4325 147.644 67.5563 147.396 67.7331C147.149 67.9099 147.025 68.0741 147.025 68.2257C147.025 68.3773 147.088 68.5162 147.215 68.6425C147.341 68.7688 147.48 68.832 147.631 68.832H151.875C154.013 68.832 155.556 69.1377 156.506 69.749C157.461 70.3603 157.938 71.3683 157.938 72.7729C157.938 73.4499 157.855 74.0638 157.688 74.6145C157.521 75.1702 157.294 75.6426 157.006 76.0317C156.723 76.4258 156.372 76.7718 155.953 77.0699C155.533 77.3731 155.094 77.6156 154.634 77.7975C154.174 77.9794 153.661 78.1259 153.096 78.237C152.53 78.3482 151.982 78.424 151.451 78.4644C150.921 78.5099 150.355 78.5326 149.753 78.5326C148.793 78.5326 147.924 78.4265 147.146 78.2143C146.373 78.0072 145.737 77.7217 145.237 77.3579C144.741 76.9942 144.36 76.5748 144.092 76.0999C143.824 75.63 143.691 75.1273 143.691 74.5917C143.691 73.4954 144.32 72.639 145.578 72.0226C145.088 71.775 144.701 71.4365 144.418 71.0071C144.135 70.5725 143.994 70.0496 143.994 69.4383C143.994 68.7562 144.191 68.1373 144.585 67.5815C144.979 67.0258 145.509 66.6216 146.176 66.369C145.585 65.9496 145.123 65.4393 144.789 64.8381C144.461 64.2368 144.297 63.5472 144.297 62.7691C144.297 62.1224 144.411 61.5414 144.638 61.026C144.87 60.5107 145.181 60.0838 145.57 59.7453C145.964 59.4017 146.434 59.1188 146.98 58.8965C147.53 58.6691 148.109 58.5074 148.715 58.4114C149.321 58.3154 149.971 58.2674 150.663 58.2674C152.259 58.2674 153.621 58.5302 154.748 59.0556C155.005 58.7575 155.205 58.4771 155.346 58.2144C154.715 58.174 154.179 57.9213 153.74 57.4565C153.305 56.9917 153.088 56.4385 153.088 55.7968ZM150.814 60.6471C150.102 60.6471 149.544 60.8517 149.14 61.261C148.74 61.6702 148.541 62.2613 148.541 63.0344C148.541 63.8124 148.743 64.4187 149.147 64.8532C149.551 65.2827 150.107 65.4974 150.814 65.4974C151.517 65.4974 152.07 65.2802 152.474 64.8457C152.883 64.4061 153.088 63.8023 153.088 63.0344C153.088 62.2715 152.886 61.6828 152.482 61.2686C152.078 60.8543 151.522 60.6471 150.814 60.6471ZM148.503 72.4697C147.922 72.884 147.631 73.3893 147.631 73.9854C147.631 74.5867 147.818 74.9883 148.192 75.1904C148.566 75.3976 149.289 75.5012 150.36 75.5012C152.785 75.5012 153.997 74.8949 153.997 73.6823C153.997 73.3792 153.871 73.1013 153.619 72.8487C153.366 72.596 153.088 72.4697 152.785 72.4697H148.503ZM163.584 58.7903C164.474 58.4417 165.416 58.2674 166.411 58.2674C167.407 58.2674 168.346 58.4417 169.23 58.7903C170.12 59.139 170.893 59.6265 171.549 60.253C172.206 60.8745 172.724 61.6424 173.103 62.5569C173.487 63.4714 173.679 64.4667 173.679 65.5429C173.679 66.619 173.487 67.6144 173.103 68.5289C172.724 69.4433 172.206 70.2138 171.549 70.8403C170.893 71.4618 170.12 71.9468 169.23 72.2954C168.346 72.644 167.407 72.8183 166.411 72.8183C165.416 72.8183 164.474 72.644 163.584 72.2954C162.7 71.9468 161.93 71.4618 161.273 70.8403C160.621 70.2138 160.103 69.4433 159.719 68.5289C159.34 67.6144 159.151 66.619 159.151 65.5429C159.151 64.4667 159.34 63.4714 159.719 62.5569C160.103 61.6424 160.621 60.8745 161.273 60.253C161.93 59.6265 162.7 59.139 163.584 58.7903ZM166.411 60.6926C166.058 60.6926 165.742 60.7431 165.464 60.8442C165.186 60.9452 164.931 61.1119 164.698 61.3443C164.466 61.5767 164.274 61.8774 164.122 62.2462C163.976 62.615 163.86 63.0748 163.774 63.6255C163.693 64.1762 163.653 64.8153 163.653 65.5429C163.653 66.2704 163.693 66.9096 163.774 67.4603C163.86 68.011 163.976 68.4708 164.122 68.8396C164.274 69.2084 164.466 69.509 164.698 69.7414C164.931 69.9738 165.186 70.1406 165.464 70.2416C165.742 70.3427 166.058 70.3932 166.411 70.3932C166.856 70.3932 167.242 70.3098 167.571 70.1431C167.899 69.9713 168.185 69.6985 168.427 69.3246C168.675 68.9507 168.859 68.448 168.98 67.8165C169.107 67.1849 169.17 66.4271 169.17 65.5429C169.17 64.6587 169.107 63.9009 168.98 63.2693C168.859 62.6378 168.675 62.135 168.427 61.7612C168.185 61.3873 167.899 61.117 167.571 60.9503C167.242 60.7785 166.856 60.6926 166.411 60.6926ZM179.492 70.0522C179.78 70.2492 180.214 70.3477 180.795 70.3477C181.316 70.3477 181.738 70.3174 182.061 70.2568C182.389 70.1961 182.637 70.0976 182.804 69.9612C182.97 69.8197 183.082 69.6656 183.137 69.4989C183.193 69.3271 183.221 69.1048 183.221 68.832C183.221 68.5086 183.135 68.2308 182.963 67.9984C182.791 67.7659 182.559 67.579 182.266 67.4375C181.973 67.2961 181.637 67.1723 181.258 67.0662C180.879 66.955 180.48 66.8515 180.06 66.7555C179.641 66.6544 179.222 66.5458 178.802 66.4296C178.383 66.3083 177.984 66.1517 177.605 65.9597C177.226 65.7627 176.89 65.5328 176.597 65.2701C176.304 65.0023 176.071 64.6562 175.9 64.2318C175.728 63.8074 175.642 63.3198 175.642 62.7691C175.642 62.2639 175.703 61.8041 175.824 61.3898C175.945 60.9755 176.107 60.6244 176.309 60.3364C176.511 60.0433 176.766 59.7882 177.074 59.5709C177.382 59.3537 177.703 59.1794 178.037 59.048C178.375 58.9167 178.754 58.8106 179.174 58.7297C179.598 58.6489 180.007 58.5958 180.401 58.5706C180.795 58.5403 181.225 58.5251 181.69 58.5251C182.7 58.5251 183.582 58.6539 184.335 58.9116C185.092 59.1693 185.689 59.5154 186.123 59.9499C186.356 60.1469 186.535 60.3869 186.661 60.6698C186.793 60.9477 186.858 61.2433 186.858 61.5565C186.858 62.1426 186.651 62.6428 186.237 63.0571C185.823 63.4714 185.322 63.6785 184.736 63.6785C184.15 63.6785 183.65 63.4714 183.236 63.0571C182.821 62.6428 182.614 62.1426 182.614 61.5565C182.614 61.3443 182.645 61.1397 182.705 60.9427C182.417 60.7456 181.983 60.6471 181.402 60.6471C180.689 60.6471 180.156 60.733 179.803 60.9048C179.454 61.0766 179.28 61.3949 179.28 61.8597C179.28 62.1527 179.353 62.4129 179.499 62.6403C179.646 62.8626 179.846 63.047 180.098 63.1935C180.351 63.335 180.644 63.4714 180.977 63.6028C181.316 63.7291 181.674 63.8377 182.053 63.9286C182.432 64.0145 182.821 64.1206 183.221 64.2469C183.62 64.3733 184.009 64.5021 184.388 64.6335C184.767 64.7648 185.123 64.9391 185.456 65.1564C185.795 65.3686 186.09 65.6086 186.343 65.8763C186.596 66.1441 186.795 66.4801 186.942 66.8843C187.088 67.2834 187.161 67.7306 187.161 68.2257C187.161 68.933 187.043 69.557 186.805 70.0976C186.573 70.6332 186.26 71.0677 185.865 71.4011C185.476 71.7346 184.991 72.0074 184.41 72.2196C183.829 72.4268 183.226 72.5708 182.599 72.6516C181.973 72.7325 181.275 72.7729 180.507 72.7729C178.956 72.7729 177.706 72.4773 176.756 71.8862C175.811 71.295 175.339 70.4791 175.339 69.4383C175.339 68.8522 175.546 68.352 175.96 67.9377C176.375 67.5234 176.875 67.3163 177.461 67.3163C178.047 67.3163 178.547 67.5234 178.961 67.9377C179.376 68.352 179.583 68.8522 179.583 69.4383C179.583 69.6505 179.552 69.8551 179.492 70.0522Z" fill="white"/>
</svg>
