<svg width="208" height="120" viewBox="0 0 208 120" fill="none" xmlns="http://www.w3.org/2000/svg">
<path d="M37.0684 46.0449C39.7639 44.4886 43.0847 44.4886 45.7803 46.0449L51.6992 49.4619C54.3948 51.0182 56.0557 53.8943 56.0557 57.0068V63.8418C56.0556 66.9543 54.3947 69.8305 51.6992 71.3867L45.7803 74.8037C43.0847 76.36 39.7639 76.36 37.0684 74.8037L31.1494 71.3867C28.4539 69.8305 26.793 66.9543 26.793 63.8418V57.0068C26.793 53.8943 28.4539 51.0182 31.1494 49.4619L37.0684 46.0449Z" fill="#EAEAEA" stroke="#EAEAEA" stroke-width="0.917067"/>
<path d="M43.4643 71.5017H39.7329C39.2116 71.5017 38.789 71.0791 38.789 70.5577V59.5634C38.789 58.8456 38.0195 58.3904 37.3904 58.7362L32.7345 61.2948C32.1054 61.6405 31.3359 61.1854 31.3359 60.4675V55.7862C31.3359 55.4467 31.5183 55.1333 31.8134 54.9656L41.1026 49.6849C41.3918 49.5204 41.7463 49.5204 42.0356 49.6849L51.3247 54.9656C51.6199 55.1333 51.8022 55.4467 51.8022 55.7862V60.4614C51.8022 61.1806 51.03 61.6356 50.4008 61.2871L45.8097 58.7439C45.1805 58.3953 44.4083 58.8503 44.4083 59.5696V70.5577C44.4083 71.0791 43.9857 71.5017 43.4643 71.5017Z" fill="#191845" stroke="#EAEAEA" stroke-width="0.117997"/>
<path d="M70.1121 70.452C69.8423 70.452 69.7074 70.3021 69.7074 70.0024V55.4784H64.7612C64.4614 55.4784 64.3115 55.351 64.3115 55.0962C64.3115 54.8414 64.4614 54.714 64.7612 54.714H75.4405C75.7403 54.714 75.8902 54.8414 75.8902 55.0962C75.8902 55.351 75.7403 55.4784 75.4405 55.4784H70.4943V70.0024C70.4943 70.3021 70.3669 70.452 70.1121 70.452ZM81.5787 70.6993C80.6345 70.6993 79.7951 70.4595 79.0606 69.9799C78.3262 69.5002 77.7491 68.8407 77.3295 68.0014C76.9098 67.147 76.6999 66.1728 76.6999 65.0786C76.6999 63.9844 76.9098 63.0177 77.3295 62.1783C77.7491 61.324 78.3262 60.657 79.0606 60.1773C79.7951 59.6977 80.6345 59.4579 81.5787 59.4579C82.523 59.4579 83.3324 59.7052 84.0069 60.1998C84.6814 60.6794 85.191 61.2865 85.5357 62.0209C85.8955 62.7554 86.0753 63.5048 86.0753 64.2692C86.0753 64.539 85.9254 64.6739 85.6257 64.6739H77.4868C77.4419 65.6632 77.5768 66.555 77.8915 67.3494C78.2063 68.1438 78.6784 68.7733 79.308 69.2379C79.9525 69.7026 80.7094 69.9349 81.5787 69.9349C83.2425 69.9349 84.4566 69.1405 85.221 67.5517C85.3559 67.2819 85.5432 67.1995 85.783 67.3044C86.0229 67.4243 86.0753 67.6267 85.9404 67.9115C85.0411 69.77 83.5872 70.6993 81.5787 70.6993ZM77.5768 63.887H85.2884C85.2285 63.2425 85.0336 62.6504 84.7039 62.1109C84.3741 61.5563 83.9394 61.1066 83.3999 60.7619C82.8753 60.4171 82.2682 60.2448 81.5787 60.2448C80.5595 60.2448 79.6902 60.5745 78.9707 61.234C78.2513 61.8935 77.7866 62.7779 77.5768 63.887ZM93.413 70.6993C92.4687 70.6993 91.6294 70.4595 90.8949 69.9799C90.1605 69.5002 89.5834 68.8407 89.1637 68.0014C88.7441 67.147 88.5342 66.1728 88.5342 65.0786C88.5342 63.9844 88.7441 63.0177 89.1637 62.1783C89.5834 61.324 90.1605 60.657 90.8949 60.1773C91.6294 59.6977 92.4687 59.4579 93.413 59.4579C94.687 59.4579 95.7737 59.9075 96.673 60.8068C96.8979 61.0167 96.9054 61.2115 96.6955 61.3914C96.5007 61.5413 96.2983 61.5188 96.0885 61.324C95.3391 60.6045 94.4472 60.2448 93.413 60.2448C92.6186 60.2448 91.9067 60.4471 91.2771 60.8518C90.6626 61.2565 90.1755 61.8261 89.8157 62.5605C89.471 63.28 89.2986 64.1193 89.2986 65.0786C89.2986 66.0379 89.471 66.8847 89.8157 67.6192C90.1755 68.3536 90.6626 68.9232 91.2771 69.3279C91.9067 69.7326 92.6186 69.9349 93.413 69.9349C94.4472 69.9349 95.3391 69.5752 96.0885 68.8557C96.2833 68.6309 96.4857 68.6009 96.6955 68.7658C96.9054 68.9457 96.8979 69.1405 96.673 69.3504C95.7737 70.2497 94.687 70.6993 93.413 70.6993ZM100.415 70.452C100.145 70.452 100.01 70.3021 100.01 70.0024V54.5566C100.01 54.2568 100.145 54.1069 100.415 54.1069C100.669 54.1069 100.797 54.2568 100.797 54.5566V61.3689C101.142 60.8143 101.621 60.3572 102.236 59.9975C102.865 59.6227 103.57 59.4354 104.349 59.4354C105.503 59.4354 106.433 59.8101 107.137 60.5595C107.842 61.294 108.194 62.3357 108.194 63.6847V70.0024C108.194 70.3021 108.066 70.452 107.812 70.452C107.557 70.452 107.429 70.3021 107.429 70.0024V63.6847C107.429 62.5305 107.145 61.6687 106.575 61.0991C106.005 60.5296 105.264 60.2448 104.349 60.2448C103.66 60.2448 103.045 60.3947 102.506 60.6944C101.966 60.9792 101.546 61.3539 101.247 61.8186C100.947 62.2832 100.797 62.7779 100.797 63.3025V70.0024C100.797 70.3021 100.669 70.452 100.415 70.452ZM112.968 70.452C112.084 70.452 111.641 70.0099 111.641 69.1255V56.0405C111.641 55.1561 112.069 54.714 112.923 54.714C113.792 54.714 114.227 55.1561 114.227 56.0405V68.0464H121.107C121.991 68.0464 122.433 68.4436 122.433 69.2379C122.433 70.0473 121.991 70.452 121.107 70.452H112.968ZM125.858 70.452C125.018 70.452 124.599 70.0099 124.599 69.1255V60.9642C124.599 60.0799 125.018 59.6377 125.858 59.6377C126.697 59.6377 127.117 60.0799 127.117 60.9642V69.1255C127.117 70.0099 126.697 70.452 125.858 70.452ZM124.846 58.1314C124.411 58.4312 124.059 58.4237 123.789 58.1089C123.534 57.8091 123.594 57.4719 123.969 57.0972L127.431 53.6573C127.836 53.2526 128.226 53.2751 128.601 53.7247L129.005 54.2193C129.395 54.654 129.35 55.0437 128.87 55.3885L124.846 58.1314ZM134.821 70.6993C133.832 70.6993 132.94 70.4745 132.145 70.0249C131.366 69.5752 130.744 68.9307 130.279 68.0913C129.83 67.237 129.605 66.2177 129.605 65.0336C129.605 63.8495 129.83 62.8378 130.279 61.9984C130.744 61.1441 131.366 60.4921 132.145 60.0424C132.94 59.5928 133.832 59.3679 134.821 59.3679C135.96 59.3679 136.897 59.7801 137.631 60.6045V55.7482C137.631 54.8639 138.051 54.4217 138.89 54.4217C139.745 54.4217 140.172 54.8639 140.172 55.7482V69.1255C140.172 70.0099 139.805 70.452 139.07 70.452C138.351 70.452 137.969 70.2797 137.924 69.9349L137.856 69.2155C137.481 69.6801 137.032 70.0473 136.507 70.3171C135.998 70.5719 135.435 70.6993 134.821 70.6993ZM134.933 68.4061C135.728 68.4061 136.387 68.1138 136.912 67.5292C137.436 66.9447 137.699 66.1128 137.699 65.0336C137.699 63.9545 137.436 63.1226 136.912 62.538C136.387 61.9535 135.728 61.6612 134.933 61.6612C134.139 61.6612 133.479 61.9535 132.955 62.538C132.43 63.1226 132.168 63.9545 132.168 65.0336C132.168 66.1128 132.43 66.9447 132.955 67.5292C133.479 68.1138 134.139 68.4061 134.933 68.4061ZM147.645 70.6993C146.071 70.6993 144.797 70.2272 143.823 69.2829C142.848 68.3236 142.361 66.9072 142.361 65.0336C142.361 63.8645 142.579 62.8603 143.013 62.0209C143.448 61.1666 144.055 60.5146 144.834 60.0649C145.614 59.6003 146.506 59.3679 147.51 59.3679C148.514 59.3679 149.369 59.6003 150.073 60.0649C150.777 60.5296 151.317 61.1291 151.692 61.8635C152.066 62.598 152.254 63.3624 152.254 64.1568C152.254 64.7114 152.141 65.0786 151.917 65.2585C151.692 65.4233 151.362 65.5058 150.927 65.5058H144.857C144.917 66.585 145.202 67.3569 145.711 67.8215C146.221 68.2712 146.88 68.496 147.69 68.496C148.604 68.496 149.316 68.1813 149.826 67.5517C150.125 67.237 150.403 67.0346 150.658 66.9447C150.927 66.8398 151.212 66.8922 151.512 67.1021C151.812 67.3119 151.984 67.5817 152.029 67.9115C152.074 68.2412 151.939 68.5859 151.624 68.9457C151.115 69.5602 150.53 70.0099 149.871 70.2946C149.211 70.5644 148.469 70.6993 147.645 70.6993ZM144.969 63.5498H149.758C149.638 62.8453 149.376 62.3057 148.971 61.931C148.582 61.5413 148.08 61.3464 147.465 61.3464C146.805 61.3464 146.258 61.5263 145.824 61.886C145.404 62.2458 145.119 62.8003 144.969 63.5498ZM155.929 70.452C155.075 70.452 154.648 70.0099 154.648 69.1255V60.9642C154.648 60.0799 155.09 59.6377 155.974 59.6377C156.274 59.6377 156.536 59.7127 156.761 59.8626C156.986 59.9975 157.099 60.2598 157.099 60.6495V61.1666C157.368 60.627 157.788 60.1923 158.358 59.8626C158.942 59.5328 159.557 59.3679 160.201 59.3679C160.666 59.3679 161.018 59.4953 161.258 59.7502C161.513 59.99 161.64 60.3197 161.64 60.7394C161.64 61.1291 161.543 61.4139 161.348 61.5938C161.153 61.7736 160.928 61.8486 160.673 61.8186C160.553 61.8036 160.426 61.7961 160.291 61.7961C160.156 61.7811 160.006 61.7736 159.841 61.7736C159.107 61.7736 158.478 62.0134 157.953 62.4931C157.443 62.9727 157.188 63.6472 157.188 64.5165V69.1255C157.188 70.0099 156.769 70.452 155.929 70.452ZM167.954 70.6993C166.38 70.6993 165.106 70.2272 164.132 69.2829C163.158 68.3236 162.671 66.9072 162.671 65.0336C162.671 63.8645 162.888 62.8603 163.323 62.0209C163.757 61.1666 164.364 60.5146 165.144 60.0649C165.923 59.6003 166.815 59.3679 167.819 59.3679C168.823 59.3679 169.678 59.6003 170.382 60.0649C171.087 60.5296 171.626 61.1291 172.001 61.8635C172.376 62.598 172.563 63.3624 172.563 64.1568C172.563 64.7114 172.451 65.0786 172.226 65.2585C172.001 65.4233 171.671 65.5058 171.237 65.5058H165.166C165.226 66.585 165.511 67.3569 166.021 67.8215C166.53 68.2712 167.19 68.496 167.999 68.496C168.913 68.496 169.625 68.1813 170.135 67.5517C170.435 67.237 170.712 67.0346 170.967 66.9447C171.237 66.8398 171.521 66.8922 171.821 67.1021C172.121 67.3119 172.293 67.5817 172.338 67.9115C172.383 68.2412 172.248 68.5859 171.934 68.9457C171.424 69.5602 170.839 70.0099 170.18 70.2946C169.52 70.5644 168.778 70.6993 167.954 70.6993ZM165.279 63.5498H170.068C169.948 62.8453 169.685 62.3057 169.281 61.931C168.891 61.5413 168.389 61.3464 167.774 61.3464C167.115 61.3464 166.568 61.5263 166.133 61.886C165.713 62.2458 165.429 62.8003 165.279 63.5498ZM178.847 70.6769C178.172 70.6769 177.528 70.5944 176.913 70.4295C176.314 70.2497 175.759 69.9799 175.249 69.6202C174.875 69.3654 174.672 69.0881 174.642 68.7883C174.627 68.4735 174.747 68.1738 175.002 67.889C175.257 67.6192 175.519 67.4918 175.789 67.5068C176.074 67.5218 176.404 67.6342 176.778 67.844C177.378 68.2637 178.112 68.4735 178.982 68.4735C179.596 68.4735 180.038 68.3911 180.308 68.2262C180.593 68.0464 180.735 67.7241 180.735 67.2595C180.735 67.0346 180.668 66.8548 180.533 66.7199C180.398 66.57 180.143 66.4351 179.769 66.3152C179.409 66.1953 178.877 66.0679 178.172 65.933C177.123 65.7231 176.284 65.3784 175.654 64.8987C175.025 64.4191 174.71 63.6622 174.71 62.628C174.71 61.9535 174.89 61.3764 175.249 60.8968C175.609 60.4022 176.096 60.0199 176.711 59.7502C177.325 59.4804 178.007 59.3455 178.757 59.3455C179.926 59.3455 180.915 59.5928 181.725 60.0874C182.129 60.2972 182.354 60.5595 182.399 60.8743C182.459 61.1741 182.377 61.4663 182.152 61.7511C181.912 62.0509 181.65 62.2008 181.365 62.2008C181.095 62.2008 180.773 62.1184 180.398 61.9535C180.158 61.8186 179.903 61.7212 179.634 61.6612C179.379 61.6012 179.102 61.5713 178.802 61.5713C178.247 61.5713 177.85 61.6687 177.61 61.8635C177.385 62.0584 177.273 62.2907 177.273 62.5605C177.273 62.7554 177.325 62.9202 177.43 63.0551C177.55 63.19 177.775 63.3174 178.105 63.4374C178.435 63.5573 178.914 63.6922 179.544 63.842C180.743 64.1268 181.672 64.539 182.332 65.0786C182.991 65.6182 183.321 66.3751 183.321 67.3494C183.321 68.4436 182.901 69.2754 182.062 69.845C181.237 70.3996 180.166 70.6769 178.847 70.6769Z" fill="white"/>
</svg>
