<svg width="208" height="120" viewBox="0 0 208 120" fill="none" xmlns="http://www.w3.org/2000/svg">
<path d="M132.036 80.0561L132.254 81.0098L132.258 81.0283C132.258 84.6505 135.349 87.5846 139.16 87.5846C142.808 87.5846 145.8 84.8909 146.041 81.48C146.055 81.3309 146.059 81.1813 146.059 81.0283V79.2592L139.426 79.638C139.382 80.4825 139.27 81.327 139.131 82.1642C139.019 82.8265 138.888 83.4967 138.567 84.0896C138.25 84.683 137.719 85.1924 137.06 85.3308C136.42 85.4659 135.739 85.2288 135.233 84.8102C134.727 84.395 134.374 83.8201 134.104 83.2233C133.646 82.2006 133.398 81.1011 133.296 79.9832L132.036 80.0561Z" fill="#EAEAEA"/>
<path d="M150.838 79.5782L150.841 79.5966C150.841 83.2189 153.932 86.153 157.743 86.153C161.391 86.153 164.383 83.4593 164.624 80.0483C164.638 79.8992 164.642 79.7496 164.642 79.5972V77.8281L150.838 79.5782Z" fill="#EAEAEA"/>
<path d="M106.26 72.0844C106.676 72.1353 106.839 71.6949 107.051 71.4108C107.688 70.5444 108.569 70.2861 109.599 70.2934C112.085 70.3119 122.267 70.3629 124.873 70.3483C125.441 70.3444 126.198 70.5338 126.169 69.5621C126.118 67.7493 127.636 66.8062 128.546 65.6087C129.048 64.9391 129.398 64.4549 129.398 63.6429C129.391 58.2482 129.619 49.9906 130.01 44.61C130.091 43.4999 140.97 40.5781 143.318 40.749L163.045 43.5374C164.181 43.6865 165.011 44.3236 165.062 45.5284C165.593 48.0803 165.997 50.8833 166.605 54.0718C166.82 55.8594 168.716 56.8456 168.785 58.32C168.946 61.7674 170.06 71.603 169.997 72.6587C169.91 74.1695 169.393 75.6074 169.135 77.0128C168.738 79.1641 167.908 79.7104 166.047 79.6701C165.385 79.6555 148.177 81.3411 146.364 81.4537C146.255 81.461 146.146 81.4649 146.041 81.4795C145.68 81.5193 145.367 81.6325 145.283 82.1531C144.665 85.9277 142.167 86.8742 138.702 86.8126C134.887 86.7436 133.988 86.223 132.972 82.4955C132.83 81.9788 132.67 81.0576 132.455 81.0357C132.385 81.0284 132.32 81.0211 132.255 81.0105C130.012 80.7045 130.908 78.8772 130.751 77.6174C130.657 76.824 130.3 76.5948 129.579 76.602C128.906 76.6133 128.363 76.704 128.352 77.5519C128.345 78.1599 128.276 78.764 128.284 79.368C128.291 80.0231 128.029 80.3655 127.355 80.4529C124.257 80.8569 121.174 81.4504 118.061 81.6504C115.608 81.8068 113.122 81.4649 110.65 81.3882C108.968 81.3338 107.315 81.312 106.693 79.2767C106.635 79.0873 106.343 78.8217 106.18 78.8323C104.495 78.9607 104.189 71.8182 106.26 72.0844ZM134.105 83.2234C134.374 83.8202 134.727 84.3957 135.233 84.8104C135.739 85.229 136.42 85.4654 137.061 85.3309C137.72 85.1925 138.251 84.6831 138.567 84.0897C138.888 83.4963 139.019 82.8266 139.132 82.1643C139.27 81.3271 139.383 80.4826 139.427 79.6381C139.466 78.8772 139.452 78.1167 139.358 77.363C139.154 75.7649 138.244 72.1578 135.954 72.9002C135.47 73.0566 135.055 73.3878 134.716 73.7666C133.566 75.0554 133.246 76.8862 133.238 78.6121C133.238 78.7287 133.238 78.8452 133.242 78.9618C133.246 79.3042 133.264 79.646 133.296 79.9844C133.399 81.1013 133.646 82.2007 134.105 83.2234ZM132.31 67.8468C132.58 67.9561 132.911 67.9376 133.213 67.9309C136.566 67.8328 138.32 69.6635 139.092 72.7394C139.493 74.3264 140.099 75.8618 140.403 77.4645C140.586 78.4339 142.633 78.7993 148.301 78.6138C153.691 78.4373 166.482 77.5883 166.842 77.5373C167.304 77.4717 167.927 77.5115 167.901 76.8273C167.865 75.9285 167.137 76.2451 166.66 76.2776C161.578 76.6379 145.503 77.4936 142.554 77.0604C141.637 76.9293 141.182 76.5544 140.999 75.641C140.723 74.2832 140.326 72.9473 139.97 71.5638C141.258 71.2578 153.533 74.949 153.442 74.727C152.863 73.2931 152.883 72.2306 154.5 72.1942L165.218 72.1499C166.51 72.0518 166.621 73.0644 166.169 74.4222C166.038 74.8156 168.734 71.4545 168.567 71.2393C168.312 70.9042 167.908 71.032 167.566 71.0465C164.053 71.1995 140.73 70.7989 140.73 70.7989C139.7 70.6896 139.463 70.0597 139.158 69.3391C137.934 66.4963 136.027 64.6028 132.7 64.6869C132.7 64.6869 131.188 64.5659 131.221 65.4182C131.257 66.3719 130.985 67.3229 132.31 67.8468ZM134.058 63.6351C136.231 63.9736 137.72 65.1346 138.837 66.8931C139.288 67.6064 139.823 67.9779 140.683 68.1601L167.166 68.7681C168.411 68.7574 169.08 67.9864 169.029 66.8438L168.56 60.989C168.567 59.6929 168.127 59.2014 166.78 59.165C161.931 59.0378 150.42 58.4225 149.514 58.4186C148.211 58.4079 147.854 56.868 147.88 56.0852L167.016 56.7039C166.612 55.9793 165.742 56.0852 165.131 56.0561L149.321 55.3792C147.77 55.3282 146.991 54.6439 146.686 53.1842L145.156 46.2602C144.683 44.058 145.076 43.5991 147.322 43.8647L164.333 45.947C163.929 44.8694 162.983 44.9893 162.233 44.8986C156.878 44.2396 151.52 43.6243 146.165 42.9911C145.746 42.9401 145.135 43.0056 144.949 42.7619C143.686 41.1054 142.102 41.7975 140.632 42.1432C138.095 42.74 134.869 43.7728 132.343 44.4065C131.01 44.7416 131.171 45.2196 131.186 46.5953C131.215 49.6275 131.193 52.6636 131.12 55.6924C131.094 56.6859 130.985 63.1549 134.058 63.6351ZM113.253 80.1145C114.236 81.363 115.426 81.3557 116.366 80.0523C117.21 78.88 117.429 77.5188 117.425 76.1061C117.447 74.6934 117.228 73.3323 116.427 72.1421C115.466 70.7148 114.228 70.7002 113.213 72.0474C111.779 73.9554 111.801 78.2652 113.253 80.1145ZM107.549 79.878C108.455 81.2761 109.642 81.2834 110.585 79.9363C111.911 78.0467 111.903 73.7839 110.571 71.942C109.61 70.6094 108.449 70.6459 107.524 72.0328C106.967 72.8666 106.596 74.3807 106.585 75.8696C106.584 77.2823 106.763 78.6659 107.549 79.878Z" fill="#EAEAEA"/>
<path d="M148.447 40.3415C148.782 37.6759 148.778 37.6983 146.31 37.2208L125.435 33.1374C124.712 32.9945 124.061 32.8701 123.34 33.2686C117.504 36.4929 106.404 41.0923 106.924 40.8452C110.847 39.7244 116.463 38.2659 121.095 36.0127C122.172 35.4888 122.66 35.3828 122.663 36.8958C122.679 45.8713 122.749 54.8467 122.869 63.8211C122.886 65.0763 122.325 65.3016 121.289 65.4321C114.194 66.3293 107.27 67.015 106.644 67.1826C108.325 67.1826 115.684 67.9392 123.744 67.7549C125.124 67.7235 124.93 66.9037 124.92 66.0665C124.8 56.3037 124.677 46.5404 124.559 36.7776C124.534 34.6953 124.542 34.7009 126.656 35.106L144.691 38.5534C145.648 38.7372 146.777 38.5797 147.126 39.956C147.183 40.1785 147.98 40.2149 148.447 40.3415Z" fill="#EAEAEA"/>
<path d="M159.88 67.4627C162.3 67.4627 164.465 67.7042 166.884 67.7428C167.98 67.7602 168.242 66.7769 168.147 65.6719C168.027 64.2861 167.948 62.8947 167.917 61.5044C167.899 60.7283 167.608 60.3388 166.821 60.2789C165.021 60.1421 163.126 60.071 161.757 61.4405C160.917 62.4419 159.301 62.3175 158.452 61.3834C157.201 60.0065 155.731 60.0592 154.173 60.0357C149.073 59.9589 149.566 59.3268 150.354 64.5567C150.762 67.2639 150.785 67.2583 153.446 67.2532C155.442 67.2499 157.078 67.4627 159.88 67.4627Z" fill="#EAEAEA"/>
<path d="M136.663 49.4425C136.981 55.1465 135.928 53.9467 141.478 54.6741C145.322 55.1779 145.011 55.2317 144.384 51.4082C144.081 49.559 143.78 47.7098 143.466 45.8623C143.129 43.8842 142.599 43.4964 140.614 43.9721C135.737 45.1416 136.657 44.2344 136.663 49.4425Z" fill="#EAEAEA"/>
<path d="M138.146 75.6471C137.489 74.5084 136.824 74.4014 136.092 75.2924C134.817 76.8446 134.817 81.689 136.092 83.2743C136.405 83.6637 136.742 84.005 137.421 83.7069C136.142 82.8097 136.038 81.4424 135.915 80.1171C135.785 78.7229 135.921 77.3372 136.518 76.0427C136.859 75.2985 137.394 75.0665 138.146 75.6471Z" fill="#EAEAEA"/>
<path d="M114.872 72.9523C113.402 74.161 113.164 76.4025 114.321 78.8115C114.048 76.6031 113.545 74.6805 114.872 72.9523Z" fill="#EAEAEA"/>
<path d="M109.163 72.9264C107.525 74.1732 107.412 76.9263 108.854 78.8977C108.061 76.1272 108.162 74.5296 109.163 72.9264Z" fill="#EAEAEA"/>
<path d="M46.5905 42.5827H50.8705V58.6326C50.8705 61.3229 49.6069 62.668 47.0796 62.668H43.2888C40.7616 62.668 39.498 61.3229 39.498 58.6326V42.5827H43.778V58.9995C43.778 59.1625 43.8289 59.3052 43.9308 59.4275C44.0531 59.5498 44.1958 59.6109 44.3588 59.6109H46.0097C46.1727 59.6109 46.3052 59.5498 46.4071 59.4275C46.5294 59.3052 46.5905 59.1625 46.5905 58.9995V42.5827ZM59.5771 54.5055V51.3567H65.2327V58.6326C65.2327 61.3229 63.9691 62.668 61.4419 62.668H57.5899C55.0627 62.668 53.7991 61.3229 53.7991 58.6326V46.3124C53.7991 43.6222 55.0627 42.277 57.5899 42.277H61.4419C63.9691 42.277 65.2327 43.6222 65.2327 46.3124V48.1773H61.1668V45.7927C61.1668 45.6297 61.1056 45.487 60.9833 45.3647C60.8814 45.2424 60.749 45.1813 60.5859 45.1813H58.6599C58.4969 45.1813 58.3542 45.2424 58.2319 45.3647C58.13 45.487 58.0791 45.6297 58.0791 45.7927V59.1218C58.0791 59.2848 58.13 59.4275 58.2319 59.5498C58.3542 59.672 58.4969 59.7332 58.6599 59.7332H60.5859C60.749 59.7332 60.8814 59.672 60.9833 59.5498C61.1056 59.4275 61.1668 59.2848 61.1668 59.1218V54.5055H59.5771ZM71.8719 54.2609V62.3623H67.592V42.5827H75.2042C77.7314 42.5827 78.995 43.9279 78.995 46.6181V48.911C78.995 50.5414 78.4142 51.5809 77.2525 52.0292C78.2715 52.3961 78.781 53.2317 78.781 54.5361V62.3623H74.5011V54.8724C74.5011 54.4647 74.3074 54.2609 73.9202 54.2609H71.8719ZM71.8719 45.487V51.265H74.1342C74.2973 51.265 74.4297 51.2038 74.5316 51.0815C74.6539 50.9592 74.7151 50.8166 74.7151 50.6535V46.0984C74.7151 45.9354 74.6539 45.7927 74.5316 45.6704C74.4297 45.5481 74.2973 45.487 74.1342 45.487H71.8719ZM86.0231 58.816H90.7616V62.3623H81.7431V42.5827H90.7616V46.0679H86.0231V50.7147H90.4559V54.0775H86.0231V58.816ZM99.0151 54.5055V51.3567H104.671V58.6326C104.671 61.3229 103.407 62.668 100.88 62.668H97.028C94.5008 62.668 93.2371 61.3229 93.2371 58.6326V46.3124C93.2371 43.6222 94.5008 42.277 97.028 42.277H100.88C103.407 42.277 104.671 43.6222 104.671 46.3124V48.1773H100.605V45.7927C100.605 45.6297 100.544 45.487 100.421 45.3647C100.319 45.2424 100.187 45.1813 100.024 45.1813H98.098C97.9349 45.1813 97.7923 45.2424 97.67 45.3647C97.5681 45.487 97.5171 45.6297 97.5171 45.7927V59.1218C97.5171 59.2848 97.5681 59.4275 97.67 59.5498C97.7923 59.672 97.9349 59.7332 98.098 59.7332H100.024C100.187 59.7332 100.319 59.672 100.421 59.5498C100.544 59.4275 100.605 59.2848 100.605 59.1218V54.5055H99.0151ZM114.887 42.277C117.414 42.277 118.678 43.6222 118.678 46.3124V62.3623H114.398V55.7284H111.31V62.3623H107.03V46.3124C107.03 43.6222 108.294 42.277 110.821 42.277H114.887ZM111.31 52.4267H114.398V45.7927C114.398 45.6297 114.337 45.487 114.214 45.3647C114.112 45.2424 113.98 45.1813 113.817 45.1813H111.891C111.728 45.1813 111.585 45.2424 111.463 45.3647C111.361 45.487 111.31 45.6297 111.31 45.7927V52.4267Z" fill="white"/>
</svg>
