<svg width="208" height="120" viewBox="0 0 208 120" fill="none" xmlns="http://www.w3.org/2000/svg">
<path fill-rule="evenodd" clip-rule="evenodd" d="M36.9755 70.4525C43.7577 70.4525 50.1281 72.088 55.6575 74.9555C55.7632 75.0103 55.7632 75.1608 55.6575 75.2156C50.1281 78.083 43.7577 79.7185 36.9755 79.7185C30.1934 79.7185 23.8229 78.083 18.2935 75.2156C18.1878 75.1608 18.1878 75.0103 18.2935 74.9555C23.823 72.088 30.1934 70.4525 36.9755 70.4525Z" fill="#EAEAEA"/>
<path d="M37.3314 43.1076C37.1206 42.9493 36.8305 42.9493 36.6197 43.1076L30.8266 47.4599C30.6777 47.5718 30.5901 47.7472 30.5901 47.9335V56.1772V56.2547C30.5901 56.5106 30.4249 56.7373 30.1813 56.8157L28.2655 57.4326C28.1132 57.4816 27.9463 57.449 27.8236 57.3462L27.8095 57.3344L23.8485 54.0139C23.6248 53.8263 23.2976 53.8298 23.0778 54.0221L17.4216 58.9712C17.2738 59.1005 17.1997 59.2948 17.2238 59.4897L18.8984 73.0439C18.9443 73.4157 19.3193 73.6519 19.6762 73.5381C22.0893 72.7692 24.6579 72.156 27.3451 71.721C30.4238 71.2228 33.6527 70.9568 36.9756 70.9568C40.2984 70.9568 43.5273 71.2228 46.606 71.721C49.2931 72.156 51.8618 72.7692 54.2749 73.5382C54.6318 73.6519 55.0068 73.4157 55.0527 73.0439L56.7274 59.4897C56.7514 59.2948 56.6773 59.1005 56.5295 58.9712L50.8733 54.0222C50.6535 53.8299 50.3264 53.8265 50.1026 54.0141L46.1416 57.3345L46.1276 57.3463C46.0049 57.4492 45.838 57.4818 45.6856 57.4327L43.7698 56.8158C43.5262 56.7374 43.361 56.5107 43.361 56.2548V56.1774V47.9335C43.361 47.7472 43.2734 47.5718 43.1245 47.4599L37.3314 43.1076ZM29.7489 46.7111L36.6852 41.4999C36.8572 41.3706 37.094 41.3706 37.2661 41.4999L44.2023 46.7111L44.226 46.7289C44.3751 46.8408 44.4627 47.0163 44.4627 47.2027L44.4627 47.2722V55.2387C44.4627 55.4959 44.6287 55.7238 44.8735 55.8026L45.4134 55.9765C45.6072 56.0389 45.8195 55.9974 45.9756 55.8666L50.184 52.3386C50.3686 52.184 50.6395 52.1878 50.8207 52.3464L57.6813 58.3492L57.715 58.3787C57.8628 58.508 57.9369 58.7023 57.9128 58.8972L57.9029 58.9775L55.9606 74.6985L55.9517 74.7704C55.923 75.0022 55.7547 75.1925 55.5281 75.2491C55.5269 75.2494 55.5256 75.2496 55.5244 75.2495L55.3474 75.2408C55.2905 75.238 55.2345 75.2271 55.1807 75.2084C52.4767 74.2675 49.5504 73.5294 46.4598 73.0292C43.4437 72.5411 40.2645 72.2805 36.9756 72.2805C33.6866 72.2805 30.5075 72.5411 27.4915 73.0292C24.4008 73.5294 21.4746 74.2675 18.7705 75.2084C18.7168 75.2271 18.6607 75.238 18.6039 75.2408L18.427 75.2495C18.4257 75.2496 18.4244 75.2494 18.4231 75.2491C18.1966 75.1925 18.0282 75.0022 17.9996 74.7705L17.9907 74.6985L16.0484 58.9775L16.0385 58.8971C16.0144 58.7022 16.0885 58.5081 16.2363 58.3787L16.27 58.3492L23.1305 52.3464C23.3118 52.1879 23.5827 52.184 23.7673 52.3386L27.9757 55.8666C28.1318 55.9974 28.3441 56.0389 28.5379 55.9765L29.0778 55.8026C29.3226 55.7238 29.4886 55.4959 29.4886 55.2387V47.2721V47.2025C29.4886 47.0162 29.5763 46.8407 29.7252 46.7288L29.7489 46.7111Z" fill="#EAEAEA"/>
<path fill-rule="evenodd" clip-rule="evenodd" d="M44.9225 57.1425C44.4349 56.8036 44.6938 56.0378 45.2871 56.0642L45.4761 56.0727C45.6242 56.0793 45.7694 56.0301 45.8831 55.9348L49.2668 53.0983C49.6732 52.7576 50.2882 53.0816 50.2371 53.6095L49.6783 59.374C49.6347 59.8246 49.1222 60.0617 48.7505 59.8033L44.9225 57.1425ZM28.8032 57.1406C29.2926 56.8015 29.032 56.0333 28.4373 56.0619L28.2339 56.0717C28.0851 56.0789 27.939 56.0297 27.8248 55.934L24.442 53.0982C24.0356 52.7575 23.4206 53.0815 23.4718 53.6094L24.0307 59.3756C24.0743 59.8258 24.586 60.063 24.9578 59.8054L28.8032 57.1406Z" fill="#EAEAEA"/>
<path d="M43.4189 71.724V65.4436C43.4189 64.945 43.4189 64.6957 43.3654 64.4661C43.3181 64.2628 43.2402 64.0715 43.1357 63.9017C43.0178 63.71 42.8541 63.557 42.5266 63.2509L42.5266 63.2509L37.6279 58.6717C37.3742 58.4345 37.2473 58.3159 37.1072 58.2703C36.9836 58.2301 36.8533 58.2301 36.7297 58.2703C36.5896 58.3159 36.4627 58.4345 36.2089 58.6717L31.3103 63.2509L31.3103 63.2509C30.9828 63.557 30.8191 63.71 30.7011 63.9017C30.5966 64.0715 30.5188 64.2628 30.4714 64.4661C30.418 64.6957 30.418 64.945 30.418 65.4436V71.724C30.418 72.6964 30.418 73.1825 30.5754 73.5539C30.7139 73.8806 30.9349 74.1462 31.2067 74.3126C31.5157 74.5019 31.9202 74.5019 32.7292 74.5019H41.1076C41.9166 74.5019 42.3212 74.5019 42.6302 74.3126C42.902 74.1462 43.123 73.8806 43.2615 73.5539C43.4189 73.1825 43.4189 72.6964 43.4189 71.724Z" stroke="#EAEAEA" stroke-width="1.73615" stroke-linecap="round" stroke-linejoin="round"/>
<path d="M87.4705 50.1193L79.629 71H75.6631L67.7915 50.1193H71.4569L77.646 67.4848L83.8652 50.1193H87.4705ZM90.1245 52.2524C89.5036 52.2524 88.9828 52.0421 88.5622 51.6215C88.1416 51.2009 87.9313 50.6801 87.9313 50.0592C87.9313 49.4383 88.1416 48.9175 88.5622 48.4969C88.9828 48.0763 89.5036 47.866 90.1245 47.866C90.7254 47.866 91.2361 48.0763 91.6567 48.4969C92.0774 48.9175 92.2877 49.4383 92.2877 50.0592C92.2877 50.6801 92.0774 51.2009 91.6567 51.6215C91.2361 52.0421 90.7254 52.2524 90.1245 52.2524ZM91.807 54.4456V71H88.3819V54.4456H91.807ZM97.7759 56.8792C98.3568 56.1181 99.1479 55.4772 100.149 54.9564C101.151 54.4356 102.283 54.1752 103.544 54.1752C104.987 54.1752 106.298 54.5358 107.48 55.2568C108.682 55.9579 109.623 56.9493 110.304 58.2312C110.985 59.5131 111.326 60.9853 111.326 62.6477C111.326 64.3102 110.985 65.8024 110.304 67.1243C109.623 68.4262 108.682 69.4477 107.48 70.1888C106.298 70.9099 104.987 71.2704 103.544 71.2704C102.283 71.2704 101.161 71.02 100.179 70.5193C99.198 69.9985 98.3968 69.3576 97.7759 68.5965V78.8716H94.3509V54.4456H97.7759V56.8792ZM107.841 62.6477C107.841 61.506 107.6 60.5246 107.12 59.7034C106.659 58.8621 106.038 58.2312 105.257 57.8106C104.496 57.3699 103.675 57.1496 102.793 57.1496C101.932 57.1496 101.111 57.3699 100.33 57.8106C99.5685 58.2512 98.9476 58.8922 98.4669 59.7334C98.0062 60.5747 97.7759 61.5661 97.7759 62.7078C97.7759 63.8495 98.0062 64.851 98.4669 65.7122C98.9476 66.5535 99.5685 67.1944 100.33 67.635C101.111 68.0757 101.932 68.296 102.793 68.296C103.675 68.296 104.496 68.0757 105.257 67.635C106.038 67.1744 106.659 66.5134 107.12 65.6521C107.6 64.7909 107.841 63.7894 107.841 62.6477ZM128.503 49.9991V71H126.4V61.1755H115.013V71H112.91V49.9991H115.013V59.433H126.4V49.9991H128.503ZM138.529 71.2404C136.987 71.2404 135.595 70.8999 134.353 70.2189C133.131 69.5178 132.16 68.5364 131.439 67.2745C130.738 65.9926 130.387 64.5004 130.387 62.7979C130.387 61.0954 130.748 59.6132 131.469 58.3514C132.19 57.0695 133.171 56.0881 134.413 55.4071C135.655 54.706 137.047 54.3555 138.589 54.3555C140.132 54.3555 141.524 54.706 142.765 55.4071C144.027 56.0881 145.009 57.0695 145.71 58.3514C146.431 59.6132 146.791 61.0954 146.791 62.7979C146.791 64.4804 146.431 65.9626 145.71 67.2445C144.989 68.5264 143.997 69.5178 142.735 70.2189C141.474 70.8999 140.072 71.2404 138.529 71.2404ZM138.529 69.4077C139.611 69.4077 140.612 69.1673 141.534 68.6866C142.455 68.1859 143.196 67.4448 143.757 66.4633C144.338 65.4619 144.628 64.2401 144.628 62.7979C144.628 61.3558 144.348 60.144 143.787 59.1626C143.226 58.1611 142.485 57.42 141.564 56.9393C140.642 56.4386 139.641 56.1882 138.559 56.1882C137.478 56.1882 136.476 56.4386 135.555 56.9393C134.634 57.42 133.892 58.1611 133.332 59.1626C132.791 60.144 132.52 61.3558 132.52 62.7979C132.52 64.2401 132.791 65.4619 133.332 66.4633C133.892 67.4448 134.623 68.1859 135.525 68.6866C136.446 69.1673 137.448 69.4077 138.529 69.4077ZM154.321 71.2404C152.438 71.2404 150.895 70.8097 149.694 69.9485C148.512 69.0672 147.851 67.8754 147.711 66.3732H149.874C149.974 67.2945 150.405 68.0457 151.166 68.6265C151.947 69.1873 152.989 69.4677 154.29 69.4677C155.432 69.4677 156.323 69.1973 156.964 68.6566C157.625 68.1158 157.956 67.4448 157.956 66.6436C157.956 66.0828 157.776 65.6221 157.415 65.2616C157.055 64.901 156.594 64.6206 156.033 64.4203C155.492 64.2 154.751 63.9697 153.81 63.7293C152.588 63.4088 151.597 63.0884 150.835 62.7679C150.074 62.4474 149.423 61.9767 148.883 61.3558C148.362 60.7149 148.101 59.8636 148.101 58.802C148.101 58.0009 148.342 57.2598 148.822 56.5788C149.303 55.8978 149.984 55.357 150.865 54.9564C151.747 54.5558 152.748 54.3555 153.87 54.3555C155.632 54.3555 157.055 54.8062 158.136 55.7075C159.218 56.5888 159.799 57.8106 159.879 59.3729H157.776C157.716 58.4115 157.335 57.6403 156.634 57.0595C155.953 56.4586 155.012 56.1582 153.81 56.1582C152.748 56.1582 151.887 56.4085 151.226 56.9093C150.565 57.41 150.235 58.0309 150.235 58.772C150.235 59.4129 150.425 59.9437 150.805 60.3643C151.206 60.7649 151.697 61.0854 152.278 61.3258C152.858 61.5461 153.64 61.7965 154.621 62.0769C155.803 62.3973 156.744 62.7078 157.445 63.0082C158.146 63.3087 158.747 63.7493 159.248 64.3302C159.749 64.911 160.009 65.6822 160.029 66.6436C160.029 67.5249 159.789 68.3161 159.308 69.0171C158.827 69.6981 158.156 70.2389 157.295 70.6395C156.434 71.0401 155.442 71.2404 154.321 71.2404ZM164.769 56.3685V66.5535C164.769 67.5549 164.959 68.2459 165.34 68.6265C165.72 69.0071 166.391 69.1973 167.353 69.1973H169.275V71H167.022C165.54 71 164.438 70.6595 163.717 69.9785C162.996 69.2775 162.636 68.1358 162.636 66.5535V56.3685H160.352V54.5959H162.636V50.4798H164.769V54.5959H169.275V56.3685H164.769ZM185.633 61.9567C185.633 62.6778 185.613 63.2286 185.573 63.6091H171.963C172.023 64.851 172.323 65.9125 172.864 66.7938C173.405 67.6751 174.116 68.3461 174.997 68.8068C175.879 69.2474 176.84 69.4677 177.882 69.4677C179.244 69.4677 180.385 69.1373 181.307 68.4763C182.248 67.8153 182.869 66.924 183.169 65.8024H185.393C184.992 67.4047 184.131 68.7166 182.809 69.7381C181.507 70.7396 179.864 71.2404 177.882 71.2404C176.339 71.2404 174.957 70.8999 173.735 70.2189C172.514 69.5178 171.552 68.5364 170.851 67.2745C170.17 65.9926 169.83 64.5004 169.83 62.7979C169.83 61.0954 170.17 59.6032 170.851 58.3213C171.532 57.0395 172.484 56.058 173.705 55.377C174.927 54.696 176.319 54.3555 177.882 54.3555C179.444 54.3555 180.806 54.696 181.968 55.377C183.149 56.058 184.051 56.9794 184.672 58.1411C185.312 59.2828 185.633 60.5546 185.633 61.9567ZM183.5 61.8966C183.52 60.6748 183.269 59.6333 182.749 58.772C182.248 57.9107 181.557 57.2598 180.676 56.8191C179.794 56.3785 178.833 56.1582 177.791 56.1582C176.229 56.1582 174.897 56.6589 173.796 57.6604C172.694 58.6618 172.083 60.0739 171.963 61.8966H183.5ZM189.631 48.7673V71H187.528V48.7673H189.631Z" fill="white"/>
</svg>
