<svg width="208" height="120" viewBox="0 0 208 120" fill="none" xmlns="http://www.w3.org/2000/svg">
<path d="M54.7844 65.6001L52.7772 58.4112C52.5712 57.6734 51.6518 57.4231 51.1003 57.9547L45.7008 63.159C45.134 63.7054 45.3807 64.6613 46.1412 64.8651L53.5478 66.8497C54.3048 67.0526 54.9951 66.355 54.7844 65.6001Z" fill="#ECC5C5"/>
<path d="M39.6523 61.136L54.0029 64.9812C54.7473 65.1807 55.0045 66.1058 54.4698 66.6608L43.9931 77.535C43.4454 78.1035 42.4866 77.8538 42.2857 77.0904L38.4118 62.371C38.2141 61.6196 38.9018 60.9349 39.6523 61.136Z" fill="#D9D9D9"/>
<path d="M54.7844 65.6001L52.7772 58.4112C52.5712 57.6734 51.6518 57.4231 51.1003 57.9547L45.7008 63.159C45.134 63.7054 45.3807 64.6613 46.1412 64.8651L53.5478 66.8497C54.3048 67.0526 54.9951 66.355 54.7844 65.6001Z" fill="#EAEAEA"/>
<path d="M44.2151 51.8723L42.2079 44.6834C42.0019 43.9456 41.0825 43.6953 40.5309 44.2269L35.1315 49.4313C34.5646 49.9776 34.8114 50.9336 35.5718 51.1373L42.9785 53.1219C43.7355 53.3248 44.4258 52.6272 44.2151 51.8723Z" fill="#EAEAEA"/>
<path d="M37.7024 68.3562L35.6952 61.1672C35.4892 60.4294 34.5698 60.1791 34.0182 60.7108L28.6188 65.9151C28.0519 66.4615 28.2987 67.4174 29.0591 67.6212L36.4658 69.6058C37.2228 69.8086 37.9131 69.111 37.7024 68.3562Z" fill="#EAEAEA"/>
<path d="M39.6523 61.136L54.0029 64.9812C54.7473 65.1807 55.0045 66.1058 54.4698 66.6608L43.9931 77.535C43.4454 78.1035 42.4866 77.8538 42.2857 77.0904L38.4118 62.371C38.2141 61.6196 38.9018 60.9349 39.6523 61.136Z" fill="white"/>
<path d="M41.9629 43.5255L56.3135 47.3708C57.0579 47.5702 57.315 48.4954 56.7803 49.0504L46.3036 59.9245C45.7559 60.493 44.7972 60.2433 44.5962 59.4799L40.7224 44.7606C40.5246 44.0092 41.2124 43.3244 41.9629 43.5255Z" fill="white"/>
<path d="M25.3438 50.8068L39.6943 54.652C40.4387 54.8515 40.6959 55.7766 40.1612 56.3316L29.6845 67.2057C29.1368 67.7742 28.178 67.5246 27.9771 66.7612L24.1032 52.0418C23.9055 51.2904 24.5932 50.6057 25.3438 50.8068Z" fill="white"/>
<path d="M152.638 51.8167C152.477 51.671 152.434 51.5435 152.51 51.4343L152.747 51.0928C152.829 50.9744 152.961 50.9835 153.143 51.1201C153.383 51.2992 153.632 51.4464 153.89 51.5618C154.151 51.6771 154.466 51.7348 154.837 51.7348C155.11 51.7348 155.341 51.6938 155.529 51.6118C155.717 51.5299 155.867 51.413 155.98 51.2613C156.095 51.1064 156.153 50.9198 156.153 50.7012C156.153 50.5434 156.128 50.3977 156.08 50.2641C156.034 50.1275 155.96 50.0137 155.857 49.9226C155.754 49.8316 155.646 49.7602 155.533 49.7086C155.348 49.6236 155.071 49.525 154.7 49.4127C154.333 49.3004 154.011 49.179 153.735 49.0484C153.462 48.9179 153.243 48.7601 153.079 48.5749C152.918 48.3897 152.811 48.2 152.756 48.0058C152.704 47.8085 152.679 47.5838 152.679 47.3319C152.679 46.9464 152.791 46.614 153.016 46.3348C153.24 46.0555 153.515 45.8703 153.84 45.7793C154.168 45.6882 154.5 45.6427 154.837 45.6427C155.222 45.6427 155.558 45.6928 155.843 45.7929C156.128 45.8931 156.383 46.0236 156.608 46.1845C156.766 46.2968 156.802 46.4152 156.717 46.5397L156.485 46.872C156.415 46.9722 156.279 46.951 156.075 46.8083C155.92 46.699 155.731 46.5973 155.506 46.5032C155.285 46.4061 155.064 46.3575 154.846 46.3575C154.567 46.3575 154.334 46.3909 154.149 46.4577C153.964 46.5214 153.818 46.6307 153.712 46.7855C153.606 46.9403 153.553 47.1194 153.553 47.3228C153.553 47.4503 153.565 47.5687 153.589 47.6779C153.614 47.7842 153.676 47.8935 153.776 48.0058C153.876 48.1181 153.998 48.2046 154.14 48.2653C154.331 48.3473 154.627 48.4444 155.028 48.5567C155.432 48.666 155.784 48.801 156.084 48.9619C156.364 49.1107 156.564 49.267 156.685 49.4309C156.81 49.5918 156.905 49.7678 156.972 49.9591C157.042 50.1473 157.077 50.3597 157.077 50.5965C157.077 51.0275 156.966 51.3872 156.745 51.6756C156.523 51.964 156.26 52.1643 155.957 52.2766C155.653 52.3889 155.272 52.4451 154.814 52.4451C154.265 52.4451 153.809 52.3813 153.448 52.2538C153.087 52.1263 152.817 51.9806 152.638 51.8167ZM157.769 47.7508C157.714 47.6021 157.755 47.5277 157.892 47.5277H158.388C158.488 47.5277 158.557 47.5869 158.593 47.7053L159.549 50.7103C159.577 50.7923 159.618 50.9213 159.672 51.0973C159.73 51.2704 159.771 51.4252 159.795 51.5618H159.804C159.829 51.4252 159.857 51.3022 159.891 51.193C159.927 51.0806 159.98 50.9198 160.05 50.7103L161.015 47.7053C161.055 47.5869 161.123 47.5277 161.22 47.5277H161.717C161.853 47.5277 161.894 47.6021 161.84 47.7508L160.305 52.0307C160.017 52.8351 159.759 53.3982 159.531 53.7199C159.303 54.0447 158.963 54.2071 158.511 54.2071C158.274 54.2071 158.086 54.1722 157.947 54.1024C157.883 54.072 157.862 54.025 157.883 53.9613L158.001 53.5925C158.022 53.5287 158.063 53.5105 158.124 53.5378C158.249 53.5894 158.369 53.6152 158.484 53.6152C158.696 53.6152 158.869 53.4999 159.003 53.2692C159.136 53.0415 159.243 52.8124 159.322 52.5817L159.413 52.313L157.769 47.7508ZM162.422 51.8623C162.328 51.7742 162.308 51.6923 162.363 51.6164L162.568 51.3295C162.635 51.2385 162.733 51.243 162.864 51.3432C163.043 51.4798 163.242 51.5891 163.46 51.671C163.682 51.753 163.934 51.794 164.216 51.794C164.383 51.794 164.532 51.7742 164.662 51.7348C164.793 51.6923 164.907 51.6149 165.004 51.5026C165.104 51.3903 165.154 51.24 165.154 51.0518C165.154 50.9425 165.13 50.8393 165.081 50.7422C165.036 50.6451 164.963 50.5677 164.863 50.51C164.766 50.4493 164.67 50.4022 164.576 50.3688C164.421 50.3112 164.266 50.2641 164.112 50.2277C163.96 50.1882 163.759 50.129 163.511 50.0501C163.344 49.9985 163.186 49.9257 163.037 49.8316C162.888 49.7344 162.758 49.6039 162.645 49.44C162.536 49.2761 162.482 49.05 162.482 48.7616C162.482 48.4672 162.571 48.2137 162.75 48.0012C162.929 47.7887 163.154 47.6446 163.424 47.5687C163.694 47.4897 163.957 47.4503 164.212 47.4503C164.588 47.4503 164.89 47.4943 165.118 47.5823C165.348 47.6673 165.547 47.769 165.714 47.8874C165.811 47.9572 165.825 48.0376 165.755 48.1287L165.55 48.4019C165.487 48.4899 165.388 48.4869 165.254 48.3928C165.142 48.3139 164.983 48.2395 164.776 48.1697C164.57 48.0999 164.389 48.065 164.234 48.065C164.043 48.065 163.879 48.0862 163.743 48.1287C163.606 48.1712 163.495 48.244 163.41 48.3473C163.325 48.4505 163.283 48.5719 163.283 48.7115C163.283 48.8177 163.3 48.9134 163.333 48.9983C163.366 49.0803 163.429 49.1562 163.52 49.226C163.611 49.2958 163.738 49.352 163.902 49.3945C164.157 49.4612 164.389 49.522 164.599 49.5766C164.811 49.6312 165.002 49.698 165.172 49.7769C165.394 49.8801 165.564 49.994 165.682 50.1184C165.804 50.2429 165.887 50.3779 165.933 50.5236C165.978 50.6663 166.001 50.8257 166.001 51.0017C166.001 51.3265 165.904 51.6012 165.71 51.8258C165.518 52.0505 165.304 52.2007 165.068 52.2766C164.831 52.3494 164.546 52.3859 164.212 52.3859C163.759 52.3859 163.371 52.3221 163.046 52.1946C162.724 52.0641 162.516 51.9533 162.422 51.8623ZM166.675 48.1287C166.538 48.1287 166.47 48.0756 166.47 47.9693V47.687C166.47 47.5808 166.538 47.5277 166.675 47.5277H167.212V47.1179C167.212 47.0572 167.227 46.9995 167.258 46.9449L167.576 46.3666C167.634 46.2604 167.681 46.2073 167.718 46.2073H167.877C167.968 46.2073 168.014 46.2604 168.014 46.3666V47.5277H168.983C169.12 47.5277 169.188 47.5808 169.188 47.687V47.9693C169.188 48.0756 169.12 48.1287 168.983 48.1287H168.014V51.029C168.014 51.3478 168.061 51.5557 168.155 51.6528C168.252 51.7469 168.367 51.794 168.501 51.794C168.604 51.794 168.727 51.7636 168.87 51.7029C169.015 51.6422 169.115 51.5906 169.17 51.5481C169.225 51.5056 169.267 51.5193 169.298 51.5891L169.448 51.9397C169.472 52.0004 169.454 52.0489 169.393 52.0854C169.275 52.1552 169.102 52.2235 168.874 52.2903C168.646 52.354 168.419 52.3859 168.191 52.3859C167.875 52.3859 167.633 52.272 167.463 52.0444C167.296 51.8167 167.212 51.495 167.212 51.0791V48.1287H166.675ZM170.099 49.9181C170.099 49.1653 170.287 48.5658 170.663 48.1196C171.04 47.6734 171.579 47.4503 172.28 47.4503C172.863 47.4503 173.345 47.6552 173.728 48.065C174.113 48.4717 174.306 49.1228 174.306 50.0182C174.306 50.1548 174.244 50.2231 174.119 50.2231H170.946C170.997 50.809 171.155 51.2172 171.419 51.4479C171.683 51.6756 171.982 51.7894 172.316 51.7894C172.668 51.7894 172.939 51.7302 173.127 51.6118C173.315 51.4935 173.453 51.3766 173.541 51.2613C173.638 51.1338 173.732 51.1095 173.823 51.1884L174.092 51.4206C174.162 51.4813 174.162 51.5648 174.092 51.671C174.034 51.7591 173.869 51.9002 173.596 52.0945C173.326 52.2887 172.899 52.3859 172.316 52.3859C171.557 52.3859 170.997 52.1628 170.636 51.7166C170.278 51.2704 170.099 50.6709 170.099 49.9181ZM170.928 49.6312H173.5C173.488 49.2063 173.379 48.8344 173.172 48.5157C172.966 48.194 172.662 48.0331 172.262 48.0331C171.91 48.0331 171.611 48.1515 171.365 48.3882C171.119 48.622 170.973 49.0363 170.928 49.6312ZM175.563 52.3085C175.426 52.3085 175.358 52.2402 175.358 52.1036V47.7326C175.358 47.596 175.426 47.5277 175.563 47.5277H175.945C176.082 47.5277 176.15 47.596 176.15 47.7326V48.0968H176.168C176.366 47.8783 176.58 47.7159 176.81 47.6096C177.041 47.5034 177.262 47.4503 177.475 47.4503C177.867 47.4503 178.167 47.5489 178.376 47.7462C178.589 47.9405 178.726 48.1363 178.786 48.3336H178.804C178.971 48.0847 179.182 47.8752 179.437 47.7053C179.692 47.5353 179.964 47.4503 180.252 47.4503C180.735 47.4503 181.099 47.6066 181.345 47.9193C181.591 48.2289 181.714 48.6538 181.714 49.1941V52.1036C181.714 52.2402 181.646 52.3085 181.509 52.3085H181.117C180.981 52.3085 180.913 52.2402 180.913 52.1036V49.4582C180.913 48.8633 180.838 48.4793 180.689 48.3063C180.541 48.1302 180.312 48.0422 180.002 48.0422C179.698 48.0422 179.445 48.1727 179.242 48.4338C179.038 48.6918 178.937 49.0818 178.937 49.6039V52.1036C178.937 52.2402 178.868 52.3085 178.732 52.3085H178.34C178.203 52.3085 178.135 52.2402 178.135 52.1036V49.4582C178.135 48.8633 178.061 48.4793 177.912 48.3063C177.763 48.1302 177.534 48.0422 177.225 48.0422C176.921 48.0422 176.668 48.1606 176.464 48.3973C176.261 48.6311 176.159 49.0333 176.159 49.6039V52.1036C176.159 52.2402 176.091 52.3085 175.954 52.3085H175.563ZM182.811 51.8623C182.717 51.7742 182.697 51.6923 182.752 51.6164L182.957 51.3295C183.024 51.2385 183.122 51.243 183.253 51.3432C183.432 51.4798 183.631 51.5891 183.849 51.671C184.071 51.753 184.323 51.794 184.605 51.794C184.772 51.794 184.921 51.7742 185.051 51.7348C185.182 51.6923 185.296 51.6149 185.393 51.5026C185.493 51.3903 185.543 51.24 185.543 51.0518C185.543 50.9425 185.519 50.8393 185.47 50.7422C185.425 50.6451 185.352 50.5677 185.252 50.51C185.155 50.4493 185.059 50.4022 184.965 50.3688C184.81 50.3112 184.655 50.2641 184.5 50.2277C184.349 50.1882 184.148 50.129 183.899 50.0501C183.732 49.9985 183.575 49.9257 183.426 49.8316C183.277 49.7344 183.147 49.6039 183.034 49.44C182.925 49.2761 182.87 49.05 182.87 48.7616C182.87 48.4672 182.96 48.2137 183.139 48.0012C183.318 47.7887 183.543 47.6446 183.813 47.5687C184.083 47.4897 184.346 47.4503 184.601 47.4503C184.977 47.4503 185.279 47.4943 185.507 47.5823C185.737 47.6673 185.936 47.769 186.103 47.8874C186.2 47.9572 186.214 48.0376 186.144 48.1287L185.939 48.4019C185.875 48.4899 185.777 48.4869 185.643 48.3928C185.531 48.3139 185.372 48.2395 185.165 48.1697C184.959 48.0999 184.778 48.065 184.623 48.065C184.432 48.065 184.268 48.0862 184.132 48.1287C183.995 48.1712 183.884 48.244 183.799 48.3473C183.714 48.4505 183.672 48.5719 183.672 48.7115C183.672 48.8177 183.688 48.9134 183.722 48.9983C183.755 49.0803 183.817 49.1562 183.909 49.226C184 49.2958 184.127 49.352 184.291 49.3945C184.546 49.4612 184.778 49.522 184.988 49.5766C185.2 49.6312 185.391 49.698 185.561 49.7769C185.783 49.8801 185.953 49.994 186.071 50.1184C186.193 50.2429 186.276 50.3779 186.322 50.5236C186.367 50.6663 186.39 50.8257 186.39 51.0017C186.39 51.3265 186.293 51.6012 186.099 51.8258C185.907 52.0505 185.693 52.2007 185.457 52.2766C185.22 52.3494 184.935 52.3859 184.601 52.3859C184.148 52.3859 183.76 52.3221 183.435 52.1946C183.113 52.0641 182.905 51.9533 182.811 51.8623Z" fill="white"/>
<path d="M88.1259 50.7479L83.6617 72.4131H79.2912L76.4816 55.7115H76.3568L76.2007 57.1163L73.5784 72.4131H69.3952L64.6813 50.7479L67.7094 50.3733L71.4243 68.4484L71.5804 69.6971H71.7053L74.6398 52.4025L78.4171 52.0591L81.258 68.4484L81.3828 69.6971H81.5077L85.1914 50.3733L88.1259 50.7479ZM91.4791 58.3026C92.0202 57.491 92.7694 56.8458 93.7268 56.3671C94.705 55.8884 95.8392 55.6491 97.1295 55.6491C98.4407 55.6491 99.5333 55.8989 100.407 56.3983C101.302 56.8978 101.958 57.595 102.374 58.4899C103.103 60.0924 103.467 62.0592 103.467 64.3901C103.467 66.6378 102.946 68.5421 101.906 70.103C101.365 70.9354 100.605 71.591 99.627 72.0697C98.6696 72.5484 97.5354 72.7877 96.2242 72.7877C94.9339 72.7877 93.8413 72.538 92.9463 72.0385C92.0722 71.539 91.4271 70.8314 91.0108 69.9157C90.2824 68.334 89.9182 66.3776 89.9182 64.0467C89.9182 61.799 90.4385 59.8843 91.4791 58.3026ZM99.4397 59.2704C99.1691 58.9374 98.7945 58.6668 98.3158 58.4587C97.8371 58.2506 97.2544 58.1465 96.5676 58.1465C95.9016 58.1465 95.3293 58.2714 94.8506 58.5212C94.372 58.7709 94.0078 59.0727 93.758 59.4265C93.5083 59.7595 93.321 60.2381 93.1961 60.8625C93.0088 61.799 92.9151 62.8084 92.9151 63.8906C92.9151 64.9728 92.9359 65.7741 92.9776 66.2944C93.0192 66.7939 93.1128 67.3142 93.2585 67.8553C93.425 68.3964 93.654 68.8334 93.9453 69.1664C94.5697 69.9157 95.527 70.2903 96.8174 70.2903C97.4833 70.2903 98.0557 70.1654 98.5343 69.9157C99.013 69.6659 99.3772 69.3746 99.627 69.0416C99.8767 68.6878 100.064 68.1987 100.189 67.5743C100.376 66.6378 100.47 65.6284 100.47 64.5462C100.47 63.464 100.449 62.6731 100.407 62.1736C100.366 61.6533 100.262 61.1226 100.095 60.5815C99.9495 60.0404 99.731 59.6034 99.4397 59.2704ZM114.031 55.6491C114.572 55.6491 114.978 55.7011 115.249 55.8052C115.54 55.8884 115.78 55.9613 115.967 56.0237C116.154 56.0653 116.269 56.0966 116.31 56.1174L115.811 58.927C115.186 58.7189 114.437 58.6148 113.563 58.6148C112.71 58.6148 111.929 58.9894 111.222 59.7386C110.535 60.4671 110.192 61.3516 110.192 62.3922V72.4131H107.382V60.5191L107.132 56.1798L109.411 55.8676L109.754 59.0206H109.879C110.233 58.0009 110.764 57.1892 111.471 56.5856C112.2 55.9613 113.053 55.6491 114.031 55.6491ZM121.437 72.4131H118.628V49.1558L121.437 48.8436V72.4131ZM131.052 72.4131H127.494L121.531 64.1091L127.556 55.8676L130.334 56.7105L124.528 64.1404L131.052 72.4131ZM133.824 54.5253C133.824 52.4649 134.365 50.9768 135.448 50.0611C136.53 49.1454 137.883 48.6875 139.506 48.6875C140.692 48.6875 141.837 48.9061 142.94 49.3431L142.378 51.4347C141.483 51.2474 140.703 51.1537 140.037 51.1537C137.768 51.1537 136.634 52.2672 136.634 54.4941V56.0237H141.41L141.036 58.3963H136.634V72.4131H133.824V58.3963H131.421L131.733 56.211L133.824 56.0237V54.5253ZM146.404 67.4182C146.404 68.438 146.487 69.2185 146.654 69.7596C146.82 70.2799 147.195 70.8418 147.778 71.4453L145.686 73.0999C144.833 72.205 144.271 71.4453 144 70.821C143.73 70.1966 143.594 69.1352 143.594 67.6368V49.1558L146.404 48.8436V67.4182ZM151.933 58.3026C152.474 57.491 153.224 56.8458 154.181 56.3671C155.159 55.8884 156.293 55.6491 157.584 55.6491C158.895 55.6491 159.987 55.8989 160.861 56.3983C161.756 56.8978 162.412 57.595 162.828 58.4899C163.557 60.0924 163.921 62.0592 163.921 64.3901C163.921 66.6378 163.401 68.5421 162.36 70.103C161.819 70.9354 161.059 71.591 160.081 72.0697C159.124 72.5484 157.989 72.7877 156.678 72.7877C155.388 72.7877 154.295 72.538 153.4 72.0385C152.526 71.539 151.881 70.8314 151.465 69.9157C150.736 68.334 150.372 66.3776 150.372 64.0467C150.372 61.799 150.893 59.8843 151.933 58.3026ZM159.894 59.2704C159.623 58.9374 159.249 58.6668 158.77 58.4587C158.291 58.2506 157.708 58.1465 157.022 58.1465C156.356 58.1465 155.783 58.2714 155.305 58.5212C154.826 58.7709 154.462 59.0727 154.212 59.4265C153.962 59.7595 153.775 60.2381 153.65 60.8625C153.463 61.799 153.369 62.8084 153.369 63.8906C153.369 64.9728 153.39 65.7741 153.432 66.2944C153.473 66.7939 153.567 67.3142 153.713 67.8553C153.879 68.3964 154.108 68.8334 154.399 69.1664C155.024 69.9157 155.981 70.2903 157.271 70.2903C157.937 70.2903 158.51 70.1654 158.988 69.9157C159.467 69.6659 159.831 69.3746 160.081 69.0416C160.331 68.6878 160.518 68.1987 160.643 67.5743C160.83 66.6378 160.924 65.6284 160.924 64.5462C160.924 63.464 160.903 62.6731 160.861 62.1736C160.82 61.6533 160.716 61.1226 160.549 60.5815C160.404 60.0404 160.185 59.6034 159.894 59.2704ZM183.539 55.8364L186.13 56.1486L182.477 72.4131H178.825L176.046 60.2069H175.859L173.205 72.4131H169.553L165.869 56.1486L168.616 55.8364L171.395 69.6035H171.613L174.454 56.9603L177.607 56.6481L180.604 69.6035H180.823L183.539 55.8364Z" fill="white"/>
</svg>
