<svg width="14" height="13" viewBox="0 0 14 13" fill="none" xmlns="http://www.w3.org/2000/svg">
<g clip-path="url(#clip0_19105_256)">
<path d="M8.55601 1.55092C8.06482 1.39665 7.54214 1.31348 7.00004 1.31348C4.13558 1.31348 1.81348 3.63558 1.81348 6.50004C1.81348 9.3645 4.13558 11.6866 7.00004 11.6866C9.8645 11.6866 12.1866 9.3645 12.1866 6.50004C12.1866 5.61038 11.9626 4.77303 11.5679 4.04132M9.59332 3.25844H9.59592M6.22208 11.6286L6.22214 10.4859C6.22214 10.424 6.24429 10.3641 6.28457 10.3171L7.57384 8.81294C7.67979 8.68932 7.64696 8.49979 7.5056 8.41901L6.02421 7.57248C5.98396 7.54948 5.95061 7.51612 5.92763 7.47585L4.96196 5.78358C4.9117 5.69551 4.81472 5.64481 4.71372 5.65381L1.84677 5.90916M11.6679 3.3881C11.6679 4.53389 10.6306 5.46273 9.59332 6.50004C8.55601 5.46273 7.5187 4.53389 7.5187 3.3881C7.5187 2.24232 8.44754 1.31348 9.59332 1.31348C10.7391 1.31348 11.6679 2.24232 11.6679 3.3881ZM9.72299 3.25844C9.72299 3.33005 9.66493 3.3881 9.59332 3.3881C9.52171 3.3881 9.46366 3.33005 9.46366 3.25844C9.46366 3.18683 9.52171 3.12877 9.59332 3.12877C9.66493 3.12877 9.72299 3.18683 9.72299 3.25844Z" stroke="white" stroke-width="1.03731" stroke-linecap="round" stroke-linejoin="round"/>
</g>
<defs>
<clipPath id="clip0_19105_256">
<rect width="12.4478" height="12.4478" fill="white" transform="translate(0.776367 0.276123)"/>
</clipPath>
</defs>
</svg>
