<svg width="13" height="13" viewBox="0 0 13 13" fill="none" xmlns="http://www.w3.org/2000/svg">
<g clip-path="url(#clip0_19218_2065)">
<path d="M8 1.7289C7.52648 1.58018 7.0226 1.5 6.5 1.5C3.73858 1.5 1.5 3.73858 1.5 6.5C1.5 9.26142 3.73858 11.5 6.5 11.5C9.26142 11.5 11.5 9.26142 11.5 6.5C11.5 5.64234 11.2841 4.83511 10.9036 4.12972M9 3.375H9.0025M5.75003 11.4441L5.75008 10.3425C5.75008 10.2828 5.77143 10.2251 5.81026 10.1798L7.05316 8.7297C7.1553 8.61053 7.12365 8.42782 6.98738 8.34995L5.55927 7.53387C5.52047 7.5117 5.48832 7.47953 5.46617 7.44071L4.53523 5.80931C4.48678 5.72441 4.39329 5.67553 4.29592 5.68421L1.53209 5.93037M11 3.5C11 4.60457 10 5.5 9 6.5C8 5.5 7 4.60457 7 3.5C7 2.39543 7.89543 1.5 9 1.5C10.1046 1.5 11 2.39543 11 3.5ZM9.125 3.375C9.125 3.44404 9.06904 3.5 9 3.5C8.93097 3.5 8.875 3.44404 8.875 3.375C8.875 3.30596 8.93097 3.25 9 3.25C9.06904 3.25 9.125 3.30596 9.125 3.375Z" stroke="white" stroke-width="1.03731" stroke-linecap="round" stroke-linejoin="round"/>
</g>
<defs>
<clipPath id="clip0_19218_2065">
<rect width="12" height="12" fill="white" transform="translate(0.5 0.5)"/>
</clipPath>
</defs>
</svg>
