<svg width="24" height="24" viewBox="0 0 24 24" fill="none" xmlns="http://www.w3.org/2000/svg">
<path d="M19.65 3H4.35C3.6 3 3 3.60251 3 4.28033V19.7197C3 20.3975 3.6 21 4.35 21H19.65C20.4 21 21 20.3975 21 19.7197V4.28033C21 3.60251 20.4 3 19.65 3ZM8.325 18.364H5.7V9.77824H8.325V18.364ZM7.05 8.57322C6.225 8.57322 5.475 7.8954 5.475 6.99163C5.475 6.08787 6.15 5.41004 7.05 5.41004C7.875 5.41004 8.625 6.08787 8.625 6.99163C8.625 7.8954 7.875 8.57322 7.05 8.57322ZM18.375 18.2887H15.75V14.0711C15.75 13.0921 15.75 11.7364 14.325 11.7364C12.9 11.7364 12.75 12.8661 12.75 13.9205V18.2134H10.125V9.77824H12.6V10.9079H12.675C13.05 10.2301 13.95 9.47699 15.225 9.47699C17.925 9.47699 18.45 11.2845 18.45 13.6192V18.2887H18.375Z" fill="white"/>
</svg>
