<svg width="78" height="78" viewBox="0 0 78 78" fill="none" xmlns="http://www.w3.org/2000/svg">
<path d="M22.6568 15.3976C22.3645 15.2243 22.0316 15.1315 21.6918 15.1285C21.3521 15.1255 21.0176 15.2125 20.7223 15.3807C20.4271 15.5488 20.1816 15.7921 20.0108 16.0859C19.84 16.3796 19.7501 16.7133 19.75 17.0531V61.6297C19.7501 61.9694 19.84 62.3031 20.0108 62.5969C20.1816 62.8906 20.4271 63.1339 20.7223 63.3021C21.0176 63.4702 21.3521 63.5572 21.6918 63.5543C22.0316 63.5513 22.3645 63.4584 22.6568 63.2852L60.268 40.9969C60.5553 40.8264 60.7933 40.5842 60.9585 40.2939C61.1238 40.0037 61.2107 39.6754 61.2107 39.3414C61.2107 39.0074 61.1238 38.6791 60.9585 38.3888C60.7933 38.0986 60.5553 37.8563 60.268 37.6859L22.6568 15.3976Z" fill="white" stroke="white" stroke-width="4.8125" stroke-linecap="round" stroke-linejoin="round"/>
</svg>
