<svg width="232" height="130" viewBox="0 0 232 130" fill="none" xmlns="http://www.w3.org/2000/svg">
<g clip-path="url(#clip0_19232_641)">
<path d="M-21.9999 0.000280204V4.06434C-19.4229 4.0684 -9.64027 4.20238 2.02058 6.04156C14.3522 7.97818 31.3907 12.2696 42.5485 21.6969C57.1553 34.0393 64.523 51.0832 71.6447 67.5627C79.8565 86.5635 87.6099 104.509 105.593 116.031C118.445 124.265 135.377 128.743 152.689 128.743C157.15 128.743 161.633 128.447 166.083 127.838C186.599 125.04 203.508 116.193 212.486 103.567C225.131 85.78 242.471 54.7603 212.486 38.5L197.5 41C225.143 55.9895 219.116 85.3861 207.517 101.703C199.338 113.209 183.859 121.281 165.054 123.847C145.02 126.579 124.174 122.519 109.294 112.986C92.4788 102.211 84.949 84.7893 76.9776 66.3488C69.6882 49.4754 62.1472 32.0256 46.7857 19.0498C24.9566 0.609287 -15.6104 -0.0159598 -21.9999 0.000280204Z" fill="#674DE2"/>
<path opacity="0.1" d="M-22.0005 0.000280204V4.06434C-19.4234 4.0684 -9.64085 4.20238 2.02 6.04156C14.3517 7.97818 31.3902 12.2696 42.5479 21.6969C57.1547 34.0393 64.5224 51.0832 71.6441 67.5627C79.8559 86.5635 87.6093 104.509 105.593 116.031C118.444 124.265 135.376 128.743 152.689 128.743C157.15 128.743 161.633 128.447 166.082 127.838C186.598 125.04 203.508 116.193 212.486 103.567C225.13 85.78 245.985 53.2603 216 37L201 39C228.642 53.9895 219.115 85.3861 207.516 101.703C199.338 113.209 183.859 121.281 165.054 123.847C145.019 126.579 124.174 122.519 109.293 112.986C92.4783 102.211 84.9484 84.7893 76.977 66.3488C69.6876 49.4754 62.1466 32.0256 46.7851 19.0498C24.956 0.609287 -15.611 -0.0159598 -22.0005 0.000280204Z" fill="black"/>
</g>
<defs>
<clipPath id="clip0_19232_641">
<rect width="232" height="130" fill="white"/>
</clipPath>
</defs>
</svg>
