<svg width="224" height="208" viewBox="0 0 224 208" fill="none" xmlns="http://www.w3.org/2000/svg">
<g clip-path="url(#clip0_19232_637)">
<path d="M251.036 79.0003V83.0643C249.164 83.0684 242.059 83.2024 233.59 85.0416C224.634 86.9782 212.259 91.2696 204.155 100.697C193.546 113.039 188.195 130.083 183.023 146.563C177.059 165.564 171.427 183.509 158.366 195.031C149.032 203.265 136.735 207.743 124.161 207.743C120.921 207.743 117.665 207.447 114.433 206.838C99.533 204.04 87.2515 195.193 80.7311 182.567C71.5474 164.78 75.1161 135.515 96.894 119.255L99.3259 122.507C79.2492 137.497 75.9159 164.386 84.3404 180.703C90.2802 192.209 101.522 200.281 115.18 202.847C129.731 205.579 144.871 201.519 155.679 191.986C167.891 181.211 173.36 163.789 179.15 145.349C184.444 128.475 189.921 111.026 201.078 98.0498C216.932 79.6093 246.395 78.984 251.036 79.0003Z" fill="#674DE2"/>
<path opacity="0.1" d="M251.036 79.0003V83.0643C249.164 83.0684 242.059 83.2024 233.59 85.0416C224.634 86.9782 212.259 91.2696 204.155 100.697C193.546 113.039 188.195 130.083 183.023 146.563C177.059 165.564 171.427 183.509 158.366 195.031C149.032 203.265 136.735 207.743 124.161 207.743C120.921 207.743 117.665 207.447 114.433 206.838C99.533 204.04 87.2515 195.193 80.7311 182.567C71.5474 164.78 75.1161 135.515 96.894 119.255L99.3259 122.507C79.2492 137.497 75.9159 164.386 84.3404 180.703C90.2802 192.209 101.522 200.281 115.18 202.847C129.731 205.579 144.871 201.519 155.679 191.986C167.891 181.211 173.36 163.789 179.15 145.349C184.444 128.475 189.921 111.026 201.078 98.0498C216.932 79.6093 246.395 78.984 251.036 79.0003Z" fill="black"/>
<path d="M67.6656 26.7201C71.2603 26.2081 74.743 25.0701 78.0864 23.6317C81.4404 22.2033 84.6673 20.4803 87.9218 18.7247C89.5571 17.8608 91.1893 16.9615 92.8802 16.1223C94.5676 15.2685 96.3081 14.4581 98.1664 13.7715C100.025 13.0923 102.008 12.5198 104.202 12.2905C106.38 12.0635 108.831 12.2117 111.221 13.0838C111.814 13.2965 112.386 13.5819 112.97 13.8454C113.525 14.1512 114.073 14.4824 114.619 14.8206C115.125 15.1905 115.633 15.5746 116.126 15.9721C116.579 16.3894 117.032 16.8149 117.481 17.2473C119.123 18.916 120.518 20.8834 121.62 22.9764C122.728 25.0705 123.498 27.2889 124.032 29.4736C124.557 31.664 124.85 33.8275 124.998 35.929C125.288 40.1343 125.058 44.1042 124.778 47.8812L124.331 53.4292C124.256 54.3358 124.208 55.2286 124.148 56.1177L124.069 57.4401L124.018 58.7474C123.98 60.4806 123.96 62.1777 124.091 63.8277C124.191 65.4793 124.433 67.098 124.788 68.5884C125.16 70.1316 125.757 71.7418 126.471 73.3598C127.184 74.9793 128.003 76.6155 128.886 78.2537C130.655 81.5398 132.663 84.8183 134.619 88.2056L136.074 90.7703C136.545 91.6436 137.01 92.5181 137.454 93.4178C138.361 95.2022 139.169 97.0702 139.812 99.0409C140.443 101.01 140.886 103.117 140.867 105.287C140.861 107.451 140.343 109.633 139.401 111.53C138.943 112.491 138.355 113.35 137.744 114.179L136.772 115.359C136.44 115.734 136.096 116.07 135.758 116.427C134.37 117.807 132.87 119.087 131.24 120.201C129.595 121.286 127.857 122.249 126.022 123.003C125.56 123.181 125.107 123.393 124.637 123.551L123.226 124.03C122.271 124.299 121.311 124.573 120.336 124.77C116.438 125.602 112.403 125.78 108.428 125.432C106.44 125.267 104.456 124.996 102.502 124.602C100.537 124.236 98.6105 123.726 96.695 123.169C95.7482 122.867 94.7848 122.592 93.851 122.254L92.4389 121.764L91.0439 121.234C89.1877 120.512 87.3643 119.721 85.5678 118.869C84.6734 118.438 83.7871 117.991 82.8975 117.547C82.0226 117.083 81.1456 116.615 80.2796 116.132C79.4226 115.637 78.5493 115.162 77.704 114.647C76.864 114.124 76.0065 113.623 75.1803 113.08L70.4073 109.993C69.6335 109.491 68.8459 109.018 68.0663 108.528L66.895 107.8L65.7124 107.097C59.4165 103.302 52.9453 100.041 46.2836 97.06C42.9305 95.5732 39.5469 94.1466 35.9647 92.5278C34.1759 91.7284 32.3424 90.8255 30.4456 89.7638C28.565 88.6875 26.6076 87.4325 24.7559 85.8495C22.9001 84.2816 21.1794 82.403 19.7795 80.3953C18.3524 78.3925 17.2786 76.2866 16.3862 74.2245C15.9156 73.1872 15.558 72.1645 15.1783 71.1353C14.9993 70.6233 14.8458 70.1166 14.6798 69.6075C14.5166 69.0996 14.3497 68.5982 14.2137 68.0493L13.7902 66.4379L13.5856 65.632L13.4285 64.7972C13.2251 63.6811 13.0058 62.5833 12.9275 61.4197C12.8735 60.8456 12.8195 60.2736 12.7805 59.6999L12.7744 57.9427L12.7809 57.0674C12.7886 56.7755 12.8284 56.4771 12.8524 56.1827L13.0302 54.4186C13.1187 53.8328 13.2555 53.2473 13.372 52.6663L13.558 51.7967C13.6303 51.5092 13.7277 51.225 13.813 50.9408C13.9912 50.3728 14.1662 49.8061 14.3574 49.2478C14.584 48.7009 14.8243 48.161 15.0655 47.6259C16.087 45.5191 17.3423 43.5516 18.866 41.939L19.4198 41.3182C19.6123 41.1225 19.8132 40.9382 20.0097 40.749C20.406 40.3755 20.7958 39.9955 21.2005 39.641C22.0422 38.9854 22.8526 38.2866 23.7307 37.7324C25.44 36.5287 27.256 35.6216 29.0522 34.7634C30.8735 33.9692 32.6948 33.2465 34.5421 32.6794C38.2262 31.5081 41.9236 30.6697 45.6141 29.9847C46.5386 29.8232 47.4557 29.634 48.3814 29.4967C49.3047 29.3473 50.2194 29.1707 51.1426 29.0384C52.0626 28.8906 52.9851 28.7598 53.9038 28.6234L56.6606 28.2231L67.6656 26.7201ZM67.8682 27.9235C64.224 28.4525 60.6037 29.1155 57.0365 29.9673L55.7 30.2892L54.3728 30.6421C53.4853 30.8666 52.6111 31.1378 51.7362 31.4001C49.9831 31.9132 48.26 32.5113 46.5593 33.1463C43.1607 34.4203 39.8818 35.9562 36.8567 37.7694C35.3306 38.6545 33.91 39.6626 32.545 40.6869C31.2235 41.7571 29.9433 42.8468 28.8719 44.0531C28.2934 44.6227 27.8399 45.2715 27.3368 45.8691L26.6828 46.8187C26.5756 46.9758 26.4619 47.1289 26.3596 47.2872L26.0859 47.7777C25.3101 49.057 24.7953 50.398 24.4226 51.7394C24.3446 52.0813 24.2654 52.4187 24.1725 52.7488L24.0198 53.78C23.9963 53.9513 23.9589 54.117 23.9439 54.2907L23.9228 54.8181C23.9118 55.1697 23.8761 55.5108 23.8749 55.8628L23.9122 56.9306C23.9207 57.1088 23.911 57.2809 23.9317 57.4624L23.9995 58.0085L24.1164 59.0937L24.3336 60.2029C24.6024 61.6775 25.0657 63.1915 25.5841 64.7103C25.6946 65.0839 25.8557 65.4809 26.0092 65.8743C26.1639 66.2649 26.3092 66.666 26.4692 67.0477C26.8046 67.7919 27.1131 68.5625 27.4724 69.2506C28.1687 70.6635 28.9214 71.9473 29.7602 73.0305C30.6023 74.1214 31.5077 75.0552 32.5771 75.92C34.6952 77.6422 37.6094 79.1493 40.8948 80.6974C42.5249 81.4749 44.2228 82.2483 45.9527 83.0469C47.6778 83.8354 49.4175 84.6928 51.1593 85.5442C58.1437 88.9948 64.9706 93.0073 71.4207 97.4299L72.6355 98.2536L73.8336 99.0993C74.6297 99.6661 75.4356 100.22 76.2225 100.798L80.8127 104.188C82.2784 105.262 83.7619 106.301 85.2531 107.326L87.5113 108.822C88.2705 109.305 89.0293 109.793 89.7946 110.266C91.3342 111.188 92.8717 112.124 94.4498 112.957L95.6281 113.599L96.8185 114.206C97.6097 114.625 98.4177 114.979 99.2212 115.367C102.452 116.82 105.768 118.068 109.159 118.858C110.855 119.27 112.564 119.519 114.279 119.69C115.996 119.871 117.709 119.85 119.406 119.707C122.807 119.435 126.096 118.399 129.047 116.707C130.509 115.84 131.885 114.812 133.14 113.633C133.445 113.332 133.773 113.038 134.062 112.733L134.881 111.806C135.369 111.153 135.842 110.489 136.19 109.771C136.922 108.352 137.291 106.788 137.263 105.164C137.243 103.541 136.848 101.869 136.216 100.239C135.591 98.6036 134.72 97.017 133.779 95.4535C132.812 93.9021 131.748 92.3792 130.615 90.8819C128.359 87.8812 125.889 84.9527 123.47 81.8334C122.266 80.2654 121.079 78.6394 119.955 76.9017C118.832 75.1652 117.764 73.3127 116.88 71.2441C115.097 67.014 114.408 62.7384 114.11 58.6236C113.574 50.4134 114.623 42.8578 114.471 36.0849C114.401 32.7062 114.03 29.5893 113.047 26.8289C112.561 25.442 111.89 24.144 111.061 22.8964C110.283 21.7519 109.433 20.8258 108.371 20.1539C107.315 19.4779 106.004 19.011 104.486 18.8266C102.973 18.635 101.301 18.704 99.5983 18.9338C97.8923 19.1628 96.1494 19.54 94.4019 19.985C92.6626 20.4592 90.9091 20.9825 89.1702 21.5659C85.6774 22.7052 82.2094 24.0068 78.6861 25.1659C75.1681 26.3332 71.5807 27.3632 67.8682 27.9235Z" fill="#EBEBEB"/>
<path d="M84.5286 164.818C83.2774 165.139 82.0995 165.332 80.951 165.465C80.3761 165.541 79.819 165.583 79.2555 165.633C78.7029 165.665 78.1419 165.696 77.5986 165.707C76.5032 165.75 75.4371 165.72 74.3734 165.685C70.1465 165.518 66.1088 164.871 62.1264 164.255L60.7147 164.042L60.0883 163.949L59.4484 163.901C59.0209 163.859 58.5751 163.872 58.1334 163.862C57.6851 163.88 57.2369 163.898 56.7781 163.934C56.3206 163.973 55.8646 164.017 55.3981 164.09C54.9377 164.157 54.4712 164.23 54.0031 164.322C53.0734 164.512 52.1221 164.714 51.1855 164.976C47.393 165.977 43.6453 167.46 39.4643 168.417C37.3616 168.859 35.1054 169.184 32.7096 168.928C31.5087 168.832 30.3098 168.525 29.1299 168.141C28.5526 167.924 27.9619 167.708 27.413 167.428C27.1328 167.29 26.8462 167.16 26.5758 167.013L25.7788 166.544C24.7159 165.905 23.759 165.155 22.8483 164.365C22.3842 163.965 21.9437 163.478 21.4927 163.02C21.0542 162.549 20.6888 162.041 20.2864 161.538C19.8971 161.035 19.5853 160.507 19.241 159.973C19.0652 159.708 18.9263 159.437 18.7838 159.168L18.3519 158.349L18.1407 157.935L17.9633 157.517L17.6146 156.675C17.3612 156.115 17.1887 155.551 17.0043 154.978C16.2821 152.703 15.896 150.391 15.7701 148.106C15.6621 145.823 15.7945 143.562 16.1404 141.355C16.4912 139.151 17.0973 137.006 17.8772 134.939C18.0786 134.425 18.2901 133.915 18.5037 133.408C18.7262 132.903 18.9787 132.408 19.2183 131.914C19.4525 131.417 19.7172 130.931 19.9901 130.454C20.2613 129.974 20.5252 129.497 20.8281 129.03C21.9778 127.163 23.3205 125.411 24.7415 123.773C26.173 122.139 27.6992 120.614 29.3423 119.258C30.9748 117.898 32.6845 116.67 34.5034 115.659C36.3234 114.651 38.2589 113.876 40.284 113.437C42.3274 113.001 44.5007 113.053 46.568 113.583C48.6366 114.105 50.598 115.021 52.4534 116.084C56.1594 118.241 59.5617 120.921 62.694 123.74C64.2648 125.157 65.7398 126.632 67.1413 128.143C67.3374 128.37 67.449 128.432 67.5769 128.55L67.9444 128.869C68.2269 129.058 68.4437 129.282 68.7389 129.458L69.1408 129.741C69.2882 129.829 69.438 129.912 69.5757 130.008C69.8452 130.198 70.1847 130.353 70.4697 130.537C71.7242 131.229 73.1509 131.905 74.7932 132.558L77.3802 133.577L78.7651 134.119L80.2108 134.716C81.1897 135.112 82.2193 135.606 83.2668 136.125C84.3212 136.684 85.4113 137.291 86.5059 138.058C87.6077 138.844 88.7145 139.712 89.7453 140.827C90.7689 141.923 91.725 143.185 92.4489 144.585L92.7302 145.103L92.9698 145.637C93.1241 145.994 93.2873 146.352 93.4257 146.714C93.6616 147.434 93.9271 148.172 94.0619 148.891L94.2893 149.977L94.4261 151.032C94.53 151.75 94.5361 152.417 94.5609 153.099C94.569 153.28 94.5735 153.418 94.5751 153.628C94.5719 153.905 94.5577 154.177 94.5402 154.451C94.5223 154.987 94.4188 155.574 94.2925 156.148C94.2625 156.286 94.23 156.43 94.1923 156.571L94.0562 157.004C93.96 157.29 93.8573 157.57 93.7505 157.852C93.5077 158.396 93.2248 158.937 92.9125 159.424C92.7497 159.662 92.5853 159.895 92.414 160.123C92.3271 160.24 92.2406 160.356 92.1533 160.459L91.8833 160.76C91.7043 160.955 91.5183 161.145 91.3291 161.335C91.1432 161.525 90.9605 161.665 90.7697 161.83C90.5837 161.984 90.3901 162.141 90.1997 162.284L89.6442 162.663C89.4579 162.782 89.2646 162.918 89.084 163.018L88.546 163.316C87.1002 164.069 85.7783 164.493 84.5286 164.818Z" fill="#EBEBEB"/>
<path d="M53.1696 178.946C56.2888 182.065 61.3464 182.065 64.4653 178.946C67.5846 175.826 67.5846 170.769 64.4653 167.65C61.346 164.531 56.2888 164.531 53.1696 167.65C50.0503 170.769 50.0503 175.826 53.1696 178.946Z" fill="#EBEBEB"/>
<path d="M61.7229 168.559C61.7513 168.933 61.636 169.317 61.4277 169.644C61.2203 169.974 60.9085 170.237 60.5597 170.411C60.2024 170.582 59.7664 170.642 59.3868 170.511C59.0084 170.391 58.6913 170.139 58.4932 169.824C58.7952 170.037 59.1212 170.191 59.4517 170.246C59.617 170.273 59.7818 170.277 59.9418 170.247C60.1034 170.228 60.2572 170.166 60.407 170.097C60.4817 170.06 60.5577 170.019 60.6303 169.977C60.6998 169.929 60.7733 169.886 60.8382 169.832C60.9783 169.735 61.0936 169.61 61.2093 169.484C61.4314 169.222 61.6076 168.911 61.7229 168.559Z" fill="#C7C7C7"/>
<path d="M58.8522 169.019C58.8099 168.761 58.879 168.488 59.0182 168.255C59.1579 168.021 59.3731 167.828 59.6195 167.708C59.8712 167.584 60.1871 167.55 60.4526 167.648C60.7181 167.74 60.9321 167.927 61.0507 168.158C60.8286 168.029 60.6053 167.94 60.3881 167.913C60.1704 167.882 59.9662 167.932 59.7726 168.022C59.3702 168.216 59.0543 168.547 58.8522 169.019Z" fill="#C7C7C7"/>
<path d="M58.8158 177.052C58.9181 177.284 58.9173 177.56 58.8365 177.813C58.7541 178.066 58.5904 178.298 58.3749 178.459C58.1572 178.63 57.8584 178.714 57.5884 178.671C57.3193 178.631 57.0801 178.498 56.9189 178.303C57.1581 178.376 57.3887 178.413 57.6014 178.399C57.815 178.385 57.9993 178.305 58.1637 178.182C58.3339 178.054 58.4772 177.893 58.588 177.705C58.6956 177.516 58.7736 177.298 58.8158 177.052Z" fill="#C7C7C7"/>
<path d="M57.1626 177.958C57.0692 177.802 57.0591 177.606 57.1078 177.423C57.1594 177.24 57.2751 177.071 57.429 176.956C57.5857 176.833 57.8069 176.772 58.0002 176.811C58.1922 176.849 58.3567 176.954 58.4541 177.106C58.2787 177.077 58.1232 177.065 57.9876 177.085C57.8516 177.105 57.744 177.157 57.6409 177.233C57.4237 177.399 57.2666 177.619 57.1626 177.958Z" fill="#C7C7C7"/>
<path d="M55.9388 169.867C56.0788 169.991 56.1596 170.178 56.1665 170.38C56.1718 170.583 56.0906 170.793 55.9404 170.944C55.7877 171.108 55.549 171.17 55.3557 171.144C55.1588 171.121 54.9842 171.037 54.8535 170.904C55.0378 170.902 55.2039 170.901 55.3501 170.87C55.4962 170.841 55.6091 170.787 55.6927 170.699C55.7841 170.607 55.8551 170.489 55.8949 170.352C55.9367 170.212 55.9461 170.051 55.9388 169.867Z" fill="#C7C7C7"/>
<path d="M54.9479 170.642C54.8314 170.567 54.762 170.436 54.7494 170.289C54.7384 170.139 54.7953 169.982 54.9073 169.87C55.0222 169.746 55.2049 169.703 55.3438 169.728C55.4859 169.753 55.606 169.823 55.6864 169.936C55.5525 169.959 55.4408 169.973 55.3494 170.003C55.2573 170.031 55.2009 170.067 55.155 170.115C55.1022 170.168 55.0555 170.234 55.0214 170.316C54.9849 170.401 54.9642 170.508 54.9479 170.642Z" fill="#C7C7C7"/>
<path d="M61.4878 178.286C61.4017 178.452 61.2401 178.576 61.0461 178.631C60.8496 178.687 60.6267 178.659 60.4436 178.55C60.2475 178.442 60.1289 178.225 60.1062 178.032C60.081 177.835 60.1192 177.645 60.2166 177.486C60.2633 177.664 60.3047 177.825 60.3705 177.959C60.4346 178.094 60.5142 178.19 60.6206 178.25C60.7322 178.316 60.8642 178.356 61.0067 178.361C61.1524 178.368 61.3116 178.338 61.4878 178.286Z" fill="#C7C7C7"/>
<path d="M60.4941 177.515C60.5384 177.384 60.6484 177.284 60.7885 177.236C60.9306 177.189 61.0971 177.206 61.2331 177.287C61.3808 177.368 61.4677 177.535 61.4767 177.676C61.4872 177.82 61.4486 177.954 61.3593 178.059C61.3045 177.935 61.2635 177.83 61.2124 177.749C61.162 177.666 61.1141 177.621 61.056 177.588C60.9915 177.549 60.9164 177.52 60.8279 177.507C60.7369 177.492 60.6289 177.498 60.4941 177.515Z" fill="#C7C7C7"/>
<path d="M64.2242 172.665C64.2465 172.851 64.1828 173.045 64.0537 173.2C63.9226 173.356 63.7224 173.459 63.5097 173.472C63.2868 173.493 63.0671 173.38 62.9392 173.233C62.8077 173.084 62.7326 172.906 62.7236 172.72C62.8629 172.841 62.9875 172.95 63.1171 173.024C63.2458 173.1 63.3659 173.134 63.4873 173.124C63.6168 173.116 63.7484 173.075 63.869 172.999C63.9936 172.923 64.1077 172.808 64.2242 172.665Z" fill="#C7C7C7"/>
<path d="M62.9688 172.588C62.9315 172.455 62.9668 172.31 63.0553 172.192C63.1467 172.073 63.2932 171.993 63.4516 171.984C63.6193 171.968 63.7849 172.057 63.8718 172.168C63.9615 172.281 64.005 172.414 63.9899 172.551C63.8746 172.479 63.7817 172.416 63.694 172.377C63.6063 172.338 63.5405 172.326 63.4739 172.332C63.3992 172.337 63.3204 172.355 63.2401 172.394C63.1564 172.432 63.0703 172.498 62.9688 172.588Z" fill="#C7C7C7"/>
<path d="M53.6451 174.474C53.6674 174.66 53.6037 174.854 53.4746 175.009C53.343 175.165 53.1433 175.268 52.9305 175.281C52.7076 175.302 52.488 175.189 52.3601 175.042C52.2286 174.893 52.1535 174.715 52.1445 174.529C52.2834 174.65 52.4084 174.759 52.5379 174.833C52.6666 174.909 52.7868 174.943 52.9082 174.933C53.0373 174.925 53.1693 174.884 53.2899 174.808C53.4141 174.731 53.5286 174.617 53.6451 174.474Z" fill="#C7C7C7"/>
<path d="M52.3897 174.397C52.3524 174.263 52.3877 174.119 52.4762 174C52.5672 173.881 52.7141 173.802 52.8725 173.792C53.0402 173.776 53.2058 173.865 53.2927 173.977C53.3824 174.09 53.4259 174.222 53.4112 174.36C53.2959 174.288 53.203 174.224 53.1153 174.186C53.0276 174.146 52.9618 174.135 52.8952 174.14C52.8205 174.145 52.7417 174.163 52.6614 174.202C52.5769 174.241 52.4912 174.307 52.3897 174.397Z" fill="#C7C7C7"/>
<path d="M106.086 169.861L107.813 170.181L108.199 172.001L108.585 170.181L110.312 169.861L108.592 169.44L108.199 167.721L107.805 169.44L106.086 169.861Z" fill="#674DE2"/>
<path d="M67.4502 105.919L69.1769 106.238L69.5626 108.059L69.9487 106.238L71.6754 105.918L69.956 105.498L69.5626 103.778L69.1692 105.498L67.4502 105.919Z" fill="#674DE2"/>
<path d="M163.395 76.2212L165.121 76.5408L165.507 78.3609L165.893 76.5408L167.62 76.2204L165.9 75.8002L165.507 74.0808L165.114 75.8002L163.395 76.2212Z" fill="#674DE2"/>
<path d="M182.062 153.905L183.027 154.083L183.243 155.101L183.458 154.083L184.423 153.904L183.462 153.669L183.243 152.708L183.023 153.669L182.062 153.905Z" fill="#674DE2"/>
<path d="M168.846 35.7698L169.811 35.9481L170.026 36.9655L170.242 35.9481L171.207 35.769L170.246 35.5344L170.026 34.5734L169.807 35.5344L168.846 35.7698Z" fill="#674DE2"/>
<path d="M187.864 66.0274L188.829 66.2061L189.045 67.2231L189.26 66.2061L190.226 66.027L189.265 65.7919L189.045 64.8309L188.825 65.7919L187.864 66.0274Z" fill="#674DE2"/>
<path d="M40.4824 79.671L41.4475 79.8497L41.6631 80.8671L41.8791 79.8497L42.8441 79.6706L41.8831 79.4359L41.6631 78.4749L41.4434 79.4359L40.4824 79.671Z" fill="#674DE2"/>
<path d="M175.977 133.879L176.942 134.057L177.157 135.074L177.373 134.057L178.338 133.878L177.377 133.643L177.157 132.682L176.938 133.643L175.977 133.879Z" fill="#674DE2"/>
<path d="M37.874 176.407L38.8395 176.586L39.0551 177.603L39.2707 176.586L40.2357 176.407L39.2747 176.172L39.0551 175.211L38.835 176.172L37.874 176.407Z" fill="#674DE2"/>
<path d="M78.3525 39.894L79.3176 40.0722L79.5336 41.0897L79.7492 40.0722L80.7142 39.8936L79.7532 39.6585L79.5336 38.6975L79.3135 39.6585L78.3525 39.894Z" fill="#674DE2"/>
<path d="M135.497 68.4196L136.462 68.5982L136.678 69.6156L136.894 68.5982L137.859 68.4192L136.898 68.1845L136.678 67.2231L136.458 68.1845L135.497 68.4196Z" fill="#674DE2"/>
<path d="M58.8018 144.937L59.7668 145.115L59.9828 146.132L60.1984 145.115L61.1635 144.936L60.2025 144.701L59.9828 143.74L59.7628 144.701L58.8018 144.937Z" fill="#674DE2"/>
<path d="M156.443 142.347C156.803 142.347 156.804 142.906 156.443 142.906C156.083 142.907 156.082 142.347 156.443 142.347Z" fill="#674DE2"/>
<path d="M159.086 102.34C159.446 102.34 159.446 102.9 159.086 102.9C158.726 102.9 158.725 102.34 159.086 102.34Z" fill="#674DE2"/>
<path d="M139.519 81.714C139.88 81.714 139.88 82.2735 139.519 82.2735C139.159 82.2739 139.158 81.714 139.519 81.714Z" fill="#674DE2"/>
<path d="M53.1392 180.191C53.4994 180.191 53.4998 180.75 53.1392 180.75C52.7795 180.751 52.7787 180.191 53.1392 180.191Z" fill="#674DE2"/>
<path d="M41.6636 163.974C42.0238 163.974 42.0242 164.534 41.6636 164.534C41.3039 164.534 41.3031 163.974 41.6636 163.974Z" fill="#674DE2"/>
<path d="M70.5015 156.549C70.8617 156.549 70.8621 157.109 70.5015 157.109C70.1418 157.109 70.141 156.549 70.5015 156.549Z" fill="#674DE2"/>
<path d="M123.477 163.974C123.838 163.974 123.838 164.534 123.477 164.534C123.117 164.534 123.116 163.974 123.477 163.974Z" fill="#674DE2"/>
<path d="M169.757 146.013C170.117 146.013 170.117 146.573 169.757 146.573C169.397 146.573 169.396 146.013 169.757 146.013Z" fill="#674DE2"/>
<path d="M158.05 115.064C158.41 115.064 158.41 115.624 158.05 115.624C157.689 115.624 157.689 115.064 158.05 115.064Z" fill="#674DE2"/>
<path d="M110.531 163.419C110.785 163.419 110.786 163.815 110.531 163.815C110.276 163.815 110.276 163.419 110.531 163.419Z" fill="#674DE2"/>
<path d="M49.3825 40.6589C49.6374 40.6589 49.6374 41.0547 49.3825 41.0547C49.1279 41.0547 49.1275 40.6589 49.3825 40.6589Z" fill="#674DE2"/>
<path d="M126.19 140.317C126.445 140.317 126.445 140.713 126.19 140.713C125.936 140.713 125.935 140.317 126.19 140.317Z" fill="#674DE2"/>
<path d="M49.8828 165.811C50.1373 165.811 50.1378 166.207 49.8828 166.207C49.6278 166.207 49.6274 165.811 49.8828 165.811Z" fill="#674DE2"/>
<path d="M100.497 118.059C100.751 118.059 100.752 118.455 100.497 118.455C100.242 118.455 100.242 118.059 100.497 118.059Z" fill="#674DE2"/>
<path d="M143.303 120.332C143.993 120.332 143.995 121.405 143.303 121.405C142.613 121.405 142.612 120.332 143.303 120.332Z" fill="#674DE2"/>
<path d="M68.1182 46.4014L69.8449 46.7209L70.231 48.541L70.6167 46.7209L72.3438 46.4005L70.624 45.9803L70.231 44.2609L69.8376 45.9803L68.1182 46.4014Z" fill="#674DE2"/>
<path d="M140.723 94.1331L142.449 94.4523L142.835 96.2724L143.221 94.4523L144.948 94.1319L143.228 93.7121L142.835 91.9927L142.442 93.7121L140.723 94.1331Z" fill="#674DE2"/>
<path d="M14.9287 104.666L16.6554 104.985L17.0415 106.805L17.4272 104.985L19.1544 104.665L17.4345 104.245L17.0415 102.525L16.6481 104.245L14.9287 104.666Z" fill="#674DE2"/>
<path d="M141.19 17.6744L142.918 17.9935L143.303 19.814L143.689 17.9935L145.416 17.6736L143.697 17.2534L143.303 15.534L142.91 17.2534L141.19 17.6744Z" fill="#674DE2"/>
<path d="M107.019 34.5737L107.984 34.752L108.199 35.7694L108.415 34.752L109.38 34.5729L108.419 34.3383L108.199 33.3773L107.98 34.3383L107.019 34.5737Z" fill="#674DE2"/>
<path d="M25.3828 46.3798L26.3479 46.5581L26.5635 47.5755L26.7795 46.5581L27.7445 46.3794L26.7835 46.1444L26.5635 45.1833L26.3438 46.1444L25.3828 46.3798Z" fill="#674DE2"/>
<path d="M34.7694 54.3618C35.1295 54.3618 35.1299 54.9213 34.7694 54.9213C34.4093 54.9213 34.4085 54.3618 34.7694 54.3618Z" fill="#674DE2"/>
<path d="M36.446 144.936C36.8061 144.936 36.8066 145.496 36.446 145.496C36.0859 145.496 36.0855 144.936 36.446 144.936Z" fill="#674DE2"/>
<path d="M13.7655 74.0914C14.1256 74.0914 14.126 74.6508 13.7655 74.6508C13.4054 74.6512 13.4046 74.0914 13.7655 74.0914Z" fill="#674DE2"/>
<path d="M36.446 32.0212C36.8061 32.0212 36.8066 32.5807 36.446 32.5807C36.0859 32.5807 36.0855 32.0212 36.446 32.0212Z" fill="#674DE2"/>
<path d="M73.0867 17.674C73.4468 17.674 73.4472 18.2335 73.0867 18.2335C72.7265 18.2335 72.7261 17.674 73.0867 17.674Z" fill="#674DE2"/>
<path d="M61.8434 117.721C62.098 117.721 62.0984 118.116 61.8434 118.116C61.5889 118.116 61.5884 117.721 61.8434 117.721Z" fill="#674DE2"/>
<path d="M61.652 168.702C61.907 168.702 61.9074 169.098 61.652 169.098C61.3974 169.098 61.397 168.702 61.652 168.702Z" fill="#674DE2"/>
<path d="M162.764 52.3858L163.729 52.5644L163.945 53.5819L164.16 52.5644L165.125 52.3854L164.164 52.1503L163.945 51.1893L163.725 52.1503L162.764 52.3858Z" fill="#674DE2"/>
<path d="M184.365 102.906L185.33 103.085L185.546 104.102L185.762 103.085L186.727 102.906L185.766 102.671L185.546 101.71L185.326 102.671L184.365 102.906Z" fill="#674DE2"/>
<path d="M160.072 53.3464C160.432 53.3464 160.432 53.9058 160.072 53.9058C159.712 53.9058 159.711 53.3464 160.072 53.3464Z" fill="#674DE2"/>
<path d="M131.493 25.3783C131.748 25.3783 131.748 25.7741 131.493 25.7741C131.238 25.7745 131.238 25.3783 131.493 25.3783Z" fill="#674DE2"/>
<path d="M89.3942 187.07C89.6488 187.07 89.6492 187.466 89.3942 187.466C89.1396 187.466 89.1392 187.07 89.3942 187.07Z" fill="#674DE2"/>
<path d="M180.06 58.0734C180.315 58.0734 180.315 58.4693 180.06 58.4693C179.806 58.4697 179.805 58.0734 180.06 58.0734Z" fill="#674DE2"/>
<path d="M140.24 48.3428C140.495 48.3428 140.496 48.7387 140.24 48.7387C139.985 48.7391 139.985 48.3428 140.24 48.3428Z" fill="#674DE2"/>
<path d="M140.813 18.0353C141.068 18.0353 141.069 18.4312 140.813 18.4312C140.559 18.4312 140.558 18.0353 140.813 18.0353Z" fill="#674DE2"/>
<path d="M85.3619 110.688C86.0525 110.688 86.0533 111.761 85.3619 111.761C84.6717 111.761 84.6704 110.688 85.3619 110.688Z" fill="#674DE2"/>
<path d="M158.567 83.2373C159.258 83.2373 159.258 84.3104 158.567 84.3104C157.877 84.3104 157.876 83.2373 158.567 83.2373Z" fill="#674DE2"/>
<path d="M37.356 83.7737C38.0462 83.7737 38.0474 84.8467 37.356 84.8467C36.6658 84.8467 36.6646 83.7737 37.356 83.7737Z" fill="#674DE2"/>
<path d="M184.942 87.0078C185.633 87.0078 185.633 88.0809 184.942 88.0809C184.252 88.0809 184.251 87.0078 184.942 87.0078Z" fill="#674DE2"/>
<path d="M29.8814 136.112C30.5716 136.112 30.5728 137.185 29.8814 137.185C29.1912 137.185 29.19 136.112 29.8814 136.112Z" fill="#674DE2"/>
<path d="M59.9824 25.7745L60.9479 25.9528L61.1635 26.9702L61.3791 25.9528L62.3441 25.7741L61.3831 25.539L61.1635 24.578L60.9438 25.539L59.9824 25.7745Z" fill="#674DE2"/>
<path d="M109.561 132.538L110.526 132.717L110.741 133.734L110.957 132.717L111.922 132.538L110.961 132.303L110.741 131.342L110.522 132.303L109.561 132.538Z" fill="#674DE2"/>
<path d="M140.723 179.045C141.083 179.045 141.083 179.604 140.723 179.604C140.362 179.604 140.362 179.045 140.723 179.045Z" fill="#674DE2"/>
<path d="M122.175 176.407C122.535 176.407 122.536 176.966 122.175 176.966C121.816 176.966 121.815 176.407 122.175 176.407Z" fill="#674DE2"/>
<path d="M128.144 101.64L129.109 101.819L129.324 102.836L129.54 101.819L130.505 101.64L129.544 101.405L129.324 100.444L129.105 101.405L128.144 101.64Z" fill="#674DE2"/>
<path d="M161.224 159.641L162.189 159.819L162.404 160.837L162.62 159.819L163.585 159.64L162.624 159.406L162.404 158.445L162.185 159.406L161.224 159.641Z" fill="#674DE2"/>
<path d="M170.026 184.025L170.991 184.204L171.207 185.221L171.423 184.204L172.388 184.025L171.427 183.79L171.207 182.829L170.987 183.79L170.026 184.025Z" fill="#674DE2"/>
<path d="M132.217 47.9815C132.577 47.9815 132.577 48.541 132.217 48.541C131.856 48.541 131.856 47.9815 132.217 47.9815Z" fill="#674DE2"/>
<path d="M163.586 172.486C163.84 172.486 163.841 172.882 163.586 172.882C163.331 172.882 163.33 172.486 163.586 172.486Z" fill="#674DE2"/>
<path d="M24.2021 110.688L25.1672 110.867L25.3828 111.884L25.5984 110.867L26.5634 110.688L25.6024 110.453L25.3828 109.492L25.1627 110.453L24.2021 110.688Z" fill="#674DE2"/>
<path d="M13.0447 131.399C13.4048 131.399 13.4052 131.959 13.0447 131.959C12.6845 131.959 12.6841 131.399 13.0447 131.399Z" fill="#674DE2"/>
<path d="M82.1677 87.2648C82.5278 87.2648 82.5282 87.8243 82.1677 87.8243C81.8076 87.8243 81.8072 87.2648 82.1677 87.2648Z" fill="#674DE2"/>
<path d="M61.652 56.2952C61.9066 56.2952 61.9074 56.691 61.652 56.691C61.3974 56.691 61.397 56.2952 61.652 56.2952Z" fill="#674DE2"/>
<path d="M156.524 33.5003C157.215 33.5003 157.216 34.5734 156.524 34.5734C155.834 34.5734 155.833 33.5003 156.524 33.5003Z" fill="#674DE2"/>
<path d="M27.1212 99.1531C27.8987 103.074 39.7474 121.799 40.766 122.823C41.7847 123.848 46.9312 123.347 46.9312 123.347C46.9312 123.347 45.0104 127.5 45.6307 128.926C46.2511 130.352 78.3872 168.948 80.8488 170.008C83.3108 171.067 89.1178 170.795 90.7658 170.425C92.4133 170.055 122.087 147.515 133.51 135.664C135.078 134.037 134.345 127.006 133.51 125.146C132.674 123.285 102.364 88.9848 99.6555 87.8188C96.9475 86.6532 93.1884 86.8456 93.1884 86.8456C93.1884 86.8456 94.5732 83.5595 93.9423 81.9744C93.3114 80.3894 76.0856 60.2015 71.6655 59.8369C68.5161 59.577 31.1788 89.6596 30.5198 91.2954C29.8617 92.9308 26.7517 97.2896 27.1212 99.1531Z" fill="#674DE2"/>
<path opacity="0.3" d="M27.1212 99.1531C27.8987 103.074 39.7474 121.799 40.766 122.823C41.7847 123.848 46.9312 123.347 46.9312 123.347C46.9312 123.347 45.0104 127.5 45.6307 128.926C46.2511 130.352 78.3872 168.948 80.8488 170.008C83.3108 171.067 89.1178 170.795 90.7658 170.425C92.4133 170.055 122.087 147.515 133.51 135.664C135.078 134.037 134.345 127.006 133.51 125.146C132.674 123.285 102.364 88.9848 99.6555 87.8188C96.9475 86.6532 93.1884 86.8456 93.1884 86.8456C93.1884 86.8456 94.5732 83.5595 93.9423 81.9744C93.3114 80.3894 76.0856 60.2015 71.6655 59.8369C68.5161 59.577 31.1788 89.6596 30.5198 91.2954C29.8617 92.9308 26.7517 97.2896 27.1212 99.1531Z" fill="black"/>
<path opacity="0.1" d="M133.512 135.664C130.718 138.563 126.836 142.095 122.537 145.792C111.824 154.469 101.425 162.159 100.476 162.37C98.8537 162.734 93.1473 163.001 90.7288 161.962C88.3058 160.917 56.7251 122.985 56.1124 121.582C55.5047 120.185 57.3917 116.099 57.3917 116.099C57.3917 116.099 52.3358 116.596 51.3322 115.584C50.333 114.579 38.7401 96.1506 37.9776 92.3001C37.6114 90.4682 40.6662 86.1849 41.3145 84.5771C41.7749 83.4347 58.9155 68.9011 71.6671 59.8347C71.6671 59.8347 71.6671 59.8347 71.672 59.8351C76.0962 60.211 93.3106 80.3876 93.9431 81.9763C94.5761 83.5597 93.1867 86.8438 93.1867 86.8438C93.1867 86.8438 96.9479 86.6518 99.6576 87.8182C102.362 88.9843 132.676 123.284 133.51 125.145C134.345 127.007 135.077 134.037 133.512 135.664Z" fill="black"/>
<path d="M57.3916 116.099C68.9671 105.921 80.9055 96.1583 93.187 86.8438C81.6144 97.0255 69.6703 106.782 57.3916 116.099Z" fill="#674DE2"/>
<path d="M136.962 101.325C141.126 96.1407 148.189 79.9165 144.931 62.6762C144.829 62.1415 148.306 56.9386 147.589 56.1525C146.872 55.3665 143.491 56.6767 143.051 56.6649C142.611 56.6531 142.305 50.6289 141.35 50.4454C139.895 50.1657 137.773 55.2459 137.222 55.388C136.672 55.5301 134.111 51.3305 132.891 51.4693C131.672 51.6078 131.435 58.6101 131.038 59.0522C130.641 59.4943 125.788 58.1042 125.307 59.4627C124.827 60.8211 129.11 64.6124 129.083 65.197C129.056 65.7816 123.198 80.7026 114.483 84.5989C114.483 84.5989 119.046 93.3986 123.589 97.7359C128.133 102.073 136.962 101.325 136.962 101.325Z" fill="#674DE2"/>
<path opacity="0.4" d="M136.962 101.325C141.126 96.1407 148.189 79.9165 144.931 62.6762C144.829 62.1415 148.306 56.9386 147.589 56.1525C146.872 55.3665 143.491 56.6767 143.051 56.6649C142.611 56.6531 142.305 50.6289 141.35 50.4454C139.895 50.1657 137.773 55.2459 137.222 55.388C136.672 55.5301 134.111 51.3305 132.891 51.4693C131.672 51.6078 131.435 58.6101 131.038 59.0522C130.641 59.4943 125.788 58.1042 125.307 59.4627C124.827 60.8211 129.11 64.6124 129.083 65.197C129.056 65.7816 123.198 80.7026 114.483 84.5989C114.483 84.5989 119.046 93.3986 123.589 97.7359C128.133 102.073 136.962 101.325 136.962 101.325Z" fill="white"/>
<path d="M125.305 59.4627C125.786 58.1031 130.643 59.4948 131.039 59.0523C131.435 58.6093 131.672 51.6062 132.891 51.4694C134.11 51.3326 136.669 55.5294 137.222 55.3877C137.771 55.2468 139.895 50.1641 141.347 50.443C142.306 50.6286 142.611 56.6524 143.051 56.665C143.492 56.6776 146.871 55.3686 147.589 56.151C148.308 56.9378 144.827 62.1407 144.929 62.6758C145.513 65.7537 145.764 68.7942 145.764 71.7499C142.874 72.728 138.298 73.5643 135.282 73.3317C132.608 73.1303 129.148 71.9822 126.734 70.5945C128.235 67.666 129.072 65.4163 129.084 65.1979C129.109 64.6124 124.825 60.8228 125.305 59.4627Z" fill="#37474F"/>
<path d="M144.544 83.1516C144.521 83.2661 144.498 83.3802 144.471 83.4902C140.505 83.8426 136.48 83.6867 132.582 82.8451C128.863 81.8845 125.52 79.8167 122.675 77.2415C122.757 77.1319 122.835 77.0267 122.913 76.9167C125.927 79.1306 129.189 81.0425 132.793 81.9527C136.631 82.8179 140.592 83.0692 144.544 83.1516Z" fill="#674DE2"/>
<path d="M144.192 84.7159C144.165 84.8255 144.138 84.94 144.11 85.0501C140.112 85.4159 136.05 85.2604 132.121 84.4098C128.214 83.3989 124.715 81.1711 121.783 78.4176C121.856 78.3263 121.925 78.2345 121.998 78.1432C125.14 80.5033 128.548 82.5666 132.331 83.5223C136.21 84.3911 140.203 84.6384 144.192 84.7159Z" fill="#674DE2"/>
<path opacity="0.5" d="M141.448 93.2103C139.943 96.8375 138.301 99.6555 136.961 101.325C136.961 101.325 128.133 102.075 123.591 97.7343C119.048 93.3978 114.483 84.597 114.483 84.597C115.421 84.1764 116.327 83.6319 117.196 82.9868L141.448 93.2103Z" fill="#674DE2"/>
<path d="M131.044 66.3233C131.218 72.5108 127.331 79.4477 121.81 82.3193C121.425 82.5114 121.04 82.6969 120.645 82.8577C122.293 80.9028 123.813 79.129 125.208 77.0612C127.51 73.6593 129.288 70.0744 131.044 66.3233Z" fill="white"/>
<path d="M122.626 97.1177C128.464 95.3434 147.558 98.4721 154.151 106.824C160.745 115.176 166.236 135.118 166.236 135.118C166.236 135.118 174.959 135.884 175.885 137.724C176.811 139.563 150.282 152.905 148.586 151.98C146.889 151.054 134.258 134.012 134.258 134.012C134.258 134.012 114.998 131.849 109.228 122.34C103.458 112.831 113.591 99.8634 122.626 97.1177Z" fill="#674DE2"/>
<path opacity="0.4" d="M122.626 97.1177C128.464 95.3434 147.558 98.4721 154.151 106.824C160.745 115.176 166.236 135.118 166.236 135.118C166.236 135.118 174.959 135.884 175.885 137.724C176.811 139.563 150.282 152.905 148.586 151.98C146.889 151.054 134.258 134.012 134.258 134.012C134.258 134.012 114.998 131.849 109.228 122.34C103.458 112.831 113.591 99.8634 122.626 97.1177Z" fill="white"/>
<path d="M166.236 135.118C159.23 139.638 151.925 143.693 144.377 147.235C151.381 142.711 158.69 138.664 166.236 135.118Z" fill="#674DE2"/>
<path d="M148.588 151.979C148.142 151.735 146.936 150.374 145.408 148.502C146.619 147.985 148.921 147.236 150.852 148.022C151.995 148.486 153.019 149.415 153.82 150.35C151.047 151.531 149.016 152.213 148.588 151.979Z" fill="#674DE2"/>
<path d="M167.115 143.828L167.111 143.829C167.095 143.809 167.076 143.791 167.059 143.768C164.775 140.934 166.969 137.395 170.867 135.76L170.872 135.759C173.119 136.182 175.433 136.824 175.885 137.725C176.255 138.464 172.209 141.05 167.115 143.828Z" fill="#674DE2"/>
<path d="M134.257 134.012C133.734 126.197 138.901 119.022 144.991 114.608C146.35 113.575 148.001 112.626 149.478 111.802C148.132 112.834 146.593 113.896 145.32 115.027C139.615 119.752 134.722 126.391 134.257 134.012Z" fill="#674DE2"/>
<path d="M145.446 101.749C142.714 103.613 144.907 109.672 148.61 113.941C151.825 117.649 156.524 120.284 158.972 118.714C161.421 117.143 159.688 110.78 155.733 106.127C152.826 102.708 147.359 100.444 145.446 101.749Z" fill="#674DE2"/>
<path d="M149.137 101.766C147.441 101.893 145.867 102.569 145.013 104.053C144.734 104.524 144.512 105.036 144.308 105.571C144.415 103.064 146.662 101.241 149.137 101.766Z" fill="black"/>
<path d="M151.194 102.622C148.957 102.617 146.709 103.583 145.668 105.644C145.324 106.3 145.074 107.007 144.854 107.738C145.002 104.336 147.801 101.945 151.194 102.622Z" fill="black"/>
<path d="M153.295 103.854C149.825 104.018 146.722 106.619 145.888 109.986C145.943 109.446 146.055 108.892 146.228 108.372C147.226 105.552 150.293 103.479 153.295 103.854Z" fill="black"/>
<path d="M155.167 105.479C152.139 105.764 149.1 108.085 147.628 110.693C147.403 111.094 147.242 111.518 147.076 111.948C147.157 111.491 147.278 111.043 147.448 110.609C148.664 107.78 152.012 105.245 155.167 105.479Z" fill="black"/>
<path d="M154.94 118.697C156.659 118.676 158.281 118.053 159.24 116.623C159.554 116.166 159.812 115.665 160.052 115.138C159.775 117.634 157.393 119.367 154.94 118.697Z" fill="black"/>
<path d="M152.587 117.449C154.877 117.579 157.244 116.697 158.481 114.695C158.89 114.053 159.201 113.347 159.474 112.611C159.085 116.043 155.961 118.308 152.587 117.449Z" fill="black"/>
<path d="M150.653 115.982C154.139 116.036 157.443 113.651 158.506 110.327C158.412 110.869 158.268 111.411 158.054 111.924C156.854 114.68 153.639 116.545 150.653 115.982Z" fill="black"/>
<path d="M149.192 114.595C152.125 113.87 155.091 112.046 156.762 109.5C157.01 109.124 157.192 108.719 157.384 108.31C157.326 108.527 157.264 108.746 157.197 108.964C156.033 112.075 152.447 114.369 149.192 114.595Z" fill="black"/>
<path d="M156.459 107.032C153.555 108.957 150.786 111.11 148.241 113.49C149.263 112.055 150.603 110.875 151.975 109.783C153.369 108.721 154.825 107.691 156.459 107.032Z" fill="black"/>
<path opacity="0.5" d="M166.038 134.434L142.403 144.74C138.506 139.745 134.257 134.013 134.257 134.013C134.257 134.013 114.999 131.85 109.226 122.34C103.458 112.83 113.59 99.8622 122.624 97.1176C128.466 95.343 147.558 98.4717 154.15 106.824C160.019 114.257 165.014 130.866 166.038 134.434Z" fill="#674DE2"/>
<path d="M72.2195 110.722C72.0607 113.787 73.3343 123.779 74.8065 127.583C76.2787 131.386 87.7737 150.011 92.545 153.352C97.3159 156.693 105.978 158.78 109.755 158.883C113.533 158.987 123.885 156.33 129.481 153.535C135.078 150.739 143.132 139.463 145.689 132.733C148.247 126.004 148.739 111.215 144.837 105.001C140.936 98.7867 126.799 88.2749 123.482 86.4219C120.165 84.569 114.478 81.9966 114.478 81.9966L72.2195 110.722Z" fill="#674DE2"/>
<path opacity="0.5" d="M72.2195 110.722C72.0607 113.787 73.3343 123.779 74.8065 127.583C76.2787 131.386 87.7737 150.011 92.545 153.352C97.3159 156.693 105.978 158.78 109.755 158.883C113.533 158.987 123.885 156.33 129.481 153.535C135.078 150.739 143.132 139.463 145.689 132.733C148.247 126.004 148.739 111.215 144.837 105.001C140.936 98.7867 126.799 88.2749 123.482 86.4219C120.165 84.569 114.478 81.9966 114.478 81.9966L72.2195 110.722Z" fill="white"/>
<path d="M94.0439 154.613C94.0439 154.613 105.186 131.716 112.722 122.015C119.687 113.048 140.8 100.069 140.8 100.069C140.8 100.069 140.21 99.1115 139.963 98.8833C139.716 98.6551 138.461 97.9515 138.461 97.9515C138.461 97.9515 118.53 109.751 109.944 120.312C100.107 132.412 90.7861 152.332 90.7861 152.332C90.7861 152.332 91.1158 153.111 92.2997 154.081C92.6424 154.362 94.0439 154.613 94.0439 154.613Z" fill="#455A64"/>
<path d="M107.325 105.508C107.43 106.882 112.911 112.282 114.091 112.366C114.803 112.417 123.193 106.126 123.876 105.538C124.558 104.95 128.014 100.491 128.002 99.9028C127.99 99.3149 122.377 93.1636 121.243 93.2691C120.109 93.3743 115.448 95.792 114.816 96.4367C114.184 97.0815 107.223 104.168 107.325 105.508Z" fill="#674DE2"/>
<path d="M107.997 104.401C108.124 105.773 114.303 111.411 114.998 111.572C115.693 111.732 123.304 106.013 123.999 105.44C124.694 104.866 128.814 99.9592 128.814 99.3709C128.814 98.783 123.335 92.5083 122.199 92.5895C121.063 92.6707 115.514 95.7526 114.869 96.384C114.224 97.0161 107.924 103.623 107.997 104.401Z" fill="#674DE2"/>
<path opacity="0.7" d="M107.997 104.401C108.124 105.773 114.303 111.411 114.998 111.572C115.693 111.732 123.304 106.013 123.999 105.44C124.694 104.866 128.814 99.9592 128.814 99.3709C128.814 98.783 123.335 92.5083 122.199 92.5895C121.063 92.6707 115.514 95.7526 114.869 96.384C114.224 97.0161 107.924 103.623 107.997 104.401Z" fill="white"/>
<path d="M113.78 104.519C113.609 103.669 112.602 102.791 112.178 102.679C111.754 102.567 111.297 102.751 111.034 102.891C110.771 103.031 110.46 103.594 110.549 104.273C110.627 104.878 111.525 105.804 111.955 105.944C112.384 106.085 113.049 105.88 113.336 105.672C113.623 105.465 113.863 104.932 113.78 104.519Z" fill="#37474F"/>
<path d="M113.333 105.292C113.671 105.055 113.754 104.442 113.585 103.952C113.415 103.462 112.953 103.066 112.636 102.923C112.319 102.779 111.633 102.823 111.361 103.04C111.089 103.258 110.922 103.811 111.023 104.197C111.124 104.583 111.627 105.288 112.184 105.479C112.458 105.572 113.026 105.507 113.333 105.292Z" fill="#455A64"/>
<path d="M116.883 107.865C116.712 107.015 115.705 106.138 115.281 106.026C114.857 105.914 114.4 106.098 114.138 106.237C113.875 106.377 113.564 106.941 113.652 107.62C113.731 108.225 114.629 109.15 115.058 109.291C115.488 109.432 116.152 109.227 116.44 109.019C116.727 108.812 116.966 108.279 116.883 107.865Z" fill="#37474F"/>
<path d="M116.435 108.639C116.773 108.402 116.857 107.789 116.687 107.299C116.518 106.809 116.055 106.413 115.738 106.269C115.421 106.126 114.735 106.17 114.463 106.387C114.191 106.604 114.025 107.157 114.125 107.543C114.226 107.929 114.73 108.635 115.287 108.825C115.561 108.919 116.128 108.854 116.435 108.639Z" fill="#455A64"/>
<path d="M116.544 101.755C116.373 100.905 115.366 100.027 114.942 99.9153C114.518 99.8037 114.061 99.9872 113.799 100.127C113.536 100.267 113.225 100.83 113.313 101.51C113.392 102.114 114.289 103.04 114.719 103.181C115.149 103.322 115.813 103.116 116.101 102.909C116.387 102.702 116.627 102.169 116.544 101.755Z" fill="#37474F"/>
<path d="M116.095 102.528C116.433 102.291 116.517 101.679 116.347 101.189C116.178 100.699 115.716 100.302 115.399 100.159C115.081 100.016 114.395 100.059 114.123 100.277C113.851 100.494 113.685 101.047 113.786 101.433C113.886 101.819 114.39 102.524 114.947 102.715C115.221 102.809 115.789 102.744 116.095 102.528Z" fill="#455A64"/>
<path d="M119.646 105.102C119.475 104.252 118.469 103.374 118.045 103.262C117.621 103.151 117.164 103.334 116.901 103.474C116.639 103.614 116.327 104.178 116.416 104.857C116.495 105.461 117.392 106.387 117.822 106.528C118.251 106.669 118.916 106.463 119.203 106.256C119.49 106.049 119.73 105.516 119.646 105.102Z" fill="#37474F"/>
<path d="M119.199 105.875C119.537 105.638 119.621 105.026 119.451 104.536C119.281 104.046 118.819 103.649 118.502 103.506C118.185 103.363 117.499 103.407 117.227 103.624C116.955 103.841 116.788 104.394 116.889 104.78C116.99 105.166 117.494 105.871 118.051 106.062C118.324 106.156 118.892 106.09 119.199 105.875Z" fill="#455A64"/>
<path d="M116.944 98.5813L122.096 94.4405L122.4 94.7194L117.254 98.9024L116.944 98.5813Z" fill="#37474F"/>
<path d="M117.8 99.4558L122.951 95.315L123.256 95.5939L118.109 99.7773L117.8 99.4558Z" fill="#37474F"/>
<path d="M118.655 100.33L123.807 96.1899L124.111 96.4688L118.965 100.652L118.655 100.33Z" fill="#37474F"/>
<path d="M119.511 101.205L124.662 97.0644L124.967 97.3433L119.82 101.526L119.511 101.205Z" fill="#37474F"/>
<path d="M106.744 131.994C107.964 126.015 119.806 110.715 130.29 108.894C140.774 107.072 160.925 111.738 160.925 111.738C160.925 111.738 165.752 104.433 167.811 104.495C169.869 104.556 168.971 134.237 167.349 135.289C165.727 136.34 144.727 139.333 144.727 139.333C144.727 139.333 133.654 155.239 122.545 155.786C111.435 156.332 104.857 141.247 106.744 131.994Z" fill="#674DE2"/>
<path opacity="0.5" d="M106.744 131.994C107.964 126.015 119.806 110.715 130.29 108.894C140.774 107.072 160.925 111.738 160.925 111.738C160.925 111.738 165.752 104.433 167.811 104.495C169.869 104.556 168.971 134.237 167.349 135.289C165.727 136.34 144.727 139.333 144.727 139.333C144.727 139.333 133.654 155.239 122.545 155.786C111.435 156.332 104.857 141.247 106.744 131.994Z" fill="white"/>
<path d="M160.925 111.738C156.117 110.812 151.284 110.023 146.427 109.423C141.605 108.892 136.708 108.363 131.874 108.943C129.757 109.156 127.82 109.991 125.949 110.942C123.524 112.192 121.256 113.726 119.137 115.457C115.366 118.554 112.099 122.245 109.358 126.288C111.837 122.062 114.986 118.192 118.729 114.972C121.065 112.962 123.642 111.187 126.425 109.839C128.094 108.994 129.908 108.344 131.767 108.139C136.682 107.568 141.641 108.126 146.511 108.798C151.37 109.511 156.181 110.503 160.925 111.738Z" fill="#263238"/>
<path d="M113.512 120.64C112.336 121.47 111.203 122.226 110.03 123.044C110.801 121.826 112.111 120.951 113.512 120.64Z" fill="#263238"/>
<path d="M160.924 111.738C161.563 120.051 161.65 128.406 161.172 136.73C160.529 128.417 160.45 120.063 160.924 111.738Z" fill="#674DE2"/>
<path d="M167.349 135.286C166.923 135.562 165.151 135.975 162.777 136.427C162.9 135.116 163.337 132.735 164.947 131.411C165.899 130.627 167.204 130.169 168.407 129.909C168.126 132.911 167.759 135.021 167.349 135.286Z" fill="#674DE2"/>
<path d="M169.003 115.112L169.002 115.116C168.978 115.121 168.952 115.129 168.924 115.133C165.344 115.792 163.276 112.178 163.695 107.972L163.696 107.968C165.138 106.193 166.805 104.464 167.812 104.495C168.638 104.521 168.986 109.311 169.003 115.112Z" fill="#674DE2"/>
<path d="M144.727 139.333C137.604 136.072 133.756 128.112 132.774 120.655C132.512 118.968 132.463 117.064 132.442 115.373C132.709 117.048 132.911 118.906 133.299 120.565C134.738 127.832 138.246 135.296 144.727 139.333Z" fill="#674DE2"/>
<path d="M121.683 114.132C122.021 117.422 128.393 118.379 133.911 117.156C138.701 116.094 143.256 113.216 143.041 110.315C142.826 107.414 136.405 105.908 130.43 107.171C126.04 108.099 121.446 111.828 121.683 114.132Z" fill="#674DE2"/>
<path d="M123.455 110.895C122.404 113.158 122.823 115.179 124.501 116.954C122.348 115.665 121.814 112.822 123.455 110.895Z" fill="black"/>
<path d="M125.186 109.493C123.577 112.513 124.198 115.216 126.667 117.505C123.737 115.734 122.975 112.176 125.186 109.493Z" fill="black"/>
<path d="M127.271 108.233C125.762 111.362 126.572 115.329 129.136 117.666C128.688 117.36 128.254 116.998 127.878 116.598C125.874 114.378 125.511 110.694 127.271 108.233Z" fill="black"/>
<path d="M129.591 107.36C128.399 110.175 128.991 113.92 130.586 116.472C130.831 116.861 131.127 117.204 131.427 117.554C131.064 117.266 130.727 116.946 130.426 116.59C128.515 114.157 127.881 110.041 129.591 107.36Z" fill="black"/>
<path d="M141.107 113.852C142.295 111.668 141.966 109.527 140.411 107.662C142.475 109.095 142.864 112.014 141.107 113.852Z" fill="black"/>
<path d="M138.889 115.328C140.673 112.41 140.253 109.419 137.913 106.969C140.746 108.944 141.25 112.77 138.889 115.328Z" fill="black"/>
<path d="M136.677 116.33C138.384 113.291 137.86 109.249 135.443 106.732C135.875 107.073 136.283 107.458 136.632 107.89C138.485 110.257 138.594 113.973 136.677 116.33Z" fill="black"/>
<path d="M134.762 116.954C135.521 114.019 135.331 110.564 133.886 107.872C133.674 107.475 133.405 107.121 133.136 106.758C133.3 106.912 133.463 107.07 133.623 107.233C135.807 109.754 136.113 113.969 134.762 116.954Z" fill="black"/>
<path d="M131.572 106.963C131.882 110.433 132.458 113.893 133.339 117.265C132.563 115.683 132.163 113.942 131.856 112.216C131.586 110.485 131.374 108.714 131.572 106.963Z" fill="black"/>
<path d="M72.3332 110.734C67.4974 115.297 58.271 130.396 59.1289 147.921C59.1557 148.464 54.9962 153.14 55.5987 154.017C56.2012 154.894 59.7306 154.062 60.1642 154.133C60.5982 154.206 59.1728 160.057 60.0932 160.37C61.4955 160.847 64.5985 156.691 65.1633 156.626C65.728 156.561 67.4438 161.051 68.6711 161.081C69.8985 161.112 71.937 153.803 72.3909 153.42C72.8448 153.036 78.6141 154.502 79.2771 153.222C79.9401 151.943 75.0656 148.177 75.1724 147.601C75.2792 147.026 83.1324 133.052 92.2999 130.39C92.2999 130.39 88.9902 121.047 85.0861 116.127C81.1812 111.206 72.3332 110.734 72.3332 110.734Z" fill="#674DE2"/>
<path opacity="0.5" d="M72.3332 110.734C67.4974 115.297 58.271 130.396 59.1289 147.921C59.1557 148.464 54.9962 153.14 55.5987 154.017C56.2012 154.894 59.7306 154.062 60.1642 154.133C60.5982 154.206 59.1728 160.057 60.0932 160.37C61.4955 160.847 64.5985 156.691 65.1633 156.626C65.728 156.561 67.4438 161.051 68.6711 161.081C69.8985 161.112 71.937 153.803 72.3909 153.42C72.8448 153.036 78.6141 154.502 79.2771 153.222C79.9401 151.943 75.0656 148.177 75.1724 147.601C75.2792 147.026 83.1324 133.052 92.2999 130.39C92.2999 130.39 88.9902 121.047 85.0861 116.127C81.1812 111.206 72.3332 110.734 72.3332 110.734Z" fill="white"/>
<path d="M79.2793 153.223C78.6159 154.504 72.8434 153.035 72.3907 153.419C71.938 153.803 69.8978 161.113 68.6717 161.081C67.446 161.049 65.7307 156.562 65.1635 156.626C64.6008 156.69 61.4949 160.848 60.0954 160.372C59.1713 160.057 60.5984 154.206 60.164 154.133C59.7296 154.06 56.2026 154.892 55.5989 154.018C54.9952 153.14 59.1575 148.465 59.1303 147.921C58.9748 144.792 59.1441 141.746 59.5509 138.818C62.5472 138.247 67.1955 138.047 70.1504 138.692C72.7715 139.259 76.041 140.872 78.2411 142.578C76.352 145.272 75.2132 147.386 75.1718 147.601C75.0666 148.177 79.9427 151.942 79.2793 153.223Z" fill="#37474F"/>
<path d="M83.1716 136.55C83.0802 136.645 82.984 136.742 82.8927 136.838C80.2122 134.235 77.2436 131.889 73.7991 130.493C70.1122 129.112 66.2243 128.32 62.3223 127.698C62.3633 127.589 62.3998 127.479 62.4412 127.369C66.4164 127.561 70.3822 128.27 74.1283 129.638C77.6825 131.102 80.7153 133.613 83.1716 136.55Z" fill="#674DE2"/>
<path d="M84.2189 135.511C84.1364 135.589 84.054 135.667 83.972 135.745C81.1864 132.987 78.0943 130.471 74.4761 129.007C70.7571 127.612 66.8278 126.821 62.8896 126.194C62.9307 126.089 62.9721 125.983 63.0175 125.878C67.0292 126.061 71.0271 126.77 74.8053 128.152C78.5332 129.693 81.6895 132.383 84.2189 135.511Z" fill="#674DE2"/>
<path d="M78.2402 142.579C81.565 136.97 86.409 131.345 93.1684 130.237C90.1437 131.485 87.3509 133.181 84.979 135.422C82.9076 137.351 80.189 140.464 78.2402 142.579Z" fill="#263238"/>
<path d="M87.5254 132.838C88.8688 131.999 90.6922 131.811 92.142 132.481C90.5663 132.449 89.095 132.605 87.5254 132.838Z" fill="#263238"/>
<path d="M61.4607 145.496C60.4814 137.14 63.2114 126.432 69.5624 120.64C65.4809 128.326 63.4124 137.067 61.4607 145.496Z" fill="white"/>
<path d="M87.5254 140.076C89.8932 142.365 92.1566 144.726 94.4741 146.987C95.7936 148.214 97.023 149.483 98.4703 150.37C99.6494 150.946 100.949 151.149 102.257 151.372C105.4 151.859 108.646 152.111 111.866 152.276C115.112 152.52 118.283 151.895 121.504 151.451C118.452 152.737 115.222 153.795 111.872 153.86C108.542 154.022 105.239 153.88 101.932 153.375C100.438 153.117 98.8524 152.817 97.4988 152.058C95.8606 150.976 94.5796 149.519 93.3247 148.068C91.1766 145.551 89.2399 142.893 87.5254 140.076Z" fill="white"/>
<path d="M101.316 41.17L102.118 37.6407C102.118 37.6407 93.3714 30.7549 81.7294 29.8418C70.0873 28.9287 55.8241 35.1499 51.3646 38.8883C46.9051 42.6263 37.0897 53.3257 36.2298 62.9401C35.3699 72.5546 39.9966 93.4713 44.7996 99.8861C49.6026 106.301 67.2007 116.094 67.2007 116.094C67.2007 116.094 82.7797 113.864 91.585 110.746C100.391 107.629 113.22 98.0222 115.554 94.127C117.888 90.2319 120.644 77.9276 120.644 77.9276L118.583 76.2379L101.316 41.17Z" fill="#674DE2"/>
<path opacity="0.5" d="M101.316 41.17L102.118 37.6407C102.118 37.6407 93.3714 30.7549 81.7294 29.8418C70.0873 28.9287 55.8241 35.1499 51.3646 38.8883C46.9051 42.6263 37.0897 53.3257 36.2298 62.9401C35.3699 72.5546 39.9966 93.4713 44.7996 99.8861C49.6026 106.301 67.2007 116.094 67.2007 116.094C67.2007 116.094 82.7797 113.864 91.585 110.746C100.391 107.629 113.22 98.0222 115.554 94.127C117.888 90.2319 120.644 77.9276 120.644 77.9276L118.583 76.2379L101.316 41.17Z" fill="white"/>
<path d="M101.317 41.1701L102.119 37.6407C102.119 37.6407 93.5295 36.3638 85.5768 37.9058C77.624 39.4478 66.7546 44.8699 61.2241 52.7139C55.6935 60.5578 52.5174 68.5397 52.867 75.5481C53.2165 82.5565 59.2858 100.671 70.0728 104.224C80.8598 107.778 92.8275 103.982 98.8217 101.704C104.815 99.4262 109.094 95.1096 111.141 93.2006C115.664 88.9822 118.584 76.2387 118.584 76.2387L101.317 41.1701Z" fill="#674DE2"/>
<path d="M42.8209 57.7296C40.9204 57.1299 38.594 60.1546 39.1746 62.1464C39.7552 64.1383 42.8627 64.4403 43.9167 63.2707C44.9711 62.1014 44.5346 58.27 42.8209 57.7296Z" fill="white"/>
<path d="M66.3995 117.645L62.9736 114.817L63.0041 113.646C63.0041 113.646 80.5043 110.626 86.2614 108.73C94.7541 105.934 109.126 97.8228 112.678 92.594C116.08 87.5855 118.583 76.2387 118.583 76.2387L119.775 76.1887L121.648 78.2971C121.648 78.2971 119.616 90.0747 115.718 95.6028C111.82 101.131 96.3574 110.567 88.6377 112.901C80.918 115.235 66.3995 117.645 66.3995 117.645Z" fill="#674DE2"/>
<path opacity="0.5" d="M66.3995 117.645L62.9736 114.817L63.0041 113.646C63.0041 113.646 80.5043 110.626 86.2614 108.73C94.7541 105.934 109.126 97.8228 112.678 92.594C116.08 87.5855 118.583 76.2387 118.583 76.2387L119.775 76.1887L121.648 78.2971C121.648 78.2971 119.616 90.0747 115.718 95.6028C111.82 101.131 96.3574 110.567 88.6377 112.901C80.918 115.235 66.3995 117.645 66.3995 117.645Z" fill="white"/>
<path d="M119.776 76.1907C119.567 77.3567 118.228 85.9294 114.013 92.9711C109.797 100.013 93.4313 108.03 86.7364 109.985C81.1231 111.625 62.9736 114.818 62.9736 114.818L63.0041 113.647C63.0041 113.647 80.5031 110.627 86.263 108.732C94.7557 105.934 109.125 97.8216 112.68 92.5927C116.082 87.5843 118.585 76.2378 118.585 76.2378L119.776 76.1907Z" fill="#674DE2"/>
<path d="M37.1597 90.292C36.5666 96.9938 41.6846 105.854 44.376 107.673C47.0677 109.492 50.7327 110.056 52.8366 109.631C54.9401 109.206 58.1316 107.249 58.9372 102.003C59.6541 97.3352 54.9113 86.4796 52.2402 84.4305C49.5691 82.3815 44.7069 81.1066 42.2932 81.9742C39.8799 82.8419 37.4484 87.0285 37.1597 90.292Z" fill="#674DE2"/>
<path d="M40.7624 86.3148C37.9354 87.2835 36.078 91.6318 36.2282 95.6629C36.3784 99.6941 38.7393 103.711 40.6293 105.515C42.5188 107.318 47.3437 108.595 49.6729 107.619C52.0021 106.644 53.8393 103.683 53.9497 100.586C54.0601 97.4887 52.0537 91.0804 48.608 88.3647C46.9162 87.031 43.3279 85.4354 40.7624 86.3148Z" fill="#674DE2"/>
<path opacity="0.3" d="M40.7624 86.3148C37.9354 87.2835 36.078 91.6318 36.2282 95.6629C36.3784 99.6941 38.7393 103.711 40.6293 105.515C42.5188 107.318 47.3437 108.595 49.6729 107.619C52.0021 106.644 53.8393 103.683 53.9497 100.586C54.0601 97.4887 52.0537 91.0804 48.608 88.3647C46.9162 87.031 43.3279 85.4354 40.7624 86.3148Z" fill="white"/>
<path opacity="0.3" d="M38.9817 89.81C36.4523 92.419 38.0503 99.9117 41.3141 99.6827C43.986 99.4956 45.5954 96.546 45.9218 94.5679C46.2483 92.5899 45.5999 89.8892 43.6722 89.0492C42.0421 88.3395 39.9094 88.8531 38.9817 89.81Z" fill="white"/>
<path d="M101.316 41.17C110.977 44.1233 115.969 53.9923 117.744 58.8319C119.52 63.6714 119.133 72.2445 118.134 75.935C117.135 79.6255 112.826 89.8206 106.996 94.5375C101.167 99.2544 87.5953 104.251 76.2038 102.482C67.8044 101.178 58.4189 88.2717 57.3061 77.4137C56.2367 66.9807 61.1261 58.3662 66.8471 51.9729C72.5688 45.5796 89.5437 37.5713 101.316 41.17Z" fill="#37474F"/>
<path d="M101.369 41.6524C110.281 44.3766 114.886 53.4808 116.524 57.9451C118.162 62.4095 117.805 70.318 116.884 73.7227C115.962 77.127 111.987 86.532 106.609 90.8831C101.232 95.2342 88.7121 99.8435 78.204 98.2118C70.4559 97.0088 61.798 85.1033 60.7712 75.0869C59.7846 65.463 64.2953 57.516 69.5729 51.618C74.8496 45.7201 90.5087 38.3325 101.369 41.6524Z" fill="#455A64"/>
<path opacity="0.2" d="M65.0917 66.7886C61.823 70.1605 63.8883 79.8432 68.1059 79.5476C71.5585 79.3056 73.6388 75.4937 74.0607 72.9375C74.4825 70.3813 73.6449 66.891 71.1533 65.8057C69.047 64.8886 66.2907 65.552 65.0917 66.7886Z" fill="white"/>
<path opacity="0.2" d="M73.1035 60.5435C71.9273 61.427 72.7438 64.1228 74.1887 64.6295C75.6337 65.1366 77.1501 63.4009 76.9008 62.2658C76.6511 61.131 74.164 59.7469 73.1035 60.5435Z" fill="white"/>
<path opacity="0.2" d="M113.657 77.4798C114.784 77.7043 115.929 75.8237 115.471 74.7178C115.013 73.6119 113.638 73.9273 113.107 74.6642C112.576 75.4015 112.64 77.2772 113.657 77.4798Z" fill="white"/>
<path d="M101.5 48.7086L104.559 49.2742L105.243 52.499L105.927 49.2742L108.986 48.7066L105.94 47.9624L105.243 44.9162L104.546 47.9624L101.5 48.7086Z" fill="white"/>
<path d="M110.534 53.8944C110.939 53.8944 110.94 54.525 110.534 54.525C110.128 54.525 110.128 53.8944 110.534 53.8944Z" fill="white"/>
<path d="M97.7967 89.2258C98.2023 89.2258 98.2031 89.8563 97.7967 89.8563C97.3911 89.8559 97.3903 89.2258 97.7967 89.2258Z" fill="white"/>
<path d="M67.357 88.1138C68.1349 88.1138 68.1361 89.3224 67.357 89.3224C66.5795 89.3224 66.5783 88.1138 67.357 88.1138Z" fill="white"/>
<path d="M77.9707 67.0899L79.9158 67.4496L80.3507 69.5003L80.7855 67.4496L82.731 67.0886L80.794 66.6152L80.3507 64.6782L79.9077 66.6152L77.9707 67.0899Z" fill="white"/>
<path d="M106.944 81.4903L108.032 81.6912L108.275 82.8374L108.518 81.6912L109.605 81.4894L108.522 81.2251L108.275 80.1423L108.027 81.2251L106.944 81.4903Z" fill="white"/>
<path d="M102.399 54.2095C103.177 54.2095 103.178 55.4181 102.399 55.4181C101.621 55.4185 101.62 54.2095 102.399 54.2095Z" fill="white"/>
<path d="M72.2236 90.6728L73.3113 90.8737L73.5541 92.0203L73.7973 90.8737L74.8846 90.6723L73.8018 90.4076L73.5541 89.3248L73.3064 90.4076L72.2236 90.6728Z" fill="white"/>
</g>
<defs>
<clipPath id="clip0_19232_637">
<rect width="224" height="208" fill="white"/>
</clipPath>
</defs>
</svg>
