<svg width="300" height="301" viewBox="0 0 300 301" fill="none" xmlns="http://www.w3.org/2000/svg">
<g clip-path="url(#clip0_19232_639)">
<path d="M150 300.072C232.842 300.072 299.999 232.915 299.999 150.073C299.999 67.2301 232.842 0.072998 150 0.072998C67.1571 0.072998 0 67.2301 0 150.073C0 232.915 67.1571 300.072 150 300.072Z" fill="#674DE2" stroke="#5D27E6" stroke-width="0.950278" stroke-miterlimit="10"/>
<path d="M185.567 4.32739C189.271 5.22921 192.92 6.26596 196.51 7.43575C208.275 28.8417 214.974 53.4264 214.974 79.5771C214.974 162.419 147.817 229.577 64.9743 229.577C48.7378 229.577 33.1077 226.986 18.4639 222.215C43.9693 268.619 93.3087 300.073 150 300.073C232.843 300.073 300 232.916 300 150.073C299.999 79.4868 251.239 20.2987 185.567 4.32739Z" fill="#5D27E6" stroke="#5D27E6" stroke-width="0.950278" stroke-miterlimit="10"/>
<path d="M70.8484 89.2769C80.8544 70.0538 81.3801 50.5218 72.0227 45.6511C62.6653 40.7804 46.9682 52.4154 36.9622 71.6385C26.9562 90.8617 26.4304 110.394 35.7878 115.264C45.1452 120.135 60.8423 108.5 70.8484 89.2769Z" fill="#5D27E6" stroke="#5D27E6" stroke-width="0.950278" stroke-miterlimit="10"/>
<path d="M43.3596 75.5954C34.8014 92.0371 33.1859 108.696 38.7498 116.224C48.206 117.746 61.8397 106.592 70.8549 89.2718C79.4132 72.8301 81.0286 56.1707 75.4647 48.6436C66.0085 47.1212 52.3749 58.2746 43.3596 75.5954Z" fill="#674DE2" stroke="#5D27E6" stroke-width="0.950278" stroke-miterlimit="10"/>
<path d="M97.4184 175.381C107.714 172.845 113.626 160.907 110.623 148.717C107.62 136.527 96.8396 128.702 86.544 131.238C76.2485 133.774 70.3366 145.712 73.3395 157.902C76.3424 170.091 87.1229 177.917 97.4184 175.381Z" fill="#5D27E6" stroke="#5D27E6" stroke-width="0.950278" stroke-miterlimit="10"/>
<path d="M110.624 148.698C110.257 147.208 109.771 145.785 109.187 144.436C104.353 138.954 97.4425 136.209 90.7374 137.86C80.442 140.397 74.5304 152.335 77.5342 164.524C77.901 166.014 78.3866 167.438 78.971 168.787C83.8051 174.269 90.7155 177.015 97.4207 175.363C107.716 172.825 113.628 160.888 110.624 148.698Z" fill="#674DE2" stroke="#5D27E6" stroke-width="0.950278" stroke-miterlimit="10"/>
<path d="M217.796 130.174C224.45 122.423 228.479 112.354 228.479 101.338C228.479 76.8698 208.644 57.0346 184.175 57.0346C159.706 57.0346 139.871 76.8698 139.871 101.338C139.871 125.807 159.706 145.642 184.175 145.642C187.362 145.642 190.469 145.298 193.465 144.659C192.779 146.763 192.402 149.006 192.402 151.338C192.402 163.223 202.036 172.857 213.922 172.857C225.807 172.857 235.441 163.223 235.441 151.338C235.442 140.777 227.831 131.999 217.796 130.174Z" fill="#5D27E6" stroke="#5D27E6" stroke-width="0.950278" stroke-miterlimit="10"/>
<path d="M218.909 130.717C224.987 123.637 228.668 114.439 228.668 104.377C228.668 82.0251 210.548 63.9052 188.197 63.9052C165.845 63.9052 147.726 82.0251 147.726 104.377C147.726 126.728 165.845 144.848 188.197 144.848C191.109 144.848 193.946 144.534 196.684 143.95C196.057 145.871 195.714 147.921 195.714 150.052C195.714 160.908 204.514 169.709 215.371 169.709C226.228 169.709 235.029 160.909 235.029 150.052C235.029 140.403 228.076 132.384 218.909 130.717Z" fill="#674DE2" stroke="#5D27E6" stroke-width="0.950278" stroke-miterlimit="10"/>
<path opacity="0.29" d="M215.371 169.708C226.228 169.708 235.029 160.908 235.029 150.051C235.029 140.403 228.076 132.384 218.91 130.717C224.988 123.637 228.669 114.439 228.669 104.377C228.669 92.2406 223.32 81.3599 214.86 73.942C214.929 75.8131 214.974 77.6899 214.974 79.5772C214.974 106.157 208.051 131.117 195.924 152.769C197.249 162.335 205.439 169.708 215.371 169.708Z" fill="#674DE2"/>
<path d="M188.645 207.866C190.497 213.999 186.031 220.772 178.669 222.996C171.307 225.22 163.838 222.049 161.986 215.917C160.134 209.784 164.6 203.011 171.962 200.787C179.324 198.563 186.793 201.733 188.645 207.866Z" fill="#674DE2" stroke="#5D27E6" stroke-width="0.950278" stroke-miterlimit="10"/>
<path d="M188.645 207.866C190.497 213.999 186.031 220.772 178.669 222.996C171.307 225.22 163.838 222.049 161.986 215.917C160.134 209.784 164.6 203.011 171.962 200.787C179.324 198.563 186.793 201.733 188.645 207.866Z" fill="#5D27E6" stroke="#674DE2" stroke-width="0.950278" stroke-miterlimit="10"/>
<path d="M73.7268 222.932C83.6515 235.953 86.6107 250.385 80.336 255.167C74.0623 259.949 60.9304 253.27 51.0066 240.25C41.0819 227.23 38.1227 212.798 44.3974 208.016C50.6712 203.234 63.8021 209.913 73.7268 222.932Z" fill="#5D27E6" stroke="#5D27E6" stroke-width="0.950278" stroke-miterlimit="10"/>
<path d="M47.7438 212.852C42.2227 217.06 43.8543 228.739 51.0859 240.354C61.0011 253.305 74.0779 259.936 80.3355 255.167C85.8557 250.959 84.225 239.28 76.9934 227.665C67.0782 214.714 54.0014 208.082 47.7438 212.852Z" fill="#674DE2" stroke="#5D27E6" stroke-width="0.950278" stroke-miterlimit="10"/>
<path opacity="0.29" d="M45.5938 228.325C46.6809 232.121 48.5244 236.238 51.0864 240.354C61.0016 253.305 74.0784 259.936 80.3359 255.167C85.6413 251.123 84.3262 240.18 77.7996 229.025C73.5709 229.383 69.2947 229.576 64.9737 229.576C58.4054 229.577 51.9388 229.146 45.5938 228.325Z" fill="#674DE2"/>
<path d="M261.862 227.602C265.942 221.37 266.574 214.567 263.274 212.407C259.974 210.247 253.991 213.548 249.912 219.78C245.832 226.012 245.201 232.815 248.501 234.975C251.801 237.135 257.783 233.834 261.862 227.602Z" fill="#5D27E6" stroke="#674DE2" stroke-width="0.950278" stroke-miterlimit="10"/>
<path opacity="0.29" d="M261.862 227.602C265.942 221.37 266.574 214.567 263.274 212.407C259.974 210.247 253.991 213.548 249.912 219.78C245.832 226.012 245.201 232.815 248.501 234.975C251.801 237.135 257.783 233.834 261.862 227.602Z" fill="#5D27E6" stroke="#674DE2" stroke-width="0.950278" stroke-miterlimit="10"/>
<path d="M259.549 226.158C263.182 220.609 264.071 214.614 261.893 211.842C258.482 211.122 253.464 214.328 249.9 219.774C246.267 225.324 245.378 231.318 247.556 234.091C250.966 234.811 255.984 231.604 259.549 226.158Z" fill="#5D27E6" stroke="#674DE2" stroke-width="0.950278" stroke-miterlimit="10"/>
<path d="M284.868 95.0257C287.575 104.432 286.841 112.899 283.227 113.939C279.614 114.979 274.49 108.198 271.784 98.7917C269.076 89.3858 269.811 80.9188 273.425 79.8783C277.038 78.8387 282.162 85.6199 284.868 95.0257Z" fill="#5D27E6" stroke="#674DE2" stroke-width="0.950278" stroke-miterlimit="10"/>
<path d="M282.245 88.1409C280.932 87.0814 279.645 86.6319 278.508 86.9588C274.895 87.9984 274.16 96.4663 276.867 105.872C277.592 108.392 278.494 110.714 279.491 112.757C280.804 113.817 282.091 114.266 283.227 113.939C286.84 112.899 287.575 104.432 284.868 95.0257C284.143 92.5056 283.241 90.184 282.245 88.1409Z" fill="#674DE2" stroke="#5D27E6" stroke-width="0.950278" stroke-miterlimit="10"/>
<path d="M282.245 88.1409C280.932 87.0814 279.645 86.6319 278.508 86.9588C274.895 87.9984 274.16 96.4663 276.867 105.872C277.592 108.392 278.494 110.714 279.491 112.757C280.804 113.817 282.091 114.266 283.227 113.939C286.84 112.899 287.575 104.432 284.868 95.0257C284.143 92.5056 283.241 90.184 282.245 88.1409Z" fill="#5D27E6" stroke="#674DE2" stroke-width="0.950278" stroke-miterlimit="10"/>
<path d="M187.184 20.9157C186.852 27.5467 175.715 32.377 162.309 31.7042C148.903 31.0314 138.306 25.1111 138.638 18.4801C138.971 11.8491 150.108 7.0188 163.514 7.69159C176.919 8.36344 187.517 14.2846 187.184 20.9157Z" fill="#5D27E6" stroke="#5D27E6" stroke-width="0.950278" stroke-miterlimit="10"/>
<path d="M187.001 22.1212C182.993 18.3049 175.257 15.4797 166.247 15.0283C153.669 14.3973 143.088 18.6109 141.555 24.61C145.562 28.4263 153.298 31.2515 162.309 31.7029C174.887 32.3348 185.467 28.1213 187.001 22.1212Z" fill="#674DE2" stroke="#5D27E6" stroke-width="0.950278" stroke-miterlimit="10"/>
<path d="M144.902 279.651C156.418 279.651 165.754 273.83 165.754 266.651C165.754 259.471 156.418 253.651 144.902 253.651C133.386 253.651 124.05 259.471 124.05 266.651C124.05 273.83 133.386 279.651 144.902 279.651Z" fill="#5D27E6" stroke="#674DE2" stroke-width="0.950278" stroke-miterlimit="10"/>
<path opacity="0.29" d="M144.902 279.651C156.418 279.651 165.754 273.83 165.754 266.651C165.754 259.471 156.418 253.651 144.902 253.651C133.386 253.651 124.05 259.471 124.05 266.651C124.05 273.83 133.386 279.651 144.902 279.651Z" fill="#5D27E6" stroke="#674DE2" stroke-width="0.950278" stroke-miterlimit="10"/>
<path d="M163.15 261.071C163.15 260.818 163.136 260.568 163.113 260.319C159.547 256.341 152.73 253.651 144.903 253.651C133.386 253.651 124.051 259.471 124.051 266.651C124.051 266.904 124.065 267.154 124.088 267.402C127.653 271.379 134.471 274.071 142.298 274.071C153.814 274.071 163.15 268.25 163.15 261.071Z" fill="#5D27E6" stroke="#674DE2" stroke-width="0.950278" stroke-miterlimit="10"/>
<path d="M29.3035 168.235C30.5646 173.863 29.3064 178.936 26.4917 179.567C23.6779 180.198 20.3738 176.147 19.1128 170.519C17.8517 164.891 19.1099 159.817 21.9246 159.187C24.7384 158.556 28.0416 162.607 29.3035 168.235Z" fill="#5D27E6" stroke="#5D27E6" stroke-width="0.950278" stroke-miterlimit="10"/>
<path d="M29.3033 168.235C29.1037 167.343 28.8471 166.497 28.5554 165.697C27.3742 164.504 26.0856 163.915 24.8854 164.184C22.0716 164.815 20.8125 169.889 22.0735 175.516C22.2731 176.409 22.5297 177.254 22.8224 178.054C24.0045 179.247 25.2921 179.835 26.4924 179.566C29.3052 178.936 30.5643 173.863 29.3033 168.235Z" fill="#674DE2" stroke="#5D27E6" stroke-width="0.950278" stroke-miterlimit="10"/>
</g>
<defs>
<clipPath id="clip0_19232_639">
<rect width="300" height="300" fill="white" transform="translate(0 0.072998)"/>
</clipPath>
</defs>
</svg>
