<svg width="66" height="66" viewBox="0 0 66 66" fill="none" xmlns="http://www.w3.org/2000/svg">
<g clip-path="url(#clip0_19232_642)">
<path d="M14.4468 48.2218C22.6164 58.3425 37.4437 59.9242 47.5644 51.7545C57.6852 43.5849 59.2668 28.7576 51.0972 18.6368C42.9275 8.51612 28.1002 6.93446 17.9795 15.1041C7.85876 23.2738 6.2771 38.1011 14.4468 48.2218Z" fill="#2176C2" stroke="#1E3C73" stroke-width="0.149198" stroke-miterlimit="10"/>
<path d="M54.0847 23.4016C54.3397 23.9429 54.5729 24.491 54.7841 25.045C53.3292 28.5933 50.9863 31.8361 47.7915 34.415C37.6708 42.5847 22.8435 41.003 14.6738 30.8823C13.0727 28.8987 11.8477 26.7337 10.9865 24.4742C7.83269 32.1664 8.85567 41.296 14.4464 48.2219C22.6161 58.3426 37.4434 59.9243 47.5641 51.7546C56.1875 44.7935 58.6099 32.9997 54.0847 23.4016Z" fill="#1E3C73" stroke="#1E3C73" stroke-width="0.149198" stroke-miterlimit="10"/>
<path d="M32.3938 17.7641C35.729 17.0908 38.1671 15.2289 37.8393 13.6054C37.5116 11.9819 34.5421 11.2116 31.2069 11.8849C27.8717 12.5582 25.4337 14.4201 25.7614 16.0436C26.0892 17.6671 29.0586 18.4374 32.3938 17.7641Z" fill="#1E3C73" stroke="#1E3C73" stroke-width="0.149198" stroke-miterlimit="10"/>
<path d="M31.354 13.0566C28.5013 13.6325 26.3068 15.078 25.9359 16.5C26.6825 17.8054 29.3896 18.3711 32.3947 17.7644C35.2473 17.1885 37.4419 15.7429 37.8127 14.3209C37.0662 13.0155 34.3591 12.4498 31.354 13.0566Z" fill="#2176C2" stroke="#1E3C73" stroke-width="0.149198" stroke-miterlimit="10"/>
<path d="M24.495 29.5015C25.8201 30.5092 27.8615 30.0542 29.0546 28.4852C30.2477 26.9162 30.1406 24.8275 28.8154 23.8198C27.4903 22.8121 25.4488 23.2671 24.2558 24.8361C23.0627 26.4051 23.1698 28.4939 24.495 29.5015Z" fill="#1E3C73" stroke="#1E3C73" stroke-width="0.149198" stroke-miterlimit="10"/>
<path d="M29.0567 28.4834C29.2025 28.2916 29.3285 28.0919 29.4356 27.8876C29.6287 26.7564 29.2826 25.6414 28.4196 24.9851C27.0944 23.9775 25.0529 24.4326 23.86 26.0016C23.7142 26.1933 23.5881 26.3931 23.4809 26.5975C23.2879 27.7287 23.634 28.8437 24.497 29.5C25.8224 30.5074 27.8637 30.0524 29.0567 28.4834Z" fill="#2176C2" stroke="#1E3C73" stroke-width="0.149198" stroke-miterlimit="10"/>
<path d="M41.889 39.7495C43.4921 39.7981 45.1196 39.2973 46.4653 38.211C49.4546 35.798 49.9218 31.4187 47.5088 28.4294C45.0957 25.4401 40.7164 24.9729 37.7271 27.386C34.7378 29.799 34.2707 34.1783 36.6837 37.1676C36.998 37.557 37.3464 37.9026 37.72 38.2055C37.3953 38.3292 37.0841 38.5045 36.7992 38.7345C35.3473 39.9064 35.1203 42.0336 36.2924 43.4855C37.4645 44.9375 39.5916 45.1643 41.0435 43.9924C42.3338 42.9509 42.6556 41.1555 41.889 39.7495Z" fill="#1E3C73" stroke="#1E3C73" stroke-width="0.149198" stroke-miterlimit="10"/>
<path d="M41.9327 39.9391C43.3972 39.9834 44.8839 39.5261 46.1132 38.5337C48.8438 36.3295 49.2706 32.3289 47.0664 29.5983C44.8621 26.8676 40.8615 26.4409 38.1309 28.6451C35.4002 30.8493 34.9735 34.8499 37.1777 37.5806C37.4648 37.9363 37.783 38.252 38.1244 38.5289C37.8278 38.6417 37.5435 38.802 37.2832 39.0121C35.957 40.0826 35.7496 42.0258 36.8203 43.3521C37.891 44.6785 39.834 44.8858 41.1604 43.8151C42.3392 42.8635 42.6332 41.2234 41.9327 39.9391Z" fill="#2176C2" stroke="#1E3C73" stroke-width="0.149198" stroke-miterlimit="10"/>
<path opacity="0.29" d="M36.8198 43.352C37.8905 44.6784 39.8335 44.8856 41.1599 43.815C42.3386 42.8635 42.6326 41.2234 41.9322 39.9392C43.3967 39.9835 44.8834 39.5262 46.1127 38.5338C47.5953 37.337 48.3971 35.6105 48.469 33.8454C48.2472 34.0384 48.0224 34.2289 47.7918 34.415C44.5445 37.0363 40.8125 38.652 36.9715 39.3056C35.9335 40.411 35.8403 42.1386 36.8198 43.352Z" fill="#2176C2"/>
<path d="M29.5224 43.85C28.9558 44.6811 27.6878 44.8034 26.6902 44.1233C25.6925 43.4433 25.3432 42.2181 25.9097 41.3871C26.4764 40.556 27.7443 40.4337 28.742 41.1138C29.7396 41.7939 30.0891 43.0189 29.5224 43.85Z" fill="#2176C2" stroke="#1E3C73" stroke-width="0.149198" stroke-miterlimit="10"/>
<path d="M16.3494 31.2963C15.7374 33.7929 14.2661 35.5776 13.0632 35.2826C11.8603 34.9877 11.3812 32.7248 11.9931 30.2285C12.6051 27.7319 14.0764 25.9472 15.2794 26.2422C16.4822 26.5371 16.9613 28.7999 16.3494 31.2963Z" fill="#1E3C73" stroke="#1E3C73" stroke-width="0.149198" stroke-miterlimit="10"/>
<path d="M15.0185 27.128C13.96 26.8685 12.6941 28.2195 11.9882 30.2485C11.3838 32.737 11.8633 34.9885 13.063 35.2826C14.1215 35.5421 15.3875 34.1911 16.0933 32.1622C16.6976 29.6737 16.2183 27.4221 15.0185 27.128Z" fill="#2176C2" stroke="#1E3C73" stroke-width="0.149198" stroke-miterlimit="10"/>
<path opacity="0.29" d="M12.916 28.3912C12.5594 28.8984 12.2383 29.5296 11.9882 30.2485C11.3837 32.737 11.8632 34.9885 13.063 35.2827C14.0802 35.5321 15.2874 34.2922 16.0066 32.3947C15.5458 31.9135 15.1005 31.4101 14.6744 30.8822C14.0266 30.0798 13.4414 29.2474 12.916 28.3912Z" fill="#2176C2"/>
<path d="M34.3318 54.7412C35.4954 54.625 36.3889 54.0313 36.3273 53.4151C36.2658 52.7989 35.2726 52.3936 34.1089 52.5098C32.9453 52.626 32.0518 53.2197 32.1134 53.8359C32.1749 54.4521 33.1681 54.8574 34.3318 54.7412Z" fill="#1E3C73" stroke="#2176C2" stroke-width="0.149198" stroke-miterlimit="10"/>
<path opacity="0.29" d="M34.3318 54.7412C35.4954 54.625 36.3889 54.0313 36.3273 53.4151C36.2658 52.7989 35.2726 52.3936 34.1089 52.5098C32.9453 52.626 32.0518 53.2197 32.1134 53.8359C32.1749 54.4521 33.1681 54.8574 34.3318 54.7412Z" fill="#1E3C73" stroke="#2176C2" stroke-width="0.149198" stroke-miterlimit="10"/>
<path d="M34.2805 54.316C35.3167 54.2126 36.1368 53.7301 36.2607 53.1906C36.0122 52.7028 35.1257 52.406 34.1088 52.5077C33.0726 52.6111 32.2525 53.0936 32.1286 53.6331C32.377 54.1207 33.2636 54.4174 34.2805 54.316Z" fill="#1E3C73" stroke="#2176C2" stroke-width="0.149198" stroke-miterlimit="10"/>
<path d="M52.797 44.4774C51.9149 45.7357 50.808 46.4809 50.3245 46.142C49.8412 45.8032 50.1644 44.5085 51.0466 43.2502C51.9287 41.9919 53.0355 41.2467 53.519 41.5856C54.0023 41.9244 53.6792 43.2191 52.797 44.4774Z" fill="#1E3C73" stroke="#2176C2" stroke-width="0.149198" stroke-miterlimit="10"/>
<path d="M53.3799 43.4781C53.3798 43.2131 53.3078 43.0116 53.1557 42.9049C52.6724 42.566 51.5655 43.3114 50.6833 44.5696C50.4469 44.9067 50.2522 45.2458 50.1009 45.5691C50.101 45.834 50.173 46.0355 50.325 46.1421C50.8083 46.481 51.9152 45.7357 52.7974 44.4774C53.0338 44.1403 53.2285 43.8012 53.3799 43.4781Z" fill="#2176C2" stroke="#1E3C73" stroke-width="0.149198" stroke-miterlimit="10"/>
<path d="M53.3799 43.4781C53.3798 43.2131 53.3078 43.0116 53.1557 42.9049C52.6724 42.566 51.5655 43.3114 50.6833 44.5696C50.4469 44.9067 50.2522 45.2458 50.1009 45.5691C50.101 45.834 50.173 46.0355 50.325 46.1421C50.8083 46.481 51.9152 45.7357 52.7974 44.4774C53.0338 44.1403 53.2285 43.8012 53.3799 43.4781Z" fill="#1E3C73" stroke="#2176C2" stroke-width="0.149198" stroke-miterlimit="10"/>
<path d="M52.2177 25.235C51.3748 25.8483 49.6864 24.9641 48.4466 23.26C47.2068 21.5559 46.8849 19.6774 47.7278 19.0641C48.5707 18.4508 50.2592 19.335 51.499 21.0391C52.7389 22.7431 53.0606 24.6217 52.2177 25.235Z" fill="#1E3C73" stroke="#1E3C73" stroke-width="0.149198" stroke-miterlimit="10"/>
<path d="M52.0529 25.3315C52.1239 24.4655 51.7062 23.2418 50.8727 22.0965C49.7094 20.4976 48.1513 19.6206 47.2671 20.0248C47.1961 20.8907 47.6138 22.1145 48.4473 23.2598C49.6105 24.8587 51.1686 25.7358 52.0529 25.3315Z" fill="#2176C2" stroke="#1E3C73" stroke-width="0.149198" stroke-miterlimit="10"/>
<path d="M16.4386 45.5851C17.5743 46.992 19.206 47.5586 20.0831 46.8505C20.9603 46.1425 20.7506 44.428 19.6149 43.0211C18.4793 41.6142 16.8475 41.0476 15.9704 41.7556C15.0933 42.4637 15.3029 44.1782 16.4386 45.5851Z" fill="#1E3C73" stroke="#2176C2" stroke-width="0.149198" stroke-miterlimit="10"/>
<path opacity="0.29" d="M16.4386 45.5851C17.5743 46.992 19.206 47.5586 20.0831 46.8505C20.9603 46.1425 20.7506 44.428 19.6149 43.0211C18.4793 41.6142 16.8475 41.0476 15.9704 41.7556C15.0933 42.4637 15.3029 44.1782 16.4386 45.5851Z" fill="#1E3C73" stroke="#2176C2" stroke-width="0.149198" stroke-miterlimit="10"/>
<path d="M20.5089 45.9823C20.5398 45.9573 20.569 45.931 20.5971 45.9036C20.7315 45.0758 20.3878 43.9776 19.6159 43.0213C18.4802 41.6144 16.8485 41.0479 15.9714 41.7559C15.9405 41.7808 15.9114 41.8072 15.8832 41.8345C15.749 42.6623 16.0925 43.7606 16.8644 44.7168C18.0001 46.1238 19.6319 46.6903 20.5089 45.9823Z" fill="#1E3C73" stroke="#2176C2" stroke-width="0.149198" stroke-miterlimit="10"/>
</g>
<defs>
<clipPath id="clip0_19232_642">
<rect width="66" height="66" fill="white"/>
</clipPath>
</defs>
</svg>
