<svg width="164" height="164" viewBox="0 0 164 164" fill="none" xmlns="http://www.w3.org/2000/svg">
<g clip-path="url(#clip0_19232_640)">
<path d="M17.0596 64.757C7.49636 100.447 28.6767 137.133 64.3672 146.696C100.058 156.259 136.743 135.079 146.306 99.3886C155.87 63.6981 134.689 27.0127 98.9987 17.4494C63.3082 7.88619 26.6228 29.0665 17.0596 64.757Z" fill="#9E25EF" stroke="#7216C1" stroke-width="0.423845" stroke-miterlimit="10"/>
<path d="M140.367 114.221C139.551 115.712 138.683 117.165 137.765 118.576C127.184 121.174 115.819 121.222 104.553 118.203C68.8625 108.64 47.6822 71.9545 57.2454 36.264C59.1197 29.269 62.0401 22.8342 65.7862 17.0761C42.8499 22.7076 23.603 40.3332 17.0586 64.7573C7.49536 100.448 28.6757 137.133 64.3662 146.696C94.7767 154.844 125.905 140.67 140.367 114.221Z" fill="#7216C1" stroke="#7216C1" stroke-width="0.423845" stroke-miterlimit="10"/>
<path d="M117.012 54.991C124.139 61.5209 132.493 64.0022 135.672 60.5331C138.85 57.064 135.65 48.9581 128.523 42.4282C121.396 35.8983 113.042 33.417 109.864 36.8861C106.685 40.3553 109.886 48.4611 117.012 54.991Z" fill="#7216C1" stroke="#7216C1" stroke-width="0.423845" stroke-miterlimit="10"/>
<path d="M126.08 44.7273C119.984 39.1422 112.994 36.5231 109.109 38.0513C107.361 41.9495 110.592 49.1107 117.014 54.9942C123.109 60.5793 130.1 63.1984 133.985 61.6703C135.733 57.7721 132.501 50.6108 126.08 44.7273Z" fill="#9E25EF" stroke="#7216C1" stroke-width="0.423845" stroke-miterlimit="10"/>
<path d="M76.8492 56.4981C76.7534 61.2264 81.214 65.1515 86.8123 65.2649C92.4106 65.3784 97.0265 61.6373 97.1224 56.9089C97.2182 52.1806 92.7576 48.2556 87.1593 48.1421C81.5611 48.0286 76.9451 51.7697 76.8492 56.4981Z" fill="#7216C1" stroke="#7216C1" stroke-width="0.423845" stroke-miterlimit="10"/>
<path d="M86.8206 65.2675C87.5049 65.2815 88.1743 65.2366 88.8227 65.1405C91.7426 63.6907 93.7231 61.0304 93.7855 57.951C93.8813 53.2228 89.4204 49.2977 83.8223 49.1847C83.138 49.1708 82.4687 49.2156 81.8198 49.3117C78.9 50.7614 76.9195 53.4217 76.857 56.5011C76.762 61.2295 81.2225 65.1545 86.8206 65.2675Z" fill="#9E25EF" stroke="#7216C1" stroke-width="0.423845" stroke-miterlimit="10"/>
<path d="M82.429 113.578C84.9999 117.34 88.8728 120.238 93.6186 121.51C104.16 124.334 114.996 118.079 117.82 107.537C120.645 96.9951 114.389 86.1599 103.847 83.3353C93.3057 80.5106 82.4705 86.7663 79.6459 97.308C79.2779 98.6812 79.0675 100.059 78.9972 101.424C78.17 100.885 77.2468 100.464 76.2421 100.195C71.1222 98.8232 65.8591 101.861 64.4871 106.982C63.1151 112.102 66.1539 117.365 71.2739 118.737C75.8239 119.957 80.4841 117.691 82.429 113.578Z" fill="#7216C1" stroke="#7216C1" stroke-width="0.423845" stroke-miterlimit="10"/>
<path d="M82.0668 113.995C84.4156 117.431 87.9532 120.079 92.2884 121.24C101.918 123.821 111.816 118.106 114.396 108.476C116.977 98.8467 111.262 88.9485 101.632 86.3682C92.0028 83.788 82.1045 89.5028 79.5243 99.1323C79.1882 100.387 78.9957 101.645 78.9315 102.892C78.1761 102.4 77.3326 102.016 76.4147 101.77C71.7377 100.517 66.9299 103.292 65.6766 107.97C64.4233 112.647 67.1988 117.454 71.8762 118.708C76.0333 119.822 80.2904 117.752 82.0668 113.995Z" fill="#9E25EF" stroke="#7216C1" stroke-width="0.423845" stroke-miterlimit="10"/>
<path opacity="0.29" d="M65.6773 107.97C64.424 112.647 67.1996 117.455 71.877 118.708C76.0337 119.822 80.2908 117.752 82.067 113.995C84.4158 117.431 87.9535 120.079 92.2886 121.241C97.5171 122.642 102.822 121.593 106.995 118.805C106.181 118.619 105.367 118.421 104.554 118.203C93.1024 115.135 83.1482 109.271 75.2203 101.547C70.9458 101.014 66.8239 103.691 65.6773 107.97Z" fill="#9E25EF"/>
<path d="M52.3231 92.0509C49.467 92.1408 47.0644 89.4347 46.9562 86.0063C46.848 82.578 49.076 79.726 51.9317 79.636C54.7878 79.5461 57.1904 82.2522 57.2986 85.6805C57.4068 89.1089 55.1792 91.9609 52.3231 92.0509Z" fill="#9E25EF" stroke="#7216C1" stroke-width="0.423845" stroke-miterlimit="10"/>
<path d="M59.0975 40.8018C52.3422 43.5745 45.783 43.1833 44.4472 39.9281C43.1113 36.6732 47.5046 31.7866 54.2594 29.0142C61.0147 26.2415 67.5739 26.6326 68.9097 29.8879C70.2455 33.1428 65.8524 38.029 59.0975 40.8018Z" fill="#7216C1" stroke="#7216C1" stroke-width="0.423845" stroke-miterlimit="10"/>
<path d="M66.4401 30.7715C65.2646 27.9071 60.0447 27.2619 54.2058 29.0366C47.4814 31.8132 43.115 36.6815 44.4475 39.928C45.6231 42.792 50.8429 43.4376 56.6818 41.6629C63.4057 38.8862 67.7725 34.018 66.4401 30.7715Z" fill="#9E25EF" stroke="#7216C1" stroke-width="0.423845" stroke-miterlimit="10"/>
<path opacity="0.29" d="M60.0225 28.0588C58.2614 28.0889 56.275 28.408 54.2062 29.0366C47.4818 31.8132 43.1155 36.6815 44.4479 39.928C45.5774 42.6805 50.4439 43.3772 56.0033 41.8532C56.3371 39.99 56.7477 38.1254 57.2465 36.2638C58.0043 33.4339 58.9363 30.6976 60.0225 28.0588Z" fill="#9E25EF"/>
<path d="M35.3674 121.316C37.5814 123.793 40.4394 124.85 41.751 123.678C43.0626 122.506 42.3311 119.547 40.1171 117.07C37.9032 114.594 35.0451 113.536 33.7335 114.708C32.4219 115.881 33.1535 118.839 35.3674 121.316Z" fill="#7216C1" stroke="#9E25EF" stroke-width="0.423845" stroke-miterlimit="10"/>
<path opacity="0.29" d="M35.3674 121.316C37.5814 123.793 40.4394 124.85 41.751 123.678C43.0626 122.506 42.3311 119.547 40.1171 117.07C37.9032 114.594 35.0451 113.536 33.7335 114.708C32.4219 115.881 33.1535 118.839 35.3674 121.316Z" fill="#7216C1" stroke="#9E25EF" stroke-width="0.423845" stroke-miterlimit="10"/>
<path d="M36.2569 120.486C38.2285 122.692 40.7083 123.767 42.1544 123.149C42.8581 121.762 42.056 119.23 40.1212 117.066C38.1496 114.86 35.6698 113.785 34.2237 114.403C33.5201 115.789 34.3226 118.321 36.2569 120.486Z" fill="#7216C1" stroke="#9E25EF" stroke-width="0.423845" stroke-miterlimit="10"/>
<path d="M89.8294 146.532C85.4646 146.612 81.9017 145.318 81.8705 143.641C81.8397 141.965 85.3527 140.54 89.7174 140.46C94.0822 140.379 97.6452 141.673 97.6763 143.35C97.7071 145.027 94.1941 146.452 89.8294 146.532Z" fill="#7216C1" stroke="#9E25EF" stroke-width="0.423845" stroke-miterlimit="10"/>
<path d="M93.0981 146.197C93.7062 145.753 94.0484 145.251 94.0388 144.723C94.008 143.046 90.4447 141.752 86.08 141.833C84.9105 141.854 83.8062 141.975 82.811 142.168C82.2029 142.612 81.8607 143.114 81.8703 143.641C81.9011 145.318 85.4645 146.612 89.8292 146.532C90.9987 146.51 92.1029 146.39 93.0981 146.197Z" fill="#9E25EF" stroke="#7216C1" stroke-width="0.423845" stroke-miterlimit="10"/>
<path d="M93.0981 146.197C93.7062 145.753 94.0484 145.251 94.0388 144.723C94.008 143.046 90.4447 141.752 86.08 141.833C84.9105 141.854 83.8062 141.975 82.811 142.168C82.2029 142.612 81.8607 143.114 81.8703 143.641C81.9011 145.318 85.4645 146.612 89.8292 146.532C90.9987 146.51 92.1029 146.39 93.0981 146.197Z" fill="#7216C1" stroke="#9E25EF" stroke-width="0.423845" stroke-miterlimit="10"/>
<path d="M133.034 113.002C130.216 112.094 129.42 106.738 131.258 101.04C133.095 95.3424 136.869 91.4602 139.688 92.3689C142.506 93.2777 143.301 98.6335 141.464 104.331C139.627 110.029 135.853 113.911 133.034 113.002Z" fill="#7216C1" stroke="#7216C1" stroke-width="0.423845" stroke-miterlimit="10"/>
<path d="M132.536 112.784C134.643 111.498 136.753 108.492 137.988 104.662C139.712 99.3157 139.118 94.271 136.71 92.9177C134.604 94.2036 132.493 97.2104 131.259 101.04C129.534 106.386 130.128 111.431 132.536 112.784Z" fill="#9E25EF" stroke="#7216C1" stroke-width="0.423845" stroke-miterlimit="10"/>
<path d="M26.4463 64.918C25.1169 69.8795 26.5467 74.5734 29.6398 75.4022C32.733 76.231 36.3181 72.8808 37.6476 67.9194C38.977 62.9579 37.5472 58.264 34.4541 57.4352C31.3609 56.6064 27.7757 59.9565 26.4463 64.918Z" fill="#7216C1" stroke="#9E25EF" stroke-width="0.423845" stroke-miterlimit="10"/>
<path opacity="0.29" d="M26.4463 64.918C25.1169 69.8795 26.5467 74.5734 29.6398 75.4022C32.733 76.231 36.3181 72.8808 37.6476 67.9194C38.977 62.9579 37.5472 58.264 34.4541 57.4352C31.3609 56.6064 27.7757 59.9565 26.4463 64.918Z" fill="#7216C1" stroke="#9E25EF" stroke-width="0.423845" stroke-miterlimit="10"/>
<path d="M32.3445 74.9248C32.4534 74.954 32.5627 74.9767 32.6726 74.9956C34.798 73.9187 36.744 71.2922 37.6476 67.92C38.977 62.9584 37.5471 58.2646 34.4541 57.4358C34.3452 57.4066 34.2358 57.3839 34.1259 57.365C32.001 58.442 30.0546 61.0683 29.151 64.4406C27.8216 69.4021 29.2515 74.096 32.3445 74.9248Z" fill="#7216C1" stroke="#9E25EF" stroke-width="0.423845" stroke-miterlimit="10"/>
</g>
<defs>
<clipPath id="clip0_19232_640">
<rect width="164" height="164" fill="white"/>
</clipPath>
</defs>
</svg>
