<svg width="1563" height="961" viewBox="0 0 1563 961" fill="none" xmlns="http://www.w3.org/2000/svg">
<path opacity="0.07" d="M165.438 957.543L1404.61 27.9514L1389.91 12.0822L135.938 891.043L165.438 957.543Z" fill="#FCC3F0"/>
<path d="M1354.56 48.7166L1361.46 43.9731C1362.1 43.669 1362.89 43.8597 1363.32 44.4631C1363.79 45.1397 1363.63 46.0744 1362.96 46.5503L1362.96 46.5546L1353.43 53.3325C1352.75 53.8116 1352.59 54.7505 1353.07 55.4294C1353.55 56.1083 1354.48 56.2711 1355.16 55.7928L1374.23 42.1909C1374.31 42.1325 1374.4 42.0885 1374.49 42.0456L1374.68 41.9093L1374.72 41.9567C1375.46 41.714 1376.3 41.9601 1376.77 42.6314C1377.21 43.2495 1377.2 44.044 1376.83 44.6474L1372.38 47.9548C1371.88 48.4631 1371.8 49.27 1372.22 49.8734C1372.7 50.5523 1373.64 50.7152 1374.32 50.2367L1407.66 26.7964C1412.54 23.3599 1413.71 16.6178 1410.27 11.7395C1406.84 6.8605 1400.09 5.69187 1395.22 9.12849L1361.22 33.0764C1360.54 33.5548 1360.38 34.4929 1360.86 35.1726C1361.3 35.7895 1362.11 35.9744 1362.76 35.6458L1364.58 34.3629C1365.23 33.9042 1366.14 34.0598 1366.6 34.7117C1367.06 35.3641 1366.9 36.2656 1366.25 36.7244L1363.24 38.8416L1352.82 46.2551C1352.14 46.7341 1351.98 47.6723 1352.46 48.3519C1352.94 49.0322 1353.88 49.1943 1354.56 48.7166Z" fill="#E1166F"/>
<path d="M1370.16 37.9257L1375.4 34.3273C1375.89 34.0963 1376.49 34.2417 1376.81 34.6991C1377.17 35.212 1377.05 35.9214 1376.54 36.2827L1376.54 36.2858L1369.31 41.4285C1368.79 41.7916 1368.67 42.5044 1369.03 43.0197C1369.4 43.535 1370.11 43.6578 1370.63 43.2953L1385.09 32.9755C1385.15 32.9317 1385.22 32.8977 1385.29 32.8656L1385.43 32.7626L1385.46 32.7983C1386.02 32.614 1386.66 32.8018 1387.02 33.3106C1387.35 33.7792 1387.35 34.3823 1387.06 34.84L1383.69 37.3497C1383.31 37.7352 1383.25 38.3471 1383.57 38.8051C1383.93 39.3211 1384.64 39.4439 1385.16 39.0808L1405.51 25.0223C1409.21 22.4144 1410.1 17.3001 1407.49 13.5983C1404.88 9.89577 1399.77 9.00952 1396.07 11.6167L1375.22 26.0615C1374.71 26.4246 1374.59 27.1367 1374.95 27.652C1375.28 28.12 1375.89 28.2606 1376.39 28.0108L1377.77 27.0376C1378.27 26.689 1378.95 26.8074 1379.3 27.302C1379.65 27.7967 1379.53 28.4809 1379.04 28.8287L1376.76 30.4349L1368.85 36.0598C1368.33 36.4229 1368.21 37.135 1368.57 37.6509C1368.94 38.1652 1369.65 38.2887 1370.16 37.9257Z" fill="#FCB4E6"/>
</svg>
